<?xml version="1.0" encoding="UTF-8"?>
<svg xmlns="http://www.w3.org/2000/svg" xmlns:xlink="http://www.w3.org/1999/xlink" width="30px" stroke-width="20" height="49px" viewBox="0 0 30 49" version="1.1">
<g id="surface1">
<path style=" stroke:none;fill-rule:nonzero;fill:rgb(0%,0%,0%);fill-opacity:1;" d="M 5.742188 0.644531 C 5.453125 0.972656 4.609375 2.140625 3.875 3.214844 C 3.140625 4.296875 1.960938 5.964844 1.273438 6.910156 C -0.109375 8.78125 -0.351562 9.574219 0.472656 9.441406 C 1.070312 9.351562 2.496094 7.570312 2.339844 7.132812 C 2.25 6.933594 2.316406 6.890625 2.472656 6.976562 C 2.628906 7.085938 2.675781 6.976562 2.605469 6.667969 C 2.496094 6.320312 2.5625 6.230469 2.894531 6.296875 C 3.140625 6.339844 3.320312 6.25 3.320312 6.074219 C 3.320312 5.902344 3.40625 5.722656 3.542969 5.636719 C 3.652344 5.570312 3.652344 5.8125 3.496094 6.210938 C 3.363281 6.601562 3.207031 6.777344 3.097656 6.648438 C 3.007812 6.492188 2.738281 7.351562 2.472656 8.539062 C 0.335938 17.996094 2.273438 29.453125 7.277344 36.972656 C 8.679688 39.085938 11.792969 42.25 14.082031 43.945312 C 16.683594 45.859375 21.019531 47.726562 24.335938 48.410156 C 26.023438 48.738281 29.316406 49.066406 29.675781 48.9375 C 30.074219 48.78125 30.117188 47.992188 29.738281 47.859375 C 29.585938 47.8125 28.496094 47.660156 27.316406 47.550781 C 19.84375 46.757812 13.480469 43.195312 8.992188 37.28125 C 7.589844 35.433594 5.632812 31.585938 4.765625 28.945312 C 4.453125 27.976562 3.917969 25.957031 3.585938 24.4375 C 3.050781 21.886719 3.007812 21.292969 2.984375 16.410156 C 2.984375 9.574219 3.585938 6.140625 5.097656 4.449219 C 5.476562 4.050781 5.765625 3.613281 5.765625 3.523438 C 5.765625 3.414062 5.855469 3.328125 5.964844 3.328125 C 6.054688 3.328125 6.207031 3.789062 6.296875 4.359375 C 6.367188 4.953125 6.589844 6.472656 6.789062 7.769531 C 7.144531 10.011719 7.1875 10.144531 7.679688 10.144531 C 8.054688 10.144531 8.234375 10.296875 8.34375 10.691406 C 8.523438 11.355469 9.324219 11.464844 9.324219 10.824219 C 9.324219 10.582031 9.078125 9.375 8.789062 8.121094 C 8.5 6.890625 8.035156 4.667969 7.765625 3.214844 C 7.5 1.765625 7.234375 0.445312 7.1875 0.292969 C 7.054688 -0.171875 6.296875 0.0078125 5.742188 0.644531 Z M 6.320312 1.722656 L 5.921875 2.335938 L 6.429688 1.898438 L 6.945312 1.457031 L 6.8125 2.007812 C 6.722656 2.316406 6.652344 2.6875 6.652344 2.84375 C 6.652344 2.996094 6.542969 3.0625 6.429688 2.996094 C 6.296875 2.910156 6.277344 2.734375 6.367188 2.601562 C 6.429688 2.445312 6.320312 2.515625 6.074219 2.710938 C 5.722656 3.019531 5.5625 3.042969 5.363281 2.84375 C 5.164062 2.644531 5.097656 2.644531 5.097656 2.84375 C 5.097656 2.996094 4.984375 3.105469 4.832031 3.105469 C 4.675781 3.105469 5.007812 2.667969 5.542969 2.117188 C 6.675781 0.972656 6.875 0.886719 6.320312 1.722656 Z M 6.320312 1.722656 "/>
</g>
</svg>
