<?xml version="1.0" encoding="UTF-8"?>
<svg xmlns="http://www.w3.org/2000/svg" xmlns:xlink="http://www.w3.org/1999/xlink" width="30px" height="30px" viewBox="0 0 30 30" version="1.1">
  <g id="surface1">
    <path style="stroke:#000000;stroke-width:0.4px;fill-rule:nonzero;fill:#ffcb6b;fill-opacity:1;" d="M 14.488281 4.5 C 14.070312 8.488281 13.738281 9.75 12.808594 11.128906 C 11.519531 13.050781 9.238281 13.890625 4.050781 14.339844 L 1.351562 14.578125 L 4.648438 14.910156 C 12.328125 15.75 13.710938 17.128906 14.519531 24.691406 L 14.851562 28.050781 L 15.210938 24.601562 C 15.660156 20.128906 16.441406 17.96875 18.058594 16.800781 C 19.378906 15.839844 21.960938 15.179688 25.800781 14.820312 L 28.351562 14.578125 L 25.5 14.339844 C 20.101562 13.859375 17.699219 12.871094 16.53125 10.558594 C 15.808594 9.121094 15.570312 8.039062 15.179688 4.199219 L 14.851562 1.050781 Z M 14.488281 4.5 "/>
  </g>
</svg>
