<svg xmlns="http://www.w3.org/2000/svg" width="600" opacity="0.3
" height="600" viewBox="0 0 450 450" preserveAspectRatio="xMidYMid meet" xmlns:v="https://vecta.io/nano"><g fill="#fff"><path d="M8.65.65C7.4 1.9 8 5 9.45 5 10.75 5 13 2.15 13 .55c0-.8-3.5-.7-4.35.1zM26.9 4c-13.2 13.85-5.4 36.3 12.6 36.3 15.4 0 23.05-18.3 10.35-24.85-5.15-2.7-15.75 1.65-13.4 5.5.8 1.25 3.55 1.4 3.55.15 0-2.45 6.1-3.4 8.8-1.4 9 6.65-1.95 20.05-13.3 16.3-16.55-5.45-14.3-29.7 3.25-35C41 .3 40.55.15 36.1.1 31.05 0 30.45.25 26.9 4zM51 .95C76.6 8.7 72.6 49.5 46.25 49.5c-8.05 0-10.7 1.6-5.75 3.5 11.15 4.25 25.85-4.3 29.9-17.35C75.65 19 66.65-.15 53.7.1c-4 .05-4.6.25-2.7.85zm52.05 2.6l-3.1 3.6L95.2 5.6c-10.25-3.3-19.65-3.25-19 .1.25 1.2 1.8 1.6 6.8 1.75 8.65.25 15.3 2.35 14.4 4.45-8.6 20.15-1.55 36.8 13.05 30.7 9.75-4.1 8.6-18.75-2.3-28.9L103 8.95l4.15-4.5c4-4.35 4.05-4.45 1.6-4.45-1.65 0-3.65 1.25-5.7 3.55zm3.3 13.4c7.2 8 8.85 15.95 4.2 20.6-7.2 7.2-15.4-2.35-12.65-14.7 2.5-11 3.3-11.6 8.45-5.9z"/><use href="#B"/><path d="M233.65.65C232.4 1.9 233 5 234.45 5c1.3 0 3.55-2.85 3.55-4.45 0-.8-3.5-.7-4.35.1zM251.9 4c-13.2 13.85-5.4 36.3 12.6 36.3 15.4 0 23.05-18.3 10.35-24.85-5.15-2.7-15.75 1.65-13.4 5.5.8 1.25 3.55 1.4 3.55.15 0-2.45 6.1-3.4 8.8-1.4 9 6.65-1.95 20.05-13.3 16.3-16.55-5.45-14.3-29.7 3.25-35 2.25-.7 1.8-.85-2.65-.9-5.05-.1-5.65.15-9.2 3.9zM276 .95c25.6 7.75 21.6 48.55-4.75 48.55-8.05 0-10.7 1.6-5.75 3.5 11.15 4.25 25.85-4.3 29.9-17.35C300.65 19 291.65-.15 278.7.1c-4 .05-4.6.25-2.7.85zm52 2.7l-3.2 3.65-4.65-1.6c-9.75-3.4-19.65-3.4-18.95 0 .25 1.2 1.8 1.6 6.8 1.75 8.65.25 15.3 2.35 14.4 4.45-8.6 20.15-1.55 36.8 13.05 30.7 9.75-4.1 8.6-18.75-2.3-28.9L328 8.95l4.15-4.5c4-4.35 4.05-4.45 1.6-4.45-1.65 0-3.65 1.25-5.75 3.65zm3.35 13.3c7.2 8 8.85 15.95 4.2 20.6-7.2 7.2-15.4-2.35-12.65-14.7 2.5-11 3.3-11.6 8.45-5.9z"/><use href="#B" x="225"/><use href="#C"/><use href="#C" x="225"/><use href="#D"/><use href="#E"/><path d="M0 19.9c0 1.2.95 3.45 2.1 5.05 3.4 4.55 3.6 10.8.5 15.35-3.55 5.15-3.6 8.4-.15 6.15C6.2 44 9.35 36.65 8.7 31.9c-1-7.4-8.7-18-8.7-12zm134.35 15c-4.35 2-6.95 5.25-14.2 17.8-5.4 9.3-8.3 11.65-13.65 10.95l-6.4-.85c-3.65-.45-3.65 1.85 0 3.75 8.9 4.6 16.15.35 25.3-15 11.9-19.9 19.75-19.8 20.85.3 1.2 21.35 12.2 29.9 27.4 21.2 8.2-4.7 19.15-22.2 16.1-25.8-1.45-1.8-2.9-.15-5.15 5.9C180.65 64 172.95 71.1 164.4 71.8c-9.55.8-13.1-4.6-14.35-21.55-1-14.65-6.2-19.7-15.7-15.35zm225 0c-4.35 2-6.95 5.25-14.2 17.8-5.4 9.3-8.3 11.65-13.65 10.95l-6.4-.85c-3.65-.45-3.65 1.85 0 3.75 8.9 4.6 16.15.35 25.3-15 11.9-19.9 19.75-19.8 20.85.3 1.2 21.35 12.2 29.9 27.4 21.2 8.2-4.7 19.15-22.2 16.1-25.8-1.45-1.8-2.9-.15-5.15 5.9C405.65 64 397.95 71.1 389.4 71.8c-9.55.8-13.1-4.6-14.35-21.55-1-14.65-6.2-19.7-15.7-15.35zM86.75 49.4C73.2 54.25 67.2 68.55 74.15 79.7c2 3.3 4.15 4.2 5.35 2.3.35-.55-.3-2.2-1.4-3.6-8.05-10.25 4.75-29.75 16.95-25.9 1.3.45 2.15.1 2.6-1.05 1.3-3.4-4.2-4.4-10.9-2.05z"/><use href="#F"/><path d="M11.55 64.95C9.15 69.65 3.6 75 1.15 75 .5 75 0 76.15 0 77.55c0 2.5 0 2.5 3.25.85 6.8-3.4 14.7-13.5 13.35-17-1-2.55-2.55-1.45-5.05 3.55zm225 0C233.45 71 225.4 77 220.35 77c-.2 0 .55-1.7 1.65-3.75 3.65-6.75 1.95-12.7-3.45-12.1-5.15.6-7.9 6.95-6.2 14.35.75 3.3-1.25 4.9-9.85 7.85-5 1.7-5.45 4.25-.7 3.9 3.45-.3 12.6-4.45 13.7-6.25.35-.55 2.4-1 4.6-1 9.55 0 23.9-12.4 21.5-18.6-1-2.55-2.55-1.45-5.05 3.55zM220 67.8c-.05 3.75-3.6 8.4-4.55 5.95-.35-.95-.35-3 0-4.5 1.45-5.6 4.55-6.6 4.55-1.45zm220.4-6.05c-3 2-4.35 8.15-3 13.8.75 3.45-.4 4.35-9.4 7.4-5.45 1.9-6.25 4.7-1.2 4.3 3.45-.3 12.6-4.45 13.7-6.25.35-.55 2.6-1 5.05-1 3.85 0 4.45-.3 4.45-2.1 0-1.75-.4-2-2.5-1.5l-2.55.65L447 73.3c4.2-7.85-.3-15.75-6.6-11.55zm4.6 6.05c-.05 3.75-3.6 8.4-4.55 5.95-.35-.95-.35-3 0-4.5 1.45-5.6 4.55-6.6 4.55-1.45zM40.75 62.95C36.5 64.3 31 68 31 69.5c0 2.45 1.95 2.7 4.55.6 10.1-7.9 18.4-3.4 11.75 6.4-5.05 7.4-2.5 14.5 5.15 14.5 3.7 0 9.9-3.75 10.35-6.3.45-2.35-2.35-2.2-5.55.3-6.65 5.25-11.35.8-6.7-6.25 7-10.55 1.5-19.4-9.8-15.8zm225 .05c-4.15 1.25-9.75 5-9.75 6.5 0 2.45 1.95 2.7 4.55.6 10.1-7.9 18.4-3.4 11.75 6.4-5.05 7.4-2.5 14.5 5.15 14.5 3.7 0 9.9-3.75 10.35-6.3.45-2.35-2.35-2.2-5.55.3-6.65 5.25-11.35.8-6.7-6.25 7.15-10.85 1.9-19.3-9.8-15.75z"/><use href="#G"/><use href="#G" x="225"/><path d="M8.7 85C5.65 86.9 4 88.65 4 90c0 2.4 2.25 2.65 4.05.45 8.05-9.7 26-2.9 28.4 10.75.7 4.05 2.15 5.6 3.75 4 1.85-1.85-1-10.65-4.95-15.25-7.2-8.35-18-10.4-26.55-4.95z"/><use href="#H"/><use href="#I"/><use href="#I" x="225"/><path d="M63.4 108.25C57.5 115.3 55.95 119 58.8 119c1.05 0 15.2-16.65 15.2-17.9 0-3.05-4.75.2-10.6 7.15z"/><use href="#J"/><use href="#K"/><use href="#K" x="225"/><use href="#L"/><use href="#M"/><use href="#N"/><use href="#N" x="225"/><use href="#O"/><use href="#P"/><use href="#O" x="225"/><use href="#P" x="225"/><use href="#Q"/><use href="#Q" x="225"/><use href="#R"/><use href="#R" x="225"/><path d="M170.7 142.7c-5.15 9-3.3 23.15 3.6 27.35 6.2 3.75 11.4 2 20.65-6.95 11.65-11.25 17.05-9.65 20 5.9 3.35 17.65 15 20 26.15 5.25 9.15-12.1 15.9-12.05 17.85.05 2.65 16.15 13.05 16.75 30.8 1.75 7.75-6.55 9.2-8.5 7.55-10.15-.9-.9-2.8.3-8.1 5.25-15.85 14.65-24.25 15.5-26.25 2.7-2.5-15.65-11.5-16.95-23.55-3.35-11.5 12.95-17.65 12.55-20.4-1.3-3.85-19.4-12.25-22.6-25.85-9.85-3.1 2.9-6.75 6.05-8.1 7-8.35 5.6-15.85-3.6-12.5-15.4.85-3 1.6-6.1 1.75-6.9.2-1.55-2.8-2.7-3.6-1.35zm225 .05c-5.15 9-3.3 23.1 3.6 27.3 6.2 3.75 11.4 2 20.65-6.95 11.65-11.25 17.05-9.65 20 5.9 1.4 7.55 3.95 12.2 7.55 13.8 3.4 1.55 3.45-.9.05-4.9-1.35-1.65-2.9-5.35-3.55-8.65-3.85-19.45-12.25-22.7-25.85-9.9-7.3 6.9-10 8.65-13.2 8.65-7.4 0-10.95-12.7-6.1-21.75 1.7-3.1-1.45-6.5-3.15-3.5zm-373.2 20.1c-1.65 1.05-5.95 5.05-9.55 9-4.6 5.05-7.5 7.3-9.75 7.75S0 180.8 0 182.1c0 5 10.15 0 16.1-7.85 9.15-12.1 15.9-12.05 17.85.05 2.65 16.15 13.05 16.75 30.8 1.75 7.75-6.55 9.2-8.5 7.55-10.15-.9-.9-2.8.3-8.1 5.25-15.85 14.65-24.25 15.5-26.3 2.7-1.85-11.5-7.75-15.75-15.4-11z"/><use href="#S"/><use href="#S" x="225"/><use href="#T"/><use href="#T" x="225"/><use href="#U"/><use href="#U" x="225"/><use href="#V"/><use href="#V" x="225"/><use href="#W"/><use href="#W" x="225"/><use href="#X"/><use href="#X" x="225"/><use href="#Y"/><use href="#Y" x="225"/><path d="M34.45 223.3c-21.2 10.15-17.35 42 5.05 42 15.4 0 23.05-18.3 10.35-24.85-5.15-2.7-15.75 1.65-13.4 5.5.8 1.25 3.55 1.4 3.55.15 0-2.45 6.1-3.4 8.8-1.4 8.8 6.5-1.5 19.8-12.7 16.45-15.45-4.65-15.9-26.1-.65-33.7 20.6-10.25 40.65 14.4 29.45 36.2-4 7.75-9.3 10.85-18.65 10.85-8.05 0-10.7 1.6-5.75 3.5 11.15 4.25 25.85-4.3 29.9-17.35 7.65-24.35-14.7-47.5-35.95-37.35zm225 0c-21.2 10.15-17.35 42 5.05 42 15.4 0 23.05-18.3 10.35-24.85-5.15-2.7-15.75 1.65-13.4 5.5.8 1.25 3.55 1.4 3.55.15 0-2.45 6.1-3.4 8.8-1.4 9 6.65-1.95 20.05-13.3 16.3-14.95-4.95-15-26.1-.05-33.55 20.6-10.25 40.65 14.4 29.45 36.2-4 7.75-9.3 10.85-18.65 10.85-8.05 0-10.7 1.6-5.75 3.5 11.15 4.25 25.85-4.3 29.9-17.35 7.65-24.35-14.7-47.5-35.95-37.35zm-70.05 7.15c-.9 2.35.35 4.75 2.35 4.35 2.35-.45 2.35-5.15 0-5.6-.95-.2-2.05.35-2.35 1.25z"/><use href="#C" x="225" y="225"/><use href="#D" y="225"/><use href="#E" y="225"/><path d="M0 244.9c0 1.2.95 3.45 2.1 5.05 3.4 4.55 3.6 10.8.5 15.35-3.55 5.15-3.6 8.4-.15 6.15 3.75-2.45 6.9-9.8 6.25-14.55-1-7.4-8.7-18-8.7-12zm134.35 15c-4.35 2-6.95 5.25-14.2 17.8-5.4 9.3-8.3 11.65-13.65 10.95l-6.4-.85c-3.65-.45-3.65 1.85 0 3.75 8.9 4.6 16.15.35 25.3-15 11.9-19.9 19.75-19.8 20.85.3 1.2 21.35 12.2 29.9 27.4 21.2 8.2-4.7 19.15-22.2 16.1-25.8-1.45-1.8-2.9-.15-5.15 5.9-3.95 10.85-11.65 17.95-20.2 18.65-9.55.8-13.1-4.6-14.35-21.55-1-14.65-6.2-19.7-15.7-15.35zm225 0c-4.35 2-6.95 5.25-14.2 17.8-5.4 9.3-8.3 11.65-13.65 10.95l-6.4-.85c-3.65-.45-3.65 1.85 0 3.75 8.9 4.6 16.15.35 25.3-15 11.9-19.9 19.75-19.8 20.85.3 1.2 21.35 12.2 29.9 27.4 21.2 8.2-4.7 19.15-22.2 16.1-25.8-1.45-1.8-2.9-.15-5.15 5.9-3.95 10.85-11.65 17.95-20.2 18.65-9.55.8-13.25-4.8-14.35-21.6-.95-14.55-6.2-19.65-15.7-15.3z"/><use href="#F" x="-225" y="225"/><use href="#F" y="225"/><path d="M11.55 289.95C9.15 294.65 3.6 300 1.15 300 .5 300 0 301.15 0 302.55c0 2.5 0 2.5 3.25.85 6.8-3.4 14.7-13.5 13.35-17-1-2.55-2.55-1.45-5.05 3.55zm225 0C233.45 296 225.4 302 220.35 302c-.2 0 .55-1.7 1.65-3.75 3.45-6.4 2.1-12.25-2.8-12.25-5.9.05-8.75 6.15-6.8 14.55.75 3.45-.4 4.35-9.4 7.4-5.45 1.9-6.25 4.7-1.2 4.3 3.45-.3 12.6-4.45 13.7-6.25.35-.55 2.4-1 4.6-1 9.55 0 23.9-12.4 21.5-18.6-1-2.55-2.55-1.45-5.05 3.55zM220 292.8c-.05 3.75-3.6 8.4-4.55 5.95-.35-.95-.35-3 0-4.5 1.45-5.6 4.55-6.6 4.55-1.45zm220.4-6.05c-2.95 2-4.35 8.15-3.05 13.75.75 3.3-1.25 4.9-9.85 7.85-5 1.7-5.45 4.25-.7 3.9 3.45-.3 12.6-4.45 13.7-6.25.35-.55 2.6-1 5.05-1 3.85 0 4.45-.3 4.45-2.1 0-1.75-.4-2-2.5-1.5l-2.55.65 2.05-3.75c4.2-7.85-.3-15.75-6.6-11.55zm4.6 6.05c-.05 3.75-3.6 8.4-4.55 5.95-.35-.95-.35-3 0-4.5 1.45-5.6 4.55-6.6 4.55-1.45zm-407.85-3.25c-5.55 2.8-7.15 4.85-5.35 6.65.75.75 1.85.45 3.7-1 10.15-8 18.5-3.55 11.8 6.3-5.05 7.4-2.5 14.5 5.15 14.5 3.7 0 9.9-3.75 10.35-6.3.45-2.35-2.35-2.2-5.55.3-6.65 5.25-11.35.8-6.7-6.25 8.1-12.25-.05-20.9-13.4-14.2zm228.6-1.6C261.5 289.3 256 293 256 294.5c0 2.45 1.95 2.7 4.55.6 10.1-7.9 18.4-3.4 11.75 6.4-5.05 7.4-2.5 14.5 5.15 14.5 3.7 0 9.9-3.75 10.35-6.3.45-2.35-2.35-2.2-5.55.3-6.65 5.25-11.35.8-6.7-6.25 7-10.55 1.5-19.4-9.8-15.8z"/><use href="#G" y="225"/><use href="#G" x="225" y="225"/><use href="#H" x="-225" y="225"/><use href="#H" y="225"/><use href="#I" y="225"/><use href="#I" x="225" y="225"/><path d="M63.4 333.25C57.5 340.3 55.95 344 58.8 344c1.05 0 15.2-16.65 15.2-17.9 0-3.05-4.75.2-10.6 7.15z"/><use href="#J" y="225"/><use href="#K" y="225"/><use href="#K" x="225" y="225"/><use href="#L" y="225"/><use href="#M" y="225"/><path d="M187.75 331.1c-5.2 1.2-10.8 4.2-13.65 7.3-1.4 1.45-3.55 2.6-4.95 2.6-6.5 0-16.35 8.4-14.8 12.55.9 2.3 2.45 1.7 4.15-1.6 2.9-5.5 11.35-9.35 9.4-4.25-3.15 8.35 6.85 14.95 13.45 8.85 4.4-4.05 3.25-10-2.55-13.55l-3.1-1.85 3.4-2.1c5.25-3.25 13.35-5.25 19.6-4.9 3.8.25 5.75-.05 6.05-.9.95-2.85-8.85-4.1-17-2.15zm-9.95 15.45c3.85 2.75 2.35 8.45-2.3 8.45-4.05 0-5.7-3.9-3.45-8.05 1.25-2.35 2.8-2.45 5.75-.4z"/><use href="#N" x="225" y="225"/><use href="#O" y="225"/><use href="#P" y="225"/><use href="#O" x="225" y="225"/><use href="#P" x="225" y="225"/><use href="#Q" y="225"/><use href="#Q" x="225" y="225"/><use href="#R" y="225"/><use href="#R" x="225" y="225"/><path d="M169.9 369.75c-1.25 3.25-2.8 12.25-2.35 13.7.15.6.55 2.25.85 3.7 2.65 12.15 14.3 12.7 26.25 1.25 12.05-11.55 17.3-10.1 20.3 5.6 3.35 17.65 15 20 26.15 5.25 9.15-12.1 15.9-12.05 17.85.05 2.65 16.15 13.05 16.75 30.8 1.75 7.75-6.55 9.2-8.5 7.55-10.15-.9-.9-2.8.3-8.1 5.25-15.85 14.65-24.25 15.5-26.25 2.7-2.5-15.65-11.5-16.95-23.55-3.35-11.5 12.95-17.65 12.55-20.4-1.3-3.85-19.4-12.25-22.6-25.85-9.85-7.3 6.9-10 8.65-13.2 8.65-7.4 0-10.95-12.7-6.1-21.75.7-1.25.95-2.75.65-3.25-1.15-1.9-3.55-1-4.6 1.75zm225 0c-1.25 3.25-2.8 12.25-2.35 13.7.15.6.55 2.25.85 3.7 2.65 12.1 14.45 12.7 26.15 1.3 11.9-11.65 17.4-10.1 20.4 5.55 1.4 7.55 3.95 12.2 7.55 13.8 3.4 1.55 3.45-.9.05-4.9-1.35-1.65-2.9-5.35-3.55-8.65-3.85-19.45-12.25-22.7-25.85-9.9-7.3 6.9-10 8.65-13.2 8.65-7.4 0-10.95-12.7-6.1-21.75.7-1.25.95-2.75.65-3.25-1.15-1.9-3.55-1-4.6 1.75zm-372.4 18.1c-1.65 1.05-5.95 5.05-9.55 9-4.6 5.05-7.5 7.3-9.75 7.75S0 405.8 0 407.1c0 5 10.15 0 16.1-7.85 9.15-12.1 15.9-12.05 17.85.05 2.65 16.15 13.05 16.75 30.8 1.75 7.75-6.55 9.2-8.5 7.55-10.15-.9-.9-2.8.3-8.1 5.25-15.85 14.65-24.25 15.5-26.3 2.7-1.85-11.5-7.75-15.75-15.4-11z"/><use href="#S" y="225"/><use href="#S" x="225" y="225"/><use href="#Z"/><use href="#Z" x="225"/><use href="#U" y="225"/><use href="#U" x="225" y="225"/><use href="#V" y="225"/><use href="#V" x="225" y="225"/><use href="#W" y="225"/><use href="#W" x="225" y="225"/><use href="#a"/><use href="#a" x="225"/><use href="#b"/><use href="#b" x="225"/><use href="#c"/><use href="#c" x="225"/></g><defs ><path id="B" d="M159.6 1.85c-.95 1.1-3.6 2.1-6.15 2.4-7.9.9-17.45 10-17.45 16.6 0 3.6 2.8 2.4 4.8-2.1 2.3-5.1 5.4-8.1 10.55-10.25 4.75-2 5.05-1.75 3.15 2.8-5.3 12.75 5.65 25.45 16.45 19.05 9.25-5.45 7.65-18.75-2.85-24.05-5.5-2.8-5.65-2.95-4.1-4.8 1.95-2.35-2.25-2-4.4.35zm8 8.25c10.1 6.1 4.75 21.45-6.05 17.3-4.25-1.65-5.65-9.6-2.95-16.4 1.8-4.45 2.9-4.6 9-.9z"/><path id="C" d="M189.4 5.45c-.9 2.35.35 4.75 2.35 4.35 1.1-.2 1.75-1.25 1.75-2.8 0-2.85-3.15-4.05-4.1-1.55z"/><path id="D" d="M207.4 16.4c-12.3 5.4-11.9 25.2.65 31.6 16.4 8.4 32.65-9.75 22.5-25.1-4.45-6.75-15.45-9.85-23.15-6.5zm14.55 4.35c4.6 2.35 7.2 6.15 7.7 11.4 1.55 15.05-20.25 19.3-26.3 5.15-5.2-12.25 6.5-22.7 18.6-16.55z"/><path id="E" d="M432.4 16.4c-12.3 5.4-11.9 25.2.65 31.6 4.2 2.15 11.85 2.65 15 .95 2.55-1.35 2.75-5.55.2-4.3-4 1.9-12.95 1-15.8-1.65-12.55-11.6-1.6-29.1 14.1-22.55 3.35 1.4 3.45 1.4 3.45-.9 0-4.15-10.8-6.1-17.6-3.15z"/><path id="F" d="M311.75 49.4c-13.55 4.85-19.55 19.15-12.6 30.3 2 3.3 4.15 4.2 5.35 2.3.35-.55-.3-2.2-1.4-3.6-8.05-10.25 4.75-29.75 16.95-25.9 1.3.45 2.15.1 2.6-1.05 1.3-3.4-4.2-4.4-10.9-2.05z"/><path id="G" d="M185.05 79.25c-6 20.1-15.95 23.95-25.05 9.75-6.1-9.5-11.35-9.75-20-1-7.7 7.8-9.7 7.65-13.3-1.15-3.6-8.75-7.95-9.8-15.45-3.85-6.85 5.45-10.25 4.9-8.65-1.45.75-3-2.15-4.25-3.6-1.6-4.05 7.6 3.95 13.75 11.1 8.6l5.65-4.15c3.2-2.3 4.8-1.3 7.8 5.1 4.8 10.15 9.8 10.85 18.05 2.35 8.2-8.4 10-8.3 16.4 1.15 10.1 14.85 22.3 10.9 30-9.75 2.5-6.6 2.5-8.25.15-8.25-1.3 0-2.2 1.25-3.1 4.25z"/><path id="H" d="M233.7 85c-3.05 1.9-4.7 3.65-4.7 5 0 2.4 2.25 2.65 4.05.45 7.95-9.6 24.6-3.7 28 9.9 1.3 5.05 2.5 6.5 4.15 4.85 1.85-1.85-1-10.65-4.95-15.25-7.2-8.35-18-10.4-26.55-4.95z"/><path id="I" d="M85.1 94.35c-1.65 2.05-.25 4.8 2.25 4.45 2.45-.35 3.45-3.65 1.5-4.9-1.85-1.2-2.45-1.1-3.75.45z"/><path id="J" d="M288.4 108.25c-5.9 7.05-7.45 10.75-4.6 10.75 1.05 0 15.2-16.65 15.2-17.9 0-3.05-4.75.2-10.6 7.15z"/><path id="K" d="M96 109.6c-17.55 8.9-20.1 10.7-18.25 12.55.75.75 4.95-1.05 14.3-6.15 21.25-11.55 25.8-13 27.95-8.95 1.85 3.45.15 6-12.05 18.45-14.5 14.7-16.25 18.25-11.5 23.05 3.55 3.55 7.4 3.15 20.05-2.15 20.6-8.6 20.7-8.65 23.2-7.5 5.65 2.6 2.65 7.35-12.15 19.55-17.45 14.35-20.55 23.75-9.15 27.5 7.65 2.55 47.15-14 41.65-17.45-.55-.3-3.3.6-6.15 2.05-17.35 8.8-34.85 13.75-36.95 10.45-2.9-4.65.7-9.6 16.15-22.1 12.8-10.35 15.45-15.8 10.5-21.6-3.6-4.15-7.7-3.55-24.1 3.6-14.45 6.3-18.35 7.15-20.5 4.6-2.15-2.6.6-6.8 10.35-15.8 15.2-13.95 18.5-21 12.3-26.35-4.4-3.75-7.35-3.05-25.65 6.25z"/><path id="L" d="M220.6 105.5c-8.1 10.6-14.25 32.35-8.85 31.3 1.3-.25 1.9-1.75 2.45-5.85.95-7.8 4.1-15.55 8.8-21.75 2.25-2.9 3.8-5.75 3.45-6.25-1.1-1.85-3.25-.9-5.85 2.55z"/><path id="M" d="M445.6 105.5c-8.1 10.6-14.25 32.35-8.85 31.3 1.3-.25 1.9-1.65 2.35-5.45.9-7.35 3.4-14.15 7.4-20.25 5.25-7.95 4.5-12.7-.9-5.6z"/><path id="N" d="M187.75 106.1c-5.2 1.2-10.8 4.2-13.65 7.3-1.4 1.45-3.55 2.6-4.95 2.6-6.5 0-16.35 8.4-14.8 12.55.9 2.3 2.45 1.7 4.15-1.6 2.9-5.5 11.35-9.35 9.4-4.25-3.15 8.35 6.85 14.95 13.45 8.85 4.4-4.1 2.45-12.2-3.4-14.05-6.1-1.95 7.25-7.85 18-8 5.6-.05 8.55-.5 8.8-1.3.95-2.8-8.95-4-17-2.1zm-9.95 15.45c3.85 2.75 2.35 8.45-2.3 8.45-4.05 0-5.7-3.9-3.45-8.05 1.25-2.35 2.8-2.45 5.75-.4z"/><path id="O" d="M13.95 115.2c-7 10.8-11.45 33.3-6.6 33.3 1.65 0 1.95-.95 2.2-6.75.35-8.4 3.55-18.2 8.1-24.95 3.25-4.85 3.75-7.8 1.35-7.8-.55 0-2.85 2.8-5.05 6.2z"/><path id="P" d="M141.35 110.6c-1.05 2.7 2.3 5.2 4.3 3.2 2.05-2.05 1.1-4.8-1.65-4.8-1.15 0-2.35.7-2.65 1.6z"/><path id="Q" d="M39.7 117.25c-8.15 10.05-14.55 31.65-10.7 36.2 1.85 2.3 3 .9 3-3.75.05-10.25 5-23.4 11.6-30.7 3.45-3.8 3.75-6 .9-6-.75 0-2.9 1.9-4.8 4.25z"/><path id="R" d="M50.8 132.95c-3.8 3.8-4.65 6.95-2.15 7.75.6.2 2.1-1.2 3.3-3.15 3.5-5.65 11.75-5.35 9.55.35-6.6 17.15 8.5 23.85 19.3 8.6 4.5-6.3 1.2-6.8-4.55-.65-8.35 8.85-13.35 7.2-11.55-3.85 2-12.6-5.45-17.45-13.9-9.05z"/><path id="S" d="M87.4 167.45c-9.05 3.95-8.4 16.4 1.05 19.55 12.2 4 18.9-14.6 7-19.6-4.05-1.7-4.1-1.7-8.05.05zm8 4.65c5.75 4.5.35 13.7-6.35 10.9-4.95-2.05-5.5-9.5-.8-11.75 3.25-1.6 4.15-1.5 7.15.85z"/><path id="T" d="M199.7 178.7c-.25.45-1 4.15-1.6 8.3-2.15 13.95-8.3 22.5-18.5 25.55-6.25 1.85-6.25 1.85-2.6-5 7.55-14.4-1.8-26.85-15-20.05-9.75 5.05-7 24.1 3.9 27.65 3.55 1.15-6.8 12.7-12.45 13.85-8.85 1.85-19.1 12.2-17.15 17.35 1.05 2.7 2.5 1.9 4.5-2.6 2.3-5.1 5.4-8.1 10.55-10.25 4.75-2 5.05-1.75 3.15 2.8-5.3 12.75 5.65 25.45 16.45 19.05 9.25-5.45 7.65-18.75-2.85-24.05-2.4-1.2-4.55-2.4-4.8-2.7-1.7-1.65 8.15-11.6 11.45-11.6 14.45 0 25.1-12.4 27.7-32.1.6-4.3-1.3-8.6-2.75-6.2zm-25.45 13.1c2.8 2.4 2.2 8.55-1.4 15.3l-3.15 5.9-3.1-1.75c-4.05-2.35-7.9-9.75-7.15-13.7 1.4-7.25 9.45-10.4 14.8-5.75zm-6.65 43.3c10.1 6.1 4.75 21.45-6.05 17.3-4.25-1.65-5.65-9.6-2.95-16.4 1.8-4.45 2.9-4.6 9-.9z"/><path id="U" d="M20.55 190.65c-.4 1.15-.05 2.25 1 3 2.25 1.65 4.6.55 4.25-2.05-.4-2.7-4.3-3.4-5.25-.95z"/><path id="V" d="M139.55 195.45c-4.4 15.1-13.3 17.35-22.55 5.7-8.6-10.9-16-10.05-25 2.75-7.95 11.35-12.6 11.4-19.35.4-9.05-14.95-28.4-11.6-27.4 4.7.4 6.65 3.75 7.15 3.75.55 0-13.8 13.2-15.1 21-2.05 6.4 10.65 13.95 11.9 21.2 3.55 1.8-2.1 4.8-5.7 6.65-8 6.25-7.75 9.9-7.4 17.05 1.7 10.75 13.65 27.25 7.3 29.3-11.25.6-5.75-2.85-4.3-4.65 1.95z"/><path id="W" d="M212.2 202.2c-2.15 2.15-1.65 23.05.55 22.6 1.5-.3 1.8-1.75 2.05-11.25.25-10.9-.35-13.6-2.6-11.35z"/><path id="X" d="M15.1 209.25l-4 10.05c-3.5 8.75-3.8 11-1.5 10.5 1.6-.3 10.6-20.65 9.75-22.05-.95-1.55-3.45-.65-4.25 1.5z"/><path id="Y" d="M110.35 221.4c-3.2 2.4-6.75 5.8-7.85 7.5-1.5 2.35-2.5 3.05-4 2.6-13.4-3.75-18.55-4.35-21.35-2.6-3 1.9-.5 3.35 5.9 3.55 8.6.25 15.25 2.35 14.35 4.45-8.6 20.15-1.55 36.8 13.05 30.7 9.75-4.1 8.6-18.75-2.3-28.9l-5.15-4.8 4.5-4.75c2.45-2.65 6.05-5.65 8-6.7 3.45-1.9 4.85-5.45 2.1-5.45-.75 0-4 1.95-7.25 4.4zm-4 20.55c7.2 8 8.85 15.95 4.2 20.6-7.2 7.2-15.4-2.35-12.65-14.7 2.5-11 3.3-11.6 8.45-5.9z"/><path id="Z" d="M199.7 403.7c-.25.45-1 4.15-1.6 8.3-2.15 13.95-8.3 22.5-18.5 25.55-6.25 1.85-6.25 1.85-2.6-5 7.55-14.4-1.8-26.85-15-20.05-9.75 5.05-7 24.1 4 27.7 1.2.35 1 1.1-1.05 3.9-4.2 5.55-4.3 5.9-1.75 5.9 1.55-.05 3.25-1.35 5.1-4 2.4-3.4 3.4-4 6.4-4 14.5 0 25.15-12.35 27.75-32.1.6-4.3-1.3-8.6-2.75-6.2zm-25.45 13.1c2.8 2.4 2.2 8.55-1.4 15.3l-3.15 5.9-3.1-1.75c-4.05-2.35-7.9-9.75-7.15-13.7 1.4-7.25 9.45-10.4 14.8-5.75z"/><path id="a" d="M15.1 434.25l-3.5 8.65c-3.1 7.75-3.1 7.3-.5 6.9 2.05-.3 9.3-15.3 8.25-17.05-.95-1.55-3.45-.65-4.25 1.5z"/><path id="b" d="M111.05 445.75c-4.85 3.4-5.15 3.8-3 4.1 3.25.45 10.95-3.8 10.95-6.1 0-2.65-2.05-2.15-7.95 2z"/><path id="c" d="M36.7 447.4c-6.4 2.35-5.55 2.6 8.4 2.55 12.8-.05 13.25-.1 10.45-1.6-4.05-2.2-14.15-2.7-18.85-.95z"/></defs></svg>
