<svg xmlns="http://www.w3.org/2000/svg" version="1.0" preserveAspectRatio="xMidYMid meet" viewBox="0 -0.1 449.94 338.22">
<metadata>
Created by potrace 1.10, written by Peter Selinger 2001-2011
</metadata>
<g transform="translate(0.000000,338.000000) scale(0.050000,-0.050000)" fill="#2c3e50" opacity="0.5" stroke="none">
<path d="M290 6740 c-16 -27 23 -95 69 -120 52 -27 124 2 180 74 58 73 11 89 -76 25 -60 -45 -103 -40 -103 12 0 33 -51 39 -70 9z"/>
<path d="M4104 6725 c4 -21 42 -47 98 -65 l91 -30 -37 -85 c-48 -110 -34 -133 74 -118 l86 12 -39 -101 c-47 -124 -35 -146 66 -130 l78 13 -42 -83 c-23 -45 -37 -93 -32 -108 12 -32 272 -79 297 -54 28 28 -33 66 -123 78 -93 13 -97 26 -40 118 52 84 38 108 -62 108 -91 0 -89 -5 -47 100 46 114 28 147 -72 130 -93 -16 -98 -2 -30 90 60 81 46 101 -79 115 -50 6 -97 18 -103 28 -21 34 -91 19 -84 -18z"/>
<path d="M5345 6727 c-76 -53 -55 -93 73 -142 174 -67 182 -64 182 65 l0 110 -105 -1 c-61 -1 -124 -14 -150 -32z m175 -45 c0 -57 -2 -58 -60 -36 -72 27 -75 41 -15 70 68 32 75 29 75 -34z"/>
<path d="M1470 6520 c-61 -63 -73 -85 -54 -104 20 -20 42 -7 106 56 66 67 76 85 53 104 -22 18 -44 6 -105 -56z"/>
<path d="M7987 6511 c-78 -78 -72 -122 29 -185 30 -19 57 -36 61 -38 3 -3 -28 -35 -69 -73 -89 -82 -82 -124 21 -144 l72 -13 -71 -83 c-82 -96 -81 -118 7 -143 78 -22 78 -33 3 -89 -33 -24 -60 -57 -60 -73 0 -31 192 -170 235 -170 52 0 22 61 -55 112 -97 65 -97 66 -10 126 91 62 88 96 -11 138 l-81 34 71 69 c91 88 89 114 -9 143 -87 27 -83 55 16 103 79 39 73 65 -25 128 -101 64 -109 84 -51 137 43 39 53 90 18 90 -12 0 -53 -31 -91 -69z"/>
<path d="M3413 6451 c-62 -57 -67 -109 -17 -171 74 -92 244 -20 244 102 0 112 -136 153 -227 69z m159 -54 c19 -30 -65 -98 -103 -84 -16 6 -29 22 -29 35 0 60 102 98 132 49z"/>
<path d="M6614 6467 c-30 -29 -14 -90 21 -83 19 4 35 24 35 45 0 39 -33 62 -56 38z"/>
<path d="M2354 6407 c-34 -34 -14 -90 31 -83 29 4 45 20 45 46 0 39 -49 64 -76 37z"/>
<path d="M865 6283 c-40 -25 -98 -278 -71 -305 27 -27 258 12 279 46 26 43 -168 284 -208 259z m82 -171 c30 -46 29 -49 -20 -61 -65 -16 -72 -9 -56 57 17 65 35 66 76 4z"/>
<path d="M7220 6175 c-48 -78 -49 -93 -9 -151 72 -102 294 4 257 123 -36 119 -183 135 -248 28z m143 -96 c-58 -48 -80 -49 -97 -6 -21 55 71 118 112 77 29 -30 28 -36 -15 -71z"/>
<path d="M8560 6176 c0 -13 24 -49 54 -80 94 -98 148 -55 65 51 -43 54 -119 72 -119 29z"/>
<path d="M5767 6110 c-14 -36 83 -150 127 -150 58 0 2 119 -75 161 -31 16 -42 14 -52 -11z"/>
<path d="M2460 5901 c0 -10 19 -51 42 -90 45 -75 42 -79 -65 -72 -74 5 -87 -29 -38 -107 55 -90 54 -92 -49 -92 -105 0 -115 -28 -50 -135 53 -87 54 -85 -59 -85 -125 0 -132 -14 -69 -128 56 -101 53 -106 -72 -116 -108 -9 -110 -76 -3 -76 169 0 228 55 175 162 -40 81 -41 78 17 78 135 0 178 54 111 140 -54 69 -51 73 42 86 114 15 133 39 81 105 -57 72 -54 89 12 89 111 1 121 27 58 149 -52 100 -133 156 -133 92z"/>
<path d="M6613 5829 c-51 -44 -74 -78 -66 -98 18 -46 37 -39 120 46 105 108 60 151 -54 52z"/>
<path d="M1673 5823 c-36 -40 -42 -75 -15 -92 24 -15 122 65 122 100 0 41 -68 36 -107 -8z"/>
<path d="M5148 5712 c-7 -19 -7 -69 0 -113 7 -43 10 -79 7 -79 -3 0 -41 13 -85 29 -111 38 -133 15 -99 -100 15 -49 24 -89 21 -89 -4 0 -45 13 -92 30 -121 43 -153 -19 -90 -175 13 -33 5 -35 -98 -23 -99 12 -112 9 -112 -22 0 -59 104 -270 133 -270 38 0 34 48 -11 141 -42 86 -35 91 81 56 106 -32 123 -10 86 112 -36 119 -31 124 71 84 127 -51 152 -21 99 118 -28 75 -16 79 81 29 115 -59 136 -35 96 109 -17 61 -26 111 -21 111 5 0 58 -14 119 -32 82 -24 116 -26 133 -9 28 28 -4 52 -108 81 -161 44 -198 46 -211 12z"/>
<path d="M364 5576 c-13 -13 -24 -54 -24 -90 0 -78 1 -78 -102 -25 -106 54 -138 30 -138 -104 0 -91 -3 -97 -39 -78 -53 29 -61 27 -61 -15 0 -39 113 -104 155 -89 16 5 25 48 25 117 0 123 -1 123 101 65 104 -59 139 -41 139 72 0 101 5 104 108 60 133 -55 158 12 27 72 -98 44 -157 49 -191 15z"/>
<path d="M3334 5495 c-149 -200 -147 -235 14 -235 190 0 203 19 122 179 -65 129 -78 134 -136 56z m50 -156 c-72 -15 -76 -10 -34 54 l35 53 26 -48 c24 -45 22 -49 -27 -59z"/>
<path d="M4085 5406 c-42 -15 -30 -86 15 -86 26 0 40 13 40 39 0 44 -19 60 -55 47z"/>
<path d="M6158 5282 c-124 -125 -18 -267 151 -202 112 42 111 186 -2 238 -70 32 -84 29 -149 -36z m151 -69 c16 -26 14 -39 -9 -53 -80 -51 -164 18 -89 73 44 32 68 27 98 -20z"/>
<path d="M7847 5290 c-7 -18 -3 -42 9 -54 30 -30 88 -3 80 39 -9 46 -73 57 -89 15z"/>
<path d="M8871 5301 c-7 -11 -7 -51 0 -89 19 -102 0 -117 -92 -69 -129 67 -189 -32 -116 -192 41 -89 82 -65 66 39 -16 104 -5 108 94 41 92 -62 117 -40 117 105 0 90 5 106 31 96 24 -9 30 -1 25 33 -6 48 -101 76 -125 36z"/>
<path d="M7172 5238 c-28 -22 -52 -53 -52 -68 0 -51 43 -55 91 -9 86 80 51 148 -39 77z"/>
<path d="M1310 5116 c-123 -69 -81 -256 57 -256 125 0 179 161 80 239 -59 47 -80 49 -137 17z m100 -118 c0 -35 -13 -50 -45 -54 -51 -8 -63 50 -21 92 36 36 66 18 66 -38z"/>
<path d="M5440 4890 c-19 -23 -20 -38 -4 -54 30 -30 88 -3 80 37 -9 47 -45 54 -76 17z"/>
<path d="M7780 4626 c0 -8 23 -38 52 -68 70 -73 47 -105 -63 -89 -115 17 -124 -7 -52 -139 l59 -109 -100 -13 c-122 -17 -133 -41 -67 -146 65 -103 65 -102 -27 -102 -152 0 -174 -34 -100 -154 50 -80 53 -75 -62 -98 -119 -24 -127 -80 -10 -73 171 10 220 60 160 165 -41 72 -39 74 62 85 131 15 143 35 81 146 -29 52 -53 96 -53 99 0 3 37 10 83 16 127 17 147 49 87 139 -66 97 -63 115 18 115 149 0 171 54 70 169 -54 62 -138 97 -138 57z"/>
<path d="M389 4518 c-77 -111 -54 -148 93 -148 131 0 145 30 67 149 -68 101 -89 101 -160 -1z"/>
<path d="M2721 4527 c-120 -153 43 -306 181 -169 68 69 73 118 17 178 -57 62 -145 58 -198 -9z m155 -72 c9 -48 -91 -95 -116 -54 -12 18 -7 41 15 64 39 44 92 38 101 -10z"/>
<path d="M4187 4529 c-7 -19 10 -55 44 -90 103 -107 153 -55 57 59 -58 69 -84 77 -101 31z"/>
<path d="M6013 4469 c-51 -44 -74 -78 -66 -98 18 -46 37 -39 120 46 105 108 60 151 -54 52z"/>
<path d="M3620 4440 c0 -27 13 -40 40 -40 27 0 40 13 40 40 0 27 -13 40 -40 40 -27 0 -40 -13 -40 -40z"/>
<path d="M8382 4318 c-100 -149 -89 -178 67 -178 167 0 186 27 118 170 -74 154 -87 155 -185 8z m138 -82 c0 -9 -22 -16 -50 -16 -57 0 -59 5 -25 61 25 39 75 10 75 -45z"/>
<path d="M6914 4407 c-34 -34 -14 -90 31 -83 29 4 45 20 45 46 0 39 -49 64 -76 37z"/>
<path d="M4961 4247 c-113 -159 -105 -187 56 -187 177 1 196 36 113 201 -63 124 -70 124 -169 -14z m125 -67 c9 -33 1 -40 -48 -40 -58 0 -59 1 -26 50 36 55 58 52 74 -10z"/>
<path d="M1888 4192 c-15 -40 3 -66 72 -102 72 -37 100 -5 47 53 -58 64 -106 84 -119 49z"/>
<path d="M1167 4089 c-7 -18 -3 -41 9 -53 31 -31 84 -4 84 43 0 50 -75 57 -93 10z"/>
<path d="M3890 3900 c-7 -11 10 -70 38 -130 58 -127 106 -142 193 -59 l52 50 24 -78 c38 -127 72 -141 152 -64 l67 65 23 -71 c37 -113 68 -125 137 -51 l60 64 13 -62 c25 -112 58 -116 160 -23 88 82 116 139 67 139 -13 0 -49 -25 -81 -55 -62 -59 -94 -43 -95 49 0 71 -39 74 -108 8 -82 -80 -85 -79 -101 28 -16 106 -38 111 -132 31 -90 -78 -94 -77 -110 29 -17 110 -50 116 -143 26 -73 -71 -89 -65 -125 49 -23 72 -65 97 -91 55z"/>
<path d="M253 3794 c-40 -38 -73 -80 -73 -93 0 -28 114 -141 143 -141 10 0 -13 -28 -52 -62 -87 -76 -93 -132 -16 -149 115 -25 115 -27 36 -108 -84 -86 -85 -141 -3 -141 75 0 80 -33 14 -82 -96 -70 -91 -90 41 -180 92 -63 126 -77 144 -59 23 24 -31 85 -122 140 -31 19 -27 28 44 89 89 77 80 118 -31 142 l-59 14 71 79 c85 94 82 121 -17 146 -94 23 -92 39 12 104 l84 53 -57 42 c-150 110 -144 98 -91 169 72 98 24 124 -68 37z"/>
<path d="M3028 3783 c-159 -115 -157 -125 38 -203 146 -58 160 -46 142 127 -16 157 -49 171 -180 76z m112 -93 c0 -57 1 -57 -74 -29 -54 21 -55 23 -17 50 58 43 91 35 91 -21z"/>
<path d="M6454 3639 c-136 -107 -30 -290 122 -211 97 50 124 147 57 205 -68 58 -112 59 -179 6z m137 -61 c8 -12 -5 -41 -28 -64 -55 -55 -132 -3 -84 55 30 36 92 41 112 9z"/>
<path d="M5567 3568 c-18 -46 104 -165 136 -133 18 18 10 40 -31 94 -59 78 -87 88 -105 39z"/>
<path d="M8269 3491 c-57 -57 -62 -104 -18 -167 64 -91 249 -22 249 94 0 118 -141 162 -231 73z m158 -81 c-13 -33 -78 -58 -107 -40 -31 19 -24 66 14 87 45 25 109 -7 93 -47z"/>
<path d="M1325 3481 c-49 -41 -60 -101 -18 -101 38 0 120 93 104 119 -18 29 -34 26 -86 -18z"/>
<path d="M2029 3430 c-24 -160 -3 -197 104 -183 l92 13 -14 -91 c-18 -119 7 -152 95 -127 121 34 130 29 127 -87 -3 -116 -6 -114 150 -84 l74 14 -19 -85 c-31 -139 21 -172 161 -100 90 46 114 75 85 104 -15 15 -43 7 -94 -24 -91 -56 -99 -48 -59 70 40 118 24 138 -93 111 -144 -33 -143 -33 -128 77 16 118 2 131 -120 100 -114 -29 -117 -25 -88 92 28 111 8 136 -90 108 -113 -33 -118 -28 -104 82 12 91 10 100 -26 100 -32 0 -42 -18 -53 -90z"/>
<path d="M7540 2945 c-68 -153 -52 -196 69 -189 188 13 208 50 100 191 -89 117 -117 117 -169 -2z m121 -57 c22 -26 22 -34 -2 -49 -64 -40 -93 -19 -67 49 16 40 36 40 69 0z"/>
<path d="M3364 2934 c-112 -115 -66 -162 52 -52 63 59 74 98 32 112 -11 4 -49 -23 -84 -60z"/>
<path d="M5740 2843 c-180 -113 -178 -132 19 -211 156 -64 166 -56 146 119 -18 164 -36 174 -165 92z m100 -113 c0 -45 -4 -46 -60 -27 -72 25 -76 44 -15 71 57 27 75 16 75 -44z"/>
<path d="M4102 2768 c-75 -62 -78 -113 -13 -179 83 -82 231 -11 231 112 0 114 -119 151 -218 67z m137 -47 c25 -16 24 -25 -8 -60 -44 -48 -88 -53 -104 -11 -24 62 52 109 112 71z"/>
<path d="M4981 2711 c-71 -73 -76 -151 -6 -114 64 35 130 120 118 152 -17 46 -38 39 -112 -38z"/>
<path d="M6770 2769 c-11 -4 -72 -20 -135 -38 -73 -21 -115 -43 -115 -62 0 -34 43 -37 139 -9 86 24 88 22 51 -66 -54 -130 -47 -140 93 -124 l124 15 -55 -93 c-68 -117 -56 -139 70 -122 113 16 121 1 48 -86 -86 -102 -57 -131 100 -102 120 22 120 23 71 -91 -48 -110 -51 -151 -14 -151 28 0 133 210 133 266 0 46 -37 62 -134 57 l-87 -5 41 66 c74 121 52 163 -71 136 -99 -23 -100 -20 -50 79 56 108 40 128 -92 117 -119 -10 -119 -10 -77 91 42 101 29 141 -40 122z"/>
<path d="M900 2504 c-90 -73 -33 -224 83 -224 31 0 75 18 97 40 118 118 -49 290 -180 184z m130 -94 c0 -44 -62 -66 -95 -33 -15 15 -13 31 5 53 35 42 90 30 90 -20z"/>
<path d="M7959 2489 c-18 -22 -19 -37 -3 -53 31 -31 84 -4 84 43 0 48 -44 54 -81 10z"/>
<path d="M8834 2466 c-33 -54 -37 -286 -5 -298 59 -23 160 19 168 69 5 41 1 44 -34 25 -73 -39 -84 -27 -78 91 5 103 -22 161 -51 113z"/>
<path d="M1893 2447 c-7 -8 -13 -30 -13 -50 0 -42 71 -52 85 -12 20 55 -33 100 -72 62z"/>
<path d="M55 2309 c-32 -18 -55 -47 -55 -70 0 -34 6 -37 39 -20 36 20 37 15 27 -89 -13 -124 5 -136 114 -80 l58 30 6 -115 c7 -133 41 -155 131 -85 l55 44 13 -104 c18 -145 33 -154 171 -98 128 51 166 74 166 100 0 28 -88 21 -167 -12 -39 -16 -76 -30 -81 -30 -5 0 -15 50 -23 110 -16 133 -35 148 -110 92 -79 -58 -79 -57 -79 77 0 140 -12 152 -97 100 -86 -52 -85 -53 -79 64 7 114 -9 129 -89 86z"/>
<path d="M2901 2101 c-12 -21 -21 -62 -21 -92 0 -43 -7 -50 -35 -39 -115 48 -142 55 -172 44 -24 -9 -33 -38 -33 -111 l0 -98 -86 31 c-128 46 -155 28 -140 -95 13 -115 13 -115 -96 -60 -124 63 -184 -37 -115 -190 41 -89 82 -65 66 39 -16 105 -7 108 94 38 97 -67 117 -51 117 95 0 132 6 135 146 64 77 -40 94 -21 94 104 0 125 2 126 110 60 99 -59 130 -40 130 81 0 100 -3 98 93 58 91 -38 127 -38 127 1 0 73 -245 135 -279 70z"/>
<path d="M4848 1871 c-14 -36 6 -71 41 -71 30 0 57 54 40 82 -18 28 -69 21 -81 -11z"/>
<path d="M8191 1821 c-74 -82 -15 -221 92 -221 49 0 137 87 137 135 0 112 -153 170 -229 86z m145 -89 c-8 -54 -86 -68 -105 -19 -8 23 -1 45 20 60 45 33 92 11 85 -41z"/>
<path d="M4033 1763 c-38 -42 -42 -75 -12 -94 26 -16 119 66 119 104 0 39 -69 33 -107 -10z"/>
<path d="M5751 1742 c-8 -24 -8 -69 -1 -101 l13 -58 -115 11 -114 12 12 -58 c7 -32 19 -80 27 -106 12 -43 9 -47 -25 -32 -21 9 -69 18 -108 19 -74 1 -78 -8 -51 -112 14 -53 13 -53 -65 -43 -43 6 -84 2 -91 -10 -19 -30 24 -229 52 -247 44 -27 61 17 40 102 -23 90 -9 100 85 58 72 -33 94 -4 68 90 -26 96 -19 103 72 64 99 -41 116 -26 100 91 -15 109 9 125 110 69 71 -40 100 -9 78 85 -30 129 -29 131 81 116 99 -13 147 10 106 51 -47 47 -260 46 -274 -1z"/>
<path d="M1480 1711 c0 -33 93 -111 133 -111 45 0 31 54 -26 99 -61 48 -107 53 -107 12z"/>
<path d="M7531 1618 c-76 -67 -92 -118 -37 -118 47 0 165 119 152 152 -15 41 -37 35 -115 -34z"/>
<path d="M3127 1409 c-7 -18 -3 -41 9 -53 31 -31 84 -4 84 43 0 50 -75 57 -93 10z"/>
<path d="M6643 1274 c-126 -135 57 -296 188 -165 27 27 49 71 49 97 0 109 -155 154 -237 68z m157 -62 c0 -35 -43 -72 -84 -72 -46 0 -48 71 -2 97 40 22 86 9 86 -25z"/>
<path d="M1233 1251 c-13 -34 36 -80 66 -62 12 8 21 31 21 52 0 46 -70 54 -87 10z"/>
<path d="M3653 1019 c-98 -77 -50 -219 74 -219 32 0 76 21 104 49 128 128 -34 283 -178 170z m147 -65 c0 -37 -42 -74 -84 -74 -35 0 -51 59 -23 87 24 24 107 14 107 -13z"/>
<path d="M551 1015 c-4 -14 -23 -73 -41 -131 -48 -151 -34 -172 99 -157 202 24 206 34 89 198 -78 111 -131 143 -147 90z m118 -197 c-13 -20 -109 -35 -109 -17 0 9 10 42 21 72 l22 57 37 -50 c20 -27 33 -55 29 -62z"/>
<path d="M8280 1000 c-17 -32 -15 -43 9 -53 41 -15 92 28 78 64 -16 42 -62 35 -87 -11z"/>
<path d="M4606 987 c-12 -32 17 -64 99 -109 66 -36 68 40 3 93 -69 57 -85 59 -102 16z"/>
<path d="M2180 930 c-51 -52 -62 -76 -45 -93 27 -27 185 88 185 135 0 51 -71 29 -140 -42z"/>
<path d="M7290 740 c-32 -52 63 -260 118 -260 16 0 57 23 90 52 57 47 63 49 74 15 50 -158 91 -181 166 -90 62 76 82 79 82 15 0 -26 17 -69 38 -95 l39 -47 60 57 60 58 31 -73 c16 -39 42 -72 57 -72 38 0 175 145 175 186 0 49 -25 42 -90 -26 -74 -78 -84 -76 -100 20 -19 110 -41 115 -120 29 -67 -73 -68 -74 -78 -27 -39 190 -32 186 -148 87 l-83 -71 -10 51 c-6 28 -16 74 -21 101 -14 66 -50 63 -120 -10 -76 -79 -99 -76 -137 18 -34 86 -63 114 -83 82z"/>
<path d="M2567 649 c-21 -54 76 -249 124 -249 14 0 53 23 85 50 69 58 84 61 84 19 0 -130 88 -175 171 -88 l58 60 20 -73 c31 -108 78 -130 131 -62 55 69 72 68 87 -6 20 -99 66 -97 169 7 73 72 88 97 68 117 -19 19 -38 10 -90 -40 -64 -62 -94 -66 -94 -12 0 14 -9 50 -21 80 l-20 54 -71 -68 c-77 -74 -107 -62 -108 46 0 83 -34 86 -129 8 -94 -77 -110 -68 -111 64 0 73 -55 76 -127 7 -85 -82 -106 -79 -135 16 -25 84 -72 120 -91 70z"/>
<path d="M6186 508 c-17 -44 105 -165 136 -134 16 16 10 38 -23 83 -55 74 -96 93 -113 51z"/>
<path d="M1441 422 c-30 -57 28 -102 73 -56 27 26 28 37 7 63 -34 41 -55 39 -80 -7z"/>
<path d="M4141 98 c-52 -86 -52 -102 2 -94 51 7 94 107 61 140 -15 15 -34 1 -63 -46z"/>
<path d="M331 76 c-56 -80 -14 -105 77 -46 41 28 49 28 72 0 36 -43 102 -40 87 5 -33 93 -181 118 -236 41z"/>
<path d="M5450 40 l-60 -40 107 0 c90 0 105 5 95 32 -7 17 -12 35 -12 40 0 22 -77 3 -130 -32z"/>
</g>
</svg>
