<?xml version="1.0" standalone="no"?>
<!DOCTYPE svg PUBLIC "-//W3C//DTD SVG 20010904//EN"
 "http://www.w3.org/TR/2001/REC-SVG-20010904/DTD/svg10.dtd">
<svg version="1.0" xmlns="http://www.w3.org/2000/svg"
 width="450.000000pt" height="450.000000pt" viewBox="0 0 450.000000 450.000000"
 preserveAspectRatio="xMidYMid meet">
<metadata>
Created by potrace 1.10, written by Peter Selinger 2001-2011
</metadata>
<g transform="translate(0.000000,450.000000) scale(0.050000,-0.050000)"
fill="#ffffff" stroke="none">
<path d="M173 8987 c-25 -25 -13 -87 16 -87 26 0 71 57 71 89 0 16 -70 14 -87
-2z"/>
<path d="M538 8920 c-264 -277 -108 -726 252 -726 308 0 461 366 207 497 -103
54 -315 -33 -268 -110 16 -25 71 -28 71 -3 0 49 122 68 176 28 180 -133 -39
-401 -266 -326 -331 109 -286 594 65 700 45 14 36 17 -53 18 -101 2 -113 -3
-184 -78z"/>
<path d="M1020 8981 c512 -155 432 -971 -95 -971 -161 0 -214 -32 -115 -70
223 -85 517 86 598 347 105 333 -75 716 -334 711 -80 -1 -92 -5 -54 -17z"/>
<path d="M2061 8929 l-62 -72 -95 31 c-205 66 -393 65 -380 -2 5 -24 36 -32
136 -35 173 -5 306 -47 288 -89 -172 -403 -31 -736 261 -614 195 82 172 375
-46 578 l-103 95 83 90 c80 87 81 89 32 89 -33 0 -73 -25 -114 -71z m66 -268
c144 -160 177 -319 84 -412 -144 -144 -308 47 -253 294 50 220 66 232 169 118z"/>
<path d="M3192 8963 c-19 -22 -72 -42 -123 -48 -158 -18 -349 -200 -349 -332
0 -72 56 -48 96 42 46 102 108 162 211 205 95 40 101 35 63 -56 -106 -255 113
-509 329 -381 185 109 153 375 -57 481 -110 56 -113 59 -82 96 39 47 -45 40
-88 -7z m160 -165 c202 -122 95 -429 -121 -346 -85 33 -113 192 -59 328 36 89
58 92 180 18z"/>
<path d="M4673 8987 c-25 -25 -13 -87 16 -87 26 0 71 57 71 89 0 16 -70 14
-87 -2z"/>
<path d="M5038 8920 c-264 -277 -108 -726 252 -726 308 0 461 366 207 497
-103 54 -315 -33 -268 -110 16 -25 71 -28 71 -3 0 49 122 68 176 28 180 -133
-39 -401 -266 -326 -331 109 -286 594 65 700 45 14 36 17 -53 18 -101 2 -113
-3 -184 -78z"/>
<path d="M5520 8981 c512 -155 432 -971 -95 -971 -161 0 -214 -32 -115 -70
223 -85 517 86 598 347 105 333 -75 716 -334 711 -80 -1 -92 -5 -54 -17z"/>
<path d="M6560 8927 l-64 -73 -93 32 c-195 68 -393 68 -379 0 5 -24 36 -32
136 -35 173 -5 306 -47 288 -89 -172 -403 -31 -736 261 -614 195 82 172 375
-46 578 l-103 95 83 90 c80 87 81 89 32 89 -33 0 -73 -25 -115 -73z m67 -266
c144 -160 177 -319 84 -412 -144 -144 -308 47 -253 294 50 220 66 232 169 118z"/>
<path d="M7692 8963 c-19 -22 -72 -42 -123 -48 -158 -18 -349 -200 -349 -332
0 -72 56 -48 96 42 46 102 108 162 211 205 95 40 101 35 63 -56 -106 -255 113
-509 329 -381 185 109 153 375 -57 481 -110 56 -113 59 -82 96 39 47 -45 40
-88 -7z m160 -165 c202 -122 95 -429 -121 -346 -85 33 -113 192 -59 328 36 89
58 92 180 18z"/>
<path d="M3788 8891 c-18 -47 7 -95 47 -87 22 4 35 25 35 56 0 57 -63 81 -82
31z"/>
<path d="M8288 8891 c-18 -47 7 -95 47 -87 22 4 35 25 35 56 0 57 -63 81 -82
31z"/>
<path d="M4148 8672 c-246 -108 -238 -504 13 -632 328 -168 653 195 450 502
-89 135 -309 197 -463 130z m291 -87 c92 -47 144 -123 154 -228 31 -301 -405
-386 -526 -103 -104 245 130 454 372 331z"/>
<path d="M8648 8672 c-246 -108 -238 -504 13 -632 84 -43 237 -53 300 -19 51
27 55 111 4 86 -80 -38 -259 -20 -316 33 -251 232 -32 582 282 451 67 -28 69
-28 69 18 0 83 -216 122 -352 63z"/>
<path d="M0 8602 c0 -24 19 -69 42 -101 68 -91 72 -216 10 -307 -71 -103 -72
-168 -3 -123 75 49 138 196 125 291 -20 148 -174 360 -174 240z"/>
<path d="M2687 8302 c-87 -40 -139 -105 -284 -356 -108 -186 -166 -233 -273
-219 -44 6 -102 13 -128 17 -73 9 -73 -37 0 -75 178 -92 323 -7 506 300 238
398 395 396 417 -6 24 -427 244 -598 548 -424 164 94 383 444 322 516 -29 36
-58 3 -103 -118 -79 -217 -233 -359 -404 -373 -191 -16 -262 92 -287 431 -20
293 -124 394 -314 307z"/>
<path d="M7187 8302 c-87 -40 -139 -105 -284 -356 -108 -186 -166 -233 -273
-219 -44 6 -102 13 -128 17 -73 9 -73 -37 0 -75 178 -92 323 -7 506 300 238
398 395 396 417 -6 24 -427 244 -598 548 -424 164 94 383 444 322 516 -29 36
-58 3 -103 -118 -79 -217 -233 -359 -404 -373 -191 -16 -262 92 -287 431 -20
293 -124 394 -314 307z"/>
<path d="M1735 8012 c-271 -97 -391 -383 -252 -606 40 -66 83 -84 107 -46 7
11 -6 44 -28 72 -161 205 95 595 339 518 26 -9 43 -2 52 21 26 68 -84 88 -218
41z"/>
<path d="M6235 8012 c-271 -97 -391 -383 -252 -606 40 -66 83 -84 107 -46 7
11 -6 44 -28 72 -161 205 95 595 339 518 26 -9 43 -2 52 21 26 68 -84 88 -218
41z"/>
<path d="M231 7701 c-48 -94 -159 -201 -208 -201 -13 0 -23 -23 -23 -51 0 -50
0 -50 65 -17 136 68 294 270 267 340 -20 51 -51 29 -101 -71z"/>
<path d="M4731 7701 c-62 -121 -223 -241 -324 -241 -4 0 11 34 33 75 73 135
39 254 -69 242 -103 -12 -158 -139 -124 -287 15 -66 -25 -98 -197 -157 -100
-34 -109 -85 -14 -78 69 6 252 89 274 125 7 11 48 20 92 20 191 0 478 248 430
372 -20 51 -51 29 -101 -71z m-331 -57 c-1 -75 -72 -168 -91 -119 -7 19 -7 60
0 90 29 112 91 132 91 29z"/>
<path d="M8808 7765 c-60 -40 -87 -163 -60 -276 15 -69 -8 -87 -188 -148 -109
-38 -125 -94 -24 -86 69 6 252 89 274 125 7 11 52 20 101 20 77 0 89 6 89 42
0 35 -8 40 -50 30 l-51 -13 41 75 c84 157 -6 315 -132 231z m92 -121 c-1 -75
-72 -168 -91 -119 -7 19 -7 60 0 90 29 112 91 132 91 29z"/>
<path d="M815 7741 c-85 -27 -195 -101 -195 -131 0 -49 39 -54 91 -12 202 158
368 68 235 -128 -101 -148 -50 -290 103 -290 74 0 198 75 207 126 9 47 -47 44
-111 -6 -133 -105 -227 -16 -134 125 140 211 30 388 -196 316z"/>
<path d="M5315 7740 c-83 -25 -195 -100 -195 -130 0 -49 39 -54 91 -12 202
158 368 68 235 -128 -101 -148 -50 -290 103 -290 74 0 198 75 207 126 9 47
-47 44 -111 -6 -133 -105 -227 -16 -134 125 143 217 38 386 -196 315z"/>
<path d="M3701 7415 c-120 -402 -319 -479 -501 -195 -122 190 -227 195 -400
20 -154 -156 -194 -153 -266 23 -72 175 -159 196 -309 77 -137 -109 -205 -98
-173 29 15 60 -43 85 -72 32 -81 -152 79 -275 222 -172 37 27 88 64 113 83 64
46 96 26 156 -102 96 -203 196 -217 361 -47 164 168 200 166 328 -23 202 -297
446 -218 600 195 50 132 50 165 3 165 -26 0 -44 -25 -62 -85z"/>
<path d="M8201 7415 c-120 -402 -319 -479 -501 -195 -122 190 -227 195 -400
20 -154 -156 -194 -153 -266 23 -72 175 -159 196 -309 77 -137 -109 -205 -98
-173 29 15 60 -43 85 -72 32 -81 -152 79 -275 222 -172 37 27 88 64 113 83 64
46 96 26 156 -102 96 -203 196 -217 361 -47 164 168 200 166 328 -23 202 -297
446 -218 600 195 50 132 50 165 3 165 -26 0 -44 -25 -62 -85z"/>
<path d="M174 7300 c-61 -38 -94 -73 -94 -100 0 -48 45 -53 81 -9 161 194 520
58 568 -215 14 -81 43 -112 75 -80 37 37 -20 213 -99 305 -144 167 -360 208
-531 99z"/>
<path d="M4674 7300 c-61 -38 -94 -73 -94 -100 0 -48 45 -53 81 -9 159 192
492 74 560 -198 26 -101 50 -130 83 -97 37 37 -20 213 -99 305 -144 167 -360
208 -531 99z"/>
<path d="M1702 7113 c-33 -41 -5 -96 45 -89 49 7 69 73 30 98 -37 24 -49 22
-75 -9z"/>
<path d="M6202 7113 c-33 -41 -5 -96 45 -89 49 7 69 73 30 98 -37 24 -49 22
-75 -9z"/>
<path d="M1268 6835 c-118 -141 -149 -215 -92 -215 21 0 304 333 304 358 0 61
-95 -4 -212 -143z"/>
<path d="M5768 6835 c-118 -141 -149 -215 -92 -215 21 0 304 333 304 358 0 61
-95 -4 -212 -143z"/>
<path d="M1920 6808 c-351 -178 -402 -214 -365 -251 15 -15 99 21 286 123 425
231 516 260 559 179 37 -69 3 -120 -241 -369 -290 -294 -325 -365 -230 -461
71 -71 148 -63 401 43 412 172 414 173 464 150 113 -52 53 -147 -243 -391
-349 -287 -411 -475 -183 -550 153 -51 943 280 833 349 -11 6 -66 -12 -123
-41 -347 -176 -697 -275 -739 -209 -58 93 14 192 323 442 256 207 309 316 210
432 -72 83 -154 71 -482 -72 -289 -126 -367 -143 -410 -92 -43 52 12 136 207
316 304 279 370 420 246 527 -88 75 -147 61 -513 -125z"/>
<path d="M6420 6808 c-351 -178 -402 -214 -365 -251 15 -15 99 21 286 123 425
231 516 260 559 179 37 -69 3 -120 -241 -369 -290 -294 -325 -365 -230 -461
71 -71 148 -63 401 43 412 172 414 173 464 150 113 -52 53 -147 -243 -391
-349 -287 -411 -475 -183 -550 153 -51 943 280 833 349 -11 6 -66 -12 -123
-41 -347 -176 -697 -275 -739 -209 -58 93 14 192 323 442 256 207 309 316 210
432 -72 83 -154 71 -482 -72 -289 -126 -367 -143 -410 -92 -43 52 12 136 207
316 304 279 370 420 246 527 -88 75 -147 61 -513 -125z"/>
<path d="M4412 6890 c-162 -212 -285 -647 -177 -626 26 5 38 35 49 117 19 156
82 311 176 435 45 58 76 115 69 125 -22 37 -65 18 -117 -51z"/>
<path d="M8912 6890 c-162 -212 -285 -647 -177 -626 26 5 38 33 47 109 18 147
68 283 148 405 105 159 90 254 -18 112z"/>
<path d="M3755 6878 c-104 -24 -216 -84 -273 -146 -28 -29 -71 -52 -99 -52
-130 0 -327 -168 -296 -251 18 -46 49 -34 83 32 58 110 227 187 188 85 -63
-167 137 -299 269 -177 88 82 49 244 -68 281 -122 39 145 157 360 160 112 1
171 10 176 26 19 56 -179 80 -340 42z m-199 -309 c77 -55 47 -169 -46 -169
-81 0 -114 78 -69 161 25 47 56 49 115 8z"/>
<path d="M8255 6878 c-104 -24 -216 -84 -273 -146 -28 -29 -71 -52 -99 -52
-130 0 -327 -168 -296 -251 18 -46 49 -34 83 32 58 110 227 187 188 85 -63
-167 137 -299 269 -177 88 82 49 244 -68 281 -122 39 145 157 360 160 112 1
171 10 176 26 19 56 -179 80 -340 42z m-199 -309 c77 -55 47 -169 -46 -169
-81 0 -114 78 -69 161 25 47 56 49 115 8z"/>
<path d="M279 6696 c-140 -216 -229 -666 -132 -666 33 0 39 19 44 135 7 168
71 364 162 499 65 97 75 156 27 156 -11 0 -57 -56 -101 -124z"/>
<path d="M2827 6788 c-21 -54 46 -104 86 -64 41 41 22 96 -33 96 -23 0 -47
-14 -53 -32z"/>
<path d="M4779 6696 c-140 -216 -229 -666 -132 -666 33 0 39 19 44 135 7 168
71 364 162 499 65 97 75 156 27 156 -11 0 -57 -56 -101 -124z"/>
<path d="M7327 6788 c-21 -54 46 -104 86 -64 41 41 22 96 -33 96 -23 0 -47
-14 -53 -32z"/>
<path d="M794 6655 c-163 -201 -291 -633 -214 -724 37 -46 60 -18 60 75 1 205
100 468 232 614 69 76 75 120 18 120 -15 0 -58 -38 -96 -85z"/>
<path d="M5294 6655 c-163 -201 -291 -633 -214 -724 37 -46 60 -18 60 75 1
205 100 468 232 614 69 76 75 120 18 120 -15 0 -58 -38 -96 -85z"/>
<path d="M1016 6341 c-76 -76 -93 -139 -43 -155 12 -4 42 24 66 63 70 113 235
107 191 -7 -132 -343 170 -477 386 -172 90 126 24 136 -91 13 -167 -177 -267
-144 -231 77 40 252 -109 349 -278 181z"/>
<path d="M5516 6341 c-76 -76 -93 -139 -43 -155 12 -4 42 24 66 63 70 113 235
107 191 -7 -132 -343 170 -477 386 -172 90 126 24 136 -91 13 -167 -177 -267
-144 -231 77 40 252 -109 349 -278 181z"/>
<path d="M3414 6146 c-103 -180 -66 -463 72 -547 124 -75 228 -40 413 139 233
225 341 193 400 -118 67 -353 300 -400 523 -105 183 242 318 241 357 -1 53
-323 261 -335 616 -35 155 131 184 170 151 203 -18 18 -56 -6 -162 -105 -317
-293 -485 -310 -525 -54 -50 313 -230 339 -471 67 -230 -259 -353 -251 -408
26 -77 388 -245 452 -517 197 -62 -58 -135 -121 -162 -140 -167 -112 -317 72
-250 308 17 60 32 122 35 138 4 31 -56 54 -72 27z"/>
<path d="M7914 6145 c-103 -180 -66 -462 72 -546 124 -75 228 -40 413 139 233
225 341 193 400 -118 28 -151 79 -244 151 -276 68 -31 69 18 1 98 -27 33 -58
107 -71 173 -77 389 -245 454 -517 198 -146 -138 -200 -173 -264 -173 -148 0
-219 254 -122 435 34 62 -29 130 -63 70z"/>
<path d="M450 5743 c-33 -21 -119 -101 -191 -180 -92 -101 -150 -146 -195
-155 -45 -9 -64 -24 -64 -50 0 -100 203 0 322 157 183 242 318 241 357 -1 53
-323 261 -335 616 -35 155 131 184 170 151 203 -18 18 -56 -6 -162 -105 -317
-293 -485 -310 -526 -54 -37 230 -155 315 -308 220z"/>
<path d="M1748 5651 c-181 -79 -168 -328 21 -391 244 -80 378 292 140 392 -81
34 -82 34 -161 -1z m160 -93 c115 -90 7 -274 -127 -218 -99 41 -110 190 -16
235 65 32 83 30 143 -17z"/>
<path d="M6248 5651 c-181 -79 -168 -328 21 -391 244 -80 378 292 140 392 -81
34 -82 34 -161 -1z m160 -93 c115 -90 7 -274 -127 -218 -99 41 -110 190 -16
235 65 32 83 30 143 -17z"/>
<path d="M3994 5426 c-5 -9 -20 -83 -32 -166 -43 -279 -166 -450 -370 -511
-125 -37 -125 -37 -52 100 151 288 -36 537 -300 401 -195 -101 -140 -482 78
-553 71 -23 -136 -254 -249 -277 -177 -37 -382 -244 -343 -347 21 -54 50 -38
90 52 46 102 108 162 211 205 95 40 101 35 63 -56 -106 -255 113 -509 329
-381 185 109 153 375 -57 481 -48 24 -91 48 -96 54 -34 33 163 232 229 232
289 0 502 248 554 642 12 86 -26 172 -55 124z m-509 -262 c56 -48 44 -171 -28
-306 l-63 -118 -62 35 c-81 47 -158 195 -143 274 28 145 189 208 296 115z
m-133 -866 c202 -122 95 -429 -121 -346 -85 33 -113 192 -59 328 36 89 58 92
180 18z"/>
<path d="M8494 5426 c-5 -9 -20 -83 -32 -166 -43 -279 -166 -450 -370 -511
-125 -37 -125 -37 -52 100 151 288 -36 537 -300 401 -195 -101 -140 -482 78
-553 71 -23 -136 -254 -249 -277 -177 -37 -382 -244 -343 -347 21 -54 50 -38
90 52 46 102 108 162 211 205 95 40 101 35 63 -56 -106 -255 113 -509 329
-381 185 109 153 375 -57 481 -48 24 -91 48 -96 54 -34 33 163 232 229 232
289 0 502 248 554 642 12 86 -26 172 -55 124z m-509 -262 c56 -48 44 -171 -28
-306 l-63 -118 -62 35 c-81 47 -158 195 -143 274 28 145 189 208 296 115z
m-133 -866 c202 -122 95 -429 -121 -346 -85 33 -113 192 -59 328 36 89 58 92
180 18z"/>
<path d="M411 5187 c-8 -23 -1 -45 20 -60 45 -33 92 -11 85 41 -8 54 -86 68
-105 19z"/>
<path d="M4911 5187 c-8 -23 -1 -45 20 -60 45 -33 92 -11 85 41 -8 54 -86 68
-105 19z"/>
<path d="M2791 5091 c-88 -302 -266 -347 -451 -114 -172 218 -320 201 -500
-55 -159 -227 -252 -228 -387 -8 -181 299 -568 232 -548 -94 8 -133 75 -143
75 -11 0 276 264 302 420 41 128 -213 279 -238 424 -71 36 42 96 114 133 160
125 155 198 148 341 -34 215 -273 545 -146 586 225 12 115 -57 86 -93 -39z"/>
<path d="M7291 5091 c-88 -302 -266 -347 -451 -114 -172 218 -320 201 -500
-55 -159 -227 -252 -228 -387 -8 -181 299 -568 232 -548 -94 8 -133 75 -143
75 -11 0 276 264 302 420 41 128 -213 279 -238 424 -71 36 42 96 114 133 160
125 155 198 148 341 -34 215 -273 545 -146 586 225 12 115 -57 86 -93 -39z"/>
<path d="M4244 4956 c-43 -43 -33 -461 11 -452 30 6 36 35 41 225 5 218 -7
272 -52 227z"/>
<path d="M8744 4956 c-43 -43 -33 -461 11 -452 30 6 36 35 41 225 5 218 -7
272 -52 227z"/>
<path d="M302 4815 c-10 -25 -46 -115 -80 -201 -70 -175 -76 -220 -30 -210 32
6 212 413 195 441 -19 31 -69 13 -85 -30z"/>
<path d="M4802 4815 c-10 -25 -46 -115 -80 -201 -70 -175 -76 -220 -30 -210
32 6 212 413 195 441 -19 31 -69 13 -85 -30z"/>
<path d="M2207 4572 c-64 -48 -135 -116 -157 -150 -30 -47 -50 -61 -80 -52
-268 75 -371 87 -427 52 -60 -38 -10 -67 118 -71 172 -5 305 -47 287 -89 -172
-403 -31 -736 261 -614 195 82 172 375 -46 578 l-103 96 90 95 c49 53 121 113
160 134 69 38 97 109 42 109 -15 0 -80 -39 -145 -88z m-80 -411 c144 -160 177
-319 84 -412 -144 -144 -308 47 -253 294 50 220 66 232 169 118z"/>
<path d="M6707 4572 c-64 -48 -135 -116 -157 -150 -30 -47 -50 -61 -80 -52
-268 75 -371 87 -427 52 -60 -38 -10 -67 118 -71 172 -5 305 -47 287 -89 -172
-403 -31 -736 261 -614 195 82 172 375 -46 578 l-103 96 90 95 c49 53 121 113
160 134 69 38 97 109 42 109 -15 0 -80 -39 -145 -88z m-80 -411 c144 -160 177
-319 84 -412 -144 -144 -308 47 -253 294 50 220 66 232 169 118z"/>
<path d="M689 4534 c-424 -203 -347 -840 101 -840 308 0 461 366 207 497 -103
54 -315 -33 -268 -110 16 -25 71 -28 71 -3 0 49 122 68 176 28 176 -130 -30
-396 -254 -329 -309 93 -318 522 -13 674 412 205 813 -288 589 -724 -80 -155
-186 -217 -373 -217 -161 0 -214 -32 -115 -70 223 -85 517 86 598 347 153 487
-294 950 -719 747z"/>
<path d="M5189 4534 c-424 -203 -347 -840 101 -840 308 0 461 366 207 497
-103 54 -315 -33 -268 -110 16 -25 71 -28 71 -3 0 49 122 68 176 28 180 -133
-39 -401 -266 -326 -299 99 -300 522 -1 671 412 205 813 -288 589 -724 -80
-155 -186 -217 -373 -217 -161 0 -214 -32 -115 -70 223 -85 517 86 598 347
153 487 -294 950 -719 747z"/>
<path d="M3788 4391 c-18 -47 7 -95 47 -87 47 9 47 103 0 112 -19 4 -41 -7
-47 -25z"/>
<path d="M8288 4391 c-18 -47 7 -95 47 -87 22 4 35 25 35 56 0 57 -63 81 -82
31z"/>
<path d="M4148 4172 c-246 -108 -238 -504 13 -632 328 -168 653 195 450 502
-89 135 -309 197 -463 130z m291 -87 c92 -47 144 -123 154 -228 31 -301 -405
-386 -526 -103 -104 245 130 454 372 331z"/>
<path d="M8648 4172 c-246 -108 -238 -504 13 -632 84 -43 237 -53 300 -19 51
27 55 111 4 86 -80 -38 -259 -20 -316 33 -251 232 -32 582 282 451 67 -28 69
-28 69 18 0 83 -216 122 -352 63z"/>
<path d="M0 4102 c0 -24 19 -69 42 -101 68 -91 72 -216 10 -307 -71 -103 -72
-168 -3 -123 75 49 138 196 125 291 -20 148 -174 360 -174 240z"/>
<path d="M2687 3802 c-87 -40 -139 -105 -284 -356 -108 -186 -166 -233 -273
-219 -44 6 -102 13 -128 17 -73 9 -73 -37 0 -75 178 -92 323 -7 506 300 238
398 395 396 417 -6 24 -427 244 -598 548 -424 164 94 383 444 322 516 -29 36
-58 3 -103 -118 -79 -217 -233 -359 -404 -373 -191 -16 -262 92 -287 431 -20
293 -124 394 -314 307z"/>
<path d="M7187 3802 c-87 -40 -139 -105 -284 -356 -108 -186 -166 -233 -273
-219 -44 6 -102 13 -128 17 -73 9 -73 -37 0 -75 178 -92 323 -7 506 300 238
398 395 396 417 -6 24 -427 244 -598 548 -424 164 94 383 444 322 516 -29 36
-58 3 -103 -118 -79 -217 -233 -359 -404 -373 -191 -16 -265 96 -287 432 -19
291 -124 393 -314 306z"/>
<path d="M1735 3512 c-271 -97 -391 -383 -252 -606 40 -66 83 -84 107 -46 7
11 -6 44 -28 72 -161 205 95 595 339 518 26 -9 43 -2 52 21 26 68 -84 88 -218
41z"/>
<path d="M6235 3512 c-271 -97 -391 -383 -252 -606 40 -66 83 -84 107 -46 7
11 -6 44 -28 72 -161 205 95 595 339 518 26 -9 43 -2 52 21 26 68 -84 88 -218
41z"/>
<path d="M231 3201 c-48 -94 -159 -201 -208 -201 -13 0 -23 -23 -23 -51 0 -50
0 -50 65 -17 136 68 294 270 267 340 -20 51 -51 29 -101 -71z"/>
<path d="M4731 3201 c-62 -121 -223 -241 -324 -241 -4 0 11 34 33 75 69 128
42 245 -56 245 -118 -1 -175 -123 -136 -291 15 -69 -8 -87 -188 -148 -109 -38
-125 -94 -24 -86 69 6 252 89 274 125 7 11 48 20 92 20 191 0 478 248 430 372
-20 51 -51 29 -101 -71z m-331 -57 c-1 -75 -72 -168 -91 -119 -7 19 -7 60 0
90 29 112 91 132 91 29z"/>
<path d="M8808 3265 c-59 -40 -87 -163 -61 -275 15 -66 -25 -98 -197 -157
-100 -34 -109 -85 -14 -78 69 6 252 89 274 125 7 11 52 20 101 20 77 0 89 6
89 42 0 35 -8 40 -50 30 l-51 -13 41 75 c84 157 -6 315 -132 231z m92 -121
c-1 -75 -72 -168 -91 -119 -7 19 -7 60 0 90 29 112 91 132 91 29z"/>
<path d="M743 3209 c-111 -56 -143 -97 -107 -133 15 -15 37 -9 74 20 203 160
370 71 236 -126 -101 -148 -50 -290 103 -290 74 0 198 75 207 126 9 47 -47 44
-111 -6 -133 -105 -227 -16 -134 125 162 245 -1 418 -268 284z"/>
<path d="M5315 3241 c-85 -27 -195 -101 -195 -131 0 -49 39 -54 91 -12 202
158 368 68 235 -128 -101 -148 -50 -290 103 -290 74 0 198 75 207 126 9 47
-47 44 -111 -6 -133 -105 -227 -16 -134 125 140 211 30 388 -196 316z"/>
<path d="M3701 2915 c-120 -402 -319 -479 -501 -195 -122 190 -227 195 -400
20 -154 -156 -194 -153 -266 23 -72 175 -159 196 -309 77 -137 -109 -205 -98
-173 29 15 60 -43 85 -72 32 -81 -152 79 -275 222 -172 37 27 88 64 113 83 64
46 96 26 156 -102 96 -203 196 -217 361 -47 164 168 200 166 328 -23 202 -297
446 -218 600 195 50 132 50 165 3 165 -26 0 -44 -25 -62 -85z"/>
<path d="M8201 2915 c-120 -402 -319 -479 -501 -195 -122 190 -227 195 -400
20 -154 -156 -194 -153 -266 23 -72 175 -159 196 -309 77 -137 -109 -205 -98
-173 29 15 60 -43 85 -72 32 -81 -152 79 -275 222 -172 37 27 88 64 113 83 64
46 96 26 156 -102 96 -203 196 -217 361 -47 164 168 200 166 328 -23 202 -297
446 -218 600 195 50 132 50 165 3 165 -26 0 -44 -25 -62 -85z"/>
<path d="M174 2800 c-61 -38 -94 -73 -94 -100 0 -48 45 -53 81 -9 159 192 492
74 560 -198 26 -101 50 -130 83 -97 37 37 -20 213 -99 305 -144 167 -360 208
-531 99z"/>
<path d="M4674 2800 c-61 -38 -94 -73 -94 -100 0 -48 45 -53 81 -9 159 192
492 74 560 -198 26 -101 50 -130 83 -97 37 37 -20 213 -99 305 -144 167 -360
208 -531 99z"/>
<path d="M1702 2613 c-33 -41 -5 -96 45 -89 49 7 69 73 30 98 -37 24 -49 22
-75 -9z"/>
<path d="M6202 2613 c-33 -41 -5 -96 45 -89 49 7 69 73 30 98 -37 24 -49 22
-75 -9z"/>
<path d="M1268 2335 c-118 -141 -149 -215 -92 -215 21 0 304 333 304 358 0 61
-95 -4 -212 -143z"/>
<path d="M5768 2335 c-118 -141 -149 -215 -92 -215 21 0 304 333 304 358 0 61
-95 -4 -212 -143z"/>
<path d="M1920 2308 c-351 -178 -402 -214 -365 -251 15 -15 99 21 286 123 425
231 516 260 559 179 37 -69 3 -120 -241 -369 -290 -294 -325 -365 -230 -461
71 -71 148 -63 401 43 412 172 414 173 464 150 113 -52 53 -147 -243 -391
-349 -287 -411 -475 -183 -550 153 -51 943 280 833 349 -11 6 -66 -12 -123
-41 -347 -176 -697 -275 -739 -209 -58 93 14 192 323 442 256 207 309 316 210
432 -72 83 -154 71 -482 -72 -289 -126 -367 -143 -410 -92 -43 52 12 136 207
316 304 279 370 420 246 527 -88 75 -147 61 -513 -125z"/>
<path d="M6420 2308 c-351 -178 -402 -214 -365 -251 15 -15 99 21 286 123 425
231 516 260 559 179 37 -69 3 -120 -241 -369 -290 -294 -325 -365 -230 -461
71 -71 148 -63 401 43 412 172 414 173 464 150 113 -52 53 -147 -243 -391
-349 -287 -411 -475 -183 -550 153 -51 943 280 833 349 -11 6 -66 -12 -123
-41 -347 -176 -697 -275 -739 -209 -58 93 14 192 323 442 256 207 309 316 210
432 -72 83 -154 71 -482 -72 -289 -126 -367 -143 -410 -92 -43 52 12 136 207
316 304 279 370 420 246 527 -88 75 -147 61 -513 -125z"/>
<path d="M4412 2390 c-162 -212 -285 -647 -177 -626 26 5 38 35 49 117 19 156
82 311 176 435 45 58 76 115 69 125 -22 37 -65 18 -117 -51z"/>
<path d="M8912 2390 c-162 -212 -285 -647 -177 -626 26 5 38 33 47 109 18 147
68 283 148 405 105 159 90 254 -18 112z"/>
<path d="M3755 2378 c-104 -24 -216 -84 -273 -146 -28 -29 -71 -52 -99 -52
-130 0 -327 -168 -296 -251 18 -46 49 -34 83 32 58 110 227 187 188 85 -63
-167 137 -299 269 -177 88 81 65 200 -51 271 l-62 37 68 42 c105 65 267 105
392 98 76 -5 115 1 121 18 19 57 -177 82 -340 43z m-199 -309 c77 -55 47 -169
-46 -169 -81 0 -114 78 -69 161 25 47 56 49 115 8z"/>
<path d="M8255 2378 c-104 -24 -216 -84 -273 -146 -28 -29 -71 -52 -99 -52
-130 0 -327 -168 -296 -251 18 -46 49 -34 83 32 58 110 227 187 188 85 -63
-167 137 -299 269 -177 88 82 49 244 -68 281 -122 39 145 157 360 160 112 1
171 10 176 26 19 56 -179 80 -340 42z m-199 -309 c77 -55 47 -169 -46 -169
-81 0 -114 78 -69 161 25 47 56 49 115 8z"/>
<path d="M279 2196 c-140 -216 -229 -666 -132 -666 33 0 39 19 44 135 7 168
71 364 162 499 65 97 75 156 27 156 -11 0 -57 -56 -101 -124z"/>
<path d="M2827 2288 c-21 -54 46 -104 86 -64 41 41 22 96 -33 96 -23 0 -47
-14 -53 -32z"/>
<path d="M4779 2196 c-140 -216 -229 -666 -132 -666 33 0 39 19 44 135 7 168
71 364 162 499 65 97 75 156 27 156 -11 0 -57 -56 -101 -124z"/>
<path d="M7327 2288 c-21 -54 46 -104 86 -64 41 41 22 96 -33 96 -23 0 -47
-14 -53 -32z"/>
<path d="M794 2155 c-163 -201 -291 -633 -214 -724 37 -46 60 -18 60 75 1 205
100 468 232 614 69 76 75 120 18 120 -15 0 -58 -38 -96 -85z"/>
<path d="M5294 2155 c-163 -201 -291 -633 -214 -724 37 -46 60 -18 60 75 1
205 100 468 232 614 69 76 75 120 18 120 -15 0 -58 -38 -96 -85z"/>
<path d="M1016 1841 c-76 -76 -93 -139 -43 -155 12 -4 42 24 66 63 70 113 235
107 191 -7 -132 -343 170 -477 386 -172 90 126 24 136 -91 13 -167 -177 -267
-144 -231 77 40 252 -109 349 -278 181z"/>
<path d="M5516 1841 c-76 -76 -93 -139 -43 -155 12 -4 42 24 66 63 70 113 235
107 191 -7 -132 -343 170 -477 386 -172 90 126 24 136 -91 13 -167 -177 -267
-144 -231 77 40 252 -109 349 -278 181z"/>
<path d="M3398 1605 c-25 -65 -56 -245 -47 -274 3 -12 11 -45 17 -74 53 -243
286 -254 525 -25 241 231 346 202 406 -112 67 -353 300 -400 523 -105 183 242
318 241 357 -1 53 -323 261 -335 616 -35 155 131 184 170 151 203 -18 18 -56
-6 -162 -105 -317 -293 -485 -310 -525 -54 -50 313 -230 339 -471 67 -230
-259 -353 -251 -408 26 -77 388 -245 452 -517 197 -146 -138 -200 -173 -264
-173 -148 0 -219 254 -122 435 14 25 19 55 13 65 -23 38 -71 20 -92 -35z"/>
<path d="M7898 1605 c-25 -65 -56 -245 -47 -274 3 -12 11 -45 17 -74 53 -242
289 -254 523 -26 238 233 348 202 408 -111 28 -151 79 -244 151 -276 68 -31
69 18 1 98 -27 33 -58 107 -71 173 -77 389 -245 454 -517 198 -146 -138 -200
-173 -264 -173 -148 0 -219 254 -122 435 14 25 19 55 13 65 -23 38 -71 20 -92
-35z"/>
<path d="M450 1243 c-33 -21 -119 -101 -191 -180 -92 -101 -150 -146 -195
-155 -45 -9 -64 -24 -64 -50 0 -100 203 0 322 157 183 242 318 241 357 -1 53
-323 261 -335 616 -35 155 131 184 170 151 203 -18 18 -56 -6 -162 -105 -317
-293 -485 -310 -526 -54 -37 230 -155 315 -308 220z"/>
<path d="M1748 1151 c-181 -79 -168 -328 21 -391 244 -80 378 292 140 392 -81
34 -82 34 -161 -1z m160 -93 c115 -90 7 -274 -127 -218 -99 41 -110 190 -16
235 65 32 83 30 143 -17z"/>
<path d="M6248 1151 c-181 -79 -168 -328 21 -391 244 -80 378 292 140 392 -81
34 -82 34 -161 -1z m160 -93 c115 -90 7 -274 -127 -218 -99 41 -110 190 -16
235 65 32 83 30 143 -17z"/>
<path d="M3994 926 c-5 -9 -20 -83 -32 -166 -43 -279 -166 -450 -370 -511
-125 -37 -125 -37 -52 100 151 288 -36 537 -300 401 -195 -101 -140 -482 80
-554 24 -7 20 -22 -21 -78 -84 -111 -86 -118 -35 -118 31 1 65 27 102 80 48
68 68 80 128 80 290 0 503 247 555 642 12 86 -26 172 -55 124z m-509 -262 c56
-48 44 -171 -28 -306 l-63 -118 -62 35 c-81 47 -158 195 -143 274 28 145 189
208 296 115z"/>
<path d="M8494 926 c-5 -9 -20 -83 -32 -166 -43 -279 -166 -450 -370 -511
-125 -37 -125 -37 -52 100 151 288 -36 537 -300 401 -195 -101 -140 -482 80
-554 24 -7 20 -22 -21 -78 -84 -111 -86 -118 -35 -118 31 1 65 27 102 80 48
68 68 80 128 80 290 0 503 247 555 642 12 86 -26 172 -55 124z m-509 -262 c56
-48 44 -171 -28 -306 l-63 -118 -62 35 c-81 47 -158 195 -143 274 28 145 189
208 296 115z"/>
<path d="M411 687 c-8 -23 -1 -45 20 -60 45 -33 92 -11 85 41 -8 54 -86 68
-105 19z"/>
<path d="M4911 687 c-8 -23 -1 -45 20 -60 45 -33 92 -11 85 41 -8 54 -86 68
-105 19z"/>
<path d="M2791 591 c-88 -302 -266 -347 -451 -114 -172 218 -320 201 -500 -55
-159 -227 -252 -228 -387 -8 -181 299 -568 232 -548 -94 8 -133 75 -143 75
-11 0 276 264 302 420 41 128 -213 279 -238 424 -71 36 42 96 114 133 160 125
155 198 148 341 -34 215 -273 545 -146 586 225 12 115 -57 86 -93 -39z"/>
<path d="M7291 591 c-88 -302 -266 -347 -451 -114 -172 218 -320 201 -500 -55
-159 -227 -252 -228 -387 -8 -181 299 -568 232 -548 -94 8 -133 75 -143 75
-11 0 276 264 302 420 41 128 -213 279 -238 424 -71 36 42 96 114 133 160 125
155 198 148 341 -34 215 -273 545 -146 586 225 12 115 -57 86 -93 -39z"/>
<path d="M4244 456 c-43 -43 -33 -461 11 -452 30 6 36 35 41 225 5 218 -7 272
-52 227z"/>
<path d="M8744 456 c-43 -43 -33 -461 11 -452 30 6 36 35 41 225 5 218 -7 272
-52 227z"/>
<path d="M302 315 c-10 -25 -41 -103 -70 -173 -62 -155 -62 -146 -10 -138 41
6 186 306 165 341 -19 31 -69 13 -85 -30z"/>
<path d="M4802 315 c-10 -25 -41 -103 -70 -173 -62 -155 -62 -146 -10 -138 41
6 186 306 165 341 -19 31 -69 13 -85 -30z"/>
<path d="M2221 85 c-97 -68 -103 -76 -60 -82 65 -9 219 76 219 122 0 53 -41
43 -159 -40z"/>
<path d="M6721 85 c-97 -68 -103 -76 -60 -82 65 -9 219 76 219 122 0 53 -41
43 -159 -40z"/>
<path d="M734 52 c-128 -47 -111 -52 168 -51 256 1 265 2 209 32 -81 44 -283
54 -377 19z"/>
<path d="M5234 52 c-128 -47 -111 -52 168 -51 256 1 265 2 209 32 -81 44 -283
54 -377 19z"/>
</g>
</svg>
