<svg xmlns="http://www.w3.org/2000/svg" version="1.0" preserveAspectRatio="xMidYMid meet" viewBox="0 9.46 295.82 29.07"><metadata>Created by potrace 1.10, written by Peter Selinger 2001-2011</metadata><g transform="translate(0.000000,48.000000) scale(0.050000,-0.050000)" fill="#fff" opacity="0.9" stroke="none"><path d="M1290 759 c-209 -9 -485 -26 -613 -38 -129 -11 -301 -21 -383 -21 -159 0 -205 -29 -150 -95 21 -25 72 -28 326 -18 538 23 1554 33 1270 13 -1163 -83 -1740 -185 -1740 -310 0 -89 42 -92 552 -40 867 89 1269 113 2059 124 1091 15 1602 -13 2653 -145 458 -58 496 -56 496 31 0 79 -225 122 -1130 219 l-340 37 510 1 c281 1 630 -7 776 -17 289 -20 316 -16 335 44 35 111 -69 128 -1191 197 -450 28 -2934 41 -3430 18z"></path></g></svg>
