<?xml version="1.0" standalone="no"?>
<!DOCTYPE svg PUBLIC "-//W3C//DTD SVG 20010904//EN"
 "http://www.w3.org/TR/2001/REC-SVG-20010904/DTD/svg10.dtd" >
<svg version="1.0" xmlns="http://www.w3.org/2000/svg"
 width="450.000000pt" height="450.000000pt" viewBox="0 0 450.000000 450.000000" opacity="0.08"
 preserveAspectRatio="xMidYMid meet">
<metadata>
Created by potrace 1.10, written by Peter Selinger 2001-2011
</metadata>
<g transform="translate(0.000000,450.000000) scale(0.100000,-0.100000)"
fill="#7c2d12" stroke="none">
<path d="M10 4479 c-21 -38 -6 -50 18 -14 17 27 19 35 7 35 -8 0 -19 -9 -25
-21z"/>
<path d="M119 4468 c-7 -18 -37 -59 -67 -90 -74 -78 -62 -97 14 -22 60 59 107
144 79 144 -7 0 -19 -15 -26 -32z"/>
<path d="M243 4483 c-22 -66 -60 -134 -94 -169 -30 -30 -37 -44 -28 -50 27
-17 123 121 144 209 8 30 -12 39 -22 10z"/>
<path d="M356 4478 c-9 -34 -7 -58 3 -58 5 0 12 8 15 18 2 9 7 27 11 40 4 15
2 22 -8 22 -8 0 -17 -10 -21 -22z"/>
<path d="M451 4401 c-37 -112 -88 -197 -161 -265 -48 -45 -61 -66 -40 -66 23
0 138 131 172 196 34 65 78 189 78 220 0 39 -20 4 -49 -85z"/>
<path d="M573 4416 c-12 -46 -31 -103 -42 -127 -23 -48 -25 -59 -11 -59 16 0
49 75 75 172 29 109 28 98 12 98 -7 0 -21 -35 -34 -84z"/>
<path d="M669 4430 c-37 -63 -79 -171 -79 -206 0 -17 19 -19 24 -1 33 121 48
154 114 255 13 20 13 22 -1 22 -9 0 -34 -31 -58 -70z"/>
<path d="M802 4427 c-28 -41 -60 -96 -70 -123 -28 -70 -52 -183 -41 -190 11
-6 13 0 39 99 22 87 51 147 111 225 43 58 45 62 25 62 -7 0 -36 -33 -64 -73z"/>
<path d="M1070 4410 c-114 -135 -153 -218 -174 -367 -5 -33 -3 -43 8 -43 9 0
16 18 21 57 16 133 56 211 179 355 36 42 66 79 66 82 0 23 -36 -7 -100 -84z"/>
<path d="M1237 4437 c-26 -34 -71 -90 -101 -124 -67 -80 -112 -161 -97 -176 7
-7 12 -5 17 9 15 39 73 121 143 202 63 73 101 129 101 147 0 16 -20 -2 -63
-58z"/>
<path d="M1371 4443 c-16 -32 -61 -94 -101 -138 -76 -84 -130 -160 -130 -182
0 -23 15 -14 34 22 10 19 56 76 102 126 78 87 123 154 139 207 13 44 -15 21
-44 -35z"/>
<path d="M1477 4406 c-34 -68 -68 -117 -122 -176 -80 -87 -94 -132 -18 -58 68
66 132 155 170 235 18 39 33 76 33 82 0 30 -21 2 -63 -83z"/>
<path d="M1620 4458 c-7 -24 -23 -64 -36 -90 -26 -51 -29 -68 -14 -68 12 0 47
67 71 139 23 65 22 61 6 61 -8 0 -20 -19 -27 -42z"/>
<path d="M1757 4493 c-3 -5 -21 -51 -41 -103 -43 -110 -93 -194 -177 -295 -55
-67 -70 -95 -51 -95 21 0 161 191 206 280 28 54 86 200 86 216 0 7 -19 5 -23
-3z"/>
<path d="M1891 4486 c-19 -23 1 -25 39 -5 l35 19 -31 0 c-18 0 -37 -6 -43 -14z"/>
<path d="M1983 4453 c-53 -64 -83 -109 -83 -122 0 -22 18 -10 45 31 15 23 48
64 73 90 38 40 41 48 24 48 -12 0 -36 -19 -59 -47z"/>
<path d="M2243 4408 c-50 -51 -111 -125 -136 -164 -62 -95 -120 -225 -108
-237 6 -6 24 21 50 77 56 122 120 214 224 322 49 52 83 94 75 94 -8 0 -55 -42
-105 -92z"/>
<path d="M2470 4492 c0 -4 -49 -60 -110 -124 -95 -101 -131 -148 -102 -136 15
6 242 249 242 259 0 5 -7 9 -15 9 -8 0 -15 -3 -15 -8z"/>
<path d="M2590 4470 c-7 -17 -65 -86 -128 -153 -63 -67 -128 -140 -144 -162
-32 -43 -88 -148 -88 -165 0 -25 21 -6 39 35 32 72 79 134 182 240 88 91 179
206 179 227 0 21 -29 5 -40 -22z"/>
<path d="M2797 4433 c-37 -94 -95 -179 -190 -279 -54 -57 -77 -88 -70 -95 17
-17 195 190 243 282 54 104 74 159 56 159 -7 0 -25 -30 -39 -67z"/>
<path d="M2937 4493 c-2 -5 -10 -26 -17 -48 -7 -22 -24 -66 -38 -98 -24 -55
-25 -76 -3 -63 10 7 64 139 76 189 7 25 -7 39 -18 20z"/>
<path d="M3036 4438 c-10 -35 -35 -100 -56 -145 -21 -46 -35 -85 -30 -88 19
-12 78 110 109 226 15 52 17 69 7 69 -7 0 -20 -28 -30 -62z"/>
<path d="M3160 4481 c0 -34 -51 -183 -87 -256 -42 -84 -121 -200 -163 -240
-29 -28 -39 -55 -21 -55 22 0 155 180 203 275 31 60 83 206 92 258 6 30 4 37
-9 37 -8 0 -15 -9 -15 -19z"/>
<path d="M3265 4488 c-58 -188 -68 -237 -69 -363 -2 -148 18 -132 26 22 5 95
13 151 34 218 36 120 38 135 25 135 -6 0 -13 -6 -16 -12z"/>
<path d="M3376 4465 c-51 -120 -91 -421 -58 -432 9 -4 12 13 12 64 0 103 35
279 76 387 12 33 -16 15 -30 -19z"/>
<path d="M3495 4466 c-42 -100 -67 -215 -72 -328 -4 -85 -3 -118 6 -118 7 0
11 20 11 54 0 111 35 277 87 413 3 7 0 13 -6 13 -7 0 -18 -15 -26 -34z"/>
<path d="M3622 4483 c-17 -34 -62 -178 -77 -248 -8 -39 -15 -105 -15 -148 0
-79 24 -225 41 -241 16 -17 20 2 9 43 -21 81 -30 200 -19 284 8 64 52 226 86
315 8 19 -15 14 -25 -5z"/>
<path d="M3741 4483 c-21 -40 -81 -233 -91 -293 -13 -74 -10 -175 5 -175 6 0
13 46 16 105 6 98 32 201 95 363 8 22 -13 22 -25 0z"/>
<path d="M3851 4478 c-5 -13 -23 -58 -40 -100 -48 -121 -66 -230 -55 -335 14
-132 32 -119 27 19 -6 132 6 194 65 341 29 70 35 97 25 97 -7 0 -17 -10 -22
-22z"/>
<path d="M3965 4463 c-116 -278 -128 -402 -54 -593 42 -109 149 -268 149 -221
0 5 -16 33 -36 62 -87 129 -134 266 -134 390 0 82 15 141 69 277 23 56 41 107
41 112 0 23 -21 7 -35 -27z"/>
<path d="M4110 4483 c0 -10 -25 -69 -55 -133 -60 -126 -78 -196 -73 -292 4
-88 19 -74 23 19 3 102 16 147 75 268 56 116 68 155 45 155 -8 0 -15 -8 -15
-17z"/>
<path d="M4210 4490 c0 -5 6 -10 14 -10 8 0 18 5 21 10 3 6 -3 10 -14 10 -12
0 -21 -4 -21 -10z"/>
<path d="M4310 4453 c-35 -26 -82 -72 -107 -102 -45 -58 -113 -186 -113 -215
0 -21 19 -21 26 2 3 9 21 49 40 88 40 84 102 157 192 225 47 35 59 49 44 49
-11 0 -48 -21 -82 -47z"/>
<path d="M2112 4436 c-27 -30 -71 -88 -98 -128 -49 -74 -144 -274 -144 -303 0
-32 19 -13 41 43 58 147 130 268 221 373 26 30 48 59 48 62 0 18 -22 2 -68
-47z"/>
<path d="M927 4408 c-71 -93 -111 -180 -132 -288 -9 -47 -26 -102 -38 -122
-20 -37 -19 -57 2 -43 22 13 42 66 61 162 23 114 60 194 130 280 27 34 50 67
50 72 0 25 -21 7 -73 -61z"/>
<path d="M2654 4394 c-22 -37 -83 -115 -138 -173 -114 -123 -147 -167 -188
-258 -20 -45 -26 -69 -19 -76 7 -7 17 5 31 39 45 107 63 133 220 307 71 77
150 195 150 221 0 21 -23 -3 -56 -60z"/>
<path d="M4446 4416 c-31 -27 -45 -46 -38 -50 14 -8 97 66 91 81 -2 6 -26 -8
-53 -31z"/>
<path d="M1816 4336 c-35 -96 -99 -202 -180 -301 -65 -78 -86 -119 -71 -133 4
-4 10 -1 12 6 6 17 57 87 116 158 51 63 153 257 163 312 11 58 -13 34 -40 -42z"/>
<path d="M297 4324 c-22 -46 -99 -127 -176 -184 -93 -70 -131 -144 -101 -199
24 -46 150 -63 290 -40 36 6 132 14 214 17 113 5 150 10 154 21 4 11 -18 12
-129 6 -74 -3 -188 -13 -254 -22 -163 -20 -243 -6 -260 46 -9 28 28 95 71 128
111 85 155 128 193 183 44 67 49 80 28 80 -7 0 -21 -16 -30 -36z"/>
<path d="M4301 4293 c-47 -54 -95 -147 -110 -213 -45 -195 49 -398 226 -489
46 -23 63 -26 63 -11 0 5 -25 22 -55 36 -107 53 -192 171 -216 299 -21 114 27
267 112 360 29 31 39 49 32 56 -7 7 -23 -5 -52 -38z"/>
<path d="M4435 4279 c-58 -53 -115 -131 -115 -156 0 -24 15 -13 35 24 11 21
48 66 83 101 79 78 77 103 -3 31z"/>
<path d="M1846 4242 c-104 -202 -223 -624 -180 -639 7 -2 14 20 18 59 14 126
99 395 168 532 19 39 26 62 20 68 -7 7 -16 0 -26 -20z"/>
<path d="M1510 4242 c0 -4 -30 -41 -66 -82 -85 -96 -91 -109 -120 -249 -16
-77 -37 -141 -62 -191 -20 -41 -38 -78 -40 -82 -2 -5 3 -8 11 -8 27 0 86 138
112 263 14 65 32 132 41 149 9 17 47 66 85 110 62 73 75 98 48 98 -5 0 -9 -3
-9 -8z"/>
<path d="M22 4207 c-35 -37 -26 -51 13 -21 19 14 35 30 35 35 0 17 -27 9 -48
-14z"/>
<path d="M2798 4203 c-9 -16 -60 -74 -112 -131 -120 -130 -128 -141 -165 -235
-36 -90 -35 -87 -17 -87 8 0 17 12 20 26 19 76 68 154 152 247 99 110 164 188
164 200 0 18 -27 5 -42 -20z"/>
<path d="M477 4194 c-4 -4 -7 -15 -7 -25 0 -21 32 -32 74 -27 39 5 37 22 -3
26 -19 2 -40 10 -46 18 -6 8 -14 12 -18 8z"/>
<path d="M4463 4146 c-88 -115 -84 -243 10 -316 36 -29 35 -7 -3 36 -63 72
-63 158 1 250 41 60 34 85 -8 30z"/>
<path d="M2186 4164 c-8 -22 -8 -24 8 -24 12 0 26 20 26 36 0 12 -29 2 -34
-12z"/>
<path d="M2907 4163 c-10 -10 -8 -33 3 -33 5 0 14 9 20 20 8 15 8 20 -3 20 -8
0 -17 -3 -20 -7z"/>
<path d="M2153 4097 c-60 -79 -180 -487 -160 -541 13 -32 24 -6 30 66 6 80 57
251 117 391 21 48 34 89 30 92 -4 3 -12 -1 -17 -8z"/>
<path d="M1236 4073 c-3 -10 -12 -65 -21 -123 -23 -161 -81 -264 -195 -343
-16 -11 -21 -20 -14 -27 6 -6 26 4 56 28 80 63 134 143 158 230 10 38 40 220
40 244 0 15 -19 8 -24 -9z"/>
<path d="M2764 3992 c-50 -53 -98 -111 -107 -128 -27 -53 -97 -233 -97 -251 0
-10 22 -62 50 -118 27 -55 56 -127 64 -159 17 -64 22 -73 33 -62 13 13 -26
136 -72 227 -25 49 -45 100 -45 113 0 26 47 150 88 231 13 28 63 89 110 138
53 54 82 91 76 96 -5 6 -44 -27 -100 -87z"/>
<path d="M1016 4069 c-3 -8 -10 -48 -16 -89 -12 -88 -41 -136 -115 -192 -63
-48 -101 -56 -329 -68 -199 -11 -236 -16 -236 -32 0 -6 28 -8 78 -4 42 4 148
11 234 16 121 7 167 13 202 29 46 20 149 109 168 145 16 30 38 189 28 200 -6
6 -11 4 -14 -5z"/>
<path d="M638 4065 c-2 -3 -61 -7 -129 -10 -112 -5 -217 -17 -276 -32 -17 -4
-23 -1 -23 11 0 9 -7 16 -16 16 -10 0 -14 -7 -12 -22 3 -20 9 -23 48 -22 25 0
83 6 130 12 46 7 123 12 170 12 98 0 130 7 130 26 0 14 -12 19 -22 9z"/>
<path d="M1115 4038 c-2 -7 -8 -48 -14 -91 -12 -85 -34 -137 -81 -191 -37 -41
-108 -87 -172 -111 -48 -18 -63 -35 -30 -35 26 0 119 46 173 85 82 61 125 151
144 303 5 36 3 52 -4 52 -7 0 -13 -6 -16 -12z"/>
<path d="M4070 4030 c0 -24 15 -27 24 -4 9 22 8 24 -9 24 -8 0 -15 -9 -15 -20z"/>
<path d="M4284 4016 c-12 -64 26 -181 75 -233 53 -56 141 -106 141 -80 0 7
-21 23 -46 36 -91 49 -144 141 -144 253 0 64 -15 78 -26 24z"/>
<path d="M2483 4015 c-3 -9 -3 -19 1 -22 8 -9 37 18 30 28 -8 14 -24 11 -31
-6z"/>
<path d="M1451 3952 c-14 -27 -14 -32 3 -32 18 0 30 30 17 43 -6 6 -13 1 -20
-11z"/>
<path d="M3019 3939 c-16 -17 -29 -35 -29 -40 0 -17 22 -9 42 16 11 14 26 25
33 25 15 0 19 -12 56 -165 23 -95 85 -261 101 -271 22 -14 18 10 -15 88 -20
46 -50 139 -67 208 -45 178 -64 200 -121 139z"/>
<path d="M3312 3948 c5 -32 28 -35 28 -4 0 17 -5 26 -16 26 -10 0 -14 -7 -12
-22z"/>
<path d="M3430 3942 c0 -35 38 -170 68 -239 16 -38 56 -119 89 -179 32 -60 69
-131 80 -159 21 -49 43 -71 43 -42 0 8 -46 106 -103 218 -95 187 -120 254
-151 392 -7 30 -26 37 -26 9z"/>
<path d="M4070 3927 c0 -99 63 -237 149 -326 65 -67 147 -119 163 -103 7 7 -2
16 -28 28 -22 10 -69 48 -106 85 -79 78 -130 173 -149 280 -13 72 -29 93 -29
36z"/>
<path d="M1955 3917 c-41 -99 -67 -215 -71 -322 -5 -118 10 -215 35 -223 10
-3 12 1 8 19 -37 134 -29 272 27 442 20 59 30 106 25 111 -5 6 -15 -5 -24 -27z"/>
<path d="M3200 3938 c1 -31 40 -189 65 -258 15 -41 68 -153 117 -249 91 -173
91 -174 96 -262 7 -120 25 -116 20 5 l-3 94 -88 171 c-103 199 -131 271 -161
405 -13 55 -28 102 -34 104 -7 2 -12 -2 -12 -10z"/>
<path d="M3660 3935 c0 -37 48 -151 136 -324 52 -102 100 -211 108 -241 16
-64 43 -85 32 -24 -11 57 -59 166 -136 311 -56 106 -99 208 -116 281 -5 17
-24 15 -24 -3z"/>
<path d="M832 3904 c-48 -49 -111 -64 -307 -74 -93 -5 -199 -14 -235 -20 -36
-5 -87 -10 -113 -10 -35 0 -47 -4 -44 -12 5 -15 75 -14 202 2 44 6 150 14 236
19 125 7 166 13 205 30 47 21 114 76 114 93 0 17 -26 4 -58 -28z"/>
<path d="M1835 3918 c-41 -117 -58 -204 -62 -323 -6 -154 5 -210 72 -357 34
-74 45 -109 45 -148 0 -53 15 -68 26 -25 9 38 -4 91 -41 165 -63 124 -80 200
-79 340 1 103 6 141 28 220 39 137 40 140 27 140 -6 0 -14 -6 -16 -12z"/>
<path d="M2191 3908 c-90 -239 -108 -372 -64 -478 28 -69 96 -171 106 -161 7
7 2 23 -15 49 -73 110 -83 140 -82 252 0 97 3 115 42 226 23 67 42 124 42 128
0 16 -21 4 -29 -16z"/>
<path d="M2393 3816 c-54 -147 -76 -233 -68 -265 4 -14 28 -62 55 -106 63
-104 90 -188 97 -297 4 -58 10 -87 17 -85 15 6 9 137 -10 211 -17 64 -41 116
-98 210 -22 36 -36 73 -36 92 0 37 37 160 81 272 33 84 33 82 16 82 -7 0 -31
-48 -54 -114z"/>
<path d="M2792 3856 c-45 -52 -95 -163 -96 -216 -1 -31 11 -74 37 -137 60
-147 79 -232 80 -365 2 -93 5 -118 16 -118 11 0 13 24 8 133 -6 144 -23 219
-83 364 -19 46 -34 100 -34 121 0 43 53 160 93 208 15 18 27 35 27 38 0 15
-20 3 -48 -28z"/>
<path d="M3792 3869 c1 -13 8 -23 13 -21 15 3 12 35 -3 40 -9 3 -13 -3 -10
-19z"/>
<path d="M3334 3848 c17 -86 57 -187 134 -338 46 -91 86 -167 87 -169 2 -1 9
0 14 4 7 4 -18 62 -68 158 -80 153 -106 214 -136 320 -18 61 -42 81 -31 25z"/>
<path d="M2942 3858 c-14 -14 -16 -38 -3 -38 5 0 14 7 21 15 17 20 0 41 -18
23z"/>
<path d="M1426 3849 c-2 -8 -9 -36 -16 -64 -50 -218 -270 -418 -525 -481 -38
-9 -74 -21 -79 -25 -37 -34 87 -8 208 42 206 87 371 266 421 458 11 44 13 67
6 74 -7 7 -12 6 -15 -4z"/>
<path d="M0 3825 c0 -7 18 -20 40 -29 49 -19 50 -19 50 -3 0 6 -20 19 -45 28
-34 13 -45 14 -45 4z"/>
<path d="M1537 3833 c-4 -3 -7 -17 -7 -29 0 -41 -58 -185 -102 -253 -52 -80
-144 -174 -216 -220 -35 -23 -49 -38 -42 -45 29 -29 232 165 299 286 40 72 91
210 91 249 0 19 -11 25 -23 12z"/>
<path d="M2245 3733 c-42 -127 -41 -209 3 -283 17 -30 47 -83 64 -117 18 -35
36 -63 40 -63 16 0 7 36 -22 88 -17 28 -43 76 -60 105 -41 71 -41 142 0 262
35 103 33 95 17 95 -7 0 -25 -38 -42 -87z"/>
<path d="M3820 3800 c0 -19 39 -88 109 -195 70 -105 87 -150 106 -287 4 -27
11 -48 16 -48 21 0 -1 151 -33 235 -6 17 -37 68 -68 115 -32 47 -69 109 -84
138 -24 47 -46 67 -46 42z"/>
<path d="M2838 3714 c-35 -75 -36 -69 31 -254 56 -156 74 -333 51 -494 -10
-70 -8 -88 10 -70 16 16 28 213 19 312 -10 115 -31 200 -75 314 -41 105 -42
129 -9 194 28 54 30 64 14 64 -5 0 -24 -30 -41 -66z"/>
<path d="M3596 3771 c-7 -11 20 -48 29 -39 9 8 -4 48 -15 48 -5 0 -11 -4 -14
-9z"/>
<path d="M2966 3710 c-34 -41 -42 -76 -27 -114 35 -86 64 -177 75 -230 12 -56
36 -89 36 -49 0 28 -37 157 -71 245 l-31 78 22 35 c28 46 44 44 59 -5 7 -23
18 -40 26 -40 18 0 19 -5 -4 55 -23 62 -47 69 -85 25z"/>
<path d="M0 3705 c0 -22 69 -38 164 -39 63 -1 90 3 93 12 4 9 -17 12 -80 12
-46 0 -105 6 -130 14 -39 12 -47 12 -47 1z"/>
<path d="M3636 3692 c-3 -6 23 -64 58 -129 73 -132 112 -245 121 -345 8 -81
25 -91 25 -15 0 92 -35 201 -111 346 -77 147 -84 158 -93 143z"/>
<path d="M2450 3664 c-22 -56 -12 -105 35 -178 65 -101 97 -205 103 -344 3
-77 8 -112 16 -109 17 6 19 108 3 200 -18 102 -45 174 -99 263 -42 70 -49 102
-34 162 9 39 -10 45 -24 6z"/>
<path d="M680 3609 c-25 -4 -92 -8 -150 -8 -58 -1 -177 -7 -265 -15 -88 -8
-175 -12 -193 -9 -25 4 -32 2 -32 -11 0 -20 65 -21 245 -6 66 6 193 14 283 18
89 5 165 12 169 16 15 14 -14 22 -57 15z"/>
<path d="M1120 3543 c-140 -112 -266 -149 -578 -167 -209 -13 -244 -18 -230
-31 10 -11 418 15 495 31 142 29 253 82 353 167 55 47 19 48 -40 0z"/>
<path d="M4080 3585 c0 -4 7 -20 16 -37 34 -65 54 -205 54 -375 0 -164 12
-214 26 -106 21 172 -34 523 -82 523 -8 0 -14 -2 -14 -5z"/>
<path d="M930 3555 c-7 -8 -10 -19 -6 -22 9 -9 38 8 38 22 -1 16 -18 16 -32 0z"/>
<path d="M3075 3561 c-3 -6 36 -92 87 -192 l93 -183 -3 -181 c-3 -228 -8 -265
-34 -265 -36 0 -163 32 -176 45 -11 10 -11 25 2 88 20 95 31 259 22 320 -13
88 -26 49 -26 -80 -1 -71 -7 -164 -15 -208 -22 -121 -21 -134 18 -150 17 -7
69 -21 115 -31 65 -14 85 -15 95 -5 8 8 14 84 20 239 l8 227 -91 180 c-49 99
-90 186 -90 193 0 14 -16 16 -25 3z"/>
<path d="M1656 3532 c-7 -12 11 -136 29 -199 8 -28 31 -85 50 -125 40 -82 43
-124 16 -185 -18 -39 -18 -53 0 -53 14 0 39 82 39 130 0 37 -11 73 -40 138
-38 86 -70 204 -70 262 0 29 -14 48 -24 32z"/>
<path d="M795 3514 c-27 -8 -140 -19 -250 -24 -110 -5 -249 -15 -310 -21 -60
-6 -139 -8 -173 -5 -50 5 -63 4 -60 -6 4 -10 36 -13 129 -13 200 1 576 24 653
40 39 8 72 15 74 15 1 0 2 7 2 15 0 17 2 17 -65 -1z"/>
<path d="M2000 3467 c0 -30 32 -105 85 -197 30 -53 57 -110 61 -127 7 -37 -12
-100 -67 -220 -41 -89 -89 -239 -89 -279 0 -48 18 -22 34 49 9 39 33 110 52
157 118 282 118 287 35 425 -28 48 -60 113 -71 144 -17 53 -40 80 -40 48z"/>
<path d="M4440 3470 c0 -11 48 -25 56 -17 4 3 3 10 -1 16 -8 14 -55 14 -55 1z"/>
<path d="M1439 3393 c-76 -102 -160 -166 -315 -240 -52 -24 -94 -48 -94 -54 0
-16 19 -10 105 30 86 40 181 101 241 153 54 47 127 149 116 160 -7 7 -25 -10
-53 -49z"/>
<path d="M1555 3438 c-4 -9 -2 -25 3 -35 6 -10 13 -40 17 -68 4 -27 23 -89 41
-137 19 -48 34 -94 34 -102 0 -7 -16 -58 -36 -112 -20 -55 -39 -126 -42 -158
-9 -76 -21 -84 -104 -69 -35 6 -69 12 -77 14 -7 2 -15 -1 -18 -7 -5 -14 85
-37 145 -37 24 0 49 6 57 14 8 8 19 46 24 84 5 39 23 108 40 154 37 102 38
138 5 216 -14 33 -33 96 -43 140 -9 44 -22 89 -28 100 -10 18 -12 18 -18 3z"/>
<path d="M3258 3445 c-3 -4 19 -56 50 -117 l57 -111 -3 -266 c-2 -171 0 -283
8 -315 12 -54 6 -86 -16 -86 -8 0 -14 -7 -14 -15 0 -21 24 -19 45 5 17 19 18
28 6 128 -7 64 -11 198 -9 337 l3 230 -48 95 c-50 98 -69 125 -79 115z"/>
<path d="M4262 3418 c-7 -7 -12 -31 -12 -55 0 -33 4 -43 16 -43 12 0 14 7 9
30 -4 19 -2 36 5 45 10 12 19 10 63 -12 69 -35 157 -56 157 -38 0 8 -17 16
-40 20 -23 4 -65 20 -95 36 -59 31 -84 36 -103 17z"/>
<path d="M0 3343 c0 -10 32 -13 126 -13 167 0 164 20 -4 23 -92 1 -122 -1
-122 -10z"/>
<path d="M1945 3311 c-3 -5 13 -44 35 -86 50 -95 52 -135 10 -224 -48 -101
-89 -226 -115 -351 -32 -152 -37 -157 -216 -198 -74 -17 -158 -33 -188 -34
-36 -2 -56 -8 -59 -17 -4 -12 8 -13 69 -8 87 7 314 62 346 83 33 21 51 63 73
171 26 126 52 207 102 318 56 122 56 162 0 273 -23 45 -44 82 -47 82 -2 0 -6
-4 -10 -9z"/>
<path d="M3585 2967 c0 -286 2 -319 22 -397 27 -106 61 -200 74 -200 14 0 11
17 -16 91 -49 136 -58 221 -52 487 5 258 1 332 -17 332 -8 0 -11 -88 -11 -313z"/>
<path d="M560 3264 c-189 -10 -410 -29 -410 -35 0 -17 24 -17 191 -4 96 8 208
15 249 15 88 0 150 9 150 21 0 8 -50 9 -180 3z"/>
<path d="M3122 3254 c1 -9 9 -19 16 -22 9 -3 13 2 10 14 -1 9 -9 19 -16 22 -9
3 -13 -2 -10 -14z"/>
<path d="M1026 3233 c-121 -51 -304 -82 -493 -84 -147 -2 -326 -22 -331 -38
-4 -11 6 -12 49 -7 30 4 160 13 289 21 129 7 271 21 315 30 96 20 247 75 253
93 5 17 -14 14 -82 -15z"/>
<path d="M4430 3247 c-13 -7 -30 -23 -36 -35 -14 -28 -29 -228 -29 -382 0
-135 16 -182 86 -250 53 -51 67 -34 16 18 -53 55 -80 123 -81 207 -2 125 16
359 30 393 11 28 18 32 48 32 20 0 36 5 36 10 0 6 -4 10 -9 10 -5 0 -15 2 -23
5 -7 3 -24 -1 -38 -8z"/>
<path d="M3698 3013 c-6 -242 -1 -344 17 -350 7 -2 10 99 10 289 0 201 -3 292
-11 295 -7 2 -12 -69 -16 -234z"/>
<path d="M4266 3143 c-18 -304 -19 -407 -3 -463 19 -64 53 -123 67 -115 5 3
-2 27 -16 53 -41 80 -49 154 -36 320 14 171 16 312 3 312 -4 0 -11 -48 -15
-107z"/>
<path d="M63 3228 c2 -7 12 -13 22 -13 10 0 20 6 23 13 2 7 -6 12 -23 12 -17
0 -25 -5 -22 -12z"/>
<path d="M3925 3014 c-8 -253 -4 -323 26 -421 35 -113 116 -259 134 -241 4 3
-12 37 -34 75 -93 156 -112 268 -104 591 4 151 3 222 -4 222 -7 0 -13 -80 -18
-226z"/>
<path d="M1416 3209 c-14 -11 -26 -25 -26 -30 0 -16 26 -10 45 11 26 29 52 25
75 -12 26 -43 26 -108 0 -183 -33 -95 -42 -105 -100 -105 -58 0 -66 -16 -13
-26 69 -13 116 39 148 165 20 76 13 130 -22 171 -30 36 -69 39 -107 9z"/>
<path d="M2255 3128 c0 -77 -4 -91 -49 -193 -54 -124 -96 -240 -96 -267 0 -37
19 -16 35 40 9 31 40 113 70 182 61 143 79 218 67 275 -14 68 -27 50 -27 -37z"/>
<path d="M2365 3118 c-1 -107 -12 -146 -91 -318 -29 -63 -58 -135 -64 -160
-16 -60 -14 -192 4 -259 16 -59 20 -66 35 -57 6 4 5 21 -5 49 -9 23 -18 76
-21 117 -7 96 11 166 77 307 72 152 90 218 90 324 0 65 -3 89 -12 89 -10 0
-13 -25 -13 -92z"/>
<path d="M2703 3164 c13 -119 -31 -321 -99 -455 -17 -35 -22 -55 -15 -62 13
-13 73 116 108 233 30 102 40 319 14 328 -11 4 -13 -5 -8 -44z"/>
<path d="M4036 3098 c-19 -343 -19 -371 -2 -438 22 -89 86 -215 139 -275 50
-56 76 -56 31 1 -92 114 -144 231 -159 354 -3 30 1 140 9 243 19 229 19 227 2
227 -10 0 -15 -27 -20 -112z"/>
<path d="M3150 3188 c-6 -132 -7 -359 -1 -363 14 -8 21 63 21 212 0 84 -4 144
-10 148 -5 3 -10 5 -10 3z"/>
<path d="M1330 3135 c-7 -9 -10 -18 -7 -21 9 -9 48 16 42 27 -9 13 -21 11 -35
-6z"/>
<path d="M17 3102 c-13 -15 -17 -37 -15 -103 l1 -84 6 76 c8 95 19 109 82 109
27 0 49 5 49 10 0 6 -24 10 -53 10 -40 0 -58 -5 -70 -18z"/>
<path d="M957 3092 c-10 -2 -16 -9 -14 -15 5 -15 19 -18 37 -7 19 12 2 28 -23
22z"/>
<path d="M1190 3059 c-78 -41 -225 -86 -330 -103 -50 -8 -177 -20 -283 -27
-175 -11 -221 -18 -205 -34 8 -9 427 24 521 40 137 24 377 116 377 145 0 15
-20 10 -80 -21z"/>
<path d="M1380 3055 c-19 -14 -39 -25 -46 -25 -17 0 -37 -27 -29 -40 5 -8 12
-7 23 2 23 18 82 50 82 44 0 -16 -14 -36 -26 -36 -8 0 -14 -7 -14 -15 0 -39
53 -1 65 46 11 42 -15 54 -55 24z"/>
<path d="M3812 2863 c5 -244 12 -283 78 -421 59 -123 140 -239 160 -227 6 3
-12 34 -41 73 -62 82 -120 200 -151 307 -21 72 -23 100 -22 283 0 166 -2 202
-14 202 -11 0 -13 -36 -10 -217z"/>
<path d="M4485 3025 c-11 -87 -11 -288 0 -307 7 -11 11 41 12 173 2 104 1 189
-1 189 -3 0 -8 -25 -11 -55z"/>
<path d="M815 3059 c-37 -7 -242 -21 -520 -35 -178 -9 -199 -23 -206 -136 -5
-80 15 -78 22 1 10 106 3 104 384 121 127 6 259 15 295 20 36 5 71 10 78 10 6
0 12 7 12 15 0 16 -6 17 -65 4z"/>
<path d="M3477 3013 c-14 -13 -7 -309 9 -404 20 -117 67 -272 84 -277 15 -5
13 8 -24 132 -39 133 -49 206 -50 383 -1 155 -4 181 -19 166z"/>
<path d="M2455 2944 c-9 -31 -44 -115 -78 -188 -60 -129 -61 -132 -61 -220 -1
-51 3 -91 9 -93 6 -2 10 29 10 80 0 79 3 87 63 219 69 151 92 211 92 239 0 38
-19 18 -35 -37z"/>
<path d="M1846 2964 c-10 -26 5 -39 21 -19 7 11 13 22 13 27 0 15 -28 8 -34
-8z"/>
<path d="M2576 2959 c-2 -8 -12 -39 -21 -69 -9 -30 -42 -109 -73 -175 -60
-129 -72 -189 -53 -263 21 -76 96 -142 161 -142 68 0 170 23 170 38 0 10 -6
12 -22 8 -13 -4 -60 -10 -105 -13 -73 -5 -84 -4 -112 16 -45 32 -72 91 -73
160 -1 49 7 75 60 192 75 167 98 237 83 252 -7 7 -12 6 -15 -4z"/>
<path d="M4140 2944 c0 -31 23 -28 28 4 2 15 -2 22 -12 22 -11 0 -16 -9 -16
-26z"/>
<path d="M2806 2949 c-3 -8 -10 -34 -16 -59 -6 -25 -35 -103 -63 -173 -44
-110 -49 -130 -36 -141 20 -20 199 -27 199 -9 0 10 -22 13 -85 13 -64 0 -87 4
-91 14 -3 8 13 56 34 107 57 133 87 238 74 251 -8 8 -13 7 -16 -3z"/>
<path d="M222 2894 c-25 -17 -29 -46 -8 -64 9 -6 75 -16 153 -21 76 -5 165
-14 198 -20 83 -15 89 -15 95 -5 3 5 -8 13 -25 18 -34 9 -271 36 -355 40 -70
4 -77 28 -12 42 23 5 42 13 42 17 0 15 -64 10 -88 -7z"/>
<path d="M1014 2891 c-39 -10 -114 -38 -166 -64 -52 -26 -105 -47 -116 -47
-12 0 -22 -4 -22 -10 0 -23 66 -7 149 34 117 59 193 78 326 81 69 2 111 7 113
14 6 18 -201 12 -284 -8z"/>
<path d="M1692 2863 c-6 -27 -14 -73 -17 -104 -13 -118 -110 -143 -340 -88
-44 10 -106 19 -138 19 -62 0 -197 -27 -197 -39 0 -17 13 -17 63 -4 75 20 188
18 294 -6 225 -51 343 -9 343 123 0 25 4 55 9 68 19 53 22 78 7 78 -9 0 -18
-18 -24 -47z"/>
<path d="M1806 2852 c-9 -27 -21 -85 -26 -130 -5 -45 -16 -95 -25 -111 -17
-34 -37 -41 -172 -62 -59 -9 -83 -17 -83 -27 0 -10 7 -12 23 -9 12 3 58 11
102 18 141 21 160 40 180 186 8 54 19 111 24 127 13 34 14 56 2 56 -5 0 -17
-22 -25 -48z"/>
<path d="M4130 2798 c0 -131 55 -264 152 -364 73 -76 218 -158 218 -122 0 7
-29 26 -63 41 -162 72 -276 246 -281 430 -2 44 -7 72 -14 75 -8 2 -12 -16 -12
-60z"/>
<path d="M2876 2787 c-36 -96 -18 -118 115 -142 98 -17 183 -45 247 -80 48
-27 62 -30 62 -16 0 31 -205 109 -328 126 -28 4 -62 15 -74 24 -21 18 -21 19
-5 60 9 23 17 48 17 56 0 29 -18 14 -34 -28z"/>
<path d="M1034 2780 c-85 -22 -127 -39 -183 -74 -24 -15 -61 -31 -84 -34 -23
-4 -41 -12 -39 -17 6 -20 76 -4 145 34 88 48 181 77 276 87 39 3 71 11 71 15
0 15 -112 9 -186 -11z"/>
<path d="M1267 2794 c-11 -11 3 -24 24 -24 12 0 19 5 17 13 -5 14 -31 21 -41
11z"/>
<path d="M105 2760 c-11 -18 57 -49 119 -54 34 -2 124 -10 202 -16 77 -6 165
-17 195 -25 29 -8 55 -15 57 -15 1 0 2 6 2 14 0 24 -131 46 -398 65 -89 6
-128 13 -141 25 -20 19 -27 20 -36 6z"/>
<path d="M1 2724 c-1 -37 30 -81 48 -70 9 6 7 14 -8 30 -11 11 -24 32 -30 46
-10 25 -10 25 -10 -6z"/>
<path d="M112 2629 c6 -19 44 -26 243 -44 99 -9 229 -27 288 -41 71 -16 121
-22 145 -18 64 11 198 94 152 94 -5 0 -38 -16 -73 -35 -76 -42 -113 -44 -229
-14 -45 11 -169 29 -277 40 -108 10 -209 22 -225 26 -21 4 -27 2 -24 -8z"/>
<path d="M2545 2589 c-4 -11 -4 -24 0 -27 9 -9 36 28 29 39 -9 15 -22 10 -29
-12z"/>
<path d="M3724 2565 c11 -58 63 -182 107 -257 92 -156 239 -302 383 -380 79
-43 76 -42 76 -26 0 7 -21 24 -47 38 -77 40 -193 131 -257 201 -102 110 -198
278 -230 401 -16 63 -43 82 -32 23z"/>
<path d="M2097 2583 c-13 -12 -7 -159 8 -218 47 -180 200 -328 379 -365 65
-13 158 -10 163 7 3 8 -19 11 -74 12 -258 0 -453 204 -458 478 -1 81 -5 100
-18 86z"/>
<path d="M1107 2569 c-62 -12 -138 -47 -206 -93 -29 -20 -64 -36 -77 -36 -15
0 -24 -6 -24 -16 0 -24 55 -9 115 31 139 93 251 114 414 76 64 -15 97 -19 104
-12 12 12 11 12 -87 36 -90 21 -179 26 -239 14z"/>
<path d="M0 2553 c0 -13 33 -31 88 -47 15 -5 22 -3 22 6 0 7 -25 23 -55 34
-44 17 -55 19 -55 7z"/>
<path d="M2955 2559 c-7 -10 8 -17 130 -54 104 -32 169 -63 315 -150 140 -85
155 -91 175 -75 23 19 18 31 -9 24 -19 -5 -55 12 -158 74 -165 99 -193 113
-293 145 -121 39 -154 46 -160 36z"/>
<path d="M1980 2524 c0 -14 4 -23 10 -19 6 3 10 15 10 26 0 10 -4 19 -10 19
-5 0 -10 -12 -10 -26z"/>
<path d="M4370 2507 c0 -12 104 -87 121 -87 5 0 9 7 9 15 0 8 -4 15 -9 15 -5
0 -32 16 -61 35 -59 39 -60 40 -60 22z"/>
<path d="M170 2500 c0 -11 21 -15 240 -35 96 -9 204 -22 240 -30 76 -17 110
-19 110 -6 0 17 -161 45 -380 66 -173 17 -210 18 -210 5z"/>
<path d="M2542 2479 c2 -12 14 -30 28 -41 25 -18 30 -18 117 -3 74 13 108 14
177 5 161 -20 307 -73 436 -160 76 -51 78 -52 85 -40 3 5 -35 36 -84 69 -197
129 -424 180 -658 147 -61 -8 -63 -8 -74 18 -15 31 -32 34 -27 5z"/>
<path d="M1139 2460 c-74 -13 -135 -45 -198 -105 -45 -43 -65 -55 -89 -55 -22
0 -32 -5 -32 -15 0 -19 42 -20 78 -1 15 8 44 34 66 56 76 82 208 118 318 86
68 -19 68 -19 68 -3 0 25 -140 49 -211 37z"/>
<path d="M1980 2430 c0 -36 -27 -50 -94 -50 -24 0 -110 -15 -192 -34 -82 -19
-162 -36 -178 -38 -16 -2 -32 -9 -34 -17 -6 -18 48 -10 239 35 80 19 169 34
197 34 33 0 56 6 66 16 18 17 22 84 6 84 -5 0 -10 -14 -10 -30z"/>
<path d="M0 2431 c0 -5 4 -12 9 -15 27 -17 147 -38 291 -51 194 -18 279 -29
377 -52 69 -16 104 -12 73 7 -27 17 -236 50 -410 66 -151 13 -256 29 -322 50
-10 3 -18 1 -18 -5z"/>
<path d="M2330 2388 c0 -22 17 -41 29 -34 8 5 8 13 1 27 -12 21 -30 26 -30 7z"/>
<path d="M2825 2350 c-7 -12 3 -16 60 -25 66 -9 198 -51 260 -82 28 -14 85
-50 127 -79 84 -59 88 -60 88 -41 0 18 -176 133 -250 163 -108 44 -274 81
-285 64z"/>
<path d="M1112 2337 c-44 -14 -118 -81 -143 -129 -11 -22 -33 -47 -50 -56 -31
-18 -38 -32 -15 -32 31 0 48 15 91 80 78 122 165 151 314 106 47 -14 90 -26
98 -26 17 0 17 19 1 24 -169 49 -227 55 -296 33z"/>
<path d="M2 2308 c9 -26 197 -55 208 -33 3 6 -21 13 -57 17 -34 4 -79 11 -100
17 -49 14 -56 14 -51 -1z"/>
<path d="M2395 2300 c-10 -17 9 -34 79 -70 60 -30 70 -32 133 -27 226 20 226
20 314 -1 104 -25 178 -57 258 -111 65 -45 71 -47 71 -28 0 22 -144 106 -233
136 -135 46 -218 55 -327 37 -49 -9 -100 -16 -113 -16 -28 0 -126 45 -153 71
-15 14 -24 17 -29 9z"/>
<path d="M3712 2294 c1 -9 9 -19 16 -22 9 -3 13 2 10 14 -1 9 -9 19 -16 22 -9
3 -13 -2 -10 -14z"/>
<path d="M4124 2298 c-10 -16 93 -110 176 -158 72 -42 187 -87 197 -76 10 10
-8 22 -52 36 -77 24 -176 83 -245 147 -47 43 -71 60 -76 51z"/>
<path d="M4282 2293 c2 -10 11 -19 21 -21 24 -5 21 15 -4 28 -18 10 -20 9 -17
-7z"/>
<path d="M280 2267 c0 -9 34 -16 128 -26 152 -15 278 -41 365 -75 72 -29 77
-30 77 -15 0 29 -213 90 -375 108 -55 6 -121 13 -147 16 -36 4 -48 2 -48 -8z"/>
<path d="M1735 2239 c-66 -15 -156 -34 -200 -40 -44 -7 -84 -16 -90 -21 -19
-17 104 -7 210 17 298 69 310 69 385 -1 26 -24 50 -44 54 -44 29 0 -34 75 -85
100 -53 28 -129 25 -274 -11z"/>
<path d="M2270 2261 c0 -40 131 -132 233 -163 68 -20 70 -20 178 -2 91 15 118
16 171 6 65 -12 80 -10 59 11 -12 12 -92 14 -311 6 -91 -4 -97 -3 -159 29 -35
19 -85 53 -111 78 -47 44 -60 52 -60 35z"/>
<path d="M4356 2251 c-8 -12 18 -26 90 -51 79 -28 72 1 -8 31 -35 13 -66 25
-70 27 -3 2 -9 -1 -12 -7z"/>
<path d="M1144 2230 c-32 -13 -82 -76 -93 -117 -24 -84 -4 -164 66 -271 38
-57 70 -138 87 -214 7 -32 26 -38 26 -9 0 34 -39 145 -72 201 -78 137 -88 161
-88 222 0 68 26 128 66 154 33 22 95 20 168 -5 69 -24 76 -25 76 -8 0 14 -141
57 -186 56 -16 0 -38 -4 -50 -9z"/>
<path d="M3755 2230 c-16 -25 189 -257 270 -305 28 -18 33 -24 20 -29 -9 -3
-27 -3 -41 0 -29 7 -33 -11 -5 -25 23 -13 77 3 85 24 5 15 -12 31 -66 64 -46
28 -164 153 -212 226 -40 59 -41 60 -51 45z"/>
<path d="M3440 2208 c0 -8 28 -23 68 -36 38 -12 93 -40 123 -62 30 -22 101
-64 159 -94 58 -31 117 -63 132 -73 15 -9 30 -14 34 -10 11 11 -35 44 -141 98
-55 29 -127 71 -161 94 -34 24 -86 52 -116 63 -89 33 -98 35 -98 20z"/>
<path d="M0 2194 c0 -19 146 -45 338 -59 62 -5 92 -4 92 3 0 13 -25 17 -185
32 -66 6 -148 17 -182 24 -51 10 -63 10 -63 0z"/>
<path d="M4095 2170 c-7 -12 11 -40 26 -40 14 0 10 26 -5 39 -10 9 -16 9 -21
1z"/>
<path d="M1753 2128 c-68 -16 -123 -34 -123 -39 0 -13 19 -11 117 12 145 34
175 38 197 27 22 -11 96 -101 96 -117 0 -6 -13 -25 -29 -43 -15 -18 -41 -57
-55 -87 -33 -64 -96 -227 -96 -247 0 -22 18 -16 26 9 31 100 92 236 130 287
24 33 44 71 44 84 0 25 -70 120 -100 136 -29 16 -76 11 -207 -22z"/>
<path d="M490 2131 c0 -5 19 -12 43 -16 243 -37 406 -146 499 -332 25 -49 51
-119 58 -156 9 -42 19 -67 27 -67 16 0 16 1 -3 80 -8 36 -33 103 -56 150 -50
104 -158 217 -255 268 -96 51 -313 101 -313 73z"/>
<path d="M1170 2100 c-32 -32 -22 -106 23 -165 28 -36 30 -7 3 46 -30 61 -32
81 -10 100 13 10 26 10 72 0 111 -24 178 -31 245 -25 103 10 80 29 -29 25 -65
-2 -115 3 -178 18 -107 26 -102 25 -126 1z"/>
<path d="M4160 2108 c0 -16 97 -79 171 -112 84 -37 169 -58 169 -41 0 7 -21
18 -47 24 -61 16 -179 71 -237 110 -50 34 -56 37 -56 19z"/>
<path d="M2134 2098 c-4 -7 2 -18 15 -27 72 -52 72 -40 -1 -118 -68 -72 -103
-130 -144 -240 -25 -67 -30 -93 -16 -93 5 0 23 39 41 88 45 118 74 167 143
234 32 32 58 66 58 77 0 25 -86 96 -96 79z"/>
<path d="M3426 2102 c-14 -13 -2 -21 55 -41 34 -11 85 -38 113 -60 28 -21 94
-60 146 -86 108 -54 137 -76 192 -146 22 -27 47 -49 56 -49 8 0 43 18 76 39
55 36 114 66 170 85 13 4 16 10 9 17 -14 14 -104 -22 -178 -71 -70 -47 -87
-49 -106 -14 -25 47 -110 114 -198 156 -47 22 -108 58 -136 78 -27 20 -59 42
-70 48 -40 21 -124 50 -129 44z"/>
<path d="M2980 2080 c0 -5 16 -17 36 -25 20 -8 66 -35 103 -59 79 -53 205
-112 281 -132 30 -8 62 -17 72 -20 12 -3 18 0 18 10 0 15 -10 20 -70 31 -56
11 -200 75 -261 116 -62 41 -152 89 -169 89 -5 0 -10 -4 -10 -10z"/>
<path d="M2 2069 c5 -14 122 -41 133 -31 12 12 3 20 -32 25 -21 4 -53 10 -72
13 -26 6 -33 4 -29 -7z"/>
<path d="M200 2041 c0 -14 27 -21 83 -21 74 0 260 -26 325 -46 73 -21 147 -58
199 -100 46 -38 53 -40 53 -20 0 21 -91 84 -168 116 -78 33 -185 56 -331 70
-127 12 -161 13 -161 1z"/>
<path d="M1847 2033 c-16 -15 -5 -25 23 -19 40 7 39 -4 -10 -84 -22 -36 -60
-120 -84 -186 -24 -65 -50 -136 -59 -156 -10 -24 -12 -40 -6 -44 6 -3 12 -4
14 -3 2 2 31 78 65 168 34 90 80 190 101 224 42 65 45 77 27 95 -13 13 -60 16
-71 5z"/>
<path d="M2733 2034 c-49 -11 -19 -24 52 -24 103 0 159 -22 315 -123 72 -47
152 -93 178 -101 26 -9 107 -24 179 -35 162 -23 220 -48 293 -128 35 -38 54
-53 61 -46 7 7 -7 29 -45 67 -79 82 -148 111 -320 135 -158 23 -200 40 -336
131 -133 90 -204 120 -287 125 -37 2 -78 1 -90 -1z"/>
<path d="M3306 2021 c-8 -12 11 -23 84 -46 79 -26 141 -59 174 -94 18 -18 54
-39 92 -51 34 -12 81 -34 103 -51 43 -31 65 -37 59 -16 -6 17 -105 76 -150 87
-20 6 -58 29 -85 51 -58 49 -87 65 -172 94 -36 13 -73 26 -82 30 -10 3 -20 2
-23 -4z"/>
<path d="M1696 1999 c-143 -38 -273 -43 -347 -14 -9 3 -21 -1 -28 -9 -11 -13
-4 -33 40 -121 31 -64 56 -102 61 -97 10 10 -37 123 -73 173 l-22 31 34 -8
c101 -26 419 14 419 52 0 16 5 17 -84 -7z"/>
<path d="M0 1954 c0 -20 201 -47 207 -29 2 7 -39 17 -102 26 -79 11 -105 12
-105 3z"/>
<path d="M2405 1930 c-12 -20 31 -25 230 -26 l210 0 55 -28 c30 -16 79 -44
108 -62 96 -62 254 -136 265 -125 6 6 -23 26 -89 58 -55 27 -143 75 -197 108
-124 73 -166 85 -277 75 -78 -8 -122 -7 -252 5 -26 2 -50 0 -53 -5z"/>
<path d="M280 1923 c0 -12 47 -23 99 -23 20 0 79 -9 131 -20 238 -49 361 -180
364 -387 1 -63 4 -83 15 -83 11 0 13 19 9 93 -10 217 -135 351 -377 402 -93
19 -241 30 -241 18z"/>
<path d="M2263 1909 c-24 -12 -55 -35 -70 -53 -26 -31 -93 -164 -93 -187 0 -6
-18 -51 -39 -99 -33 -72 -71 -188 -71 -214 0 -3 6 -6 13 -6 8 0 18 23 24 55 7
30 30 96 52 145 23 50 41 96 41 103 0 7 17 49 39 93 41 86 87 135 145 154 38
12 49 30 19 30 -10 0 -37 -9 -60 -21z"/>
<path d="M1230 1882 c0 -15 28 -47 35 -40 11 11 -5 48 -21 48 -8 0 -14 -4 -14
-8z"/>
<path d="M1645 1870 c-16 -4 -50 -8 -75 -9 -26 0 -51 -6 -58 -13 -15 -15 -15
-53 0 -81 7 -12 19 -65 28 -117 9 -52 20 -95 25 -95 19 0 -6 174 -33 232 -20
42 -9 53 58 53 25 0 59 4 77 9 40 12 46 5 28 -30 -18 -35 -19 -39 -1 -39 16 0
39 51 34 77 -4 20 -36 26 -83 13z"/>
<path d="M2323 1811 c-28 -13 -49 -33 -66 -63 -30 -51 -88 -209 -81 -220 10
-16 23 3 45 70 30 91 63 156 93 179 23 18 40 20 264 17 220 -2 243 -4 281 -23
71 -37 87 -21 18 19 -41 24 -48 25 -232 26 -104 0 -210 4 -235 7 -34 6 -55 3
-87 -12z"/>
<path d="M426 1792 c-12 -20 6 -40 87 -95 45 -30 119 -90 164 -131 44 -42 86
-76 91 -76 15 0 25 36 17 63 -18 58 -49 117 -61 117 -18 0 -18 0 11 -58 14
-28 25 -60 25 -71 0 -18 -11 -12 -62 39 -35 33 -105 90 -156 126 -51 37 -90
69 -88 72 8 8 127 -28 168 -51 44 -24 64 -14 28 13 -49 37 -210 75 -224 52z"/>
<path d="M897 1794 c-3 -3 5 -23 19 -43 51 -78 68 -146 68 -271 -1 -82 -6
-128 -18 -159 -51 -136 -149 -165 -253 -76 -41 34 -63 44 -63 26 0 -13 56 -59
101 -81 140 -72 260 59 261 284 1 102 -15 171 -59 259 -32 64 -42 75 -56 61z"/>
<path d="M0 1781 c0 -5 21 -12 48 -15 26 -4 80 -16 121 -27 72 -19 95 -19 75
1 -27 27 -244 64 -244 41z"/>
<path d="M1280 1786 c0 -4 9 -39 21 -79 30 -105 36 -279 15 -387 -22 -109 -88
-247 -155 -322 -54 -60 -59 -68 -38 -68 22 0 116 122 157 205 56 114 73 195
73 345 -1 98 -6 144 -25 214 -12 49 -29 91 -35 94 -7 2 -13 1 -13 -2z"/>
<path d="M4306 1774 c-80 -19 -167 -63 -255 -129 -41 -30 -82 -55 -91 -55 -10
0 -24 10 -33 23 -8 12 -18 19 -22 15 -12 -11 1 -35 28 -53 32 -20 54 -12 143
56 38 29 96 65 129 80 67 30 191 59 255 59 22 0 40 5 40 10 0 15 -125 11 -194
-6z"/>
<path d="M2970 1715 c0 -16 27 -32 37 -21 7 7 -16 36 -28 36 -5 0 -9 -7 -9
-15z"/>
<path d="M3846 1722 c-9 -15 21 -49 34 -36 7 7 5 15 -9 28 -10 9 -22 13 -25 8z"/>
<path d="M1629 1673 c-11 -26 -27 -73 -36 -105 -9 -32 -20 -58 -25 -58 -4 0
-8 -9 -8 -21 0 -14 5 -19 17 -17 12 2 23 23 35 68 9 36 26 87 37 113 24 55 26
67 11 67 -6 0 -20 -21 -31 -47z"/>
<path d="M310 1698 c0 -7 25 -26 55 -42 90 -47 205 -138 298 -235 47 -50 88
-91 92 -91 34 0 -119 167 -233 254 -62 47 -190 126 -204 126 -5 0 -8 -6 -8
-12z"/>
<path d="M2356 1683 c-14 -14 -33 -51 -42 -81 -9 -29 -34 -95 -56 -145 -34
-75 -41 -102 -42 -160 -2 -101 20 -101 26 0 4 63 13 96 46 169 22 51 46 111
52 134 15 55 50 90 90 90 16 0 30 5 30 10 0 6 -17 10 -39 10 -28 0 -45 -7 -65
-27z"/>
<path d="M2520 1691 c0 -13 85 -20 166 -14 82 6 125 -5 199 -52 69 -44 269
-144 333 -166 74 -26 176 -36 170 -18 -2 8 -18 15 -34 16 -109 10 -261 72
-453 187 l-95 56 -143 0 c-79 0 -143 -4 -143 -9z"/>
<path d="M1424 1682 c3 -5 10 -51 17 -102 19 -162 -13 -344 -86 -490 -37 -74
-114 -180 -152 -209 -14 -11 -22 -25 -18 -32 10 -15 85 59 135 131 55 80 86
148 116 247 24 77 27 106 28 238 1 166 -7 225 -30 225 -8 0 -13 -4 -10 -8z"/>
<path d="M0 1670 c0 -12 45 -24 60 -15 5 3 8 11 5 16 -8 12 -65 12 -65 -1z"/>
<path d="M3050 1668 c1 -7 47 -34 103 -60 85 -40 125 -51 245 -72 79 -14 154
-32 167 -40 30 -20 35 -20 35 -2 0 23 -59 43 -195 66 -108 18 -149 30 -238 71
-59 27 -110 49 -112 49 -3 0 -5 -6 -5 -12z"/>
<path d="M3340 1670 c0 -11 8 -13 130 -35 124 -22 145 -32 188 -81 48 -53 70
-123 53 -160 -14 -33 -3 -54 16 -29 36 50 -7 181 -78 238 -29 22 -62 33 -155
52 -134 27 -154 29 -154 15z"/>
<path d="M4336 1664 c-102 -25 -259 -113 -354 -199 -62 -57 -46 -70 18 -16 71
60 211 146 278 171 31 12 94 27 139 33 46 6 83 14 83 19 0 13 -99 8 -164 -8z"/>
<path d="M130 1647 c0 -8 19 -20 43 -27 108 -32 248 -122 363 -233 51 -48 74
-65 80 -56 15 25 -203 206 -317 265 -48 24 -148 64 -161 64 -5 0 -8 -6 -8 -13z"/>
<path d="M2435 1573 c-25 -30 -115 -251 -115 -284 0 -37 27 -20 33 20 4 33 51
153 90 231 l13 25 159 -4 160 -3 113 -65 c75 -44 117 -62 123 -56 7 7 -32 33
-113 79 l-123 69 -162 3 c-148 3 -163 2 -178 -15z"/>
<path d="M0 1566 c0 -7 26 -17 63 -25 81 -17 187 -67 262 -124 33 -25 111
-100 174 -166 128 -138 177 -179 192 -164 6 6 -5 20 -32 39 -24 16 -85 76
-137 134 -107 119 -171 176 -254 225 -98 58 -268 110 -268 81z"/>
<path d="M4440 1565 c0 -10 10 -15 30 -15 20 0 30 5 30 15 0 10 -10 15 -30 15
-20 0 -30 -5 -30 -15z"/>
<path d="M1827 1563 c-4 -3 -7 -15 -7 -25 0 -26 24 -17 28 10 3 21 -8 29 -21
15z"/>
<path d="M4337 1563 c-13 -12 -7 -23 13 -23 11 0 20 7 20 15 0 15 -21 21 -33
8z"/>
<path d="M1930 1515 c-34 -79 -50 -160 -50 -252 0 -109 19 -178 71 -259 21
-33 39 -70 39 -82 0 -23 -5 -26 -90 -56 -55 -19 -106 -59 -96 -74 4 -8 22 0
52 23 25 19 55 35 67 35 31 0 87 36 88 57 2 34 -3 49 -46 121 -74 125 -84 273
-29 425 37 103 38 107 25 107 -7 0 -20 -20 -31 -45z"/>
<path d="M1217 1443 c-10 -157 -64 -292 -154 -385 -37 -38 -40 -54 -9 -42 24
9 105 121 133 183 13 29 30 81 38 115 16 66 20 226 7 226 -5 0 -12 -44 -15
-97z"/>
<path d="M4184 1485 c-100 -67 -261 -218 -303 -283 -35 -55 -37 -62 -18 -62 8
0 18 10 24 23 34 74 213 242 346 324 55 34 71 53 45 53 -7 0 -50 -25 -94 -55z"/>
<path d="M3833 1443 c1 -124 -54 -194 -223 -283 -159 -84 -259 -194 -277 -306
-7 -40 14 -56 22 -17 27 125 106 215 257 294 171 89 248 181 248 296 0 28 -3
58 -6 67 -13 34 -21 13 -21 -51z"/>
<path d="M1110 1471 c0 -11 5 -23 10 -26 6 -3 10 1 10 9 0 9 0 19 1 23 0 4 -4
9 -10 11 -6 2 -11 -5 -11 -17z"/>
<path d="M1676 1463 c-27 -90 -32 -238 -11 -333 24 -109 21 -123 -36 -186 -51
-57 -119 -181 -119 -219 0 -11 -9 -37 -19 -58 -10 -20 -15 -39 -11 -42 15 -9
39 31 55 95 20 80 58 148 125 224 27 31 50 63 50 70 0 8 -7 51 -16 97 -16 82
-15 253 2 337 7 34 -10 47 -20 15z"/>
<path d="M1790 1456 c-17 -47 -32 -191 -25 -256 4 -36 18 -94 32 -130 38 -100
37 -98 13 -118 -14 -11 -19 -21 -13 -25 14 -9 63 30 63 49 0 8 -10 34 -22 57
-49 96 -63 250 -33 372 17 73 18 75 5 75 -6 0 -15 -11 -20 -24z"/>
<path d="M2507 1450 c-33 -39 -61 -113 -53 -143 4 -16 33 -39 95 -76 49 -29
124 -82 168 -117 71 -59 113 -79 113 -55 0 6 -11 16 -24 23 -13 7 -62 42 -109
78 -47 35 -113 80 -148 100 -62 35 -64 38 -63 76 0 23 10 54 25 76 21 33 29
38 62 38 26 0 37 4 37 15 0 11 -11 15 -39 15 -31 0 -44 -6 -64 -30z"/>
<path d="M2680 1468 c0 -8 21 -18 48 -25 27 -6 73 -26 103 -45 30 -18 68 -40
84 -48 41 -21 41 -39 4 -86 -36 -45 -91 -153 -83 -166 10 -16 19 -7 38 37 10
25 36 71 57 103 38 55 47 86 31 108 -4 6 -32 24 -62 41 -30 16 -75 41 -100 55
-55 31 -120 45 -120 26z"/>
<path d="M0 1455 c0 -7 15 -16 33 -19 49 -9 155 -62 215 -108 36 -26 57 -37
64 -30 12 12 -96 91 -173 126 -73 34 -139 48 -139 31z"/>
<path d="M2136 1461 c-14 -22 -36 -131 -36 -178 0 -105 17 -153 74 -208 56
-54 140 -104 153 -91 4 5 -1 13 -11 20 -161 95 -188 135 -188 268 1 46 8 105
16 133 9 28 16 53 16 58 0 10 -18 9 -24 -2z"/>
<path d="M4370 1454 c-50 -15 -99 -49 -88 -59 4 -4 31 4 59 19 37 18 69 26
106 26 40 0 53 4 53 15 0 20 -68 19 -130 -1z"/>
<path d="M3587 1405 c-9 -13 -54 -45 -100 -70 -112 -63 -181 -118 -244 -195
-97 -116 -143 -253 -127 -377 10 -86 24 -57 27 57 3 99 5 110 41 185 53 109
174 230 301 300 96 53 135 85 135 110 0 22 -12 18 -33 -10z"/>
<path d="M3070 1410 c0 -16 38 -32 46 -19 7 12 -12 29 -33 29 -7 0 -13 -4 -13
-10z"/>
<path d="M1093 1340 c-24 -128 -102 -245 -181 -271 -21 -7 -61 -9 -99 -6 -48
5 -63 3 -60 -6 5 -16 75 -29 120 -22 115 17 192 104 237 266 23 86 24 99 7 99
-7 0 -17 -24 -24 -60z"/>
<path d="M3284 1336 c-91 -72 -178 -177 -224 -269 -32 -65 -66 -207 -56 -233
10 -26 26 -5 26 35 0 53 26 134 68 216 40 76 190 238 250 269 28 15 45 46 24
46 -4 0 -44 -29 -88 -64z"/>
<path d="M2620 1341 c0 -10 17 -30 40 -45 45 -30 50 -31 50 -13 0 6 -17 22
-38 34 l-37 22 35 0 c46 1 115 -38 115 -64 0 -15 -6 -19 -22 -18 -15 2 -23 -3
-23 -12 0 -18 41 -20 58 -3 7 7 12 24 12 40 0 39 -68 78 -138 78 -44 0 -52 -3
-52 -19z"/>
<path d="M3094 1312 c-110 -126 -175 -254 -196 -386 -6 -42 -9 -79 -5 -82 13
-13 27 9 27 43 0 103 75 271 171 379 53 60 72 95 52 94 -5 -1 -26 -22 -49 -48z"/>
<path d="M4119 1283 c-123 -93 -169 -153 -169 -220 0 -33 6 -50 25 -68 13 -14
30 -25 37 -25 34 0 92 -24 122 -51 38 -33 61 -22 30 13 -25 26 -61 45 -107 53
-49 10 -87 40 -87 71 0 62 57 129 193 228 42 32 75 61 72 67 -4 5 -8 9 -10 9
-2 0 -49 -35 -106 -77z"/>
<path d="M4407 1346 c-20 -8 -72 -40 -115 -73 -42 -32 -96 -71 -119 -86 -40
-25 -55 -47 -34 -47 13 0 134 83 192 131 54 45 87 59 135 59 24 0 34 4 32 13
-6 17 -47 19 -91 3z"/>
<path d="M2 1339 c2 -6 20 -17 41 -24 69 -24 149 -80 249 -174 54 -51 102 -91
105 -87 10 10 -154 172 -219 217 -88 60 -186 98 -176 68z"/>
<path d="M846 1333 c-10 -25 10 -39 23 -15 10 19 6 32 -10 32 -4 0 -10 -8 -13
-17z"/>
<path d="M796 1312 c-13 -12 -4 -22 20 -22 15 0 24 5 22 12 -4 12 -33 20 -42
10z"/>
<path d="M3545 1241 c-194 -116 -303 -250 -313 -383 -6 -73 13 -78 21 -6 4 28
19 77 33 107 37 76 159 196 249 245 82 45 135 83 135 97 0 15 -9 10 -125 -60z"/>
<path d="M1993 1216 c10 -142 70 -224 230 -315 48 -28 92 -51 97 -51 27 0 2
23 -72 65 -164 94 -210 152 -230 294 -15 102 -33 107 -25 7z"/>
<path d="M356 1252 c-7 -11 184 -198 246 -240 109 -74 219 -98 321 -68 31 9
57 20 57 25 0 17 -13 19 -48 4 -27 -11 -59 -14 -117 -11 -124 7 -193 48 -366
216 -48 46 -89 79 -93 74z"/>
<path d="M0 1228 c0 -7 26 -26 58 -43 38 -20 103 -74 192 -161 144 -139 233
-214 256 -214 27 0 14 17 -42 55 -31 21 -113 95 -183 163 -129 127 -185 172
-246 198 -27 11 -35 11 -35 2z"/>
<path d="M1531 1218 c-6 -13 -22 -54 -37 -93 -30 -79 -62 -139 -111 -206 -18
-26 -33 -52 -33 -58 0 -67 162 202 186 309 7 34 8 34 15 10 4 -14 7 -44 8 -67
1 -31 5 -43 16 -43 18 0 18 14 2 99 -13 69 -31 87 -46 49z"/>
<path d="M4472 1228 c6 -18 28 -21 28 -4 0 9 -7 16 -16 16 -9 0 -14 -5 -12
-12z"/>
<path d="M2375 1219 c-9 -13 -15 -8 86 -66 117 -67 199 -131 290 -225 43 -44
80 -75 83 -69 8 13 -108 137 -188 200 -49 39 -131 92 -258 167 -4 3 -10 -1
-13 -7z"/>
<path d="M4341 1164 c-28 -25 -51 -54 -51 -65 0 -10 15 -34 34 -53 63 -62 101
-157 121 -295 9 -58 20 -100 31 -112 25 -28 28 -17 10 35 -9 26 -16 61 -16 79
0 85 -56 231 -114 294 -20 22 -36 47 -36 56 0 8 20 31 45 51 43 35 56 56 36
56 -5 0 -32 -21 -60 -46z"/>
<path d="M2260 1159 c0 -16 15 -27 145 -104 132 -78 239 -166 318 -260 32 -39
63 -72 69 -74 23 -8 0 34 -52 92 -80 91 -178 175 -280 237 -49 30 -111 68
-137 85 -62 38 -63 39 -63 24z"/>
<path d="M4462 1114 c-25 -17 -27 -32 -10 -69 13 -29 45 -36 33 -7 -17 40 -18
62 -1 62 9 0 16 4 16 9 0 18 -17 20 -38 5z"/>
<path d="M0 1105 c0 -8 5 -15 11 -15 6 0 77 -65 158 -145 132 -130 171 -162
171 -137 0 4 -62 68 -138 143 -138 137 -202 186 -202 154z"/>
<path d="M4102 1078 c3 -7 22 -21 44 -31 58 -28 119 -92 148 -156 14 -31 35
-108 47 -171 12 -63 24 -117 26 -119 2 -3 7 0 12 5 14 13 -33 233 -62 296 -31
68 -89 131 -151 163 -55 28 -70 31 -64 13z"/>
<path d="M3820 1023 c0 -77 25 -119 77 -131 21 -5 61 -14 88 -21 95 -23 135
-92 154 -269 12 -114 29 -163 69 -205 37 -40 99 -71 108 -55 4 6 3 13 -2 15
-37 12 -82 45 -102 73 -29 43 -40 85 -52 204 -19 185 -70 250 -213 271 -28 4
-60 17 -75 30 -23 20 -27 31 -28 81 0 35 -5 59 -12 62 -8 2 -12 -15 -12 -55z"/>
<path d="M3614 1034 c-114 -68 -174 -149 -174 -232 0 -93 45 -142 150 -162 30
-6 67 -13 83 -16 20 -4 27 -2 27 9 0 11 -16 17 -57 22 -107 13 -157 44 -173
107 -22 79 24 161 130 234 101 69 126 61 144 -47 6 -37 30 -78 40 -69 3 3 -1
28 -9 55 -7 28 -16 62 -19 77 -8 35 -32 58 -60 58 -12 0 -49 -16 -82 -36z"/>
<path d="M440 1001 c0 -12 29 -35 36 -28 11 10 -5 37 -21 37 -8 0 -15 -4 -15
-9z"/>
<path d="M1485 939 c-39 -58 -66 -119 -91 -206 -2 -7 -27 -26 -57 -43 -99 -56
-181 -159 -276 -347 -33 -66 -37 -83 -21 -83 5 0 18 20 29 45 41 92 136 241
185 290 28 28 74 64 102 79 50 27 74 58 74 94 0 27 53 132 94 185 40 53 42 57
22 57 -8 0 -36 -32 -61 -71z"/>
<path d="M6 981 c-7 -11 20 -48 29 -39 9 8 -4 48 -15 48 -5 0 -11 -4 -14 -9z"/>
<path d="M2360 960 c0 -16 38 -32 46 -19 7 12 -12 29 -33 29 -7 0 -13 -4 -13
-10z"/>
<path d="M514 949 c-8 -13 16 -31 98 -73 87 -44 163 -60 260 -53 78 5 188 44
188 66 0 15 -11 14 -56 -8 -126 -61 -279 -46 -427 43 -33 20 -59 30 -63 25z"/>
<path d="M2460 895 c0 -8 4 -15 8 -15 15 0 153 -133 197 -190 110 -142 164
-286 174 -458 6 -120 24 -155 29 -58 9 181 -72 402 -207 561 -50 58 -178 175
-193 175 -5 0 -8 -7 -8 -15z"/>
<path d="M3586 870 c-66 -73 -43 -113 75 -129 41 -6 83 -13 91 -16 32 -12 31
17 -1 42 -17 14 -45 52 -62 84 -36 71 -53 74 -103 19z m74 -15 c6 -20 23 -49
37 -65 28 -34 24 -35 -58 -20 -65 13 -75 21 -59 51 15 29 51 69 61 69 4 0 13
-16 19 -35z"/>
<path d="M1713 868 c-40 -44 -73 -105 -104 -188 -34 -94 -60 -128 -134 -170
-85 -49 -140 -120 -224 -287 -35 -71 -36 -73 -18 -73 6 0 39 52 71 115 74 143
100 175 184 224 88 52 107 74 136 157 29 86 49 125 92 185 19 26 34 49 34 53
0 13 -17 5 -37 -16z"/>
<path d="M43 858 c3 -13 9 -41 12 -63 13 -82 40 -115 93 -115 26 0 121 -67
179 -127 86 -90 162 -263 163 -370 0 -23 5 -33 16 -33 12 0 14 8 9 47 -21 147
-72 264 -161 362 -63 69 -160 138 -209 147 -46 8 -55 21 -67 103 -8 52 -15 71
-25 71 -11 0 -14 -7 -10 -22z"/>
<path d="M151 851 c-9 -6 -11 -18 -7 -35 7 -30 23 -34 28 -8 2 15 8 12 33 -17
27 -31 27 -33 7 -27 -16 6 -22 3 -22 -8 0 -21 49 -22 56 -1 3 8 -10 34 -31 60
-40 48 -42 49 -64 36z"/>
<path d="M3820 825 c0 -16 27 -32 37 -21 7 7 -16 36 -28 36 -5 0 -9 -7 -9 -15z"/>
<path d="M4204 818 c9 -32 43 -213 51 -270 9 -68 33 -92 117 -118 40 -12 86
-29 101 -37 27 -13 28 -13 25 4 -2 13 -29 27 -97 50 -52 17 -98 38 -103 45
-11 17 -14 31 -37 173 -11 66 -24 133 -30 148 -13 33 -36 37 -27 5z"/>
<path d="M1300 815 c-7 -9 -10 -18 -7 -22 8 -7 37 15 37 28 0 14 -16 11 -30
-6z"/>
<path d="M2857 823 c-9 -9 12 -33 29 -33 19 0 18 26 -2 34 -19 7 -19 7 -27 -1z"/>
<path d="M1094 799 c-119 -75 -328 -88 -463 -28 -30 13 -48 16 -55 9 -11 -11
39 -35 119 -56 69 -19 219 -18 286 2 59 18 144 58 153 73 12 19 -11 19 -40 0z"/>
<path d="M2380 811 c0 -5 12 -17 28 -27 51 -33 144 -129 193 -197 58 -83 104
-189 119 -280 12 -68 9 -220 -5 -265 -6 -16 -3 -22 8 -22 21 0 32 68 31 180
-2 176 -64 329 -195 481 -74 86 -179 162 -179 130z"/>
<path d="M2009 786 c-61 -16 -133 -60 -159 -96 -12 -16 -32 -72 -44 -123 -27
-108 -38 -131 -71 -153 -27 -18 -33 -34 -11 -34 19 0 65 49 80 85 7 16 18 59
25 95 16 82 31 110 78 149 49 41 119 61 210 61 40 0 73 4 73 9 0 23 -107 27
-181 7z"/>
<path d="M3900 787 c0 -9 15 -17 40 -21 56 -9 69 -35 86 -170 16 -132 43 -212
86 -262 43 -49 53 -32 14 24 -43 61 -63 124 -76 246 -12 110 -23 141 -60 167
-36 25 -90 35 -90 16z"/>
<path d="M380 761 c0 -25 187 -120 290 -147 87 -23 244 -23 330 0 73 20 168
65 219 104 53 40 19 38 -47 -3 -32 -20 -92 -48 -133 -63 -65 -23 -89 -26 -199
-27 -111 0 -135 3 -212 29 -48 15 -120 48 -159 72 -72 45 -89 51 -89 35z"/>
<path d="M2250 758 c0 -7 26 -24 58 -38 105 -45 245 -212 284 -337 7 -24 19
-43 25 -43 20 0 16 16 -25 104 -67 140 -162 245 -274 302 -53 27 -68 30 -68
12z"/>
<path d="M3006 718 c15 -113 60 -226 122 -312 33 -45 142 -136 163 -136 19 0
8 27 -16 38 -39 18 -120 98 -156 153 -38 59 -75 165 -84 242 -5 39 -12 57 -21
57 -11 0 -13 -10 -8 -42z"/>
<path d="M3330 741 c0 -17 12 -41 21 -41 5 0 9 11 9 25 0 16 -6 25 -15 25 -8
0 -15 -4 -15 -9z"/>
<path d="M1746 718 c-8 -13 -26 -63 -39 -111 -30 -105 -55 -137 -142 -177 -33
-15 -72 -38 -86 -52 -27 -25 -109 -159 -109 -177 0 -26 20 -7 50 47 54 96 78
121 153 158 110 55 124 72 158 197 11 38 26 82 34 98 18 35 2 49 -19 17z"/>
<path d="M3236 731 c-11 -17 34 -140 67 -183 43 -58 118 -93 246 -118 201 -38
264 -98 248 -236 -4 -43 5 -66 18 -44 4 6 7 40 7 75 1 128 -68 190 -250 226
-148 30 -185 45 -230 93 -36 39 -82 135 -82 171 0 17 -17 29 -24 16z"/>
<path d="M2047 679 c-84 -20 -116 -52 -132 -129 -3 -19 -9 -43 -11 -52 -3 -11
0 -18 9 -18 10 0 18 20 26 58 13 65 35 92 90 111 75 25 178 6 264 -49 48 -30
67 -37 67 -22 0 12 -92 70 -135 85 -57 20 -133 27 -178 16z"/>
<path d="M2830 661 c0 -4 18 -47 40 -93 71 -153 99 -334 77 -505 -5 -42 -5
-63 2 -63 19 0 26 54 25 200 -1 115 -5 161 -22 223 -25 89 -96 247 -111 247
-6 0 -11 -4 -11 -9z"/>
<path d="M3365 661 c-8 -14 54 -75 101 -99 22 -11 92 -30 154 -42 134 -25 164
-36 214 -80 40 -36 58 -34 34 2 -27 41 -109 76 -235 102 -138 27 -181 45 -223
92 -32 37 -36 39 -45 25z"/>
<path d="M2 633 c2 -8 26 -22 54 -32 28 -9 74 -34 102 -54 58 -41 62 -43 62
-24 0 24 -92 81 -180 111 -36 12 -41 12 -38 -1z"/>
<path d="M3140 631 c0 -20 17 -37 27 -28 7 8 -7 47 -18 47 -5 0 -9 -9 -9 -19z"/>
<path d="M3766 621 c-3 -5 23 -23 58 -40 125 -61 186 -163 195 -324 6 -106 24
-135 29 -47 10 170 -76 330 -213 394 -60 29 -62 29 -69 17z"/>
<path d="M1321 533 c-70 -71 -143 -193 -200 -330 -16 -40 -44 -93 -61 -119
-21 -30 -29 -49 -22 -56 13 -13 72 82 113 182 68 164 159 295 255 367 28 21
29 22 5 22 -16 1 -44 -20 -90 -66z"/>
<path d="M2063 568 c-26 -13 -48 -57 -58 -118 -4 -25 -19 -67 -34 -95 -14 -27
-27 -53 -29 -57 -2 -5 3 -8 11 -8 20 0 63 90 78 160 6 30 17 65 25 78 32 50
156 11 232 -72 62 -67 115 -184 120 -263 3 -45 8 -63 18 -63 34 0 6 139 -49
245 -75 140 -228 235 -314 193z"/>
<path d="M494 557 c-3 -8 10 -48 29 -88 19 -41 37 -82 40 -91 7 -21 27 -24 27
-5 0 7 -16 45 -35 86 -38 79 -40 85 -25 76 6 -4 48 -16 93 -28 95 -24 321 -30
370 -9 15 6 27 10 27 8 0 -3 -18 -35 -39 -73 -23 -40 -36 -72 -30 -77 11 -12
8 -16 57 74 52 96 47 109 -31 90 -104 -24 -349 -1 -459 45 -12 5 -20 2 -24 -8z"/>
<path d="M3175 560 c-19 -30 91 -152 170 -189 27 -13 100 -34 162 -47 62 -12
121 -27 131 -33 18 -10 32 -6 32 9 0 13 -51 30 -141 45 -50 9 -115 25 -144 36
-64 24 -148 96 -176 150 -21 41 -24 45 -34 29z"/>
<path d="M4395 561 c-5 -9 24 -31 39 -31 13 0 5 28 -10 34 -20 8 -22 8 -29 -3z"/>
<path d="M5 519 c-4 -6 -5 -11 -4 -12 2 -1 26 -13 53 -27 150 -77 236 -247
208 -410 -12 -67 -10 -82 11 -61 8 8 12 48 12 124 0 106 -2 116 -32 178 -20
41 -53 85 -86 116 -60 57 -152 109 -162 92z"/>
<path d="M2396 522 c-3 -5 3 -21 13 -34 31 -38 78 -138 97 -203 24 -83 22
-179 -4 -238 -26 -58 -5 -67 22 -9 27 54 32 154 12 232 -29 115 -121 282 -140
252z"/>
<path d="M260 471 c0 -5 15 -32 34 -60 69 -102 100 -243 78 -358 -7 -42 -7
-53 4 -53 34 0 31 228 -4 319 -35 89 -112 194 -112 152z"/>
<path d="M1880 421 c-7 -14 -7 -22 1 -27 12 -7 29 12 29 34 0 19 -18 14 -30
-7z"/>
<path d="M2118 413 c-65 -161 -117 -232 -204 -282 -99 -58 -105 -62 -99 -71 8
-12 119 49 174 96 56 48 117 142 137 211 9 29 21 53 29 53 23 0 75 -63 111
-134 35 -70 42 -121 23 -158 -7 -13 -8 -23 -1 -30 16 -16 36 31 36 83 0 56
-44 153 -99 217 -45 52 -89 59 -107 15z"/>
<path d="M663 404 c-3 -8 0 -27 7 -42 7 -15 16 -56 19 -91 4 -38 11 -66 19
-69 15 -5 16 56 1 113 -25 94 -30 85 47 78 38 -3 71 -8 74 -10 3 -2 -16 -45
-41 -94 -25 -49 -43 -92 -38 -94 13 -8 44 39 79 120 33 75 33 78 15 91 -28 21
-174 19 -182 -2z"/>
<path d="M0 397 c0 -7 20 -27 44 -44 53 -38 97 -108 104 -169 3 -28 10 -44 18
-44 37 0 -3 124 -60 187 -50 55 -106 92 -106 70z"/>
<path d="M1615 353 c-74 -38 -132 -119 -178 -248 -14 -38 -28 -78 -32 -87 -5
-12 -2 -18 6 -18 8 0 29 41 51 98 48 125 86 182 148 222 28 18 47 36 44 41 -6
11 -3 12 -39 -8z"/>
<path d="M1820 335 c-7 -8 -50 -33 -95 -54 -112 -54 -134 -82 -201 -263 -4
-12 -1 -18 8 -18 8 0 22 23 33 55 10 30 31 77 47 105 25 44 39 55 116 95 107
55 130 71 116 85 -8 8 -15 6 -24 -5z"/>
<path d="M3907 258 c4 -79 1 -105 -20 -175 -18 -63 -21 -83 -11 -83 36 0 73
237 51 323 -15 57 -25 24 -20 -65z"/>
<path d="M4380 322 c0 -5 18 -17 41 -27 22 -10 49 -30 60 -43 17 -22 19 -23
19 -5 0 21 -30 53 -67 72 -26 13 -53 14 -53 3z"/>
<path d="M595 150 c0 -108 3 -150 12 -150 24 0 29 227 6 286 -14 36 -18 3 -18
-136z"/>
<path d="M911 282 c-14 -27 -14 -32 3 -32 18 0 30 30 17 43 -6 6 -13 1 -20
-11z"/>
<path d="M4202 269 c4 -13 34 -27 141 -64 57 -20 80 -51 81 -110 1 -33 -5 -50
-23 -69 -19 -20 -21 -26 -8 -26 26 0 57 49 57 92 0 79 -35 117 -141 152 -40
13 -82 28 -93 32 -14 5 -17 3 -14 -7z"/>
<path d="M2635 204 c5 -48 2 -89 -8 -134 -16 -66 -16 -76 1 -66 31 19 44 254
14 264 -11 3 -12 -10 -7 -64z"/>
<path d="M3067 151 c-4 -65 -10 -126 -13 -135 -4 -10 -1 -16 9 -16 16 0 19 23
31 198 4 54 2 72 -8 72 -9 0 -15 -32 -19 -119z"/>
<path d="M3365 262 c-19 -20 0 -27 104 -42 113 -16 114 -18 66 -144 -25 -66
-26 -98 -2 -65 24 32 60 155 54 181 -7 27 -43 48 -85 48 -15 0 -51 6 -80 13
-28 8 -54 12 -57 9z"/>
<path d="M3 240 c3 -14 12 -43 21 -65 18 -46 20 -96 7 -143 -7 -24 -7 -32 4
-32 16 0 25 32 25 94 0 59 -15 114 -42 147 l-20 24 5 -25z"/>
<path d="M3140 246 c0 -29 129 -97 221 -117 28 -6 52 -16 55 -23 2 -7 -2 -32
-11 -56 -8 -23 -13 -45 -11 -48 11 -10 26 11 41 58 21 63 13 75 -58 90 -61 12
-149 51 -194 86 -37 28 -43 29 -43 10z"/>
<path d="M1830 215 c-30 -19 -74 -45 -96 -58 -30 -18 -48 -39 -68 -80 -28 -60
-32 -77 -16 -77 5 0 19 22 31 49 26 62 47 81 144 134 43 23 80 48 83 55 6 20
-19 12 -78 -23z"/>
<path d="M2117 178 c-54 -75 -96 -116 -157 -152 -40 -23 -42 -26 -19 -26 42 0
128 69 185 148 29 40 55 68 59 63 11 -20 -38 -97 -98 -153 -42 -39 -56 -58
-44 -58 24 0 113 85 144 137 30 51 28 97 -3 101 -16 2 -32 -12 -67 -60z"/>
<path d="M3690 215 c0 -14 -13 -66 -30 -117 -28 -89 -31 -113 -10 -92 33 33
76 234 50 234 -5 0 -10 -11 -10 -25z"/>
<path d="M804 117 c-89 -114 -92 -120 -71 -115 14 3 137 150 157 189 6 10 6
20 1 23 -4 3 -44 -41 -87 -97z"/>
<path d="M991 192 c-14 -27 -14 -32 3 -32 18 0 30 30 17 43 -6 6 -13 1 -20
-11z"/>
<path d="M4152 135 c-12 -15 -24 -43 -28 -64 -3 -20 -8 -44 -11 -53 -3 -12 1
-18 11 -18 9 0 16 8 16 18 0 31 20 91 37 107 10 11 12 20 6 26 -7 7 -17 2 -31
-16z"/>
<path d="M4250 130 c0 -6 8 -13 18 -17 51 -18 49 -39 -11 -83 -36 -26 -38 -30
-18 -30 26 0 91 60 91 84 0 8 -10 24 -22 36 -23 21 -58 27 -58 10z"/>
<path d="M915 78 c-56 -73 -58 -78 -41 -78 17 0 108 114 99 124 -12 11 -19 6
-58 -46z"/>
<path d="M1321 108 c-5 -13 -16 -40 -25 -62 -19 -47 -19 -46 -2 -46 11 0 56
96 56 121 0 18 -21 8 -29 -13z"/>
<path d="M4006 94 c-10 -26 5 -39 21 -19 7 11 13 22 13 27 0 15 -28 8 -34 -8z"/>
<path d="M1186 73 c-10 -25 10 -39 23 -15 10 19 6 32 -10 32 -4 0 -10 -8 -13
-17z"/>
<path d="M3772 69 c-21 -54 -23 -69 -12 -69 17 0 44 70 31 83 -7 7 -13 3 -19
-14z"/>
<path d="M486 44 c-8 -38 -2 -54 13 -38 14 14 17 67 5 71 -7 2 -15 -12 -18
-33z"/>
<path d="M3244 69 c-4 -7 1 -16 10 -21 9 -5 16 -18 16 -28 0 -11 7 -20 15 -20
25 0 18 46 -9 64 -18 11 -27 12 -32 5z"/>
<path d="M146 58 c-13 -42 -13 -58 -1 -58 7 0 15 10 19 23 9 33 7 47 -4 47 -6
0 -12 -6 -14 -12z"/>
<path d="M2366 35 c-20 -26 -23 -35 -12 -35 15 0 56 45 56 61 0 19 -19 8 -44
-26z"/>
<path d="M2216 41 c-10 -11 -13 -22 -8 -25 5 -3 17 3 26 13 10 11 13 22 8 25
-5 3 -17 -3 -26 -13z"/>
<path d="M2830 41 c0 -5 -3 -16 -6 -25 -4 -11 -1 -16 10 -16 10 0 16 9 16 25
0 14 -4 25 -10 25 -5 0 -10 -4 -10 -9z"/>
<path d="M3170 26 c0 -14 5 -26 10 -26 6 0 10 7 10 15 0 8 0 18 1 22 0 4 -4 9
-10 11 -6 2 -11 -8 -11 -22z"/>
</g>
</svg>
