<svg xmlns="http://www.w3.org/2000/svg" width="600" height="600" viewBox="0 0 450 450" opacity=".08" preserveAspectRatio="xMidYMid meet" xmlns:v="https://vecta.io/nano"><g fill="#7c2d12"><path d="M1 2.1c-2.1 3.8-.6 5 1.8 1.4C4.5.8 4.7 0 3.5 0 2.7 0 1.6.9 1 2.1zm10.9 1.1c-.7 1.8-3.7 5.9-6.7 9-7.4 7.8-6.2 9.7 1.4 2.2C12.6 8.5 17.3 0 14.5 0c-.7 0-1.9 1.5-2.6 3.2zm12.4-1.5c-2.2 6.6-6 13.4-9.4 16.9-3 3-3.7 4.4-2.8 5 2.7 1.7 12.3-12.1 14.4-20.9.8-3-1.2-3.9-2.2-1zm11.3.5c-.9 3.4-.7 5.8.3 5.8.5 0 1.2-.8 1.5-1.8.2-.9.7-2.7 1.1-4 .4-1.5.2-2.2-.8-2.2-.8 0-1.7 1-2.1 2.2zm9.5 7.7C41.4 21.1 36.3 29.6 29 36.4c-4.8 4.5-6.1 6.6-4 6.6 2.3 0 13.8-13.1 17.2-19.6S50 4.5 50 1.4c0-3.9-2-.4-4.9 8.5zm12.2-1.5c-1.2 4.6-3.1 10.3-4.2 12.7-2.3 4.8-2.5 5.9-1.1 5.9 1.6 0 4.9-7.5 7.5-17.2C62.4-1.1 62.3 0 60.7 0c-.7 0-2.1 3.5-3.4 8.4zM66.9 7C63.2 13.3 59 24.1 59 27.6c0 1.7 1.9 1.9 2.4.1 3.3-12.1 4.8-15.4 11.4-25.5 1.3-2 1.3-2.2-.1-2.2-.9 0-3.4 3.1-5.8 7zm13.3.3c-2.8 4.1-6 9.6-7 12.3-2.8 7-5.2 18.3-4.1 19 1.1.6 1.3 0 3.9-9.9C75.2 20 78.1 14 84.1 6.2 88.4.4 88.6 0 86.6 0c-.7 0-3.6 3.3-6.4 7.3zM107 9C95.6 22.5 91.7 30.8 89.6 45.7c-.5 3.3-.3 4.3.8 4.3.9 0 1.6-1.8 2.1-5.7 1.6-13.3 5.6-21.1 17.9-35.5C114 4.6 117 .9 117 .6c0-2.3-3.6.7-10 8.4zm16.7-2.7c-2.6 3.4-7.1 9-10.1 12.4-6.7 8-11.2 16.1-9.7 17.6.7.7 1.2.5 1.7-.9 1.5-3.9 7.3-12.1 14.3-20.2C126.2 7.9 130 2.3 130 .5c0-1.6-2 .2-6.3 5.8zm13.4-.6c-1.6 3.2-6.1 9.4-10.1 13.8-7.6 8.4-13 16-13 18.2 0 2.3 1.5 1.4 3.4-2.2 1-1.9 5.6-7.6 10.2-12.6 7.8-8.7 12.3-15.4 13.9-20.7 1.3-4.4-1.5-2.1-4.4 3.5zm10.6 3.7c-3.4 6.8-6.8 11.7-12.2 17.6-8 8.7-9.4 13.2-1.8 5.8 6.8-6.6 13.2-15.5 17-23.5 1.8-3.9 3.3-7.6 3.3-8.2 0-3-2.1-.2-6.3 8.3zM162 4.2c-.7 2.4-2.3 6.4-3.6 9-2.6 5.1-2.9 6.8-1.4 6.8 1.2 0 4.7-6.7 7.1-13.9 2.3-6.5 2.2-6.1.6-6.1-.8 0-2 1.9-2.7 4.2zM175.7.7c-.3.5-2.1 5.1-4.1 10.3-4.3 11-9.3 19.4-17.7 29.5-5.5 6.7-7 9.5-5.1 9.5 2.1 0 16.1-19.1 20.6-28 2.8-5.4 8.6-20 8.6-21.6 0-.7-1.9-.5-2.3.3zm13.4.7c-1.9 2.3.1 2.5 3.9.5l3.5-1.9h-3.1c-1.8 0-3.7.6-4.3 1.4zm9.2 3.3c-5.3 6.4-8.3 10.9-8.3 12.2 0 2.2 1.8 1 4.5-3.1 1.5-2.3 4.8-6.4 7.3-9 3.8-4 4.1-4.8 2.4-4.8-1.2 0-3.6 1.9-5.9 4.7zm26 4.5c-5 5.1-11.1 12.5-13.6 16.4-6.2 9.5-12 22.5-10.8 23.7.6.6 2.4-2.1 5-7.7 5.6-12.2 12-21.4 22.4-32.2 4.9-5.2 8.3-9.4 7.5-9.4s-5.5 4.2-10.5 9.2zM247 .8c0 .4-4.9 6-11 12.4-9.5 10.1-13.1 14.8-10.2 13.6C227.3 26.2 250 1.9 250 .9c0-.5-.7-.9-1.5-.9s-1.5.3-1.5.8zM259 3c-.7 1.7-6.5 8.6-12.8 15.3s-12.8 14-14.4 16.2c-3.2 4.3-8.8 14.8-8.8 16.5 0 2.5 2.1.6 3.9-3.5 3.2-7.2 7.9-13.4 18.2-24C253.9 14.4 263 2.9 263 .8s-2.9-.5-4 2.2zm20.7 3.7c-3.7 9.4-9.5 17.9-19 27.9-5.4 5.7-7.7 8.8-7 9.5 1.7 1.7 19.5-19 24.3-28.2C283.4 5.5 285.4 0 283.6 0c-.7 0-2.5 3-3.9 6.7zm14-6L292 5.5c-.7 2.2-2.4 6.6-3.8 9.8-2.4 5.5-2.5 7.6-.3 6.3 1-.7 6.4-13.9 7.6-18.9.7-2.5-.7-3.9-1.8-2zm9.9 5.5c-1 3.5-3.5 10-5.6 14.5-2.1 4.6-3.5 8.5-3 8.8 1.9 1.2 7.8-11 10.9-22.6 1.5-5.2 1.7-6.9.7-6.9-.7 0-2 2.8-3 6.2zM316 1.9c0 3.4-5.1 18.3-8.7 25.6-4.2 8.4-12.1 20-16.3 24-2.9 2.8-3.9 5.5-2.1 5.5 2.2 0 15.5-18 20.3-27.5 3.1-6 8.3-20.6 9.2-25.8.6-3 .4-3.7-.9-3.7-.8 0-1.5.9-1.5 1.9zm10.5-.7c-5.8 18.8-6.8 23.7-6.9 36.3-.2 14.8 1.8 13.2 2.6-2.2.5-9.5 1.3-15.1 3.4-21.8 3.6-12 3.8-13.5 2.5-13.5-.6 0-1.3.6-1.6 1.2zm11.1 2.3c-5.1 12-9.1 42.1-5.8 43.2.9.4 1.2-1.3 1.2-6.4 0-10.3 3.5-27.9 7.6-38.7 1.2-3.3-1.6-1.5-3 1.9zm11.9-.1c-4.2 10-6.7 21.5-7.2 32.8-.4 8.5-.3 11.8.6 11.8.7 0 1.1-2 1.1-5.4 0-11.1 3.5-27.7 8.7-41.3.3-.7 0-1.3-.6-1.3-.7 0-1.8 1.5-2.6 3.4zm12.7-1.7c-1.7 3.4-6.2 17.8-7.7 24.8-.8 3.9-1.5 10.5-1.5 14.8 0 7.9 2.4 22.5 4.1 24.1 1.6 1.7 2-.2.9-4.3-2.1-8.1-3-20-1.9-28.4.8-6.4 5.2-22.6 8.6-31.5.8-1.9-1.5-1.4-2.5.5zm11.9 0C372 5.7 366 25 365 31c-1.3 7.4-1 17.5.5 17.5.6 0 1.3-4.6 1.6-10.5.6-9.8 3.2-20.1 9.5-36.3.8-2.2-1.3-2.2-2.5 0zm11 .5l-4 10c-4.8 12.1-6.6 23-5.5 33.5 1.4 13.2 3.2 11.9 2.7-1.9-.6-13.2.6-19.4 6.5-34.1 2.9-7 3.5-9.7 2.5-9.7-.7 0-1.7 1-2.2 2.2zm11.4 1.5c-11.6 27.8-12.8 40.2-5.4 59.3 4.2 10.9 14.9 26.8 14.9 22.1 0-.5-1.6-3.3-3.6-6.2-8.7-12.9-13.4-26.6-13.4-39 0-8.2 1.5-14.1 6.9-27.7C398.2 6.6 400 1.5 400 1c0-2.3-2.1-.7-3.5 2.7zm14.5-2c0 1-2.5 6.9-5.5 13.3-6 12.6-7.8 19.6-7.3 29.2.4 8.8 1.9 7.4 2.3-1.9.3-10.2 1.6-14.7 7.5-26.8C413.6 3.9 414.8 0 412.5 0c-.8 0-1.5.8-1.5 1.7zm10-.7c0 .5.6 1 1.4 1s1.8-.5 2.1-1c.3-.6-.3-1-1.4-1-1.2 0-2.1.4-2.1 1zm10 3.7c-3.5 2.6-8.2 7.2-10.7 10.2-4.5 5.8-11.3 18.6-11.3 21.5 0 2.1 1.9 2.1 2.6-.2.3-.9 2.1-4.9 4-8.8 4-8.4 10.2-15.7 19.2-22.5 4.7-3.5 5.9-4.9 4.4-4.9-1.1 0-4.8 2.1-8.2 4.7zM211.2 6.4c-2.7 3-7.1 8.8-9.8 12.8-4.9 7.4-14.4 27.4-14.4 30.3 0 3.2 1.9 1.3 4.1-4.3 5.8-14.7 13-26.8 22.1-37.3 2.6-3 4.8-5.9 4.8-6.2 0-1.8-2.2-.2-6.8 4.7zM92.7 9.2c-7.1 9.3-11.1 18-13.2 28.8-.9 4.7-2.6 10.2-3.8 12.2-2 3.7-1.9 5.7.2 4.3 2.2-1.3 4.2-6.6 6.1-16.2 2.3-11.4 6-19.4 13-28 2.7-3.4 5-6.7 5-7.2 0-2.5-2.1-.7-7.3 6.1zm172.7 1.4c-2.2 3.7-8.3 11.5-13.8 17.3-11.4 12.3-14.7 16.7-18.8 25.8-2 4.5-2.6 6.9-1.9 7.6s1.7-.5 3.1-3.9c4.5-10.7 6.3-13.3 22-30.7 7.1-7.7 15-19.5 15-22.1 0-2.1-2.3.3-5.6 6zm179.2-2.2c-3.1 2.7-4.5 4.6-3.8 5 1.4.8 9.7-6.6 9.1-8.1-.2-.6-2.6.8-5.3 3.1zm-263 8c-3.5 9.6-9.9 20.2-18 30.1-6.5 7.8-8.6 11.9-7.1 13.3.4.4 1 .1 1.2-.6.6-1.7 5.7-8.7 11.6-15.8 5.1-6.3 15.3-25.7 16.3-31.2 1.1-5.8-1.3-3.4-4 4.2zM29.7 17.6c-2.2 4.6-9.9 12.7-17.6 18.4C2.8 43-1 50.4 2 55.9c2.4 4.6 15 6.3 29 4 3.6-.6 13.2-1.4 21.4-1.7 11.3-.5 15-1 15.4-2.1s-1.8-1.2-12.9-.6c-7.4.3-18.8 1.3-25.4 2.2-16.3 2-24.3.6-26-4.6-.9-2.8 2.8-9.5 7.1-12.8C21.7 31.8 26.1 27.5 29.9 22c4.4-6.7 4.9-8 2.8-8-.7 0-2.1 1.6-3 3.6zm400.4 3.1c-4.7 5.4-9.5 14.7-11 21.3-4.5 19.5 4.9 39.8 22.6 48.9 4.6 2.3 6.3 2.6 6.3 1.1 0-.5-2.5-2.2-5.5-3.6-10.7-5.3-19.2-17.1-21.6-29.9-2.1-11.4 2.7-26.7 11.2-36 2.9-3.1 3.9-4.9 3.2-5.6s-2.3.5-5.2 3.8zm13.4 1.4c-5.8 5.3-11.5 13.1-11.5 15.6 0 2.4 1.5 1.3 3.5-2.4 1.1-2.1 4.8-6.6 8.3-10.1 7.9-7.8 7.7-10.3-.3-3.1zm-258.9 3.7c-10.4 20.2-22.3 62.4-18 63.9.7.2 1.4-2 1.8-5.9 1.4-12.6 9.9-39.5 16.8-53.2 1.9-3.9 2.6-6.2 2-6.8-.7-.7-1.6 0-2.6 2zm-33.6 0c0 .4-3 4.1-6.6 8.2-8.5 9.6-9.1 10.9-12 24.9-1.6 7.7-3.7 14.1-6.2 19.1l-4 8.2c-.2.5.3.8 1.1.8 2.7 0 8.6-13.8 11.2-26.3 1.4-6.5 3.2-13.2 4.1-14.9s4.7-6.6 8.5-11c6.2-7.3 7.5-9.8 4.8-9.8-.5 0-.9.3-.9.8z"/><path d="M2.2 29.3c-3.5 3.7-2.6 5.1 1.3 2.1C5.4 30 7 28.4 7 27.9c0-1.7-2.7-.9-4.8 1.4zm277.6.4c-.9 1.6-6 7.4-11.2 13.1-12 13-12.8 14.1-16.5 23.5-3.6 9-3.5 8.7-1.7 8.7.8 0 1.7-1.2 2-2.6 1.9-7.6 6.8-15.4 15.2-24.7 9.9-11 16.4-18.8 16.4-20 0-1.8-2.7-.5-4.2 2zm-232.1.9c-.4.4-.7 1.5-.7 2.5 0 2.1 3.2 3.2 7.4 2.7 3.9-.5 3.7-2.2-.3-2.6-1.9-.2-4-1-4.6-1.8s-1.4-1.2-1.8-.8zm398.6 4.8c-8.8 11.5-8.4 24.3 1 31.6 3.6 2.9 3.5.7-.3-3.6-6.3-7.2-6.3-15.8.1-25 4.1-6 3.4-8.5-.8-3zm-227.7-1.8c-.8 2.2-.8 2.4.8 2.4 1.2 0 2.6-2 2.6-3.6 0-1.2-2.9-.2-3.4 1.2zm72.1.1c-1 1-.8 3.3.3 3.3.5 0 1.4-.9 2-2 .8-1.5.8-2-.3-2-.8 0-1.7.3-2 .7zm-75.4 6.6c-6 7.9-18 48.7-16 54.1 1.3 3.2 2.4.6 3-6.6.6-8 5.7-25.1 11.7-39.1 2.1-4.8 3.4-8.9 3-9.2s-1.2.1-1.7.8zm-91.7 2.4c-.3 1-1.2 6.5-2.1 12.3-2.3 16.1-8.1 26.4-19.5 34.3-1.6 1.1-2.1 2-1.4 2.7.6.6 2.6-.4 5.6-2.8 8-6.3 13.4-14.3 15.8-23 1-3.8 4-22 4-24.4 0-1.5-1.9-.8-2.4.9zm152.8 8.1c-5 5.3-9.8 11.1-10.7 12.8-2.7 5.3-9.7 23.3-9.7 25.1 0 1 2.2 6.2 5 11.8 2.7 5.5 5.6 12.7 6.4 15.9 1.7 6.4 2.2 7.3 3.3 6.2 1.3-1.3-2.6-13.6-7.2-22.7-2.5-4.9-4.5-10-4.5-11.3 0-2.6 4.7-15 8.8-23.1 1.3-2.8 6.3-8.9 11-13.8 5.3-5.4 8.2-9.1 7.6-9.6-.5-.6-4.4 2.7-10 8.7zm-174.8-7.7c-.3.8-1 4.8-1.6 8.9-1.2 8.8-4.1 13.6-11.5 19.2-6.3 4.8-10.1 5.6-32.9 6.8C35.7 79.1 32 79.6 32 81.2c0 .6 2.8.8 7.8.4 4.2-.4 14.8-1.1 23.4-1.6 12.1-.7 16.7-1.3 20.2-2.9 4.6-2 14.9-10.9 16.8-14.5 1.6-3 3.8-18.9 2.8-20-.6-.6-1.1-.4-1.4.5zm-37.8.4c-.2.3-6.1.7-12.9 1-11.2.5-21.7 1.7-27.6 3.2-1.7.4-2.3.1-2.3-1.1a1.58 1.58 0 0 0-1.6-1.6c-1 0-1.4.7-1.2 2.2.3 2 .9 2.3 4.8 2.2 2.5 0 8.3-.6 13-1.2 4.6-.7 12.3-1.2 17-1.2 9.8 0 13-.7 13-2.6 0-1.4-1.2-1.9-2.2-.9zm47.7 2.7c-.2.7-.8 4.8-1.4 9.1-1.2 8.5-3.4 13.7-8.1 19.1-3.7 4.1-10.8 8.7-17.2 11.1-4.8 1.8-6.3 3.5-3 3.5 2.6 0 11.9-4.6 17.3-8.5 8.2-6.1 12.5-15.1 14.4-30.3.5-3.6.3-5.2-.4-5.2s-1.3.6-1.6 1.2zM407 47c0 2.4 1.5 2.7 2.4.4.9-2.2.8-2.4-.9-2.4-.8 0-1.5.9-1.5 2zm21.4 1.4c-1.2 6.4 2.6 18.1 7.5 23.3 5.3 5.6 14.1 10.6 14.1 8 0-.7-2.1-2.3-4.6-3.6C436.3 71.2 431 62 431 50.8c0-6.4-1.5-7.8-2.6-2.4zm-180.1.1c-.3.9-.3 1.9.1 2.2.8.9 3.7-1.8 3-2.8-.8-1.4-2.4-1.1-3.1.6z"/><use href="#B"/><path d="M301.9 56.1c-1.6 1.7-2.9 3.5-2.9 4 0 1.7 2.2.9 4.2-1.6 1.1-1.4 2.6-2.5 3.3-2.5 1.5 0 1.9 1.2 5.6 16.5 2.3 9.5 8.5 26.1 10.1 27.1 2.2 1.4 1.8-1-1.5-8.8-2-4.6-5-13.9-6.7-20.8-4.5-17.8-6.4-20-12.1-13.9zm29.3-.9c.5 3.2 2.8 3.5 2.8.4 0-1.7-.5-2.6-1.6-2.6-1 0-1.4.7-1.2 2.2zm11.8.6c0 3.5 3.8 17 6.8 23.9 1.6 3.8 5.6 11.9 8.9 17.9 3.2 6 6.9 13.1 8 15.9 2.1 4.9 4.3 7.1 4.3 4.2 0-.8-4.6-10.6-10.3-21.8-9.5-18.7-12-25.4-15.1-39.2-.7-3-2.6-3.7-2.6-.9zm64 1.5c0 9.9 6.3 23.7 14.9 32.6 6.5 6.7 14.7 11.9 16.3 10.3.7-.7-.2-1.6-2.8-2.8-2.2-1-6.9-4.8-10.6-8.5-7.9-7.8-13-17.3-14.9-28-1.3-7.2-2.9-9.3-2.9-3.6zm-211.5 1c-4.1 9.9-6.7 21.5-7.1 32.2-.5 11.8 1 21.5 3.5 22.3 1 .3 1.2-.1.8-1.9-3.7-13.4-2.9-27.2 2.7-44.2 2-5.9 3-10.6 2.5-11.1-.5-.6-1.5.5-2.4 2.7z"/><path d="M320 56.2c.1 3.1 4 18.9 6.5 25.8 1.5 4.1 6.8 15.3 11.7 24.9 9.1 17.3 9.1 17.4 9.6 26.2.7 12 2.5 11.6 2-.5l-.3-9.4-8.8-17.1c-10.3-19.9-13.1-27.1-16.1-40.5-1.3-5.5-2.8-10.2-3.4-10.4-.7-.2-1.2.2-1.2 1zm46 .3c0 3.7 4.8 15.1 13.6 32.4 5.2 10.2 10 21.1 10.8 24.1 1.6 6.4 4.3 8.5 3.2 2.4-1.1-5.7-5.9-16.6-13.6-31.1-5.6-10.6-9.9-20.8-11.6-28.1-.5-1.7-2.4-1.5-2.4.3zM83.2 59.6C78.4 64.5 72.1 66 52.5 67c-9.3.5-19.9 1.4-23.5 2-3.6.5-8.7 1-11.3 1-3.5 0-4.7.4-4.4 1.2.5 1.5 7.5 1.4 20.2-.2 4.4-.6 15-1.4 23.6-1.9 12.5-.7 16.6-1.3 20.5-3C82.3 64 89 58.5 89 56.8s-2.6-.4-5.8 2.8zm100.3-1.4c-4.1 11.7-5.8 20.4-6.2 32.3-.6 15.4.5 21 7.2 35.7 3.4 7.4 4.5 10.9 4.5 14.8 0 5.3 1.5 6.8 2.6 2.5.9-3.8-.4-9.1-4.1-16.5-6.3-12.4-8-20-7.9-34 .1-10.3.6-14.1 2.8-22 3.9-13.7 4-14 2.7-14-.6 0-1.4.6-1.6 1.2zm35.6 1c-9 23.9-10.8 37.2-6.4 47.8 2.8 6.9 9.6 17.1 10.6 16.1.7-.7.2-2.3-1.5-4.9-7.3-11-8.3-14-8.2-25.2 0-9.7.3-11.5 4.2-22.6l4.2-12.8c0-1.6-2.1-.4-2.9 1.6zm20.2 9.2c-5.4 14.7-7.6 23.3-6.8 26.5.4 1.4 2.8 6.2 5.5 10.6 6.3 10.4 9 18.8 9.7 29.7.4 5.8 1 8.7 1.7 8.5 1.5-.6.9-13.7-1-21.1-1.7-6.4-4.1-11.6-9.8-21-2.2-3.6-3.6-7.3-3.6-9.2 0-3.7 3.7-16 8.1-27.2 3.3-8.4 3.3-8.2 1.6-8.2-.7 0-3.1 4.8-5.4 11.4zm39.9-4c-4.5 5.2-9.5 16.3-9.6 21.6-.1 3.1 1.1 7.4 3.7 13.7 6 14.7 7.9 23.2 8 36.5.2 9.3.5 11.8 1.6 11.8s1.3-2.4.8-13.3c-.6-14.4-2.3-21.9-8.3-36.4-1.9-4.6-3.4-10-3.4-12.1 0-4.3 5.3-16 9.3-20.8 1.5-1.8 2.7-3.5 2.7-3.8 0-1.5-2-.3-4.8 2.8zm100-1.3c.1 1.3.8 2.3 1.3 2.1 1.5-.3 1.2-3.5-.3-4-.9-.3-1.3.3-1 1.9zm-45.8 2.1c1.7 8.6 5.7 18.7 13.4 33.8l8.7 16.9c.2.1.9 0 1.4-.4.7-.4-1.8-6.2-6.8-15.8-8-15.3-10.6-21.4-13.6-32-1.8-6.1-4.2-8.1-3.1-2.5zm-39.2-1c-1.4 1.4-1.6 3.8-.3 3.8.5 0 1.4-.7 2.1-1.5 1.7-2 0-4.1-1.8-2.3zm-151.6.9l-1.6 6.4c-5 21.8-27 41.8-52.5 48.1-3.8.9-7.4 2.1-7.9 2.5-3.7 3.4 8.7.8 20.8-4.2 20.6-8.7 37.1-26.6 42.1-45.8 1.1-4.4 1.3-6.7.6-7.4s-1.2-.6-1.5.4zM0 67.5c0 .7 1.8 2 4 2.9 4.9 1.9 5 1.9 5 .3 0-.6-2-1.9-4.5-2.8-3.4-1.3-4.5-1.4-4.5-.4zm153.7-.8c-.4.3-.7 1.7-.7 2.9 0 4.1-5.8 18.5-10.2 25.3-5.2 8-14.4 17.4-21.6 22-3.5 2.3-4.9 3.8-4.2 4.5 2.9 2.9 23.2-16.5 29.9-28.6 4-7.2 9.1-21 9.1-24.9 0-1.9-1.1-2.5-2.3-1.2zm70.8 10c-4.2 12.7-4.1 20.9.3 28.3 1.7 3 4.7 8.3 6.4 11.7 1.8 3.5 3.6 6.3 4 6.3 1.6 0 .7-3.6-2.2-8.8-1.7-2.8-4.3-7.6-6-10.5-4.1-7.1-4.1-14.2 0-26.2 3.5-10.3 3.3-9.5 1.7-9.5-.7 0-2.5 3.8-4.2 8.7zM382 70c0 1.9 3.9 8.8 10.9 19.5 7 10.5 8.7 15 10.6 28.7.4 2.7 1.1 4.8 1.6 4.8 2.1 0-.1-15.1-3.3-23.5-.6-1.7-3.7-6.8-6.8-11.5-3.2-4.7-6.9-10.9-8.4-13.8-2.4-4.7-4.6-6.7-4.6-4.2zm-98.2 8.6c-3.5 7.5-3.6 6.9 3.1 25.4 5.6 15.6 7.4 33.3 5.1 49.4-1 7-.8 8.8 1 7 1.6-1.6 2.8-21.3 1.9-31.2-1-11.5-3.1-20-7.5-31.4-4.1-10.5-4.2-12.9-.9-19.4 2.8-5.4 3-6.4 1.4-6.4-.5 0-2.4 3-4.1 6.6z"/><use href="#C"/><path d="M296.6 79c-3.4 4.1-4.2 7.6-2.7 11.4 3.5 8.6 6.4 17.7 7.5 23 1.2 5.6 3.6 8.9 3.6 4.9 0-2.8-3.7-15.7-7.1-24.5l-3.1-7.8 2.2-3.5c2.8-4.6 4.4-4.4 5.9.5.7 2.3 1.8 4 2.6 4 1.8 0 1.9.5-.4-5.5-2.3-6.2-4.7-6.9-8.5-2.5zM0 79.5c0 2.2 6.9 3.8 16.4 3.9 6.3.1 9-.3 9.3-1.2.4-.9-1.7-1.2-8-1.2-4.6 0-10.5-.6-13-1.4C.8 78.4 0 78.4 0 79.5zm363.6 1.3c-.3.6 2.3 6.4 5.8 12.9 7.3 13.2 11.2 24.5 12.1 34.5.8 8.1 2.5 9.1 2.5 1.5 0-9.2-3.5-20.1-11.1-34.6-7.7-14.7-8.4-15.8-9.3-14.3zM245 83.6c-2.2 5.6-1.2 10.5 3.5 17.8 6.5 10.1 9.7 20.5 10.3 34.4.3 7.7.8 11.2 1.6 10.9 1.7-.6 1.9-10.8.3-20-1.8-10.2-4.5-17.4-9.9-26.3-4.2-7-4.9-10.2-3.4-16.2.9-3.9-1-4.5-2.4-.6zM68 89.1c-2.5.4-9.2.8-15 .8-5.8.1-17.7.7-26.5 1.5S9 92.6 7.2 92.3c-2.5-.4-3.2-.2-3.2 1.1 0 2 6.5 2.1 24.5.6 6.6-.6 19.3-1.4 28.3-1.8 8.9-.5 16.5-1.2 16.9-1.6 1.5-1.4-1.4-2.2-5.7-1.5zm44 6.6c-14 11.2-26.6 14.9-57.8 16.7-20.9 1.3-24.4 1.8-23 3.1 1 1.1 41.8-1.5 49.5-3.1 14.2-2.9 25.3-8.2 35.3-16.7 5.5-4.7 1.9-4.8-4 0zm296-4.2c0 .4.7 2 1.6 3.7 3.4 6.5 5.4 20.5 5.4 37.5 0 16.4 1.2 21.4 2.6 10.6 2.1-17.2-3.4-52.3-8.2-52.3-.8 0-1.4.2-1.4.5zm-315 3c-.7.8-1 1.9-.6 2.2.9.9 3.8-.8 3.8-2.2-.1-1.6-1.8-1.6-3.2 0zm214.5-.6c-.3.6 3.6 9.2 8.7 19.2l9.3 18.3-.3 18.1c-.3 22.8-.8 26.5-3.4 26.5-3.6 0-16.3-3.2-17.6-4.5-1.1-1-1.1-2.5.2-8.8 2-9.5 3.1-25.9 2.2-32-1.3-8.8-2.6-4.9-2.6 8-.1 7.1-.7 16.4-1.5 20.8-2.2 12.1-2.1 13.4 1.8 15 1.7.7 6.9 2.1 11.5 3.1 6.5 1.4 8.5 1.5 9.5.5.8-.8 1.4-8.4 2-23.9l.8-22.7-9.1-18c-4.9-9.9-9-18.6-9-19.3 0-1.4-1.6-1.6-2.5-.3zm-141.9 2.9c-.7 1.2 1.1 13.6 2.9 19.9.8 2.8 3.1 8.5 5 12.5 4 8.2 4.3 12.4 1.6 18.5-1.8 3.9-1.8 5.3 0 5.3 1.4 0 3.9-8.2 3.9-13 0-3.7-1.1-7.3-4-13.8-3.8-8.6-7-20.4-7-26.2 0-2.9-1.4-4.8-2.4-3.2zm-86.1 1.8c-2.7.8-14 1.9-25 2.4s-24.9 1.5-31 2.1c-6 .6-13.9.8-17.3.5-5-.5-6.3-.4-6 .6.4 1 3.6 1.3 12.9 1.3 20-.1 57.6-2.4 65.3-4l7.4-1.5c.1 0 .2-.7.2-1.5 0-1.7.2-1.7-6.5.1zm120.5 4.7c0 3 3.2 10.5 8.5 19.7 3 5.3 5.7 11 6.1 12.7.7 3.7-1.2 10-6.7 22-4.1 8.9-8.9 23.9-8.9 27.9 0 4.8 1.8 2.2 3.4-4.9.9-3.9 3.3-11 5.2-15.7 11.8-28.2 11.8-28.7 3.5-42.5-2.8-4.8-6-11.3-7.1-14.4-1.7-5.3-4-8-4-4.8zm244-.3c0 1.1 4.8 2.5 5.6 1.7.4-.3.3-1-.1-1.6-.8-1.4-5.5-1.4-5.5-.1zm-300.1 7.7c-7.6 10.2-16 16.6-31.5 24-5.2 2.4-9.4 4.8-9.4 5.4 0 1.6 1.9 1 10.5-3s18.1-10.1 24.1-15.3c5.4-4.7 12.7-14.9 11.6-16-.7-.7-2.5 1-5.3 4.9zm11.6-4.5c-.4.9-.2 2.5.3 3.5.6 1 1.3 4 1.7 6.8.4 2.7 2.3 8.9 4.1 13.7 1.9 4.8 3.4 9.4 3.4 10.2 0 .7-1.6 5.8-3.6 11.2-2 5.5-3.9 12.6-4.2 15.8-.9 7.6-2.1 8.4-10.4 6.9l-7.7-1.4c-.7-.2-1.5.1-1.8.7-.5 1.4 8.5 3.7 14.5 3.7 2.4 0 4.9-.6 5.7-1.4s1.9-4.6 2.4-8.4c.5-3.9 2.3-10.8 4-15.4 3.7-10.2 3.8-13.8.5-21.6-1.4-3.3-3.3-9.6-4.3-14-.9-4.4-2.2-8.9-2.8-10-1-1.8-1.2-1.8-1.8-.3zm170.3-.7c-.3.4 1.9 5.6 5 11.7l5.7 11.1-.3 26.6c-.2 17.1 0 28.3.8 31.5 1.2 5.4.6 8.6-1.6 8.6-.8 0-1.4.7-1.4 1.5 0 2.1 2.4 1.9 4.5-.5 1.7-1.9 1.8-2.8.6-12.8-.7-6.4-1.1-19.8-.9-33.7l.3-23-4.8-9.5c-5-9.8-6.9-12.5-7.9-11.5zm100.4 2.7c-.7.7-1.2 3.1-1.2 5.5 0 3.3.4 4.3 1.6 4.3s1.4-.7.9-3c-.4-1.9-.2-3.6.5-4.5 1-1.2 1.9-1 6.3 1.2 6.9 3.5 15.7 5.6 15.7 3.8 0-.8-1.7-1.6-4-2s-6.5-2-9.5-3.6c-5.9-3.1-8.4-3.6-10.3-1.7zM0 115.7c0 1 3.2 1.3 12.6 1.3 16.7 0 16.4-2-.4-2.3-9.2-.1-12.2.1-12.2 1zm194.5 3.2c-.3.5 1.3 4.4 3.5 8.6 5 9.5 5.2 13.5 1 22.4-4.8 10.1-8.9 22.6-11.5 35.1-3.2 15.2-3.7 15.7-21.6 19.8-7.4 1.7-15.8 3.3-18.8 3.4-3.6.2-5.6.8-5.9 1.7-.4 1.2.8 1.3 6.9.8 8.7-.7 31.4-6.2 34.6-8.3 3.3-2.1 5.1-6.3 7.3-17.1 2.6-12.6 5.2-20.7 10.2-31.8 5.6-12.2 5.6-16.2 0-27.3-2.3-4.5-4.4-8.2-4.7-8.2-.2 0-.6.4-1 .9zm164 34.4c0 28.6.2 31.9 2.2 39.7 2.7 10.6 6.1 20 7.4 20 1.4 0 1.1-1.7-1.6-9.1-4.9-13.6-5.8-22.1-5.2-48.7.5-25.8.1-33.2-1.7-33.2-.8 0-1.1 8.8-1.1 31.3zM56 123.6c-18.9 1-41 2.9-41 3.5 0 1.7 2.4 1.7 19.1.4 9.6-.8 20.8-1.5 24.9-1.5 8.8 0 15-.9 15-2.1 0-.8-5-.9-18-.3z"/><use href="#D"/><path d="M102.6 126.7c-12.1 5.1-30.4 8.2-49.3 8.4-14.7.2-32.6 2.2-33.1 3.8-.4 1.1.6 1.2 4.9.7 3-.4 16-1.3 28.9-2.1 12.9-.7 27.1-2.1 31.5-3 9.6-2 24.7-7.5 25.3-9.3.5-1.7-1.4-1.4-8.2 1.5zm340.4-1.4c-1.3.7-3 2.3-3.6 3.5-1.4 2.8-2.9 22.8-2.9 38.2 0 13.5 1.6 18.2 8.6 25 5.3 5.1 6.7 3.4 1.6-1.8-5.3-5.5-8-12.3-8.1-20.7-.2-12.5 1.6-35.9 3-39.3 1.1-2.8 1.8-3.2 4.8-3.2 2 0 3.6-.5 3.6-1 0-.6-.4-1-.9-1s-1.5-.2-2.3-.5c-.7-.3-2.4.1-3.8.8zm-73.2 23.4c-.6 24.2-.1 34.4 1.7 35 .7.2 1-9.9 1-28.9 0-20.1-.3-29.2-1.1-29.5-.7-.2-1.2 6.9-1.6 23.4zm56.8-13c-1.8 30.4-1.9 40.7-.3 46.3 1.9 6.4 5.3 12.3 6.7 11.5.5-.3-.2-2.7-1.6-5.3-4.1-8-4.9-15.4-3.6-32 1.4-17.1 1.6-31.2.3-31.2-.4 0-1.1 4.8-1.5 10.7zM6.3 127.2c.2.7 1.2 1.3 2.2 1.3s2-.6 2.3-1.3c.2-.7-.6-1.2-2.3-1.2s-2.5.5-2.2 1.2zm386.2 21.4c-.8 25.3-.4 32.3 2.6 42.1 3.5 11.3 11.6 25.9 13.4 24.1.4-.3-1.2-3.7-3.4-7.5-9.3-15.6-11.2-26.8-10.4-59.1.4-15.1.3-22.2-.4-22.2s-1.3 8-1.8 22.6zm-250.9-19.5c-1.4 1.1-2.6 2.5-2.6 3 0 1.6 2.6 1 4.5-1.1 2.6-2.9 5.2-2.5 7.5 1.2 2.6 4.3 2.6 10.8 0 18.3-3.3 9.5-4.2 10.5-10 10.5s-6.6 1.6-1.3 2.6c6.9 1.3 11.6-3.9 14.8-16.5 2-7.6 1.3-13-2.2-17.1-3-3.6-6.9-3.9-10.7-.9zm83.9 8.1c0 7.7-.4 9.1-4.9 19.3-5.4 12.4-9.6 24-9.6 26.7 0 3.7 1.9 1.6 3.5-4 .9-3.1 4-11.3 7-18.2 6.1-14.3 7.9-21.8 6.7-27.5-1.4-6.8-2.7-5-2.7 3.7zm11 1c-.1 10.7-1.2 14.6-9.1 31.8-2.9 6.3-5.8 13.5-6.4 16-1.6 6-1.4 19.2.4 25.9 1.6 5.9 2 6.6 3.5 5.7.6-.4.5-2.1-.5-4.9-.9-2.3-1.8-7.6-2.1-11.7-.7-9.6 1.1-16.6 7.7-30.7 7.2-15.2 9-21.8 9-32.4 0-6.5-.3-8.9-1.2-8.9-1 0-1.3 2.5-1.3 9.2zm33.8-4.6c1.3 11.9-3.1 32.1-9.9 45.5-1.7 3.5-2.2 5.5-1.5 6.2 1.3 1.3 7.3-11.6 10.8-23.3 3-10.2 4-31.9 1.4-32.8-1.1-.4-1.3.5-.8 4.4zm133.3 6.6c-1.9 34.3-1.9 37.1-.2 43.8 2.2 8.9 8.6 21.5 13.9 27.5 5 5.6 7.6 5.6 3.1-.1-9.2-11.4-14.4-23.1-15.9-35.4-.3-3 .1-14 .9-24.3 1.9-22.9 1.9-22.7.2-22.7-1 0-1.5 2.7-2 11.2zm-88.6-9c-.6 13.2-.7 35.9-.1 36.3 1.4.8 2.1-6.3 2.1-21.2 0-8.4-.4-14.4-1-14.8-.5-.3-1-.5-1-.3zm-182 5.3c-.7.9-1 1.8-.7 2.1.9.9 4.8-1.6 4.2-2.7-.9-1.3-2.1-1.1-3.5.6zM1.7 139.8C.4 141.3 0 143.5.2 150.1l.1 8.4.6-7.6c.8-9.5 1.9-10.9 8.2-10.9 2.7 0 4.9-.5 4.9-1 0-.6-2.4-1-5.3-1-4 0-5.8.5-7 1.8zm94 1c-1 .2-1.6.9-1.4 1.5.5 1.5 1.9 1.8 3.7.7 1.9-1.2.2-2.8-2.3-2.2zm23.3 3.3c-7.8 4.1-22.5 8.6-33 10.3-5 .8-17.7 2-28.3 2.7-17.5 1.1-22.1 1.8-20.5 3.4.8.9 42.7-2.4 52.1-4C103 154.1 127 144.9 127 142c0-1.5-2-1-8 2.1zm19 .4c-1.9 1.4-3.9 2.5-4.6 2.5-1.7 0-3.7 2.7-2.9 4 .5.8 1.2.7 2.3-.2 2.3-1.8 8.2-5 8.2-4.4 0 1.6-1.4 3.6-2.6 3.6-.8 0-1.4.7-1.4 1.5 0 3.9 5.3.1 6.5-4.6 1.1-4.2-1.5-5.4-5.5-2.4zm243.2 19.2c.5 24.4 1.2 28.3 7.8 42.1 5.9 12.3 14 23.9 16 22.7.6-.3-1.2-3.4-4.1-7.3-6.2-8.2-12-20-15.1-30.7-2.1-7.2-2.3-10-2.2-28.3 0-16.6-.2-20.2-1.4-20.2-1.1 0-1.3 3.6-1 21.7zm67.3-16.2c-1.1 8.7-1.1 28.8 0 30.7.7 1.1 1.1-4.1 1.2-17.3.2-10.4.1-18.9-.1-18.9-.3 0-.8 2.5-1.1 5.5zm-367-3.4c-3.7.7-24.2 2.1-52 3.5-17.8.9-19.9 2.3-20.6 13.6-.5 8 1.5 7.8 2.2-.1 1-10.6.3-10.4 38.4-12.1 12.7-.6 25.9-1.5 29.5-2l7.8-1c.6 0 1.2-.7 1.2-1.5 0-1.6-.6-1.7-6.5-.4zm266.2 4.6c-1.4 1.3-.7 30.9.9 40.4 2 11.7 6.7 27.2 8.4 27.7 1.5.5 1.3-.8-2.4-13.2-3.9-13.3-4.9-20.6-5-38.3-.1-15.5-.4-18.1-1.9-16.6zm-102.2 6.9c-.9 3.1-4.4 11.5-7.8 18.8-6 12.9-6.1 13.2-6.1 22-.1 5.1.3 9.1.9 9.3s1-2.9 1-8c0-7.9.3-8.7 6.3-21.9 6.9-15.1 9.2-21.1 9.2-23.9 0-3.8-1.9-1.8-3.5 3.7z"/><use href="#E"/><path d="M257.6 154.1c-.2.8-1.2 3.9-2.1 6.9s-4.2 10.9-7.3 17.5c-6 12.9-7.2 18.9-5.3 26.3 2.1 7.6 9.6 14.2 16.1 14.2 6.8 0 17-2.3 17-3.8 0-1-.6-1.2-2.2-.8-1.3.4-6 1-10.5 1.3-7.3.5-8.4.4-11.2-1.6-4.5-3.2-7.2-9.1-7.3-16-.1-4.9.7-7.5 6-19.2 7.5-16.7 9.8-23.7 8.3-25.2-.7-.7-1.2-.6-1.5.4zm156.4 1.5c0 3.1 2.3 2.8 2.8-.4.2-1.5-.2-2.2-1.2-2.2-1.1 0-1.6.9-1.6 2.6zm-133.4-.5c-.3.8-1 3.4-1.6 5.9s-3.5 10.3-6.3 17.3c-4.4 11-4.9 13-3.6 14.1 2 2 19.9 2.7 19.9.9 0-1-2.2-1.3-8.5-1.3-6.4 0-8.7-.4-9.1-1.4-.3-.8 1.3-5.6 3.4-10.7 5.7-13.3 8.7-23.8 7.4-25.1-.8-.8-1.3-.7-1.6.3zm-258.4 5.5c-2.5 1.7-2.9 4.6-.8 6.4.9.6 7.5 1.6 15.3 2.1 7.6.5 16.5 1.4 19.8 2 8.3 1.5 8.9 1.5 9.5.5.3-.5-.8-1.3-2.5-1.8-3.4-.9-27.1-3.6-35.5-4-7-.4-7.7-2.8-1.2-4.2 2.3-.5 4.2-1.3 4.2-1.7 0-1.5-6.4-1-8.8.7zm79.2.3c-3.9 1-11.4 3.8-16.6 6.4S74.3 172 73.2 172c-1.2 0-2.2.4-2.2 1 0 2.3 6.6.7 14.9-3.4 11.7-5.9 19.3-7.8 32.6-8.1 6.9-.2 11.1-.7 11.3-1.4.6-1.8-20.1-1.2-28.4.8zm67.8 2.8c-.6 2.7-1.4 7.3-1.7 10.4-1.3 11.8-11 14.3-34 8.8-4.4-1-10.6-1.9-13.8-1.9-6.2 0-19.7 2.7-19.7 3.9 0 1.7 1.3 1.7 6.3.4 7.5-2 18.8-1.8 29.4.6 22.5 5.1 34.3.9 34.3-12.3 0-2.5.4-5.5.9-6.8 1.9-5.3 2.2-7.8.7-7.8-.9 0-1.8 1.8-2.4 4.7zm11.4 1.1c-.9 2.7-2.1 8.5-2.6 13s-1.6 9.5-2.5 11.1c-1.7 3.4-3.7 4.1-17.2 6.2-5.9.9-8.3 1.7-8.3 2.7s.7 1.2 2.3.9c1.2-.3 5.8-1.1 10.2-1.8 14.1-2.1 16-4 18-18.6.8-5.4 1.9-11.1 2.4-12.7 1.3-3.4 1.4-5.6.2-5.6-.5 0-1.7 2.2-2.5 4.8zm232.4 5.4c0 13.1 5.5 26.4 15.2 36.4 7.3 7.6 21.8 15.8 21.8 12.2 0-.7-2.9-2.6-6.3-4.1-16.2-7.2-27.6-24.6-28.1-43-.2-4.4-.7-7.2-1.4-7.5-.8-.2-1.2 1.6-1.2 6zm-125.4 1.1c-3.6 9.6-1.8 11.8 11.5 14.2 9.8 1.7 18.3 4.5 24.7 8 4.8 2.7 6.2 3 6.2 1.6 0-3.1-20.5-10.9-32.8-12.6-2.8-.4-6.2-1.5-7.4-2.4-2.1-1.8-2.1-1.9-.5-6 .9-2.3 1.7-4.8 1.7-5.6 0-2.9-1.8-1.4-3.4 2.8zm-184.2.7c-8.5 2.2-12.7 3.9-18.3 7.4-2.4 1.5-6.1 3.1-8.4 3.4-2.3.4-4.1 1.2-3.9 1.7.6 2 7.6.4 14.5-3.4 8.8-4.8 18.1-7.7 27.6-8.7 3.9-.3 7.1-1.1 7.1-1.5 0-1.5-11.2-.9-18.6 1.1zm23.3-1.4c-1.1 1.1.3 2.4 2.4 2.4 1.2 0 1.9-.5 1.7-1.3-.5-1.4-3.1-2.1-4.1-1.1zM10.5 174c-1.1 1.8 5.7 4.9 11.9 5.4 3.4.2 12.4 1 20.2 1.6 7.7.6 16.5 1.7 19.5 2.5l5.7 1.5c.1 0 .2-.6.2-1.4 0-2.4-13.1-4.6-39.8-6.5-8.9-.6-12.8-1.3-14.1-2.5-2-1.9-2.7-2-3.6-.6zM.1 177.6c-.1 3.7 3 8.1 4.8 7 .9-.6.7-1.4-.8-3-1.1-1.1-2.4-3.2-3-4.6-1-2.5-1-2.5-1 .6zm11.1 9.5c.6 1.9 4.4 2.6 24.3 4.4 9.9.9 22.9 2.7 28.8 4.1 7.1 1.6 12.1 2.2 14.5 1.8 6.4-1.1 19.8-9.4 15.2-9.4-.5 0-3.8 1.6-7.3 3.5-7.6 4.2-11.3 4.4-22.9 1.4-4.5-1.1-16.9-2.9-27.7-4-10.8-1-20.9-2.2-22.5-2.6-2.1-.4-2.7-.2-2.4.8zm243.3 4c-.4 1.1-.4 2.4 0 2.7.9.9 3.6-2.8 2.9-3.9-.9-1.5-2.2-1-2.9 1.2zm117.9 2.4c1.1 5.8 6.3 18.2 10.7 25.7 9.2 15.6 23.9 30.2 38.3 38 7.9 4.3 7.6 4.2 7.6 2.6 0-.7-2.1-2.4-4.7-3.8-7.7-4-19.3-13.1-25.7-20.1-10.2-11-19.8-27.8-23-40.1-1.6-6.3-4.3-8.2-3.2-2.3zm-162.7-1.8c-1.3 1.2-.7 15.9.8 21.8 4.7 18 20 32.8 37.9 36.5 6.5 1.3 15.8 1 16.3-.7.3-.8-1.9-1.1-7.4-1.2-25.8 0-45.3-20.4-45.8-47.8-.1-8.1-.5-10-1.8-8.6zm-99 1.4c-6.2 1.2-13.8 4.7-20.6 9.3-2.9 2-6.4 3.6-7.7 3.6-1.5 0-2.4.6-2.4 1.6 0 2.4 5.5.9 11.5-3.1 13.9-9.3 25.1-11.4 41.4-7.6 6.4 1.5 9.7 1.9 10.4 1.2 1.2-1.2 1.1-1.2-8.7-3.6-9-2.1-17.9-2.6-23.9-1.4zM0 194.7c0 1.3 3.3 3.1 8.8 4.7 1.5.5 2.2.3 2.2-.6 0-.7-2.5-2.3-5.5-3.4-4.4-1.7-5.5-1.9-5.5-.7zm295.5-.6c-.7 1 .8 1.7 13 5.4 10.4 3.2 16.9 6.3 31.5 15 14 8.5 15.5 9.1 17.5 7.5 2.3-1.9 1.8-3.1-.9-2.4-1.9.5-5.5-1.2-15.8-7.4-16.5-9.9-19.3-11.3-29.3-14.5-12.1-3.9-15.4-4.6-16-3.6zm-97.5 3.5c0 1.4.4 2.3 1 1.9.6-.3 1-1.5 1-2.6 0-1-.4-1.9-1-1.9-.5 0-1 1.2-1 2.6zm239 1.7c0 1.2 10.4 8.7 12.1 8.7.5 0 .9-.7.9-1.5s-.4-1.5-.9-1.5-3.2-1.6-6.1-3.5c-5.9-3.9-6-4-6-2.2zM17 200c0 1.1 2.1 1.5 24 3.5 9.6.9 20.4 2.2 24 3 7.6 1.7 11 1.9 11 .6 0-1.7-16.1-4.5-38-6.6-17.3-1.7-21-1.8-21-.5zm237.2 2.1c.2 1.2 1.4 3 2.8 4.1 2.5 1.8 3 1.8 11.7.3 7.4-1.3 10.8-1.4 17.7-.5 16.1 2 30.7 7.3 43.6 16 7.6 5.1 7.8 5.2 8.5 4 .3-.5-3.5-3.6-8.4-6.9-19.7-12.9-42.4-18-65.8-14.7-6.1.8-6.3.8-7.4-1.8-1.5-3.1-3.2-3.4-2.7-.5zM113.9 204c-7.4 1.3-13.5 4.5-19.8 10.5-4.5 4.3-6.5 5.5-8.9 5.5-2.2 0-3.2.5-3.2 1.5 0 1.9 4.2 2 7.8.1 1.5-.8 4.4-3.4 6.6-5.6 7.6-8.2 20.8-11.8 31.8-8.6 6.8 1.9 6.8 1.9 6.8.3 0-2.5-14-4.9-21.1-3.7zm84.1 3c0 3.6-2.7 5-9.4 5-2.4 0-11 1.5-19.2 3.4s-16.2 3.6-17.8 3.8-3.2.9-3.4 1.7c-.6 1.8 4.8 1 23.9-3.5 8-1.9 16.9-3.4 19.7-3.4 3.3 0 5.6-.6 6.6-1.6 1.8-1.7 2.2-8.4.6-8.4-.5 0-1 1.4-1 3zm-198-.1c0 .5.4 1.2.9 1.5 2.7 1.7 14.7 3.8 29.1 5.1 19.4 1.8 27.9 2.9 37.7 5.2 6.9 1.6 10.4 1.2 7.3-.7-2.7-1.7-23.6-5-41-6.6-15.1-1.3-25.6-2.9-32.2-5-1-.3-1.8-.1-1.8.5zm233 4.3c0 2.2 1.7 4.1 2.9 3.4.8-.5.8-1.3.1-2.7-1.2-2.1-3-2.6-3-.7zm49.5 3.8c-.7 1.2.3 1.6 6 2.5 6.6.9 19.8 5.1 26 8.2 2.8 1.4 8.5 5 12.7 7.9 8.4 5.9 8.8 6 8.8 4.1 0-1.8-17.6-13.3-25-16.3-10.8-4.4-27.4-8.1-28.5-6.4zm-171.3 1.3c-4.4 1.4-11.8 8.1-14.3 12.9-1.1 2.2-3.3 4.7-5 5.6-3.1 1.8-3.8 3.2-1.5 3.2 3.1 0 4.8-1.5 9.1-8 7.8-12.2 16.5-15.1 31.4-10.6 4.7 1.4 9 2.6 9.8 2.6 1.7 0 1.7-1.9.1-2.4-16.9-4.9-22.7-5.5-29.6-3.3zm-111 2.9c.9 2.6 19.7 5.5 20.8 3.3.3-.6-2.1-1.3-5.7-1.7-3.4-.4-7.9-1.1-10-1.7-4.9-1.4-5.6-1.4-5.1.1zm239.3.8c-1 1.7.9 3.4 7.9 7 6 3 7 3.2 13.3 2.7 22.6-2 22.6-2 31.4.1 10.4 2.5 17.8 5.7 25.8 11.1 6.5 4.5 7.1 4.7 7.1 2.8 0-2.2-14.4-10.6-23.3-13.6-13.5-4.6-21.8-5.5-32.7-3.7-4.9.9-10 1.6-11.3 1.6-2.8 0-12.6-4.5-15.3-7.1-1.5-1.4-2.4-1.7-2.9-.9z"/><use href="#D" x="59" y="96"/><path d="M412.4 220.2c-1 1.6 9.3 11 17.6 15.8 7.2 4.2 18.7 8.7 19.7 7.6 1-1-.8-2.2-5.2-3.6-7.7-2.4-17.6-8.3-24.5-14.7-4.7-4.3-7.1-6-7.6-5.1zm15.8.5c.2 1 1.1 1.9 2.1 2.1 2.4.5 2.1-1.5-.4-2.8-1.8-1-2-.9-1.7.7zM28 223.3c0 .9 3.4 1.6 12.8 2.6 15.2 1.5 27.8 4.1 36.5 7.5 7.2 2.9 7.7 3 7.7 1.5 0-2.9-21.3-9-37.5-10.8l-14.7-1.6c-3.6-.4-4.8-.2-4.8.8zm145.5 2.8c-6.6 1.5-15.6 3.4-20 4-4.4.7-8.4 1.6-9 2.1-1.9 1.7 10.4.7 21-1.7 29.8-6.9 31-6.9 38.5.1 2.6 2.4 5 4.4 5.4 4.4 2.9 0-3.4-7.5-8.5-10-5.3-2.8-12.9-2.5-27.4 1.1zm53.5-2.2c0 4 13.1 13.2 23.3 16.3 6.8 2 7 2 17.8.2 9.1-1.5 11.8-1.6 17.1-.6 6.5 1.2 8 1 5.9-1.1-1.2-1.2-9.2-1.4-31.1-.6-9.1.4-9.7.3-15.9-2.9-3.5-1.9-8.5-5.3-11.1-7.8-4.7-4.4-6-5.2-6-3.5zm208.6 1c-.8 1.2 1.8 2.6 9 5.1 7.9 2.8 7.2-.1-.8-3.1l-7-2.7c-.3-.2-.9.1-1.2.7zM114.4 227c-3.2 1.3-8.2 7.6-9.3 11.7-2.4 8.4-.4 16.4 6.6 27.1 3.8 5.7 7 13.8 8.7 21.4.7 3.2 2.6 3.8 2.6.9 0-3.4-3.9-14.5-7.2-20.1-7.8-13.7-8.8-16.1-8.8-22.2 0-6.8 2.6-12.8 6.6-15.4 3.3-2.2 9.5-2 16.8.5 6.9 2.4 7.6 2.5 7.6.8 0-1.4-14.1-5.7-18.6-5.6-1.6 0-3.8.4-5 .9zm261.1 0c-1.6 2.5 18.9 25.7 27 30.5 2.8 1.8 3.3 2.4 2 2.9-.9.3-2.7.3-4.1 0-2.9-.7-3.3 1.1-.5 2.5 2.3 1.3 7.7-.3 8.5-2.4.5-1.5-1.2-3.1-6.6-6.4-4.6-2.8-16.4-15.3-21.2-22.6-4-5.9-4.1-6-5.1-4.5zm-31.5 2.2c0 .8 2.8 2.3 6.8 3.6 3.8 1.2 9.3 4 12.3 6.2s10.1 6.4 15.9 9.4l13.2 7.3c1.5.9 3 1.4 3.4 1 1.1-1.1-3.5-4.4-14.1-9.8-5.5-2.9-12.7-7.1-16.1-9.4-3.4-2.4-8.6-5.2-11.6-6.3-8.9-3.3-9.8-3.5-9.8-2zM0 230.6c0 1.9 14.6 4.5 33.8 5.9 6.2.5 9.2.4 9.2-.3 0-1.3-2.5-1.7-18.5-3.2-6.6-.6-14.8-1.7-18.2-2.4-5.1-1-6.3-1-6.3 0zm409.5 2.4c-.7 1.2 1.1 4 2.6 4 1.4 0 1-2.6-.5-3.9-1-.9-1.6-.9-2.1-.1zm-234.2 4.2c-6.8 1.6-12.3 3.4-12.3 3.9 0 1.3 1.9 1.1 11.7-1.2 14.5-3.4 17.5-3.8 19.7-2.7s9.6 10.1 9.6 11.7c0 .6-1.3 2.5-2.9 4.3-1.5 1.8-4.1 5.7-5.5 8.7-3.3 6.4-9.6 22.7-9.6 24.7 0 2.2 1.8 1.6 2.6-.9 3.1-10 9.2-23.6 13-28.7 2.4-3.3 4.4-7.1 4.4-8.4 0-2.5-7-12-10-13.6-2.9-1.6-7.6-1.1-20.7 2.2z"/><path d="M49 236.9c0 .5 1.9 1.2 4.3 1.6 24.3 3.7 40.6 14.6 49.9 33.2 2.5 4.9 5.1 11.9 5.8 15.6.9 4.2 1.9 6.7 2.7 6.7 1.6 0 1.6-.1-.3-8-.8-3.6-3.3-10.3-5.6-15-5-10.4-15.8-21.7-25.5-26.8-9.6-5.1-31.3-10.1-31.3-7.3zm68 3.1c-3.2 3.2-2.2 10.6 2.3 16.5 2.8 3.6 3 .7.3-4.6-3-6.1-3.2-8.1-1-10 1.3-1 2.6-1 7.2 0 11.1 2.4 17.8 3.1 24.5 2.5 10.3-1 8-2.9-2.9-2.5-6.5.2-11.5-.3-17.8-1.8-10.7-2.6-10.2-2.5-12.6-.1zm299-.8c0 1.6 9.7 7.9 17.1 11.2 8.4 3.7 16.9 5.8 16.9 4.1 0-.7-2.1-1.8-4.7-2.4-6.1-1.6-17.9-7.1-23.7-11-5-3.4-5.6-3.7-5.6-1.9zm-202.6 1c-.4.7.2 1.8 1.5 2.7 7.2 5.2 7.2 4-.1 11.8-6.8 7.2-10.3 13-14.4 24-2.5 6.7-3 9.3-1.6 9.3.5 0 2.3-3.9 4.1-8.8 4.5-11.8 7.4-16.7 14.3-23.4 3.2-3.2 5.8-6.6 5.8-7.7 0-2.5-8.6-9.6-9.6-7.9zm129.2-.4c-1.4 1.3-.2 2.1 5.5 4.1 3.4 1.1 8.5 3.8 11.3 6 2.8 2.1 9.4 6 14.6 8.6 10.8 5.4 13.7 7.6 19.2 14.6 2.2 2.7 4.7 4.9 5.6 4.9.8 0 4.3-1.8 7.6-3.9 5.5-3.6 11.4-6.6 17-8.5 1.3-.4 1.6-1 .9-1.7-1.4-1.4-10.4 2.2-17.8 7.1-7 4.7-8.7 4.9-10.6 1.4-2.5-4.7-11-11.4-19.8-15.6-4.7-2.2-10.8-5.8-13.6-7.8-2.7-2-5.9-4.2-7-4.8-4-2.1-12.4-5-12.9-4.4zM298 242c0 .5 1.6 1.7 3.6 2.5s6.6 3.5 10.3 5.9c7.9 5.3 20.5 11.2 28.1 13.2l7.2 2c1.2.3 1.8 0 1.8-1 0-1.5-1-2-7-3.1-5.6-1.1-20-7.5-26.1-11.6-6.2-4.1-15.2-8.9-16.9-8.9-.5 0-1 .4-1 1zM.2 243.1c.5 1.4 12.2 4.1 13.3 3.1 1.2-1.2.3-2-3.2-2.5l-7.2-1.3c-2.6-.6-3.3-.4-2.9.7zm19.8 2.8c0 1.4 2.7 2.1 8.3 2.1 7.4 0 26 2.6 32.5 4.6 7.3 2.1 14.7 5.8 19.9 10 4.6 3.8 5.3 4 5.3 2 0-2.1-9.1-8.4-16.8-11.6-7.8-3.3-18.5-5.6-33.1-7-12.7-1.2-16.1-1.3-16.1-.1zm164.7.8c-1.6 1.5-.5 2.5 2.3 1.9 4-.7 3.9.4-1 8.4-2.2 3.6-6 12-8.4 18.6l-5.9 15.6c-1 2.4-1.2 4-.6 4.4.6.3 1.2.4 1.4.3.2-.2 3.1-7.8 6.5-16.8s8-19 10.1-22.4c4.2-6.5 4.5-7.7 2.7-9.5-1.3-1.3-6-1.6-7.1-.5zm88.6-.1c-4.9 1.1-1.9 2.4 5.2 2.4 10.3 0 15.9 2.2 31.5 12.3 7.2 4.7 15.2 9.3 17.8 10.1 2.6.9 10.7 2.4 17.9 3.5 16.2 2.3 22 4.8 29.3 12.8 3.5 3.8 5.4 5.3 6.1 4.6s-.7-2.9-4.5-6.7c-7.9-8.2-14.8-11.1-32-13.5-15.8-2.3-20-4-33.6-13.1-13.3-9-20.4-12-28.7-12.5-3.7-.2-7.8-.1-9 .1zm57.3 1.3c-.8 1.2 1.1 2.3 8.4 4.6 7.9 2.6 14.1 5.9 17.4 9.4 1.8 1.8 5.4 3.9 9.2 5.1 3.4 1.2 8.1 3.4 10.3 5.1 4.3 3.1 6.5 3.7 5.9 1.6-.6-1.7-10.5-7.6-15-8.7-2-.6-5.8-2.9-8.5-5.1-5.8-4.9-8.7-6.5-17.2-9.4l-8.2-3c-1-.3-2-.2-2.3.4zm-161 2.2c-14.3 3.8-27.3 4.3-34.7 1.4-.9-.3-2.1.1-2.8.9-1.1 1.3-.4 3.3 4 12.1 3.1 6.4 5.6 10.2 6.1 9.7 1-1-3.7-12.3-7.3-17.3l-2.2-3.1 3.4.8c10.1 2.6 41.9-1.4 41.9-5.2 0-1.6.5-1.7-8.4.7zM0 254.6c0 2 20.1 4.7 20.7 2.9.2-.7-3.9-1.7-10.2-2.6-7.9-1.1-10.5-1.2-10.5-.3zm240.5 2.4c-1.2 2 3.1 2.5 23 2.6h21l5.5 2.8c3 1.6 7.9 4.4 10.8 6.2 9.6 6.2 25.4 13.6 26.5 12.5.6-.6-2.3-2.6-8.9-5.8-5.5-2.7-14.3-7.5-19.7-10.8-12.4-7.3-16.6-8.5-27.7-7.5-7.8.8-12.2.7-25.2-.5-2.6-.2-5 0-5.3.5zm-212.5.7c0 1.2 4.7 2.3 9.9 2.3 2 0 7.9.9 13.1 2 23.8 4.9 36.1 18 36.4 38.7.1 6.3.4 8.3 1.5 8.3s1.3-1.9.9-9.3c-1-21.7-13.5-35.1-37.7-40.2-9.3-1.9-24.1-3-24.1-1.8zm198.3 1.4c-2.4 1.2-5.5 3.5-7 5.3-2.6 3.1-9.3 16.4-9.3 18.7 0 .6-1.8 5.1-3.9 9.9-3.3 7.2-7.1 18.8-7.1 21.4 0 .3.6.6 1.3.6.8 0 1.8-2.3 2.4-5.5.7-3 3-9.6 5.2-14.5 2.3-5 4.1-9.6 4.1-10.3s1.7-4.9 3.9-9.3c4.1-8.6 8.7-13.5 14.5-15.4 3.8-1.2 4.9-3 1.9-3-1 0-3.7.9-6 2.1zM123 261.8c0 1.5 2.8 4.7 3.5 4 1.1-1.1-.5-4.8-2.1-4.8-.8 0-1.4.4-1.4.8zm41.5 1.2c-1.6.4-5 .8-7.5.9-2.6 0-5.1.6-5.8 1.3-1.5 1.5-1.5 5.3 0 8.1.7 1.2 1.9 6.5 2.8 11.7s2 9.5 2.5 9.5c1.9 0-.6-17.4-3.3-23.2-2-4.2-.9-5.3 5.8-5.3 2.5 0 5.9-.4 7.7-.9 4-1.2 4.6-.5 2.8 3s-1.9 3.9-.1 3.9c1.6 0 3.9-5.1 3.4-7.7-.4-2-3.6-2.6-8.3-1.3zm67.8 5.9c-2.8 1.3-4.9 3.3-6.6 6.3-3 5.1-8.8 20.9-8.1 22 1 1.6 2.3-.3 4.5-7 3-9.1 6.3-15.6 9.3-17.9 2.3-1.8 4-2 26.4-1.7 22 .2 24.3.4 28.1 2.3 7.1 3.7 8.7 2.1 1.8-1.9-4.1-2.4-4.8-2.5-23.2-2.6-10.4 0-21-.4-23.5-.7-3.4-.6-5.5-.3-8.7 1.2zm-189.7 1.9c-1.2 2 .6 4 8.7 9.5 4.5 3 11.9 9 16.4 13.1 4.4 4.2 8.6 7.6 9.1 7.6 1.5 0 2.5-3.6 1.7-6.3-1.8-5.8-4.9-11.7-6.1-11.7-1.8 0-1.8 0 1.1 5.8 1.4 2.8 2.5 6 2.5 7.1 0 1.8-1.1 1.2-6.2-3.9-3.5-3.3-10.5-9-15.6-12.6-5.1-3.7-9-6.9-8.8-7.2.8-.8 12.7 2.8 16.8 5.1 4.4 2.4 6.4 1.4 2.8-1.3-4.9-3.7-21-7.5-22.4-5.2zm47.1-.2c-.3.3.5 2.3 1.9 4.3 5.1 7.8 6.8 14.6 6.8 27.1-.1 8.2-.6 12.8-1.8 15.9-5.1 13.6-14.9 16.5-25.3 7.6-4.1-3.4-6.3-4.4-6.3-2.6 0 1.3 5.6 5.9 10.1 8.1 14 7.2 26-5.9 26.1-28.4.1-10.2-1.5-17.1-5.9-25.9-3.2-6.4-4.2-7.5-5.6-6.1zM0 271.9c0 .5 2.1 1.2 4.8 1.5 2.6.4 8 1.6 12.1 2.7 7.2 1.9 9.5 1.9 7.5-.1-2.7-2.7-24.4-6.4-24.4-4.1zm128-.5c0 .4.9 3.9 2.1 7.9 3 10.5 3.6 27.9 1.5 38.7-2.2 10.9-8.8 24.7-15.5 32.2-5.4 6-5.9 6.8-3.8 6.8 2.2 0 11.6-12.2 15.7-20.5 5.6-11.4 7.3-19.5 7.3-34.5-.1-9.8-.6-14.4-2.5-21.4-1.2-4.9-2.9-9.1-3.5-9.4-.7-.2-1.3-.1-1.3.2zm302.6 1.2c-8 1.9-16.7 6.3-25.5 12.9-4.1 3-8.2 5.5-9.1 5.5-1 0-2.4-1-3.3-2.3-.8-1.2-1.8-1.9-2.2-1.5-1.2 1.1.1 3.5 2.8 5.3 3.2 2 5.4 1.2 14.3-5.6 3.8-2.9 9.6-6.5 12.9-8 6.7-3 19.1-5.9 25.5-5.9 2.2 0 4-.5 4-1 0-1.5-12.5-1.1-19.4.6z"/><use href="#F"/><path d="M384.6 277.8c-.9 1.5 2.1 4.9 3.4 3.6.7-.7.5-1.5-.9-2.8-1-.9-2.2-1.3-2.5-.8zm-221.7 4.9c-1.1 2.6-2.7 7.3-3.6 10.5s-2 5.8-2.5 5.8c-.4 0-.8.9-.8 2.1 0 1.4.5 1.9 1.7 1.7s2.3-2.3 3.5-6.8c.9-3.6 2.6-8.7 3.7-11.3 2.4-5.5 2.6-6.7 1.1-6.7-.6 0-2 2.1-3.1 4.7zM31 280.2c0 .7 2.5 2.6 5.5 4.2 9 4.7 20.5 13.8 29.8 23.5 4.7 5 8.8 9.1 9.2 9.1 3.4 0-11.9-16.7-23.3-25.4-6.2-4.7-19-12.6-20.4-12.6-.5 0-.8.6-.8 1.2zm204.6 1.5c-1.4 1.4-3.3 5.1-4.2 8.1-.9 2.9-3.4 9.5-5.6 14.5-3.4 7.5-4.1 10.2-4.2 16-.2 10.1 2 10.1 2.6 0 .4-6.3 1.3-9.6 4.6-16.9 2.2-5.1 4.6-11.1 5.2-13.4 1.5-5.5 5-9 9-9 1.6 0 3-.5 3-1 0-.6-1.7-1-3.9-1-2.8 0-4.5.7-6.5 2.7zm16.4-.8c0 1.3 8.5 2 16.6 1.4 8.2-.6 12.5.5 19.9 5.2 6.9 4.4 26.9 14.4 33.3 16.6 7.4 2.6 17.6 3.6 17 1.8-.2-.8-1.8-1.5-3.4-1.6-10.9-1-26.1-7.2-45.3-18.7l-9.5-5.6h-14.3c-7.9 0-14.3.4-14.3.9zm-109.6.9c.3.5 1 5.1 1.7 10.2 1.9 16.2-1.3 34.4-8.6 49-3.7 7.4-11.4 18-15.2 20.9-1.4 1.1-2.2 2.5-1.8 3.2 1 1.5 8.5-5.9 13.5-13.1 5.5-8 8.6-14.8 11.6-24.7 2.4-7.7 2.7-10.6 2.8-23.8.1-16.6-.7-22.5-3-22.5-.8 0-1.3.4-1 .8zM0 283c0 1.2 4.5 2.4 6 1.5.5-.3.8-1.1.5-1.6-.8-1.2-6.5-1.2-6.5.1zm305 .2c.1.7 4.7 3.4 10.3 6 8.5 4 12.5 5.1 24.5 7.2 7.9 1.4 15.4 3.2 16.7 4 3 2 3.5 2 3.5.2 0-2.3-5.9-4.3-19.5-6.6-10.8-1.8-14.9-3-23.8-7.1-5.9-2.7-11-4.9-11.2-4.9-.3 0-.5.6-.5 1.2zm29-.2c0 1.1.8 1.3 13 3.5 12.4 2.2 14.5 3.2 18.8 8.1 4.8 5.3 7 12.3 5.3 16-1.4 3.3-.3 5.4 1.6 2.9 3.6-5-.7-18.1-7.8-23.8-2.9-2.2-6.2-3.3-15.5-5.2-13.4-2.7-15.4-2.9-15.4-1.5zm99.6.6c-10.2 2.5-25.9 11.3-35.4 19.9-6.2 5.7-4.6 7 1.8 1.6 7.1-6 21.1-14.6 27.8-17.1 3.1-1.2 9.4-2.7 13.9-3.3 4.6-.6 8.3-1.4 8.3-1.9 0-1.3-9.9-.8-16.4.8zM13 285.3c0 .8 1.9 2 4.3 2.7 10.8 3.2 24.8 12.2 36.3 23.3 5.1 4.8 7.4 6.5 8 5.6 1.5-2.5-20.3-20.6-31.7-26.5-4.8-2.4-14.8-6.4-16.1-6.4-.5 0-.8.6-.8 1.3zm230.5 7.4c-2.5 3-11.5 25.1-11.5 28.4 0 3.7 2.7 2 3.3-2 .4-3.3 5.1-15.3 9-23.1l1.3-2.5 15.9.4 16 .3 11.3 6.5c7.5 4.4 11.7 6.2 12.3 5.6.7-.7-3.2-3.3-11.3-7.9l-12.3-6.9-16.2-.3c-14.8-.3-16.3-.2-17.8 1.5zM0 293.4c0 .7 2.6 1.7 6.3 2.5 8.1 1.7 18.7 6.7 26.2 12.4 3.3 2.5 11.1 10 17.4 16.6 12.8 13.8 17.7 17.9 19.2 16.4.6-.6-.5-2-3.2-3.9-2.4-1.6-8.5-7.6-13.7-13.4-10.7-11.9-17.1-17.6-25.4-22.5-9.8-5.8-26.8-11-26.8-8.1zm444 .1c0 1 1 1.5 3 1.5s3-.5 3-1.5-1-1.5-3-1.5-3 .5-3 1.5zm-261.3.2c-.4.3-.7 1.5-.7 2.5 0 2.6 2.4 1.7 2.8-1 .3-2.1-.8-2.9-2.1-1.5zm251 0c-1.3 1.2-.7 2.3 1.3 2.3 1.1 0 2-.7 2-1.5 0-1.5-2.1-2.1-3.3-.8zM193 298.5c-3.4 7.9-5 16-5 25.2 0 10.9 1.9 17.8 7.1 25.9 2.1 3.3 3.9 7 3.9 8.2 0 2.3-.5 2.6-9 5.6-5.5 1.9-10.6 5.9-9.6 7.4.4.8 2.2 0 5.2-2.3 2.5-1.9 5.5-3.5 6.7-3.5 3.1 0 8.7-3.6 8.8-5.7.2-3.4-.3-4.9-4.6-12.1-7.4-12.5-8.4-27.3-2.9-42.5 3.7-10.3 3.8-10.7 2.5-10.7-.7 0-2 2-3.1 4.5zm-71.3 7.2c-1 15.7-6.4 29.2-15.4 38.5-3.7 3.8-4 5.4-.9 4.2 2.4-.9 10.5-12.1 13.3-18.3 1.3-2.9 3-8.1 3.8-11.5 1.6-6.6 2-22.6.7-22.6-.5 0-1.2 4.4-1.5 9.7zm296.7-4.2c-10 6.7-26.1 21.8-30.3 28.3-3.5 5.5-3.7 6.2-1.8 6.2.8 0 1.8-1 2.4-2.3 3.4-7.4 21.3-24.2 34.6-32.4 5.5-3.4 7.1-5.3 4.5-5.3-.7 0-5 2.5-9.4 5.5zm-35.1 4.2c.1 12.4-5.4 19.4-22.3 28.3-15.9 8.4-25.9 19.4-27.7 30.6-.7 4 1.4 5.6 2.2 1.7 2.7-12.5 10.6-21.5 25.7-29.4 17.1-8.9 24.8-18.1 24.8-29.6 0-2.8-.3-5.8-.6-6.7-1.3-3.4-2.1-1.3-2.1 5.1zM111 302.9c0 1.1.5 2.3 1 2.6.6.3 1-.1 1-.9l.1-2.3c0-.4-.4-.9-1-1.1s-1.1.5-1.1 1.7zm56.6.8c-2.7 9-3.2 23.8-1.1 33.3 2.4 10.9 2.1 12.3-3.6 18.6-5.1 5.7-11.9 18.1-11.9 21.9 0 1.1-.9 3.7-1.9 5.8-1 2-1.5 3.9-1.1 4.2 1.5.9 3.9-3.1 5.5-9.5 2-8 5.8-14.8 12.5-22.4 2.7-3.1 5-6.3 5-7 0-.8-.7-5.1-1.6-9.7-1.6-8.2-1.5-25.3.2-33.7.7-3.4-1-4.7-2-1.5zm11.4.7c-1.7 4.7-3.2 19.1-2.5 25.6.4 3.6 1.8 9.4 3.2 13 3.8 10 3.7 9.8 1.3 11.8-1.4 1.1-1.9 2.1-1.3 2.5 1.4.9 6.3-3 6.3-4.9 0-.8-1-3.4-2.2-5.7-4.9-9.6-6.3-25-3.3-37.2 1.7-7.3 1.8-7.5.5-7.5-.6 0-1.5 1.1-2 2.4zm71.7.6c-3.3 3.9-6.1 11.3-5.3 14.3.4 1.6 3.3 3.9 9.5 7.6 4.9 2.9 12.4 8.2 16.8 11.7 7.1 5.9 11.3 7.9 11.3 5.5 0-.6-1.1-1.6-2.4-2.3s-6.2-4.2-10.9-7.8c-4.7-3.5-11.3-8-14.8-10-6.2-3.5-6.4-3.8-6.3-7.6 0-2.3 1-5.4 2.5-7.6 2.1-3.3 2.9-3.8 6.2-3.8 2.6 0 3.7-.4 3.7-1.5s-1.1-1.5-3.9-1.5c-3.1 0-4.4.6-6.4 3zm17.3-1.8c0 .8 2.1 1.8 4.8 2.5 2.7.6 7.3 2.6 10.3 4.5 3 1.8 6.8 4 8.4 4.8 4.1 2.1 4.1 3.9.4 8.6-3.6 4.5-9.1 15.3-8.3 16.6 1 1.6 1.9.7 3.8-3.7 1-2.5 3.6-7.1 5.7-10.3 3.8-5.5 4.7-8.6 3.1-10.8-.4-.6-3.2-2.4-6.2-4.1l-10-5.5c-5.5-3.1-12-4.5-12-2.6zM0 304.5c0 .7 1.5 1.6 3.3 1.9 4.9.9 15.5 6.2 21.5 10.8 3.6 2.6 5.7 3.7 6.4 3 1.2-1.2-9.6-9.1-17.3-12.6-7.3-3.4-13.9-4.8-13.9-3.1zm213.6-.6c-1.4 2.2-3.6 13.1-3.6 17.8 0 10.5 1.7 15.3 7.4 20.8 5.6 5.4 14 10.4 15.3 9.1.4-.5-.1-1.3-1.1-2-16.1-9.5-18.8-13.5-18.8-26.8.1-4.6.8-10.5 1.6-13.3.9-2.8 1.6-5.3 1.6-5.8 0-1-1.8-.9-2.4.2zm223.4.7c-5 1.5-9.9 4.9-8.8 5.9.4.4 3.1-.4 5.9-1.9 3.7-1.8 6.9-2.6 10.6-2.6 4 0 5.3-.4 5.3-1.5 0-2-6.8-1.9-13 .1zm-78.3 4.9c-.9 1.3-5.4 4.5-10 7-11.2 6.3-18.1 11.8-24.4 19.5-9.7 11.6-14.3 25.3-12.7 37.7 1 8.6 2.4 5.7 2.7-5.7.3-9.9.5-11 4.1-18.5 5.3-10.9 17.4-23 30.1-30 9.6-5.3 13.5-8.5 13.5-11 0-2.2-1.2-1.8-3.3 1z"/><use href="#G"/><path d="M109.3 316c-2.4 12.8-10.2 24.5-18.1 27.1-2.1.7-6.1.9-9.9.6-4.8-.5-6.3-.3-6 .6.5 1.6 7.5 2.9 12 2.2 11.5-1.7 19.2-10.4 23.7-26.6 2.3-8.6 2.4-9.9.7-9.9-.7 0-1.7 2.4-2.4 6zm219.1.4c-9.1 7.2-17.8 17.7-22.4 26.9-3.2 6.5-6.6 20.7-5.6 23.3s2.6.5 2.6-3.5c0-5.3 2.6-13.4 6.8-21.6 4-7.6 19-23.8 25-26.9 2.8-1.5 4.5-4.6 2.4-4.6-.4 0-4.4 2.9-8.8 6.4zm-66.4-.5c0 1 1.7 3 4 4.5 4.5 3 5 3.1 5 1.3 0-.6-1.7-2.2-3.8-3.4l-3.7-2.2h3.5c4.6-.1 11.5 3.8 11.5 6.4 0 1.5-.6 1.9-2.2 1.8-1.5-.2-2.3.3-2.3 1.2 0 1.8 4.1 2 5.8.3.7-.7 1.2-2.4 1.2-4 0-3.9-6.8-7.8-13.8-7.8-4.4 0-5.2.3-5.2 1.9zm47.4 2.9c-11 12.6-17.5 25.4-19.6 38.6-.6 4.2-.9 7.9-.5 8.2 1.3 1.3 2.7-.9 2.7-4.3 0-10.3 7.5-27.1 17.1-37.9 5.3-6 7.2-9.5 5.2-9.4-.5.1-2.6 2.2-4.9 4.8zm102.5 2.9c-12.3 9.3-16.9 15.3-16.9 22 0 3.3.6 5 2.5 6.8 1.3 1.4 3 2.5 3.7 2.5 3.4 0 9.2 2.4 12.2 5.1 3.8 3.3 6.1 2.2 3-1.3-2.5-2.6-6.1-4.5-10.7-5.3-4.9-1-8.7-4-8.7-7.1 0-6.2 5.7-12.9 19.3-22.8 4.2-3.2 7.5-6.1 7.2-6.7-.4-.5-.8-.9-1-.9s-4.9 3.5-10.6 7.7zm28.8-6.3c-2 .8-7.2 4-11.5 7.3-4.2 3.2-9.6 7.1-11.9 8.6-4 2.5-5.5 4.7-3.4 4.7 1.3 0 13.4-8.3 19.2-13.1 5.4-4.5 8.7-5.9 13.5-5.9 2.4 0 3.4-.4 3.2-1.3-.6-1.7-4.7-1.9-9.1-.3zm-440.5.7c.2.6 2 1.7 4.1 2.4 6.9 2.4 14.9 8 24.9 17.4 5.4 5.1 10.2 9.1 10.5 8.7 1-1-15.4-17.2-21.9-21.7-8.8-6-18.6-9.8-17.6-6.8z"/><use href="#H"/><path d="M79.6 318.8c-1.3 1.2-.4 2.2 2 2.2 1.5 0 2.4-.5 2.2-1.2-.4-1.2-3.3-2-4.2-1zm274.9 7.1c-19.4 11.6-30.3 25-31.3 38.3-.6 7.3 1.3 7.8 2.1.6.4-2.8 1.9-7.7 3.3-10.7 3.7-7.6 15.9-19.6 24.9-24.5 8.2-4.5 13.5-8.3 13.5-9.7 0-1.5-.9-1-12.5 6zm-155.2 2.5c1 14.2 7 22.4 23 31.5 4.8 2.8 9.2 5.1 9.7 5.1 2.7 0 .2-2.3-7.2-6.5-16.4-9.4-21-15.2-23-29.4-1.5-10.2-3.3-10.7-2.5-.7zm-163.7-3.6c-.7 1.1 18.4 19.8 24.6 24 10.9 7.4 21.9 9.8 32.1 6.8 3.1-.9 5.7-2 5.7-2.5 0-1.7-1.3-1.9-4.8-.4-2.7 1.1-5.9 1.4-11.7 1.1-12.4-.7-19.3-4.8-36.6-21.6-4.8-4.6-8.9-7.9-9.3-7.4zM0 327.2c0 .7 2.6 2.6 5.8 4.3 3.8 2 10.3 7.4 19.2 16.1C39.4 361.5 48.3 369 50.6 369c2.7 0 1.4-1.7-4.2-5.5-3.1-2.1-11.3-9.5-18.3-16.3C15.2 334.5 9.6 330 3.5 327.4c-2.7-1.1-3.5-1.1-3.5-.2zm153.1 1c-.6 1.3-2.2 5.4-3.7 9.3-3 7.9-6.2 13.9-11.1 20.6-1.8 2.6-3.3 5.2-3.3 5.8 0 6.7 16.2-20.2 18.6-30.9.7-3.4.8-3.4 1.5-1 .4 1.4.7 4.4.8 6.7.1 3.1.5 4.3 1.6 4.3 1.8 0 1.8-1.4.2-9.9-1.3-6.9-3.1-8.7-4.6-4.9zm294.1-1c.6 1.8 2.8 2.1 2.8.4a1.58 1.58 0 0 0-1.6-1.6c-.9 0-1.4.5-1.2 1.2zm-209.7.9c-.9 1.3-1.5.8 8.6 6.6 11.7 6.7 19.9 13.1 29 22.5 4.3 4.4 8 7.5 8.3 6.9.8-1.3-10.8-13.7-18.8-20-4.9-3.9-13.1-9.2-25.8-16.7-.4-.3-1 .1-1.3.7zm196.6 5.5c-2.8 2.5-5.1 5.4-5.1 6.5 0 1 1.5 3.4 3.4 5.3 6.3 6.2 10.1 15.7 12.1 29.5.9 5.8 2 10 3.1 11.2 2.5 2.8 2.8 1.7 1-3.5-.9-2.6-1.6-6.1-1.6-7.9 0-8.5-5.6-23.1-11.4-29.4-2-2.2-3.6-4.7-3.6-5.6 0-.8 2-3.1 4.5-5.1 4.3-3.5 5.6-5.6 3.6-5.6-.5 0-3.2 2.1-6 4.6zm-208.1.5c0 1.6 1.5 2.7 14.5 10.4 13.2 7.8 23.9 16.6 31.8 26 3.2 3.9 6.3 7.2 6.9 7.4 2.3.8 0-3.4-5.2-9.2-8-9.1-17.8-17.5-28-23.7l-13.7-8.5c-6.2-3.8-6.3-3.9-6.3-2.4zm220.2 4.5c-2.5 1.7-2.7 3.2-1 6.9 1.3 2.9 4.5 3.6 3.3.7-1.7-4-1.8-6.2-.1-6.2.9 0 1.6-.4 1.6-.9 0-1.8-1.7-2-3.8-.5zM0 339.5c0 .8.5 1.5 1.1 1.5s7.7 6.5 15.8 14.5c13.2 13 17.1 16.2 17.1 13.7 0-.4-6.2-6.8-13.8-14.3C6.4 341.2 0 336.3 0 339.5zm410.2 2.7c.3.7 2.2 2.1 4.4 3.1 5.8 2.8 11.9 9.2 14.8 15.6 1.4 3.1 3.5 10.8 4.7 17.1s2.4 11.7 2.6 11.9c.2.3.7 0 1.2-.5 1.4-1.3-3.3-23.3-6.2-29.6-3.1-6.8-8.9-13.1-15.1-16.3-5.5-2.8-7-3.1-6.4-1.3zm-28.2 5.5c0 7.7 2.5 11.9 7.7 13.1l8.8 2.1c9.5 2.3 13.5 9.2 15.4 26.9 1.2 11.4 2.9 16.3 6.9 20.5 3.7 4 9.9 7.1 10.8 5.5.4-.6.3-1.3-.2-1.5-3.7-1.2-8.2-4.5-10.2-7.3-2.9-4.3-4-8.5-5.2-20.4-1.9-18.5-7-25-21.3-27.1-2.8-.4-6-1.7-7.5-3-2.3-2-2.7-3.1-2.8-8.1 0-3.5-.5-5.9-1.2-6.2-.8-.2-1.2 1.5-1.2 5.5zm-20.6-1.1c-11.4 6.8-17.4 14.9-17.4 23.2 0 9.3 4.5 14.2 15 16.2l8.3 1.6c2 .4 2.7.2 2.7-.9s-1.6-1.7-5.7-2.2c-10.7-1.3-15.7-4.4-17.3-10.7-2.2-7.9 2.4-16.1 13-23.4 10.1-6.9 12.6-6.1 14.4 4.7.6 3.7 3 7.8 4 6.9.3-.3-.1-2.8-.9-5.5l-1.9-7.7c-.8-3.5-3.2-5.8-6-5.8-1.2 0-4.9 1.6-8.2 3.6zM44 349.9c0 1.2 2.9 3.5 3.6 2.8 1.1-1-.5-3.7-2.1-3.7-.8 0-1.5.4-1.5.9zm104.5 6.2c-3.9 5.8-6.6 11.9-9.1 20.6-.2.7-2.7 2.6-5.7 4.3-9.9 5.6-18.1 15.9-27.6 34.7-3.3 6.6-3.7 8.3-2.1 8.3.5 0 1.8-2 2.9-4.5 4.1-9.2 13.6-24.1 18.5-29 2.8-2.8 7.4-6.4 10.2-7.9 5-2.7 7.4-5.8 7.4-9.4 0-2.7 5.3-13.2 9.4-18.5 4-5.3 4.2-5.7 2.2-5.7-.8 0-3.6 3.2-6.1 7.1z"/><use href="#C" x="-359" y="279"/><use href="#G" x="-71" y="45"/><path d="M51.4 355.1c-.8 1.3 1.6 3.1 9.8 7.3 8.7 4.4 16.3 6 26 5.3 7.8-.5 18.8-4.4 18.8-6.6 0-1.5-1.1-1.4-5.6.8-12.6 6.1-27.9 4.6-42.7-4.3-3.3-2-5.9-3-6.3-2.5zm194.6 5.4c0 .8.4 1.5.8 1.5 1.5 0 15.3 13.3 19.7 19 11 14.2 16.4 28.6 17.4 45.8.6 12 2.4 15.5 2.9 5.8.9-18.1-7.2-40.2-20.7-56.1-5-5.8-17.8-17.5-19.3-17.5-.5 0-.8.7-.8 1.5zm112.6 2.5c-6.6 7.3-4.3 11.3 7.5 12.9 4.1.6 8.3 1.3 9.1 1.6 3.2 1.2 3.1-1.7-.1-4.2-1.7-1.4-4.5-5.2-6.2-8.4-3.6-7.1-5.3-7.4-10.3-1.9zm7.4 1.5c.6 2 2.3 4.9 3.7 6.5 2.8 3.4 2.4 3.5-5.8 2-6.5-1.3-7.5-2.1-5.9-5.1 1.5-2.9 5.1-6.9 6.1-6.9.4 0 1.3 1.6 1.9 3.5zm-194.7-1.3c-4 4.4-7.3 10.5-10.4 18.8-3.4 9.4-6 12.8-13.4 17-8.5 4.9-14 12-22.4 28.7-3.5 7.1-3.6 7.3-1.8 7.3.6 0 3.9-5.2 7.1-11.5 7.4-14.3 10-17.5 18.4-22.4 8.8-5.2 10.7-7.4 13.6-15.7 2.9-8.6 4.9-12.5 9.2-18.5 1.9-2.6 3.4-4.9 3.4-5.3 0-1.3-1.7-.5-3.7 1.6zm-167 1l1.2 6.3c1.3 8.2 4 11.5 9.3 11.5 2.6 0 12.1 6.7 17.9 12.7 8.6 9 16.2 26.3 16.3 37 0 2.3.5 3.3 1.6 3.3 1.2 0 1.4-.8.9-4.7-2.1-14.7-7.2-26.4-16.1-36.2-6.3-6.9-16-13.8-20.9-14.7-4.6-.8-5.5-2.1-6.7-10.3-.8-5.2-1.5-7.1-2.5-7.1-1.1 0-1.4.7-1 2.2zm10.8.7c-.9.6-1.1 1.8-.7 3.5.7 3 2.3 3.4 2.8.8.2-1.5.8-1.2 3.3 1.7 2.7 3.1 2.7 3.3.7 2.7-1.6-.6-2.2-.3-2.2.8 0 2.1 4.9 2.2 5.6.1.3-.8-1-3.4-3.1-6-4-4.8-4.2-4.9-6.4-3.6z"/><use href="#F" x="85" y="89"/><path d="M420.4 368.2c.9 3.2 4.3 21.3 5.1 27 .9 6.8 3.3 9.2 11.7 11.8 4 1.2 8.6 2.9 10.1 3.7 2.7 1.3 2.8 1.3 2.5-.4-.2-1.3-2.9-2.7-9.7-5-5.2-1.7-9.8-3.8-10.3-4.5-1.1-1.7-1.4-3.1-3.7-17.3-1.1-6.6-2.4-13.3-3-14.8-1.3-3.3-3.6-3.7-2.7-.5zm-290.4.3c-.7.9-1 1.8-.7 2.2.8.7 3.7-1.5 3.7-2.8 0-1.4-1.6-1.1-3 .6zm155.7-.8c-.9.9 1.2 3.3 2.9 3.3 1.9 0 1.8-2.6-.2-3.4-1.9-.7-1.9-.7-2.7.1zm-176.3 2.4c-11.9 7.5-32.8 8.8-46.3 2.8-3-1.3-4.8-1.6-5.5-.9-1.1 1.1 3.9 3.5 11.9 5.6 6.9 1.9 21.9 1.8 28.6-.2 5.9-1.8 14.4-5.8 15.3-7.3 1.2-1.9-1.1-1.9-4 0zm128.6-1.2c0 .5 1.2 1.7 2.8 2.7 5.1 3.3 14.4 12.9 19.3 19.7 5.8 8.3 10.4 18.9 11.9 28 1.2 6.8.9 22-.5 26.5-.6 1.6-.3 2.2.8 2.2 2.1 0 3.2-6.8 3.1-18-.2-17.6-6.4-32.9-19.5-48.1-7.4-8.6-17.9-16.2-17.9-13zm-37.1 2.5c-6.1 1.6-13.3 6-15.9 9.6-1.2 1.6-3.2 7.2-4.4 12.3-2.7 10.8-3.8 13.1-7.1 15.3-2.7 1.8-3.3 3.4-1.1 3.4 1.9 0 6.5-4.9 8-8.5.7-1.6 1.8-5.9 2.5-9.5 1.6-8.2 3.1-11 7.8-14.9 4.9-4.1 11.9-6.1 21-6.1 4 0 7.3-.4 7.3-.9 0-2.3-10.7-2.7-18.1-.7zm189.1-.1c0 .9 1.5 1.7 4 2.1 5.6.9 6.9 3.5 8.6 17 1.6 13.2 4.3 21.2 8.6 26.2 4.3 4.9 5.3 3.2 1.4-2.4-4.3-6.1-6.3-12.4-7.6-24.6-1.2-11-2.3-14.1-6-16.7-3.6-2.5-9-3.5-9-1.6zm-352 2.6c0 2.5 18.7 12 29 14.7 8.7 2.3 24.4 2.3 33 0 7.3-2 16.8-6.5 21.9-10.4 5.3-4 1.9-3.8-4.7.3-3.2 2-9.2 4.8-13.3 6.3-6.5 2.3-8.9 2.6-19.9 2.7-11.1 0-13.5-.3-21.2-2.9-4.8-1.5-12-4.8-15.9-7.2-7.2-4.5-8.9-5.1-8.9-3.5zm187 .3c0 .7 2.6 2.4 5.8 3.8 10.5 4.5 24.5 21.2 28.4 33.7.7 2.4 1.9 4.3 2.5 4.3 2 0 1.6-1.6-2.5-10.4-6.7-14-16.2-24.5-27.4-30.2-5.3-2.7-6.8-3-6.8-1.2zm75.6 4c1.5 11.3 6 22.6 12.2 31.2 3.3 4.5 14.2 13.6 16.3 13.6 1.9 0 .8-2.7-1.6-3.8-3.9-1.8-12-9.8-15.6-15.3-3.8-5.9-7.5-16.5-8.4-24.2-.5-3.9-1.2-5.7-2.1-5.7-1.1 0-1.3 1-.8 4.2zm32.4-2.3c0 1.7 1.2 4.1 2.1 4.1.5 0 .9-1.1.9-2.5 0-1.6-.6-2.5-1.5-2.5-.8 0-1.5.4-1.5.9zm-158.4 2.3c-.8 1.3-2.6 6.3-3.9 11.1-3 10.5-5.5 13.7-14.2 17.7-3.3 1.5-7.2 3.8-8.6 5.2-2.7 2.5-10.9 15.9-10.9 17.7 0 2.6 2 .7 5-4.7 5.4-9.6 7.8-12.1 15.3-15.8 11-5.5 12.4-7.2 15.8-19.7 1.1-3.8 2.6-8.2 3.4-9.8 1.8-3.5.2-4.9-1.9-1.7zm149-1.3c-1.1 1.7 3.4 14 6.7 18.3 4.3 5.8 11.8 9.3 24.6 11.8 20.1 3.8 26.4 9.8 24.8 23.6-.4 4.3.5 6.6 1.8 4.4.4-.6.7-4 .7-7.5.1-12.8-6.8-19-25-22.6-14.8-3-18.5-4.5-23-9.3-3.6-3.9-8.2-13.5-8.2-17.1 0-1.7-1.7-2.9-2.4-1.6zm-118.9 5.2c-8.4 2-11.6 5.2-13.2 12.9-.3 1.9-.9 4.3-1.1 5.2-.3 1.1 0 1.8.9 1.8 1 0 1.8-2 2.6-5.8 1.3-6.5 3.5-9.2 9-11.1 7.5-2.5 17.8-.6 26.4 4.9 4.8 3 6.7 3.7 6.7 2.2 0-1.2-9.2-7-13.5-8.5-5.7-2-13.3-2.7-17.8-1.6zm78.3 1.8c0 .4 1.8 4.7 4 9.3 7.1 15.3 9.9 33.4 7.7 50.5-.5 4.2-.5 6.3.2 6.3 1.9 0 2.6-5.4 2.5-20-.1-11.5-.5-16.1-2.2-22.3-2.5-8.9-9.6-24.7-11.1-24.7-.6 0-1.1.4-1.1.9zm53.5 0c-.8 1.4 5.4 7.5 10.1 9.9 2.2 1.1 9.2 3 15.4 4.2 13.4 2.5 16.4 3.6 21.4 8 4 3.6 5.8 3.4 3.4-.2-2.7-4.1-10.9-7.6-23.5-10.2-13.8-2.7-18.1-4.5-22.3-9.2-3.2-3.7-3.6-3.9-4.5-2.5zM.2 386.7c.2.8 2.6 2.2 5.4 3.2 2.8.9 7.4 3.4 10.2 5.4 5.8 4.1 6.2 4.3 6.2 2.4 0-2.4-9.2-8.1-18-11.1-3.6-1.2-4.1-1.2-3.8.1zm313.8.2c0 2 1.7 3.7 2.7 2.8.7-.8-.7-4.7-1.8-4.7-.5 0-.9.9-.9 1.9zm62.6 1c-.3.5 2.3 2.3 5.8 4 12.5 6.1 18.6 16.3 19.5 32.4.6 10.6 2.4 13.5 2.9 4.7 1-17-7.6-33-21.3-39.4-6-2.9-6.2-2.9-6.9-1.7zm-244.5 8.8c-7 7.1-14.3 19.3-20 33-1.6 4-4.4 9.3-6.1 11.9-2.1 3-2.9 4.9-2.2 5.6 1.3 1.3 7.2-8.2 11.3-18.2 6.8-16.4 15.9-29.5 25.5-36.7 2.8-2.1 2.9-2.2.5-2.2-1.6-.1-4.4 2-9 6.6zm74.2-3.5c-2.6 1.3-4.8 5.7-5.8 11.8-.4 2.5-1.9 6.7-3.4 9.5l-2.9 5.7c-.2.5.3.8 1.1.8 2 0 6.3-9 7.8-16 .6-3 1.7-6.5 2.5-7.8 3.2-5 15.6-1.1 23.2 7.2 6.2 6.7 11.5 18.4 12 26.3.3 4.5.8 6.3 1.8 6.3 3.4 0 .6-13.9-4.9-24.5-7.5-14-22.8-23.5-31.4-19.3zm-156.9 1.1c-.3.8 1 4.8 2.9 8.8l4 9.1c.7 2.1 2.7 2.4 2.7.5 0-.7-1.6-4.5-3.5-8.6-3.8-7.9-4-8.5-2.5-7.6.6.4 4.8 1.6 9.3 2.8 9.5 2.4 32.1 3 37 .9 1.5-.6 2.7-1 2.7-.8 0 .3-1.8 3.5-3.9 7.3-2.3 4-3.6 7.2-3 7.7 1.1 1.2.8 1.6 5.7-7.4 5.2-9.6 4.7-10.9-3.1-9-10.4 2.4-34.9.1-45.9-4.5-1.2-.5-2-.2-2.4.8zm268.1-.3c-1.9 3 9.1 15.2 17 18.9 2.7 1.3 10 3.4 16.2 4.7 6.2 1.2 12.1 2.7 13.1 3.3 1.8 1 3.2.6 3.2-.9 0-1.3-5.1-3-14.1-4.5-5-.9-11.5-2.5-14.4-3.6-6.4-2.4-14.8-9.6-17.6-15-2.1-4.1-2.4-4.5-3.4-2.9zm122-.1c-.5.9 2.4 3.1 3.9 3.1 1.3 0 .5-2.8-1-3.4-2-.8-2.2-.8-2.9.3zm-439 4.2c-.4.6-.5 1.1-.4 1.2l5.3 2.7c15 7.7 23.6 24.7 20.8 41-1.2 6.7-1 8.2 1.1 6.1.8-.8 1.2-4.8 1.2-12.4 0-10.6-.2-11.6-3.2-17.8-2-4.1-5.3-8.5-8.6-11.6-6-5.7-15.2-10.9-16.2-9.2zm239.1-.3c-.3.5.3 2.1 1.3 3.4 3.1 3.8 7.8 13.8 9.7 20.3 2.4 8.3 2.2 17.9-.4 23.8-2.6 5.8-.5 6.7 2.2.9 2.7-5.4 3.2-15.4 1.2-23.2-2.9-11.5-12.1-28.2-14-25.2zM26 402.9c0 .5 1.5 3.2 3.4 6 6.9 10.2 10 24.3 7.8 35.8-.7 4.2-.7 5.3.4 5.3 3.4 0 3.1-22.8-.4-31.9-3.5-8.9-11.2-19.4-11.2-15.2zm162 5c-.7 1.4-.7 2.2.1 2.7 1.2.7 2.9-1.2 2.9-3.4 0-1.9-1.8-1.4-3 .7zm23.8.8c-6.5 16.1-11.7 23.2-20.4 28.2-9.9 5.8-10.5 6.2-9.9 7.1.8 1.2 11.9-4.9 17.4-9.6 5.6-4.8 11.7-14.2 13.7-21.1.9-2.9 2.1-5.3 2.9-5.3 2.3 0 7.5 6.3 11.1 13.4 3.5 7 4.2 12.1 2.3 15.8-.7 1.3-.8 2.3-.1 3 1.6 1.6 3.6-3.1 3.6-8.3 0-5.6-4.4-15.3-9.9-21.7-4.5-5.2-8.9-5.9-10.7-1.5zm-145.5.9c-.3.8 0 2.7.7 4.2s1.6 5.6 1.9 9.1c.4 3.8 1.1 6.6 1.9 6.9 1.5.5 1.6-5.6.1-11.3-2.5-9.4-3-8.5 4.7-7.8 3.8.3 7.1.8 7.4 1s-1.6 4.5-4.1 9.4-4.3 9.2-3.8 9.4c1.3.8 4.4-3.9 7.9-12 3.3-7.5 3.3-7.8 1.5-9.1-2.8-2.1-17.4-1.9-18.2.2zm-66.3.7c0 .7 2 2.7 4.4 4.4 5.3 3.8 9.7 10.8 10.4 16.9.3 2.8 1 4.4 1.8 4.4 3.7 0-.3-12.4-6-18.7-5-5.5-10.6-9.2-10.6-7zm161.5 4.4c-7.4 3.8-13.2 11.9-17.8 24.8l-3.2 8.7c-.5 1.2-.2 1.8.6 1.8s2.9-4.1 5.1-9.8c4.8-12.5 8.6-18.2 14.8-22.2 2.8-1.8 4.7-3.6 4.4-4.1-.6-1.1-.3-1.2-3.9.8zm20.5 1.8c-.7.8-5 3.3-9.5 5.4-11.2 5.4-13.4 8.2-20.1 26.3-.4 1.2-.1 1.8.8 1.8.8 0 2.2-2.3 3.3-5.5 1-3 3.1-7.7 4.7-10.5 2.5-4.4 3.9-5.5 11.6-9.5 10.7-5.5 13-7.1 11.6-8.5-.8-.8-1.5-.6-2.4.5zm208.7 7.7c.4 7.9.1 10.5-2 17.5-1.8 6.3-2.1 8.3-1.1 8.3 3.6 0 7.3-23.7 5.1-32.3-1.5-5.7-2.5-2.4-2 6.5zm47.3-6.4c0 .5 1.8 1.7 4.1 2.7 2.2 1 4.9 3 6 4.3 1.7 2.2 1.9 2.3 1.9.5 0-2.1-3-5.3-6.7-7.2-2.6-1.3-5.3-1.4-5.3-.3zM59.5 435c0 10.8.3 15 1.2 15 2.4 0 2.9-22.7.6-28.6-1.4-3.6-1.8-.3-1.8 13.6z"/><use href="#B" x="-54" y="367"/><path d="M420.2 423.1c.4 1.3 3.4 2.7 14.1 6.4 5.7 2 8 5.1 8.1 11 .1 3.3-.5 5-2.3 6.9-1.9 2-2.1 2.6-.8 2.6 2.6 0 5.7-4.9 5.7-9.2 0-7.9-3.5-11.7-14.1-15.2-4-1.3-8.2-2.8-9.3-3.2-1.4-.5-1.7-.3-1.4.7zm-156.7 6.5c.5 4.8.2 8.9-.8 13.4-1.6 6.6-1.6 7.6.1 6.6 3.1-1.9 4.4-25.4 1.4-26.4-1.1-.3-1.2 1-.7 6.4zm43.2 5.3c-.4 6.5-1 12.6-1.3 13.5-.4 1-.1 1.6.9 1.6 1.6 0 1.9-2.3 3.1-19.8.4-5.4.2-7.2-.8-7.2-.9 0-1.5 3.2-1.9 11.9zm29.8-11.1c-1.9 2 0 2.7 10.4 4.2 11.3 1.6 11.4 1.8 6.6 14.4-2.5 6.6-2.6 9.8-.2 6.5 2.4-3.2 6-15.5 5.4-18.1-.7-2.7-4.3-4.8-8.5-4.8-1.5 0-5.1-.6-8-1.3-2.8-.8-5.4-1.2-5.7-.9zM.3 426c.3 1.4 1.2 4.3 2.1 6.5 1.8 4.6 2 9.6.7 14.3-.7 2.4-.7 3.2.4 3.2 1.6 0 2.5-3.2 2.5-9.4 0-5.9-1.5-11.4-4.2-14.7l-2-2.4.5 2.5zm313.7-.6c0 2.9 12.9 9.7 22.1 11.7 2.8.6 5.2 1.6 5.5 2.3.2.7-.2 3.2-1.1 5.6-.8 2.3-1.3 4.5-1.1 4.8 1.1 1 2.6-1.1 4.1-5.8 2.1-6.3 1.3-7.5-5.8-9-6.1-1.2-14.9-5.1-19.4-8.6-3.7-2.8-4.3-2.9-4.3-1zm-131 3.1c-3 1.9-7.4 4.5-9.6 5.8-3 1.8-4.8 3.9-6.8 8-2.8 6-3.2 7.7-1.6 7.7.5 0 1.9-2.2 3.1-4.9 2.6-6.2 4.7-8.1 14.4-13.4 4.3-2.3 8-4.8 8.3-5.5.6-2-1.9-1.2-7.8 2.3zm28.7 3.7c-5.4 7.5-9.6 11.6-15.7 15.2-4 2.3-4.2 2.6-1.9 2.6 4.2 0 12.8-6.9 18.5-14.8 2.9-4 5.5-6.8 5.9-6.3 1.1 2-3.8 9.7-9.8 15.3-4.2 3.9-5.6 5.8-4.4 5.8 2.4 0 11.3-8.5 14.4-13.7 3-5.1 2.8-9.7-.3-10.1-1.6-.2-3.2 1.2-6.7 6zm157.3-3.7c0 1.4-1.3 6.6-3 11.7-2.8 8.9-3.1 11.3-1 9.2 3.3-3.3 7.6-23.4 5-23.4-.5 0-1 1.1-1 2.5zm-288.6 9.8c-8.9 11.4-9.2 12-7.1 11.5 1.4-.3 13.7-15 15.7-18.9.6-1 .6-2 .1-2.3-.4-.3-4.4 4.1-8.7 9.7z"/><use href="#B" x="-46" y="376"/><path d="M415.2 436.5c-1.2 1.5-2.4 4.3-2.8 6.4-.3 2-.8 4.4-1.1 5.3-.3 1.2.1 1.8 1.1 1.8.9 0 1.6-.8 1.6-1.8 0-3.1 2-9.1 3.7-10.7 1-1.1 1.2-2 .6-2.6-.7-.7-1.7-.2-3.1 1.6zm9.8.5c0 .6.8 1.3 1.8 1.7 5.1 1.8 4.9 3.9-1.1 8.3-3.6 2.6-3.8 3-1.8 3 2.6 0 9.1-6 9.1-8.4 0-.8-1-2.4-2.2-3.6-2.3-2.1-5.8-2.7-5.8-1zm-333.5 5.2c-5.6 7.3-5.8 7.8-4.1 7.8s10.8-11.4 9.9-12.4c-1.2-1.1-1.9-.6-5.8 4.6zm40.6-3l-2.5 6.2c-1.9 4.7-1.9 4.6-.2 4.6 1.1 0 5.6-9.6 5.6-12.1 0-1.8-2.1-.8-2.9 1.3z"/><use href="#E" x="216" y="287"/><use href="#H" x="34" y="126"/><path d="M377.2 443.1c-2.1 5.4-2.3 6.9-1.2 6.9 1.7 0 4.4-7 3.1-8.3-.7-.7-1.3-.3-1.9 1.4zm-328.6 2.5c-.8 3.8-.2 5.4 1.3 3.8 1.4-1.4 1.7-6.7.5-7.1-.7-.2-1.5 1.2-1.8 3.3zm275.8-2.5c-.4.7.1 1.6 1 2.1s1.6 1.8 1.6 2.8c0 1.1.7 2 1.5 2 2.5 0 1.8-4.6-.9-6.4-1.8-1.1-2.7-1.2-3.2-.5zm-309.8 1.1c-1.3 4.2-1.3 5.8-.1 5.8.7 0 1.5-1 1.9-2.3.9-3.3.7-4.7-.4-4.7-.6 0-1.2.6-1.4 1.2zm222 2.3c-2 2.6-2.3 3.5-1.2 3.5 1.5 0 5.6-4.5 5.6-6.1 0-1.9-1.9-.8-4.4 2.6zm-15-.6c-1 1.1-1.3 2.2-.8 2.5s1.7-.3 2.6-1.3c1-1.1 1.3-2.2.8-2.5s-1.7.3-2.6 1.3zm61.4 0c0 .5-.3 1.6-.6 2.5-.4 1.1-.1 1.6 1 1.6 1 0 1.6-.9 1.6-2.5 0-1.4-.4-2.5-1-2.5-.5 0-1 .4-1 .9zm34 1.5c0 1.4.5 2.6 1 2.6.6 0 1-.7 1-1.5l.1-2.2c0-.4-.4-.9-1-1.1s-1.1.8-1.1 2.2z"/></g><defs ><path id="B" d="M145.1 54.8c-1.4 2.7-1.4 3.2.3 3.2 1.8 0 3-3 1.7-4.3-.6-.6-1.3-.1-2 1.1z"/><path id="C" d="M359.6 72.9c-.7 1.1 2 4.8 2.9 3.9.9-.8-.4-4.8-1.5-4.8-.5 0-1.1.4-1.4.9z"/><path id="D" d="M312.2 124.6c.1.9.9 1.9 1.6 2.2.9.3 1.3-.2 1-1.4-.1-.9-.9-1.9-1.6-2.2-.9-.3-1.3.2-1 1.4z"/><path id="E" d="M184.6 153.6c-1 2.6.5 3.9 2.1 1.9.7-1.1 1.3-2.2 1.3-2.7 0-1.5-2.8-.8-3.4.8z"/><path id="F" d="M297 278.5c0 1.6 2.7 3.2 3.7 2.1.7-.7-1.6-3.6-2.8-3.6-.5 0-.9.7-.9 1.5z"/><path id="G" d="M307 309c0 1.6 3.8 3.2 4.6 1.9.7-1.2-1.2-2.9-3.3-2.9-.7 0-1.3.4-1.3 1z"/><path id="H" d="M84.6 316.7c-1 2.5 1 3.9 2.3 1.5 1-1.9.6-3.2-1-3.2-.4 0-1 .8-1.3 1.7z"/></defs></svg>