<svg xmlns="http://www.w3.org/2000/svg" version="1.0" preserveAspectRatio="xMidYMid meet" viewBox="0 0 450 300"><metadata>Created by potrace 1.10, written by Peter Selinger 2001-2011</metadata><g transform="translate(0.000000,300.000000) scale(0.050000,-0.050000)" fill="#000000" opacity="0.05" stroke="none"><path d="M0 3000 l0 -3000 4500 0 4500 0 0 3000 0 3000 -4500 0 -4500 0 0 -3000z m280 2850 l0 -130 -130 0 -130 0 0 130 0 130 130 0 130 0 0 -130z m300 0 l0 -130 -130 0 -130 0 0 130 0 130 130 0 130 0 0 -130z m300 0 l0 -130 -130 0 -130 0 0 130 0 130 130 0 130 0 0 -130z m300 0 l0 -130 -130 0 -130 0 0 130 0 130 130 0 130 0 0 -130z m300 0 l0 -130 -130 0 -130 0 0 130 0 130 130 0 130 0 0 -130z m300 0 l0 -130 -130 0 -130 0 0 130 0 130 130 0 130 0 0 -130z m300 0 l0 -130 -130 0 -130 0 0 130 0 130 130 0 130 0 0 -130z m300 0 l0 -130 -130 0 -130 0 0 130 0 130 130 0 130 0 0 -130z m300 0 l0 -130 -130 0 -130 0 0 130 0 130 130 0 130 0 0 -130z m300 0 l0 -130 -130 0 -130 0 0 130 0 130 130 0 130 0 0 -130z m300 0 l0 -130 -130 0 -130 0 0 130 0 130 130 0 130 0 0 -130z m300 0 l0 -130 -130 0 -130 0 0 130 0 130 130 0 130 0 0 -130z m300 0 l0 -130 -130 0 -130 0 0 130 0 130 130 0 130 0 0 -130z m300 0 l0 -130 -130 0 -130 0 0 130 0 130 130 0 130 0 0 -130z m300 0 l0 -130 -130 0 -130 0 0 130 0 130 130 0 130 0 0 -130z m300 0 l0 -130 -130 0 -130 0 0 130 0 130 130 0 130 0 0 -130z m300 0 l0 -130 -130 0 -130 0 0 130 0 130 130 0 130 0 0 -130z m300 0 l0 -130 -130 0 -130 0 0 130 0 130 130 0 130 0 0 -130z m300 0 l0 -130 -130 0 -130 0 0 130 0 130 130 0 130 0 0 -130z m300 0 l0 -130 -130 0 -130 0 0 130 0 130 130 0 130 0 0 -130z m300 0 l0 -130 -130 0 -130 0 0 130 0 130 130 0 130 0 0 -130z m300 0 l0 -130 -130 0 -130 0 0 130 0 130 130 0 130 0 0 -130z m300 0 l0 -130 -130 0 -130 0 0 130 0 130 130 0 130 0 0 -130z m300 0 l0 -130 -130 0 -130 0 0 130 0 130 130 0 130 0 0 -130z m300 0 l0 -130 -130 0 -130 0 0 130 0 130 130 0 130 0 0 -130z m300 0 l0 -130 -130 0 -130 0 0 130 0 130 130 0 130 0 0 -130z m300 0 l0 -130 -130 0 -130 0 0 130 0 130 130 0 130 0 0 -130z m300 0 l0 -130 -130 0 -130 0 0 130 0 130 130 0 130 0 0 -130z m300 0 l0 -130 -130 0 -130 0 0 130 0 130 130 0 130 0 0 -130z m300 0 l0 -130 -130 0 -130 0 0 130 0 130 130 0 130 0 0 -130z m-8700 -300 l0 -130 -130 0 -130 0 0 130 0 130 130 0 130 0 0 -130z m300 0 l0 -130 -130 0 -130 0 0 130 0 130 130 0 130 0 0 -130z m300 0 l0 -130 -130 0 -130 0 0 130 0 130 130 0 130 0 0 -130z m300 0 l0 -130 -130 0 -130 0 0 130 0 130 130 0 130 0 0 -130z m300 0 l0 -130 -130 0 -130 0 0 130 0 130 130 0 130 0 0 -130z m300 0 l0 -130 -130 0 -130 0 0 130 0 130 130 0 130 0 0 -130z m300 0 l0 -130 -130 0 -130 0 0 130 0 130 130 0 130 0 0 -130z m300 0 l0 -130 -130 0 -130 0 0 130 0 130 130 0 130 0 0 -130z m300 0 l0 -130 -130 0 -130 0 0 130 0 130 130 0 130 0 0 -130z m300 0 l0 -130 -130 0 -130 0 0 130 0 130 130 0 130 0 0 -130z m300 0 l0 -130 -130 0 -130 0 0 130 0 130 130 0 130 0 0 -130z m300 0 l0 -130 -130 0 -130 0 0 130 0 130 130 0 130 0 0 -130z m300 0 l0 -130 -130 0 -130 0 0 130 0 130 130 0 130 0 0 -130z m300 0 l0 -130 -130 0 -130 0 0 130 0 130 130 0 130 0 0 -130z m300 0 l0 -130 -130 0 -130 0 0 130 0 130 130 0 130 0 0 -130z m300 0 l0 -130 -130 0 -130 0 0 130 0 130 130 0 130 0 0 -130z m300 0 l0 -130 -130 0 -130 0 0 130 0 130 130 0 130 0 0 -130z m300 0 l0 -130 -130 0 -130 0 0 130 0 130 130 0 130 0 0 -130z m300 0 l0 -130 -130 0 -130 0 0 130 0 130 130 0 130 0 0 -130z m300 0 l0 -130 -130 0 -130 0 0 130 0 130 130 0 130 0 0 -130z m300 0 l0 -130 -130 0 -130 0 0 130 0 130 130 0 130 0 0 -130z m300 0 l0 -130 -130 0 -130 0 0 130 0 130 130 0 130 0 0 -130z m300 0 l0 -130 -130 0 -130 0 0 130 0 130 130 0 130 0 0 -130z m300 0 l0 -130 -130 0 -130 0 0 130 0 130 130 0 130 0 0 -130z m300 0 l0 -130 -130 0 -130 0 0 130 0 130 130 0 130 0 0 -130z m300 0 l0 -130 -130 0 -130 0 0 130 0 130 130 0 130 0 0 -130z m300 0 l0 -130 -130 0 -130 0 0 130 0 130 130 0 130 0 0 -130z m300 0 l0 -130 -130 0 -130 0 0 130 0 130 130 0 130 0 0 -130z m300 0 l0 -130 -130 0 -130 0 0 130 0 130 130 0 130 0 0 -130z m300 0 l0 -130 -130 0 -130 0 0 130 0 130 130 0 130 0 0 -130z m-8700 -300 l0 -130 -130 0 -130 0 0 130 0 130 130 0 130 0 0 -130z m300 0 l0 -130 -130 0 -130 0 0 130 0 130 130 0 130 0 0 -130z m300 0 l0 -130 -130 0 -130 0 0 130 0 130 130 0 130 0 0 -130z m300 0 l0 -130 -130 0 -130 0 0 130 0 130 130 0 130 0 0 -130z m300 0 l0 -130 -130 0 -130 0 0 130 0 130 130 0 130 0 0 -130z m300 0 l0 -130 -130 0 -130 0 0 130 0 130 130 0 130 0 0 -130z m300 0 l0 -130 -130 0 -130 0 0 130 0 130 130 0 130 0 0 -130z m300 0 l0 -130 -130 0 -130 0 0 130 0 130 130 0 130 0 0 -130z m300 0 l0 -130 -130 0 -130 0 0 130 0 130 130 0 130 0 0 -130z m300 0 l0 -130 -130 0 -130 0 0 130 0 130 130 0 130 0 0 -130z m300 0 l0 -130 -130 0 -130 0 0 130 0 130 130 0 130 0 0 -130z m300 0 l0 -130 -130 0 -130 0 0 130 0 130 130 0 130 0 0 -130z m300 0 l0 -130 -130 0 -130 0 0 130 0 130 130 0 130 0 0 -130z m300 0 l0 -130 -130 0 -130 0 0 130 0 130 130 0 130 0 0 -130z m300 0 l0 -130 -130 0 -130 0 0 130 0 130 130 0 130 0 0 -130z m300 0 l0 -130 -130 0 -130 0 0 130 0 130 130 0 130 0 0 -130z m300 0 l0 -130 -130 0 -130 0 0 130 0 130 130 0 130 0 0 -130z m300 0 l0 -130 -130 0 -130 0 0 130 0 130 130 0 130 0 0 -130z m300 0 l0 -130 -130 0 -130 0 0 130 0 130 130 0 130 0 0 -130z m300 0 l0 -130 -130 0 -130 0 0 130 0 130 130 0 130 0 0 -130z m300 0 l0 -130 -130 0 -130 0 0 130 0 130 130 0 130 0 0 -130z m300 0 l0 -130 -130 0 -130 0 0 130 0 130 130 0 130 0 0 -130z m300 0 l0 -130 -130 0 -130 0 0 130 0 130 130 0 130 0 0 -130z m300 0 l0 -130 -130 0 -130 0 0 130 0 130 130 0 130 0 0 -130z m300 0 l0 -130 -130 0 -130 0 0 130 0 130 130 0 130 0 0 -130z m300 0 l0 -130 -130 0 -130 0 0 130 0 130 130 0 130 0 0 -130z m300 0 l0 -130 -130 0 -130 0 0 130 0 130 130 0 130 0 0 -130z m300 0 l0 -130 -130 0 -130 0 0 130 0 130 130 0 130 0 0 -130z m300 0 l0 -130 -130 0 -130 0 0 130 0 130 130 0 130 0 0 -130z m300 0 l0 -130 -130 0 -130 0 0 130 0 130 130 0 130 0 0 -130z m-8700 -300 l0 -130 -130 0 -130 0 0 130 0 130 130 0 130 0 0 -130z m300 0 l0 -130 -130 0 -130 0 0 130 0 130 130 0 130 0 0 -130z m300 0 l0 -130 -130 0 -130 0 0 130 0 130 130 0 130 0 0 -130z m300 0 l0 -130 -130 0 -130 0 0 130 0 130 130 0 130 0 0 -130z m300 0 l0 -130 -130 0 -130 0 0 130 0 130 130 0 130 0 0 -130z m300 0 l0 -130 -130 0 -130 0 0 130 0 130 130 0 130 0 0 -130z m300 0 l0 -130 -130 0 -130 0 0 130 0 130 130 0 130 0 0 -130z m300 0 l0 -130 -130 0 -130 0 0 130 0 130 130 0 130 0 0 -130z m300 0 l0 -130 -130 0 -130 0 0 130 0 130 130 0 130 0 0 -130z m300 0 l0 -130 -130 0 -130 0 0 130 0 130 130 0 130 0 0 -130z m300 0 l0 -130 -130 0 -130 0 0 130 0 130 130 0 130 0 0 -130z m300 0 l0 -130 -130 0 -130 0 0 130 0 130 130 0 130 0 0 -130z m300 0 l0 -130 -130 0 -130 0 0 130 0 130 130 0 130 0 0 -130z m300 0 l0 -130 -130 0 -130 0 0 130 0 130 130 0 130 0 0 -130z m300 0 l0 -130 -130 0 -130 0 0 130 0 130 130 0 130 0 0 -130z m300 0 l0 -130 -130 0 -130 0 0 130 0 130 130 0 130 0 0 -130z m300 0 l0 -130 -130 0 -130 0 0 130 0 130 130 0 130 0 0 -130z m300 0 l0 -130 -130 0 -130 0 0 130 0 130 130 0 130 0 0 -130z m300 0 l0 -130 -130 0 -130 0 0 130 0 130 130 0 130 0 0 -130z m300 0 l0 -130 -130 0 -130 0 0 130 0 130 130 0 130 0 0 -130z m300 0 l0 -130 -130 0 -130 0 0 130 0 130 130 0 130 0 0 -130z m300 0 l0 -130 -130 0 -130 0 0 130 0 130 130 0 130 0 0 -130z m300 0 l0 -130 -130 0 -130 0 0 130 0 130 130 0 130 0 0 -130z m300 0 l0 -130 -130 0 -130 0 0 130 0 130 130 0 130 0 0 -130z m300 0 l0 -130 -130 0 -130 0 0 130 0 130 130 0 130 0 0 -130z m300 0 l0 -130 -130 0 -130 0 0 130 0 130 130 0 130 0 0 -130z m300 0 l0 -130 -130 0 -130 0 0 130 0 130 130 0 130 0 0 -130z m300 0 l0 -130 -130 0 -130 0 0 130 0 130 130 0 130 0 0 -130z m300 0 l0 -130 -130 0 -130 0 0 130 0 130 130 0 130 0 0 -130z m300 0 l0 -130 -130 0 -130 0 0 130 0 130 130 0 130 0 0 -130z m-8700 -300 l0 -130 -130 0 -130 0 0 130 0 130 130 0 130 0 0 -130z m300 0 l0 -130 -130 0 -130 0 0 130 0 130 130 0 130 0 0 -130z m300 0 l0 -130 -130 0 -130 0 0 130 0 130 130 0 130 0 0 -130z m300 0 l0 -130 -130 0 -130 0 0 130 0 130 130 0 130 0 0 -130z m300 0 l0 -130 -130 0 -130 0 0 130 0 130 130 0 130 0 0 -130z m300 0 l0 -130 -130 0 -130 0 0 130 0 130 130 0 130 0 0 -130z m300 0 l0 -130 -130 0 -130 0 0 130 0 130 130 0 130 0 0 -130z m300 0 l0 -130 -130 0 -130 0 0 130 0 130 130 0 130 0 0 -130z m300 0 l0 -130 -130 0 -130 0 0 130 0 130 130 0 130 0 0 -130z m300 0 l0 -130 -130 0 -130 0 0 130 0 130 130 0 130 0 0 -130z m300 0 l0 -130 -130 0 -130 0 0 130 0 130 130 0 130 0 0 -130z m300 0 l0 -130 -130 0 -130 0 0 130 0 130 130 0 130 0 0 -130z m300 0 l0 -130 -130 0 -130 0 0 130 0 130 130 0 130 0 0 -130z m300 0 l0 -130 -130 0 -130 0 0 130 0 130 130 0 130 0 0 -130z m300 0 l0 -130 -130 0 -130 0 0 130 0 130 130 0 130 0 0 -130z m300 0 l0 -130 -130 0 -130 0 0 130 0 130 130 0 130 0 0 -130z m300 0 l0 -130 -130 0 -130 0 0 130 0 130 130 0 130 0 0 -130z m300 0 l0 -130 -130 0 -130 0 0 130 0 130 130 0 130 0 0 -130z m300 0 l0 -130 -130 0 -130 0 0 130 0 130 130 0 130 0 0 -130z m300 0 l0 -130 -130 0 -130 0 0 130 0 130 130 0 130 0 0 -130z m300 0 l0 -130 -130 0 -130 0 0 130 0 130 130 0 130 0 0 -130z m300 0 l0 -130 -130 0 -130 0 0 130 0 130 130 0 130 0 0 -130z m300 0 l0 -130 -130 0 -130 0 0 130 0 130 130 0 130 0 0 -130z m300 0 l0 -130 -130 0 -130 0 0 130 0 130 130 0 130 0 0 -130z m300 0 l0 -130 -130 0 -130 0 0 130 0 130 130 0 130 0 0 -130z m300 0 l0 -130 -130 0 -130 0 0 130 0 130 130 0 130 0 0 -130z m300 0 l0 -130 -130 0 -130 0 0 130 0 130 130 0 130 0 0 -130z m300 0 l0 -130 -130 0 -130 0 0 130 0 130 130 0 130 0 0 -130z m300 0 l0 -130 -130 0 -130 0 0 130 0 130 130 0 130 0 0 -130z m300 0 l0 -130 -130 0 -130 0 0 130 0 130 130 0 130 0 0 -130z m-8700 -300 l0 -130 -130 0 -130 0 0 130 0 130 130 0 130 0 0 -130z m300 0 l0 -130 -130 0 -130 0 0 130 0 130 130 0 130 0 0 -130z m300 0 l0 -130 -130 0 -130 0 0 130 0 130 130 0 130 0 0 -130z m300 0 l0 -130 -130 0 -130 0 0 130 0 130 130 0 130 0 0 -130z m300 0 l0 -130 -130 0 -130 0 0 130 0 130 130 0 130 0 0 -130z m300 0 l0 -130 -130 0 -130 0 0 130 0 130 130 0 130 0 0 -130z m300 0 l0 -130 -130 0 -130 0 0 130 0 130 130 0 130 0 0 -130z m300 0 l0 -130 -130 0 -130 0 0 130 0 130 130 0 130 0 0 -130z m300 0 l0 -130 -130 0 -130 0 0 130 0 130 130 0 130 0 0 -130z m300 0 l0 -130 -130 0 -130 0 0 130 0 130 130 0 130 0 0 -130z m300 0 l0 -130 -130 0 -130 0 0 130 0 130 130 0 130 0 0 -130z m300 0 l0 -130 -130 0 -130 0 0 130 0 130 130 0 130 0 0 -130z m300 0 l0 -130 -130 0 -130 0 0 130 0 130 130 0 130 0 0 -130z m300 0 l0 -130 -130 0 -130 0 0 130 0 130 130 0 130 0 0 -130z m300 0 l0 -130 -130 0 -130 0 0 130 0 130 130 0 130 0 0 -130z m300 0 l0 -130 -130 0 -130 0 0 130 0 130 130 0 130 0 0 -130z m300 0 l0 -130 -130 0 -130 0 0 130 0 130 130 0 130 0 0 -130z m300 0 l0 -130 -130 0 -130 0 0 130 0 130 130 0 130 0 0 -130z m300 0 l0 -130 -130 0 -130 0 0 130 0 130 130 0 130 0 0 -130z m300 0 l0 -130 -130 0 -130 0 0 130 0 130 130 0 130 0 0 -130z m300 0 l0 -130 -130 0 -130 0 0 130 0 130 130 0 130 0 0 -130z m300 0 l0 -130 -130 0 -130 0 0 130 0 130 130 0 130 0 0 -130z m300 0 l0 -130 -130 0 -130 0 0 130 0 130 130 0 130 0 0 -130z m300 0 l0 -130 -130 0 -130 0 0 130 0 130 130 0 130 0 0 -130z m300 0 l0 -130 -130 0 -130 0 0 130 0 130 130 0 130 0 0 -130z m300 0 l0 -130 -130 0 -130 0 0 130 0 130 130 0 130 0 0 -130z m300 0 l0 -130 -130 0 -130 0 0 130 0 130 130 0 130 0 0 -130z m300 0 l0 -130 -130 0 -130 0 0 130 0 130 130 0 130 0 0 -130z m300 0 l0 -130 -130 0 -130 0 0 130 0 130 130 0 130 0 0 -130z m300 0 l0 -130 -130 0 -130 0 0 130 0 130 130 0 130 0 0 -130z m-8700 -300 l0 -130 -130 0 -130 0 0 130 0 130 130 0 130 0 0 -130z m300 0 l0 -130 -130 0 -130 0 0 130 0 130 130 0 130 0 0 -130z m300 0 l0 -130 -130 0 -130 0 0 130 0 130 130 0 130 0 0 -130z m300 0 l0 -130 -130 0 -130 0 0 130 0 130 130 0 130 0 0 -130z m300 0 l0 -130 -130 0 -130 0 0 130 0 130 130 0 130 0 0 -130z m300 0 l0 -130 -130 0 -130 0 0 130 0 130 130 0 130 0 0 -130z m300 0 l0 -130 -130 0 -130 0 0 130 0 130 130 0 130 0 0 -130z m300 0 l0 -130 -130 0 -130 0 0 130 0 130 130 0 130 0 0 -130z m300 0 l0 -130 -130 0 -130 0 0 130 0 130 130 0 130 0 0 -130z m300 0 l0 -130 -130 0 -130 0 0 130 0 130 130 0 130 0 0 -130z m300 0 l0 -130 -130 0 -130 0 0 130 0 130 130 0 130 0 0 -130z m300 0 l0 -130 -130 0 -130 0 0 130 0 130 130 0 130 0 0 -130z m300 0 l0 -130 -130 0 -130 0 0 130 0 130 130 0 130 0 0 -130z m300 0 l0 -130 -130 0 -130 0 0 130 0 130 130 0 130 0 0 -130z m300 0 l0 -130 -130 0 -130 0 0 130 0 130 130 0 130 0 0 -130z m300 0 l0 -130 -130 0 -130 0 0 130 0 130 130 0 130 0 0 -130z m300 0 l0 -130 -130 0 -130 0 0 130 0 130 130 0 130 0 0 -130z m300 0 l0 -130 -130 0 -130 0 0 130 0 130 130 0 130 0 0 -130z m300 0 l0 -130 -130 0 -130 0 0 130 0 130 130 0 130 0 0 -130z m300 0 l0 -130 -130 0 -130 0 0 130 0 130 130 0 130 0 0 -130z m300 0 l0 -130 -130 0 -130 0 0 130 0 130 130 0 130 0 0 -130z m300 0 l0 -130 -130 0 -130 0 0 130 0 130 130 0 130 0 0 -130z m300 0 l0 -130 -130 0 -130 0 0 130 0 130 130 0 130 0 0 -130z m300 0 l0 -130 -130 0 -130 0 0 130 0 130 130 0 130 0 0 -130z m300 0 l0 -130 -130 0 -130 0 0 130 0 130 130 0 130 0 0 -130z m300 0 l0 -130 -130 0 -130 0 0 130 0 130 130 0 130 0 0 -130z m300 0 l0 -130 -130 0 -130 0 0 130 0 130 130 0 130 0 0 -130z m300 0 l0 -130 -130 0 -130 0 0 130 0 130 130 0 130 0 0 -130z m300 0 l0 -130 -130 0 -130 0 0 130 0 130 130 0 130 0 0 -130z m300 0 l0 -130 -130 0 -130 0 0 130 0 130 130 0 130 0 0 -130z m-8700 -300 l0 -130 -130 0 -130 0 0 130 0 130 130 0 130 0 0 -130z m300 0 l0 -130 -130 0 -130 0 0 130 0 130 130 0 130 0 0 -130z m300 0 l0 -130 -130 0 -130 0 0 130 0 130 130 0 130 0 0 -130z m300 0 l0 -130 -130 0 -130 0 0 130 0 130 130 0 130 0 0 -130z m300 0 l0 -130 -130 0 -130 0 0 130 0 130 130 0 130 0 0 -130z m300 0 l0 -130 -130 0 -130 0 0 130 0 130 130 0 130 0 0 -130z m300 0 l0 -130 -130 0 -130 0 0 130 0 130 130 0 130 0 0 -130z m300 0 l0 -130 -130 0 -130 0 0 130 0 130 130 0 130 0 0 -130z m300 0 l0 -130 -130 0 -130 0 0 130 0 130 130 0 130 0 0 -130z m300 0 l0 -130 -130 0 -130 0 0 130 0 130 130 0 130 0 0 -130z m300 0 l0 -130 -130 0 -130 0 0 130 0 130 130 0 130 0 0 -130z m300 0 l0 -130 -130 0 -130 0 0 130 0 130 130 0 130 0 0 -130z m300 0 l0 -130 -130 0 -130 0 0 130 0 130 130 0 130 0 0 -130z m300 0 l0 -130 -130 0 -130 0 0 130 0 130 130 0 130 0 0 -130z m300 0 l0 -130 -130 0 -130 0 0 130 0 130 130 0 130 0 0 -130z m300 0 l0 -130 -130 0 -130 0 0 130 0 130 130 0 130 0 0 -130z m300 0 l0 -130 -130 0 -130 0 0 130 0 130 130 0 130 0 0 -130z m300 0 l0 -130 -130 0 -130 0 0 130 0 130 130 0 130 0 0 -130z m300 0 l0 -130 -130 0 -130 0 0 130 0 130 130 0 130 0 0 -130z m300 0 l0 -130 -130 0 -130 0 0 130 0 130 130 0 130 0 0 -130z m300 0 l0 -130 -130 0 -130 0 0 130 0 130 130 0 130 0 0 -130z m300 0 l0 -130 -130 0 -130 0 0 130 0 130 130 0 130 0 0 -130z m300 0 l0 -130 -130 0 -130 0 0 130 0 130 130 0 130 0 0 -130z m300 0 l0 -130 -130 0 -130 0 0 130 0 130 130 0 130 0 0 -130z m300 0 l0 -130 -130 0 -130 0 0 130 0 130 130 0 130 0 0 -130z m300 0 l0 -130 -130 0 -130 0 0 130 0 130 130 0 130 0 0 -130z m300 0 l0 -130 -130 0 -130 0 0 130 0 130 130 0 130 0 0 -130z m300 0 l0 -130 -130 0 -130 0 0 130 0 130 130 0 130 0 0 -130z m300 0 l0 -130 -130 0 -130 0 0 130 0 130 130 0 130 0 0 -130z m300 0 l0 -130 -130 0 -130 0 0 130 0 130 130 0 130 0 0 -130z m-8700 -300 l0 -130 -130 0 -130 0 0 130 0 130 130 0 130 0 0 -130z m300 0 l0 -130 -130 0 -130 0 0 130 0 130 130 0 130 0 0 -130z m300 0 l0 -130 -130 0 -130 0 0 130 0 130 130 0 130 0 0 -130z m300 0 l0 -130 -130 0 -130 0 0 130 0 130 130 0 130 0 0 -130z m300 0 l0 -130 -130 0 -130 0 0 130 0 130 130 0 130 0 0 -130z m300 0 l0 -130 -130 0 -130 0 0 130 0 130 130 0 130 0 0 -130z m300 0 l0 -130 -130 0 -130 0 0 130 0 130 130 0 130 0 0 -130z m300 0 l0 -130 -130 0 -130 0 0 130 0 130 130 0 130 0 0 -130z m300 0 l0 -130 -130 0 -130 0 0 130 0 130 130 0 130 0 0 -130z m300 0 l0 -130 -130 0 -130 0 0 130 0 130 130 0 130 0 0 -130z m300 0 l0 -130 -130 0 -130 0 0 130 0 130 130 0 130 0 0 -130z m300 0 l0 -130 -130 0 -130 0 0 130 0 130 130 0 130 0 0 -130z m300 0 l0 -130 -130 0 -130 0 0 130 0 130 130 0 130 0 0 -130z m300 0 l0 -130 -130 0 -130 0 0 130 0 130 130 0 130 0 0 -130z m300 0 l0 -130 -130 0 -130 0 0 130 0 130 130 0 130 0 0 -130z m300 0 l0 -130 -130 0 -130 0 0 130 0 130 130 0 130 0 0 -130z m300 0 l0 -130 -130 0 -130 0 0 130 0 130 130 0 130 0 0 -130z m300 0 l0 -130 -130 0 -130 0 0 130 0 130 130 0 130 0 0 -130z m300 0 l0 -130 -130 0 -130 0 0 130 0 130 130 0 130 0 0 -130z m300 0 l0 -130 -130 0 -130 0 0 130 0 130 130 0 130 0 0 -130z m300 0 l0 -130 -130 0 -130 0 0 130 0 130 130 0 130 0 0 -130z m300 0 l0 -130 -130 0 -130 0 0 130 0 130 130 0 130 0 0 -130z m300 0 l0 -130 -130 0 -130 0 0 130 0 130 130 0 130 0 0 -130z m300 0 l0 -130 -130 0 -130 0 0 130 0 130 130 0 130 0 0 -130z m300 0 l0 -130 -130 0 -130 0 0 130 0 130 130 0 130 0 0 -130z m300 0 l0 -130 -130 0 -130 0 0 130 0 130 130 0 130 0 0 -130z m300 0 l0 -130 -130 0 -130 0 0 130 0 130 130 0 130 0 0 -130z m300 0 l0 -130 -130 0 -130 0 0 130 0 130 130 0 130 0 0 -130z m300 0 l0 -130 -130 0 -130 0 0 130 0 130 130 0 130 0 0 -130z m300 0 l0 -130 -130 0 -130 0 0 130 0 130 130 0 130 0 0 -130z m-8700 -300 l0 -130 -130 0 -130 0 0 130 0 130 130 0 130 0 0 -130z m300 0 l0 -130 -130 0 -130 0 0 130 0 130 130 0 130 0 0 -130z m300 0 l0 -130 -130 0 -130 0 0 130 0 130 130 0 130 0 0 -130z m300 0 l0 -130 -130 0 -130 0 0 130 0 130 130 0 130 0 0 -130z m300 0 l0 -130 -130 0 -130 0 0 130 0 130 130 0 130 0 0 -130z m300 0 l0 -130 -130 0 -130 0 0 130 0 130 130 0 130 0 0 -130z m300 0 l0 -130 -130 0 -130 0 0 130 0 130 130 0 130 0 0 -130z m300 0 l0 -130 -130 0 -130 0 0 130 0 130 130 0 130 0 0 -130z m300 0 l0 -130 -130 0 -130 0 0 130 0 130 130 0 130 0 0 -130z m300 0 l0 -130 -130 0 -130 0 0 130 0 130 130 0 130 0 0 -130z m300 0 l0 -130 -130 0 -130 0 0 130 0 130 130 0 130 0 0 -130z m300 0 l0 -130 -130 0 -130 0 0 130 0 130 130 0 130 0 0 -130z m300 0 l0 -130 -130 0 -130 0 0 130 0 130 130 0 130 0 0 -130z m300 0 l0 -130 -130 0 -130 0 0 130 0 130 130 0 130 0 0 -130z m300 0 l0 -130 -130 0 -130 0 0 130 0 130 130 0 130 0 0 -130z m300 0 l0 -130 -130 0 -130 0 0 130 0 130 130 0 130 0 0 -130z m300 0 l0 -130 -130 0 -130 0 0 130 0 130 130 0 130 0 0 -130z m300 0 l0 -130 -130 0 -130 0 0 130 0 130 130 0 130 0 0 -130z m300 0 l0 -130 -130 0 -130 0 0 130 0 130 130 0 130 0 0 -130z m300 0 l0 -130 -130 0 -130 0 0 130 0 130 130 0 130 0 0 -130z m300 0 l0 -130 -130 0 -130 0 0 130 0 130 130 0 130 0 0 -130z m300 0 l0 -130 -130 0 -130 0 0 130 0 130 130 0 130 0 0 -130z m300 0 l0 -130 -130 0 -130 0 0 130 0 130 130 0 130 0 0 -130z m300 0 l0 -130 -130 0 -130 0 0 130 0 130 130 0 130 0 0 -130z m300 0 l0 -130 -130 0 -130 0 0 130 0 130 130 0 130 0 0 -130z m300 0 l0 -130 -130 0 -130 0 0 130 0 130 130 0 130 0 0 -130z m300 0 l0 -130 -130 0 -130 0 0 130 0 130 130 0 130 0 0 -130z m300 0 l0 -130 -130 0 -130 0 0 130 0 130 130 0 130 0 0 -130z m300 0 l0 -130 -130 0 -130 0 0 130 0 130 130 0 130 0 0 -130z m300 0 l0 -130 -130 0 -130 0 0 130 0 130 130 0 130 0 0 -130z m-8700 -300 l0 -130 -130 0 -130 0 0 130 0 130 130 0 130 0 0 -130z m300 0 l0 -130 -130 0 -130 0 0 130 0 130 130 0 130 0 0 -130z m300 0 l0 -130 -130 0 -130 0 0 130 0 130 130 0 130 0 0 -130z m300 0 l0 -130 -130 0 -130 0 0 130 0 130 130 0 130 0 0 -130z m300 0 l0 -130 -130 0 -130 0 0 130 0 130 130 0 130 0 0 -130z m300 0 l0 -130 -130 0 -130 0 0 130 0 130 130 0 130 0 0 -130z m300 0 l0 -130 -130 0 -130 0 0 130 0 130 130 0 130 0 0 -130z m300 0 l0 -130 -130 0 -130 0 0 130 0 130 130 0 130 0 0 -130z m300 0 l0 -130 -130 0 -130 0 0 130 0 130 130 0 130 0 0 -130z m300 0 l0 -130 -130 0 -130 0 0 130 0 130 130 0 130 0 0 -130z m300 0 l0 -130 -130 0 -130 0 0 130 0 130 130 0 130 0 0 -130z m300 0 l0 -130 -130 0 -130 0 0 130 0 130 130 0 130 0 0 -130z m300 0 l0 -130 -130 0 -130 0 0 130 0 130 130 0 130 0 0 -130z m300 0 l0 -130 -130 0 -130 0 0 130 0 130 130 0 130 0 0 -130z m300 0 l0 -130 -130 0 -130 0 0 130 0 130 130 0 130 0 0 -130z m300 0 l0 -130 -130 0 -130 0 0 130 0 130 130 0 130 0 0 -130z m300 0 l0 -130 -130 0 -130 0 0 130 0 130 130 0 130 0 0 -130z m300 0 l0 -130 -130 0 -130 0 0 130 0 130 130 0 130 0 0 -130z m300 0 l0 -130 -130 0 -130 0 0 130 0 130 130 0 130 0 0 -130z m300 0 l0 -130 -130 0 -130 0 0 130 0 130 130 0 130 0 0 -130z m300 0 l0 -130 -130 0 -130 0 0 130 0 130 130 0 130 0 0 -130z m300 0 l0 -130 -130 0 -130 0 0 130 0 130 130 0 130 0 0 -130z m300 0 l0 -130 -130 0 -130 0 0 130 0 130 130 0 130 0 0 -130z m300 0 l0 -130 -130 0 -130 0 0 130 0 130 130 0 130 0 0 -130z m300 0 l0 -130 -130 0 -130 0 0 130 0 130 130 0 130 0 0 -130z m300 0 l0 -130 -130 0 -130 0 0 130 0 130 130 0 130 0 0 -130z m300 0 l0 -130 -130 0 -130 0 0 130 0 130 130 0 130 0 0 -130z m300 0 l0 -130 -130 0 -130 0 0 130 0 130 130 0 130 0 0 -130z m300 0 l0 -130 -130 0 -130 0 0 130 0 130 130 0 130 0 0 -130z m300 0 l0 -130 -130 0 -130 0 0 130 0 130 130 0 130 0 0 -130z m-8700 -300 l0 -130 -130 0 -130 0 0 130 0 130 130 0 130 0 0 -130z m300 0 l0 -130 -130 0 -130 0 0 130 0 130 130 0 130 0 0 -130z m300 0 l0 -130 -130 0 -130 0 0 130 0 130 130 0 130 0 0 -130z m300 0 l0 -130 -130 0 -130 0 0 130 0 130 130 0 130 0 0 -130z m300 0 l0 -130 -130 0 -130 0 0 130 0 130 130 0 130 0 0 -130z m300 0 l0 -130 -130 0 -130 0 0 130 0 130 130 0 130 0 0 -130z m300 0 l0 -130 -130 0 -130 0 0 130 0 130 130 0 130 0 0 -130z m300 0 l0 -130 -130 0 -130 0 0 130 0 130 130 0 130 0 0 -130z m300 0 l0 -130 -130 0 -130 0 0 130 0 130 130 0 130 0 0 -130z m300 0 l0 -130 -130 0 -130 0 0 130 0 130 130 0 130 0 0 -130z m300 0 l0 -130 -130 0 -130 0 0 130 0 130 130 0 130 0 0 -130z m300 0 l0 -130 -130 0 -130 0 0 130 0 130 130 0 130 0 0 -130z m300 0 l0 -130 -130 0 -130 0 0 130 0 130 130 0 130 0 0 -130z m300 0 l0 -130 -130 0 -130 0 0 130 0 130 130 0 130 0 0 -130z m300 0 l0 -130 -130 0 -130 0 0 130 0 130 130 0 130 0 0 -130z m300 0 l0 -130 -130 0 -130 0 0 130 0 130 130 0 130 0 0 -130z m300 0 l0 -130 -130 0 -130 0 0 130 0 130 130 0 130 0 0 -130z m300 0 l0 -130 -130 0 -130 0 0 130 0 130 130 0 130 0 0 -130z m300 0 l0 -130 -130 0 -130 0 0 130 0 130 130 0 130 0 0 -130z m300 0 l0 -130 -130 0 -130 0 0 130 0 130 130 0 130 0 0 -130z m300 0 l0 -130 -130 0 -130 0 0 130 0 130 130 0 130 0 0 -130z m300 0 l0 -130 -130 0 -130 0 0 130 0 130 130 0 130 0 0 -130z m300 0 l0 -130 -130 0 -130 0 0 130 0 130 130 0 130 0 0 -130z m300 0 l0 -130 -130 0 -130 0 0 130 0 130 130 0 130 0 0 -130z m300 0 l0 -130 -130 0 -130 0 0 130 0 130 130 0 130 0 0 -130z m300 0 l0 -130 -130 0 -130 0 0 130 0 130 130 0 130 0 0 -130z m300 0 l0 -130 -130 0 -130 0 0 130 0 130 130 0 130 0 0 -130z m300 0 l0 -130 -130 0 -130 0 0 130 0 130 130 0 130 0 0 -130z m300 0 l0 -130 -130 0 -130 0 0 130 0 130 130 0 130 0 0 -130z m300 0 l0 -130 -130 0 -130 0 0 130 0 130 130 0 130 0 0 -130z m-8700 -300 l0 -130 -130 0 -130 0 0 130 0 130 130 0 130 0 0 -130z m300 0 l0 -130 -130 0 -130 0 0 130 0 130 130 0 130 0 0 -130z m300 0 l0 -130 -130 0 -130 0 0 130 0 130 130 0 130 0 0 -130z m300 0 l0 -130 -130 0 -130 0 0 130 0 130 130 0 130 0 0 -130z m300 0 l0 -130 -130 0 -130 0 0 130 0 130 130 0 130 0 0 -130z m300 0 l0 -130 -130 0 -130 0 0 130 0 130 130 0 130 0 0 -130z m300 0 l0 -130 -130 0 -130 0 0 130 0 130 130 0 130 0 0 -130z m300 0 l0 -130 -130 0 -130 0 0 130 0 130 130 0 130 0 0 -130z m300 0 l0 -130 -130 0 -130 0 0 130 0 130 130 0 130 0 0 -130z m300 0 l0 -130 -130 0 -130 0 0 130 0 130 130 0 130 0 0 -130z m300 0 l0 -130 -130 0 -130 0 0 130 0 130 130 0 130 0 0 -130z m300 0 l0 -130 -130 0 -130 0 0 130 0 130 130 0 130 0 0 -130z m300 0 l0 -130 -130 0 -130 0 0 130 0 130 130 0 130 0 0 -130z m300 0 l0 -130 -130 0 -130 0 0 130 0 130 130 0 130 0 0 -130z m300 0 l0 -130 -130 0 -130 0 0 130 0 130 130 0 130 0 0 -130z m300 0 l0 -130 -130 0 -130 0 0 130 0 130 130 0 130 0 0 -130z m300 0 l0 -130 -130 0 -130 0 0 130 0 130 130 0 130 0 0 -130z m300 0 l0 -130 -130 0 -130 0 0 130 0 130 130 0 130 0 0 -130z m300 0 l0 -130 -130 0 -130 0 0 130 0 130 130 0 130 0 0 -130z m300 0 l0 -130 -130 0 -130 0 0 130 0 130 130 0 130 0 0 -130z m300 0 l0 -130 -130 0 -130 0 0 130 0 130 130 0 130 0 0 -130z m300 0 l0 -130 -130 0 -130 0 0 130 0 130 130 0 130 0 0 -130z m300 0 l0 -130 -130 0 -130 0 0 130 0 130 130 0 130 0 0 -130z m300 0 l0 -130 -130 0 -130 0 0 130 0 130 130 0 130 0 0 -130z m300 0 l0 -130 -130 0 -130 0 0 130 0 130 130 0 130 0 0 -130z m300 0 l0 -130 -130 0 -130 0 0 130 0 130 130 0 130 0 0 -130z m300 0 l0 -130 -130 0 -130 0 0 130 0 130 130 0 130 0 0 -130z m300 0 l0 -130 -130 0 -130 0 0 130 0 130 130 0 130 0 0 -130z m300 0 l0 -130 -130 0 -130 0 0 130 0 130 130 0 130 0 0 -130z m300 0 l0 -130 -130 0 -130 0 0 130 0 130 130 0 130 0 0 -130z m-8700 -300 l0 -130 -130 0 -130 0 0 130 0 130 130 0 130 0 0 -130z m300 0 l0 -130 -130 0 -130 0 0 130 0 130 130 0 130 0 0 -130z m300 0 l0 -130 -130 0 -130 0 0 130 0 130 130 0 130 0 0 -130z m300 0 l0 -130 -130 0 -130 0 0 130 0 130 130 0 130 0 0 -130z m300 0 l0 -130 -130 0 -130 0 0 130 0 130 130 0 130 0 0 -130z m300 0 l0 -130 -130 0 -130 0 0 130 0 130 130 0 130 0 0 -130z m300 0 l0 -130 -130 0 -130 0 0 130 0 130 130 0 130 0 0 -130z m300 0 l0 -130 -130 0 -130 0 0 130 0 130 130 0 130 0 0 -130z m300 0 l0 -130 -130 0 -130 0 0 130 0 130 130 0 130 0 0 -130z m300 0 l0 -130 -130 0 -130 0 0 130 0 130 130 0 130 0 0 -130z m300 0 l0 -130 -130 0 -130 0 0 130 0 130 130 0 130 0 0 -130z m300 0 l0 -130 -130 0 -130 0 0 130 0 130 130 0 130 0 0 -130z m300 0 l0 -130 -130 0 -130 0 0 130 0 130 130 0 130 0 0 -130z m300 0 l0 -130 -130 0 -130 0 0 130 0 130 130 0 130 0 0 -130z m300 0 l0 -130 -130 0 -130 0 0 130 0 130 130 0 130 0 0 -130z m300 0 l0 -130 -130 0 -130 0 0 130 0 130 130 0 130 0 0 -130z m300 0 l0 -130 -130 0 -130 0 0 130 0 130 130 0 130 0 0 -130z m300 0 l0 -130 -130 0 -130 0 0 130 0 130 130 0 130 0 0 -130z m300 0 l0 -130 -130 0 -130 0 0 130 0 130 130 0 130 0 0 -130z m300 0 l0 -130 -130 0 -130 0 0 130 0 130 130 0 130 0 0 -130z m300 0 l0 -130 -130 0 -130 0 0 130 0 130 130 0 130 0 0 -130z m300 0 l0 -130 -130 0 -130 0 0 130 0 130 130 0 130 0 0 -130z m300 0 l0 -130 -130 0 -130 0 0 130 0 130 130 0 130 0 0 -130z m300 0 l0 -130 -130 0 -130 0 0 130 0 130 130 0 130 0 0 -130z m300 0 l0 -130 -130 0 -130 0 0 130 0 130 130 0 130 0 0 -130z m300 0 l0 -130 -130 0 -130 0 0 130 0 130 130 0 130 0 0 -130z m300 0 l0 -130 -130 0 -130 0 0 130 0 130 130 0 130 0 0 -130z m300 0 l0 -130 -130 0 -130 0 0 130 0 130 130 0 130 0 0 -130z m300 0 l0 -130 -130 0 -130 0 0 130 0 130 130 0 130 0 0 -130z m300 0 l0 -130 -130 0 -130 0 0 130 0 130 130 0 130 0 0 -130z m-8700 -300 l0 -130 -130 0 -130 0 0 130 0 130 130 0 130 0 0 -130z m300 0 l0 -130 -130 0 -130 0 0 130 0 130 130 0 130 0 0 -130z m300 0 l0 -130 -130 0 -130 0 0 130 0 130 130 0 130 0 0 -130z m300 0 l0 -130 -130 0 -130 0 0 130 0 130 130 0 130 0 0 -130z m300 0 l0 -130 -130 0 -130 0 0 130 0 130 130 0 130 0 0 -130z m300 0 l0 -130 -130 0 -130 0 0 130 0 130 130 0 130 0 0 -130z m300 0 l0 -130 -130 0 -130 0 0 130 0 130 130 0 130 0 0 -130z m300 0 l0 -130 -130 0 -130 0 0 130 0 130 130 0 130 0 0 -130z m300 0 l0 -130 -130 0 -130 0 0 130 0 130 130 0 130 0 0 -130z m300 0 l0 -130 -130 0 -130 0 0 130 0 130 130 0 130 0 0 -130z m300 0 l0 -130 -130 0 -130 0 0 130 0 130 130 0 130 0 0 -130z m300 0 l0 -130 -130 0 -130 0 0 130 0 130 130 0 130 0 0 -130z m300 0 l0 -130 -130 0 -130 0 0 130 0 130 130 0 130 0 0 -130z m300 0 l0 -130 -130 0 -130 0 0 130 0 130 130 0 130 0 0 -130z m300 0 l0 -130 -130 0 -130 0 0 130 0 130 130 0 130 0 0 -130z m300 0 l0 -130 -130 0 -130 0 0 130 0 130 130 0 130 0 0 -130z m300 0 l0 -130 -130 0 -130 0 0 130 0 130 130 0 130 0 0 -130z m300 0 l0 -130 -130 0 -130 0 0 130 0 130 130 0 130 0 0 -130z m300 0 l0 -130 -130 0 -130 0 0 130 0 130 130 0 130 0 0 -130z m300 0 l0 -130 -130 0 -130 0 0 130 0 130 130 0 130 0 0 -130z m300 0 l0 -130 -130 0 -130 0 0 130 0 130 130 0 130 0 0 -130z m300 0 l0 -130 -130 0 -130 0 0 130 0 130 130 0 130 0 0 -130z m300 0 l0 -130 -130 0 -130 0 0 130 0 130 130 0 130 0 0 -130z m300 0 l0 -130 -130 0 -130 0 0 130 0 130 130 0 130 0 0 -130z m300 0 l0 -130 -130 0 -130 0 0 130 0 130 130 0 130 0 0 -130z m300 0 l0 -130 -130 0 -130 0 0 130 0 130 130 0 130 0 0 -130z m300 0 l0 -130 -130 0 -130 0 0 130 0 130 130 0 130 0 0 -130z m300 0 l0 -130 -130 0 -130 0 0 130 0 130 130 0 130 0 0 -130z m300 0 l0 -130 -130 0 -130 0 0 130 0 130 130 0 130 0 0 -130z m300 0 l0 -130 -130 0 -130 0 0 130 0 130 130 0 130 0 0 -130z m-8700 -300 l0 -130 -130 0 -130 0 0 130 0 130 130 0 130 0 0 -130z m300 0 l0 -130 -130 0 -130 0 0 130 0 130 130 0 130 0 0 -130z m300 0 l0 -130 -130 0 -130 0 0 130 0 130 130 0 130 0 0 -130z m300 0 l0 -130 -130 0 -130 0 0 130 0 130 130 0 130 0 0 -130z m300 0 l0 -130 -130 0 -130 0 0 130 0 130 130 0 130 0 0 -130z m300 0 l0 -130 -130 0 -130 0 0 130 0 130 130 0 130 0 0 -130z m300 0 l0 -130 -130 0 -130 0 0 130 0 130 130 0 130 0 0 -130z m300 0 l0 -130 -130 0 -130 0 0 130 0 130 130 0 130 0 0 -130z m300 0 l0 -130 -130 0 -130 0 0 130 0 130 130 0 130 0 0 -130z m300 0 l0 -130 -130 0 -130 0 0 130 0 130 130 0 130 0 0 -130z m300 0 l0 -130 -130 0 -130 0 0 130 0 130 130 0 130 0 0 -130z m300 0 l0 -130 -130 0 -130 0 0 130 0 130 130 0 130 0 0 -130z m300 0 l0 -130 -130 0 -130 0 0 130 0 130 130 0 130 0 0 -130z m300 0 l0 -130 -130 0 -130 0 0 130 0 130 130 0 130 0 0 -130z m300 0 l0 -130 -130 0 -130 0 0 130 0 130 130 0 130 0 0 -130z m300 0 l0 -130 -130 0 -130 0 0 130 0 130 130 0 130 0 0 -130z m300 0 l0 -130 -130 0 -130 0 0 130 0 130 130 0 130 0 0 -130z m300 0 l0 -130 -130 0 -130 0 0 130 0 130 130 0 130 0 0 -130z m300 0 l0 -130 -130 0 -130 0 0 130 0 130 130 0 130 0 0 -130z m300 0 l0 -130 -130 0 -130 0 0 130 0 130 130 0 130 0 0 -130z m300 0 l0 -130 -130 0 -130 0 0 130 0 130 130 0 130 0 0 -130z m300 0 l0 -130 -130 0 -130 0 0 130 0 130 130 0 130 0 0 -130z m300 0 l0 -130 -130 0 -130 0 0 130 0 130 130 0 130 0 0 -130z m300 0 l0 -130 -130 0 -130 0 0 130 0 130 130 0 130 0 0 -130z m300 0 l0 -130 -130 0 -130 0 0 130 0 130 130 0 130 0 0 -130z m300 0 l0 -130 -130 0 -130 0 0 130 0 130 130 0 130 0 0 -130z m300 0 l0 -130 -130 0 -130 0 0 130 0 130 130 0 130 0 0 -130z m300 0 l0 -130 -130 0 -130 0 0 130 0 130 130 0 130 0 0 -130z m300 0 l0 -130 -130 0 -130 0 0 130 0 130 130 0 130 0 0 -130z m300 0 l0 -130 -130 0 -130 0 0 130 0 130 130 0 130 0 0 -130z m-8700 -300 l0 -130 -130 0 -130 0 0 130 0 130 130 0 130 0 0 -130z m300 0 l0 -130 -130 0 -130 0 0 130 0 130 130 0 130 0 0 -130z m300 0 l0 -130 -130 0 -130 0 0 130 0 130 130 0 130 0 0 -130z m300 0 l0 -130 -130 0 -130 0 0 130 0 130 130 0 130 0 0 -130z m300 0 l0 -130 -130 0 -130 0 0 130 0 130 130 0 130 0 0 -130z m300 0 l0 -130 -130 0 -130 0 0 130 0 130 130 0 130 0 0 -130z m300 0 l0 -130 -130 0 -130 0 0 130 0 130 130 0 130 0 0 -130z m300 0 l0 -130 -130 0 -130 0 0 130 0 130 130 0 130 0 0 -130z m300 0 l0 -130 -130 0 -130 0 0 130 0 130 130 0 130 0 0 -130z m300 0 l0 -130 -130 0 -130 0 0 130 0 130 130 0 130 0 0 -130z m300 0 l0 -130 -130 0 -130 0 0 130 0 130 130 0 130 0 0 -130z m300 0 l0 -130 -130 0 -130 0 0 130 0 130 130 0 130 0 0 -130z m300 0 l0 -130 -130 0 -130 0 0 130 0 130 130 0 130 0 0 -130z m300 0 l0 -130 -130 0 -130 0 0 130 0 130 130 0 130 0 0 -130z m300 0 l0 -130 -130 0 -130 0 0 130 0 130 130 0 130 0 0 -130z m300 0 l0 -130 -130 0 -130 0 0 130 0 130 130 0 130 0 0 -130z m300 0 l0 -130 -130 0 -130 0 0 130 0 130 130 0 130 0 0 -130z m300 0 l0 -130 -130 0 -130 0 0 130 0 130 130 0 130 0 0 -130z m300 0 l0 -130 -130 0 -130 0 0 130 0 130 130 0 130 0 0 -130z m300 0 l0 -130 -130 0 -130 0 0 130 0 130 130 0 130 0 0 -130z m300 0 l0 -130 -130 0 -130 0 0 130 0 130 130 0 130 0 0 -130z m300 0 l0 -130 -130 0 -130 0 0 130 0 130 130 0 130 0 0 -130z m300 0 l0 -130 -130 0 -130 0 0 130 0 130 130 0 130 0 0 -130z m300 0 l0 -130 -130 0 -130 0 0 130 0 130 130 0 130 0 0 -130z m300 0 l0 -130 -130 0 -130 0 0 130 0 130 130 0 130 0 0 -130z m300 0 l0 -130 -130 0 -130 0 0 130 0 130 130 0 130 0 0 -130z m300 0 l0 -130 -130 0 -130 0 0 130 0 130 130 0 130 0 0 -130z m300 0 l0 -130 -130 0 -130 0 0 130 0 130 130 0 130 0 0 -130z m300 0 l0 -130 -130 0 -130 0 0 130 0 130 130 0 130 0 0 -130z m300 0 l0 -130 -130 0 -130 0 0 130 0 130 130 0 130 0 0 -130z m-8700 -300 l0 -130 -130 0 -130 0 0 130 0 130 130 0 130 0 0 -130z m300 0 l0 -130 -130 0 -130 0 0 130 0 130 130 0 130 0 0 -130z m300 0 l0 -130 -130 0 -130 0 0 130 0 130 130 0 130 0 0 -130z m300 0 l0 -130 -130 0 -130 0 0 130 0 130 130 0 130 0 0 -130z m300 0 l0 -130 -130 0 -130 0 0 130 0 130 130 0 130 0 0 -130z m300 0 l0 -130 -130 0 -130 0 0 130 0 130 130 0 130 0 0 -130z m300 0 l0 -130 -130 0 -130 0 0 130 0 130 130 0 130 0 0 -130z m300 0 l0 -130 -130 0 -130 0 0 130 0 130 130 0 130 0 0 -130z m300 0 l0 -130 -130 0 -130 0 0 130 0 130 130 0 130 0 0 -130z m300 0 l0 -130 -130 0 -130 0 0 130 0 130 130 0 130 0 0 -130z m300 0 l0 -130 -130 0 -130 0 0 130 0 130 130 0 130 0 0 -130z m300 0 l0 -130 -130 0 -130 0 0 130 0 130 130 0 130 0 0 -130z m300 0 l0 -130 -130 0 -130 0 0 130 0 130 130 0 130 0 0 -130z m300 0 l0 -130 -130 0 -130 0 0 130 0 130 130 0 130 0 0 -130z m300 0 l0 -130 -130 0 -130 0 0 130 0 130 130 0 130 0 0 -130z m300 0 l0 -130 -130 0 -130 0 0 130 0 130 130 0 130 0 0 -130z m300 0 l0 -130 -130 0 -130 0 0 130 0 130 130 0 130 0 0 -130z m300 0 l0 -130 -130 0 -130 0 0 130 0 130 130 0 130 0 0 -130z m300 0 l0 -130 -130 0 -130 0 0 130 0 130 130 0 130 0 0 -130z m300 0 l0 -130 -130 0 -130 0 0 130 0 130 130 0 130 0 0 -130z m300 0 l0 -130 -130 0 -130 0 0 130 0 130 130 0 130 0 0 -130z m300 0 l0 -130 -130 0 -130 0 0 130 0 130 130 0 130 0 0 -130z m300 0 l0 -130 -130 0 -130 0 0 130 0 130 130 0 130 0 0 -130z m300 0 l0 -130 -130 0 -130 0 0 130 0 130 130 0 130 0 0 -130z m300 0 l0 -130 -130 0 -130 0 0 130 0 130 130 0 130 0 0 -130z m300 0 l0 -130 -130 0 -130 0 0 130 0 130 130 0 130 0 0 -130z m300 0 l0 -130 -130 0 -130 0 0 130 0 130 130 0 130 0 0 -130z m300 0 l0 -130 -130 0 -130 0 0 130 0 130 130 0 130 0 0 -130z m300 0 l0 -130 -130 0 -130 0 0 130 0 130 130 0 130 0 0 -130z m300 0 l0 -130 -130 0 -130 0 0 130 0 130 130 0 130 0 0 -130z m-8700 -300 l0 -130 -130 0 -130 0 0 130 0 130 130 0 130 0 0 -130z m300 0 l0 -130 -130 0 -130 0 0 130 0 130 130 0 130 0 0 -130z m300 0 l0 -130 -130 0 -130 0 0 130 0 130 130 0 130 0 0 -130z m300 0 l0 -130 -130 0 -130 0 0 130 0 130 130 0 130 0 0 -130z m300 0 l0 -130 -130 0 -130 0 0 130 0 130 130 0 130 0 0 -130z m300 0 l0 -130 -130 0 -130 0 0 130 0 130 130 0 130 0 0 -130z m300 0 l0 -130 -130 0 -130 0 0 130 0 130 130 0 130 0 0 -130z m300 0 l0 -130 -130 0 -130 0 0 130 0 130 130 0 130 0 0 -130z m300 0 l0 -130 -130 0 -130 0 0 130 0 130 130 0 130 0 0 -130z m300 0 l0 -130 -130 0 -130 0 0 130 0 130 130 0 130 0 0 -130z m300 0 l0 -130 -130 0 -130 0 0 130 0 130 130 0 130 0 0 -130z m300 0 l0 -130 -130 0 -130 0 0 130 0 130 130 0 130 0 0 -130z m300 0 l0 -130 -130 0 -130 0 0 130 0 130 130 0 130 0 0 -130z m300 0 l0 -130 -130 0 -130 0 0 130 0 130 130 0 130 0 0 -130z m300 0 l0 -130 -130 0 -130 0 0 130 0 130 130 0 130 0 0 -130z m300 0 l0 -130 -130 0 -130 0 0 130 0 130 130 0 130 0 0 -130z m300 0 l0 -130 -130 0 -130 0 0 130 0 130 130 0 130 0 0 -130z m300 0 l0 -130 -130 0 -130 0 0 130 0 130 130 0 130 0 0 -130z m300 0 l0 -130 -130 0 -130 0 0 130 0 130 130 0 130 0 0 -130z m300 0 l0 -130 -130 0 -130 0 0 130 0 130 130 0 130 0 0 -130z m300 0 l0 -130 -130 0 -130 0 0 130 0 130 130 0 130 0 0 -130z m300 0 l0 -130 -130 0 -130 0 0 130 0 130 130 0 130 0 0 -130z m300 0 l0 -130 -130 0 -130 0 0 130 0 130 130 0 130 0 0 -130z m300 0 l0 -130 -130 0 -130 0 0 130 0 130 130 0 130 0 0 -130z m300 0 l0 -130 -130 0 -130 0 0 130 0 130 130 0 130 0 0 -130z m300 0 l0 -130 -130 0 -130 0 0 130 0 130 130 0 130 0 0 -130z m300 0 l0 -130 -130 0 -130 0 0 130 0 130 130 0 130 0 0 -130z m300 0 l0 -130 -130 0 -130 0 0 130 0 130 130 0 130 0 0 -130z m300 0 l0 -130 -130 0 -130 0 0 130 0 130 130 0 130 0 0 -130z m300 0 l0 -130 -130 0 -130 0 0 130 0 130 130 0 130 0 0 -130z m-8700 -300 l0 -130 -130 0 -130 0 0 130 0 130 130 0 130 0 0 -130z m300 0 l0 -130 -130 0 -130 0 0 130 0 130 130 0 130 0 0 -130z m300 0 l0 -130 -130 0 -130 0 0 130 0 130 130 0 130 0 0 -130z m300 0 l0 -130 -130 0 -130 0 0 130 0 130 130 0 130 0 0 -130z m300 0 l0 -130 -130 0 -130 0 0 130 0 130 130 0 130 0 0 -130z m300 0 l0 -130 -130 0 -130 0 0 130 0 130 130 0 130 0 0 -130z m300 0 l0 -130 -130 0 -130 0 0 130 0 130 130 0 130 0 0 -130z m300 0 l0 -130 -130 0 -130 0 0 130 0 130 130 0 130 0 0 -130z m300 0 l0 -130 -130 0 -130 0 0 130 0 130 130 0 130 0 0 -130z m300 0 l0 -130 -130 0 -130 0 0 130 0 130 130 0 130 0 0 -130z m300 0 l0 -130 -130 0 -130 0 0 130 0 130 130 0 130 0 0 -130z m300 0 l0 -130 -130 0 -130 0 0 130 0 130 130 0 130 0 0 -130z m300 0 l0 -130 -130 0 -130 0 0 130 0 130 130 0 130 0 0 -130z m300 0 l0 -130 -130 0 -130 0 0 130 0 130 130 0 130 0 0 -130z m300 0 l0 -130 -130 0 -130 0 0 130 0 130 130 0 130 0 0 -130z m300 0 l0 -130 -130 0 -130 0 0 130 0 130 130 0 130 0 0 -130z m300 0 l0 -130 -130 0 -130 0 0 130 0 130 130 0 130 0 0 -130z m300 0 l0 -130 -130 0 -130 0 0 130 0 130 130 0 130 0 0 -130z m300 0 l0 -130 -130 0 -130 0 0 130 0 130 130 0 130 0 0 -130z m300 0 l0 -130 -130 0 -130 0 0 130 0 130 130 0 130 0 0 -130z m300 0 l0 -130 -130 0 -130 0 0 130 0 130 130 0 130 0 0 -130z m300 0 l0 -130 -130 0 -130 0 0 130 0 130 130 0 130 0 0 -130z m300 0 l0 -130 -130 0 -130 0 0 130 0 130 130 0 130 0 0 -130z m300 0 l0 -130 -130 0 -130 0 0 130 0 130 130 0 130 0 0 -130z m300 0 l0 -130 -130 0 -130 0 0 130 0 130 130 0 130 0 0 -130z m300 0 l0 -130 -130 0 -130 0 0 130 0 130 130 0 130 0 0 -130z m300 0 l0 -130 -130 0 -130 0 0 130 0 130 130 0 130 0 0 -130z m300 0 l0 -130 -130 0 -130 0 0 130 0 130 130 0 130 0 0 -130z m300 0 l0 -130 -130 0 -130 0 0 130 0 130 130 0 130 0 0 -130z m300 0 l0 -130 -130 0 -130 0 0 130 0 130 130 0 130 0 0 -130z"></path></g></svg>
