<?xml version="1.0" standalone="no"?>
<!DOCTYPE svg PUBLIC "-//W3C//DTD SVG 20010904//EN"
 "http://www.w3.org/TR/2001/REC-SVG-20010904/DTD/svg10.dtd">
<svg version="1.0" xmlns="http://www.w3.org/2000/svg"
 width="300.000000pt" height="571.000000pt" viewBox="0 0 300.000000 571.000000"
 preserveAspectRatio="xMidYMid meet">
<metadata>
Created by potrace 1.10, written by Peter Selinger 2001-2011
</metadata>
<g transform="translate(0.000000,571.000000) scale(0.100000,-0.100000)"
fill="#000000" stroke="none">
<path d="M81 5703 c-1 -7 -20 -14 -43 -16 l-43 -4 43 -1 42 -2 0 -84 0 -85
-42 -4 -43 -4 43 -1 42 -2 0 -84 0 -85 -42 -4 -43 -4 43 -1 42 -2 0 -169 0
-170 -42 -4 -43 -4 43 -1 42 -2 0 -84 0 -85 -42 -4 -43 -4 43 -1 42 -2 0 -84
0 -85 -42 -4 -43 -4 43 -1 42 -2 0 -84 0 -85 -42 -4 -43 -4 43 -1 42 -2 0 -79
0 -80 -42 -4 -43 -4 43 -1 42 -2 0 -84 0 -85 -42 -4 -43 -4 43 -1 42 -2 0 -84
0 -85 -42 -4 -43 -4 43 -1 42 -2 0 -84 0 -85 -42 -4 -43 -4 43 -1 42 -2 0 -79
0 -80 -42 -4 -43 -4 43 -1 42 -2 0 -84 0 -85 -42 -4 -43 -4 43 -1 42 -2 0 -84
0 -85 -42 -4 -43 -4 43 -1 42 -2 0 -84 0 -85 -42 -4 -43 -4 43 -1 42 -2 0 -84
0 -85 -42 -4 -43 -4 43 -1 42 -2 0 -84 0 -85 -42 -4 -43 -4 43 -1 42 -2 0
-169 0 -170 -42 -4 -43 -4 43 -1 42 -2 0 -84 0 -85 -42 -4 -43 -4 43 -1 42 -2
0 -84 0 -85 -42 -4 -43 -4 43 -1 42 -2 0 -84 0 -85 -42 -4 -43 -4 43 -1 42 -2
0 -84 0 -85 -42 -4 -43 -4 42 -1 43 -2 -1 -169 0 -170 -42 -4 -42 -4 43 -1 42
-2 0 -84 0 -85 -42 -4 -43 -4 43 -1 42 -2 0 -84 0 -85 -42 -4 -43 -4 43 -1 42
-2 0 -84 0 -85 -42 -4 -43 -4 43 -1 42 -2 0 -84 0 -85 -42 -4 -43 -4 43 -1 42
-2 0 -79 0 -80 -42 -4 -43 -4 43 -1 42 -2 0 -84 0 -85 -42 -4 -43 -4 42 -1 42
-2 4 -83 3 -82 2 83 2 82 260 0 259 0 4 -82 3 -83 2 83 2 82 85 0 84 0 4 -82
3 -83 2 83 2 82 85 0 84 0 4 -82 3 -83 2 83 2 82 85 0 84 0 4 -82 3 -83 2 83
2 82 85 0 84 0 4 -82 3 -83 2 83 2 82 80 0 79 0 4 -82 3 -83 2 83 2 82 85 0
84 0 4 -82 3 -83 2 83 2 82 85 0 84 0 4 -82 3 -83 2 83 2 82 85 0 84 0 4 -83
3 -82 2 83 2 82 85 0 84 0 4 -83 3 -82 2 83 2 82 80 0 79 0 4 -82 3 -83 2 83
2 82 85 0 84 0 4 -82 3 -83 2 83 2 82 85 0 84 0 4 -82 3 -83 2 83 2 82 85 0
84 0 4 -82 3 -83 2 82 2 82 33 4 32 4 -32 1 -33 2 0 84 0 85 33 4 32 4 -32 1
-33 2 0 79 0 80 33 4 32 4 -32 1 -33 2 0 84 0 85 33 4 32 4 -32 1 -33 2 0 84
0 85 33 4 32 4 -32 1 -33 2 0 84 0 85 33 4 32 4 -32 1 -33 2 0 84 0 85 33 4
32 4 -32 1 -33 2 0 169 0 170 33 4 32 4 -32 1 -33 2 0 84 0 85 33 4 32 4 -32
1 -33 2 0 84 0 85 33 4 32 4 -32 1 -33 2 0 84 0 85 33 4 32 4 -32 1 -33 2 0
84 0 85 33 4 32 4 -32 1 -33 2 0 169 0 170 33 4 32 4 -32 1 -33 2 0 84 0 85
33 4 32 4 -32 1 -33 2 0 84 0 85 33 4 32 4 -32 1 -33 2 0 84 0 85 33 4 32 4
-32 1 -33 2 0 84 0 85 33 4 32 4 -32 1 -33 2 0 84 0 85 33 4 32 4 -32 1 -33 2
0 79 0 80 33 4 32 4 -32 1 -33 2 0 84 0 85 33 4 32 4 -32 1 -33 2 0 84 0 85
33 4 32 4 -32 1 -33 2 0 84 0 85 33 4 32 4 -32 1 -33 2 0 79 0 80 33 4 32 4
-32 1 -33 2 0 84 0 85 33 4 32 4 -32 1 -33 2 0 84 0 85 33 4 32 4 -32 1 -33 2
0 84 0 85 33 4 32 4 -32 1 -33 2 0 169 0 170 33 4 32 4 -32 1 -33 2 0 84 0 85
33 4 32 4 -32 1 -33 2 0 85 0 85 33 1 32 2 -30 4 c-16 3 -33 10 -37 16 -6 9
-8 9 -8 0 0 -9 -24 -13 -84 -13 -58 0 -86 4 -89 13 -4 10 -6 10 -6 0 -1 -9
-25 -13 -85 -13 -58 0 -86 4 -89 13 -4 10 -6 10 -6 0 -1 -9 -25 -13 -85 -13
-58 0 -86 4 -89 13 -4 10 -6 10 -6 0 -1 -9 -24 -13 -80 -13 -54 0 -81 4 -84
13 -4 10 -6 10 -6 0 -1 -9 -25 -13 -85 -13 -58 0 -86 4 -89 13 -4 10 -6 10 -6
0 -1 -9 -25 -13 -85 -13 -58 0 -86 4 -89 13 -4 10 -6 10 -6 0 -1 -9 -25 -13
-85 -13 -58 0 -86 4 -89 13 -4 10 -6 10 -6 0 -1 -9 -25 -13 -85 -13 -58 0 -86
4 -89 13 -4 10 -6 10 -6 0 -1 -9 -24 -13 -80 -13 -54 0 -81 4 -84 13 -4 10 -6
10 -6 0 -1 -9 -25 -13 -85 -13 -58 0 -86 4 -89 13 -4 10 -6 10 -6 0 -1 -9 -25
-13 -85 -13 -58 0 -86 4 -89 13 -4 10 -6 10 -6 0 -1 -9 -25 -13 -85 -13 -58 0
-86 4 -89 13 -4 10 -6 10 -6 0 -1 -9 -25 -13 -85 -13 -58 0 -86 4 -89 13 -4
10 -6 10 -6 0 -1 -10 -60 -13 -260 -13 -198 0 -261 3 -264 13 -4 9 -6 9 -6 0z
m529 -108 l0 -85 -260 0 -260 0 0 85 0 85 260 0 260 0 0 -85z m180 0 l0 -85
-85 0 -85 0 0 85 0 85 85 0 85 0 0 -85z m180 0 l0 -85 -85 0 -85 0 0 85 0 85
85 0 85 0 0 -85z m180 0 l0 -85 -85 0 -85 0 0 85 0 85 85 0 85 0 0 -85z m180
0 l0 -85 -85 0 -85 0 0 85 0 85 85 0 85 0 0 -85z m170 0 l0 -85 -80 0 -80 0 0
85 0 85 80 0 80 0 0 -85z m180 0 l0 -85 -85 0 -85 0 0 85 0 85 85 0 85 0 0
-85z m180 0 l0 -85 -85 0 -85 0 0 85 0 85 85 0 85 0 0 -85z m180 0 l0 -85 -85
0 -85 0 0 85 0 85 85 0 85 0 0 -85z m180 0 l0 -85 -85 0 -85 0 0 85 0 85 85 0
85 0 0 -85z m170 0 l0 -85 -80 0 -80 0 0 85 0 85 80 0 80 0 0 -85z m180 0 l0
-85 -85 0 -85 0 0 85 0 85 85 0 85 0 0 -85z m180 0 l0 -85 -85 0 -85 0 0 85 0
85 85 0 85 0 0 -85z m180 0 l0 -85 -85 0 -85 0 0 85 0 85 85 0 85 0 0 -85z
m-2320 -180 l0 -85 -85 0 -85 0 -2 83 -2 82 -3 -82 -4 -83 -79 0 -80 0 -2 83
-2 82 -3 -82 -4 -83 -84 0 -85 0 0 85 0 85 260 0 260 0 0 -85z m180 0 l0 -85
-85 0 -85 0 0 85 0 85 85 0 85 0 0 -85z m180 0 l0 -85 -85 0 -85 0 0 85 0 85
85 0 85 0 0 -85z m180 0 l0 -85 -85 0 -85 0 0 85 0 85 85 0 85 0 0 -85z m180
0 l0 -85 -85 0 -85 0 0 85 0 85 85 0 85 0 0 -85z m170 0 l0 -85 -80 0 -80 0 0
85 0 85 80 0 80 0 0 -85z m180 0 l0 -85 -85 0 -85 0 0 85 0 85 85 0 85 0 0
-85z m180 0 l0 -85 -85 0 -85 0 0 85 0 85 85 0 85 0 0 -85z m180 0 l0 -85 -85
0 -85 0 0 85 0 85 85 0 85 0 0 -85z m180 0 l0 -85 -85 0 -85 0 0 85 0 85 85 0
85 0 0 -85z m170 0 l0 -85 -80 0 -80 0 0 85 0 85 80 0 80 0 0 -85z m180 0 l0
-85 -85 0 -85 0 0 85 0 85 85 0 85 0 0 -85z m180 0 l0 -85 -85 0 -85 0 0 85 0
85 85 0 85 0 0 -85z m180 0 l0 -85 -85 0 -85 0 0 85 0 85 85 0 85 0 0 -85z
m-2320 -265 l0 -170 -260 0 -260 0 0 170 0 170 260 0 260 0 0 -170z m180 0 l0
-170 -85 0 -84 0 0 170 -1 170 85 0 85 0 0 -170z m180 0 l0 -170 -85 0 -85 0
0 170 0 170 85 0 85 0 0 -170z m180 0 l0 -170 -85 0 -85 0 0 170 0 170 85 0
85 0 0 -170z m179 0 l0 -170 -84 0 -85 0 0 170 0 170 85 0 84 0 0 -170z m171
0 l0 -170 -80 0 -80 0 0 170 0 170 80 0 80 0 0 -170z m180 0 l0 -170 -85 0
-85 0 0 170 0 170 85 0 85 0 0 -170z m180 0 l0 -170 -85 0 -85 0 0 170 0 170
85 0 85 0 0 -170z m180 0 l0 -170 -85 0 -85 0 0 170 0 170 85 0 85 0 0 -170z
m180 0 l0 -170 -85 0 -85 0 0 170 0 170 85 0 85 0 0 -170z m170 0 l0 -170 -80
0 -80 0 0 170 0 170 80 0 80 0 0 -170z m180 0 l0 -170 -85 0 -85 0 0 170 0
170 85 0 85 0 0 -170z m180 0 l0 -170 -85 0 -85 0 0 170 0 170 85 0 85 0 0
-170z m180 0 l0 -170 -85 0 -85 0 0 170 0 170 85 0 85 0 0 -170z m-2320 -265
l0 -85 -260 0 -260 0 0 85 0 85 260 0 260 0 0 -85z m180 0 l0 -85 -85 0 -85 0
0 85 0 85 85 0 85 0 0 -85z m180 0 l0 -85 -85 0 -85 0 0 85 0 85 85 0 85 0 0
-85z m180 0 l0 -85 -85 0 -85 0 0 85 0 85 85 0 85 0 0 -85z m180 0 l0 -85 -85
0 -85 0 0 85 0 85 85 0 85 0 0 -85z m170 0 l0 -85 -80 0 -80 0 0 85 0 85 80 0
80 0 0 -85z m180 0 l0 -85 -85 0 -85 0 0 85 0 85 85 0 85 0 0 -85z m180 0 l0
-85 -85 0 -85 0 0 85 0 85 85 0 85 0 0 -85z m180 0 l0 -85 -85 0 -85 0 0 85 0
85 85 0 85 0 0 -85z m180 0 l0 -85 -85 0 -85 0 0 85 0 85 85 0 85 0 0 -85z
m170 0 l0 -85 -80 0 -80 0 0 85 0 85 80 0 80 0 0 -85z m180 0 l0 -85 -85 0
-85 0 0 85 0 85 85 0 85 0 0 -85z m180 0 l0 -85 -85 0 -85 0 0 85 0 85 85 0
85 0 0 -85z m180 0 l0 -85 -85 0 -85 0 0 85 0 85 85 0 85 0 0 -85z m-2320
-180 l0 -85 -260 0 -260 0 0 85 0 85 260 0 260 0 0 -85z m180 0 l0 -85 -85 0
-85 0 0 85 0 85 85 0 85 0 0 -85z m180 0 l0 -85 -85 0 -85 0 0 85 0 85 85 0
85 0 0 -85z m180 0 l0 -85 -85 0 -85 0 0 85 0 85 85 0 85 0 0 -85z m180 0 l0
-85 -85 0 -85 0 0 85 0 85 85 0 85 0 0 -85z m170 0 l0 -85 -80 0 -80 0 0 85 0
85 80 0 80 0 0 -85z m180 0 l0 -85 -85 0 -85 0 0 85 0 85 85 0 85 0 0 -85z
m180 0 l0 -85 -85 0 -85 0 0 85 0 85 85 0 85 0 0 -85z m180 0 l0 -85 -85 0
-85 0 0 85 0 85 85 0 85 0 0 -85z m180 0 l0 -85 -85 0 -85 0 0 85 0 85 85 0
85 0 0 -85z m170 0 l0 -85 -80 0 -80 0 0 85 0 85 80 0 80 0 0 -85z m180 0 l0
-85 -85 0 -85 0 0 85 0 85 85 0 85 0 0 -85z m180 0 l0 -85 -85 0 -85 0 0 85 0
85 85 0 85 0 0 -85z m180 0 l0 -85 -85 0 -85 0 0 85 0 85 85 0 85 0 0 -85z
m-2320 -180 l0 -85 -260 0 -260 0 0 85 0 85 260 0 260 0 0 -85z m180 0 l0 -85
-85 0 -85 0 0 85 0 85 85 0 85 0 0 -85z m180 0 l0 -85 -85 0 -85 0 0 85 0 85
85 0 85 0 0 -85z m180 0 l0 -85 -85 0 -85 0 0 85 0 85 85 0 85 0 0 -85z m180
0 l0 -85 -85 0 -85 0 0 85 0 85 85 0 85 0 0 -85z m170 0 l0 -85 -80 0 -80 0 0
85 0 85 80 0 80 0 0 -85z m180 0 l0 -85 -85 0 -85 0 0 85 0 85 85 0 85 0 0
-85z m180 0 l0 -85 -85 0 -85 0 0 85 0 85 85 0 85 0 0 -85z m180 0 l0 -85 -85
0 -85 0 0 85 0 85 85 0 85 0 0 -85z m180 0 l0 -85 -85 0 -85 0 0 85 0 85 85 0
85 0 0 -85z m170 0 l0 -85 -80 0 -80 0 0 85 0 85 80 0 80 0 0 -85z m180 0 l0
-85 -85 0 -85 0 0 85 0 85 85 0 85 0 0 -85z m180 0 l0 -85 -85 0 -85 0 0 85 0
85 85 0 85 0 0 -85z m180 0 l0 -85 -85 0 -85 0 0 85 0 85 85 0 85 0 0 -85z
m-2320 -175 l0 -80 -260 0 -260 0 0 80 0 80 260 0 260 0 0 -80z m180 0 l0 -80
-85 0 -85 0 0 80 0 80 85 0 85 0 0 -80z m180 0 l0 -80 -85 0 -85 0 0 80 0 80
85 0 85 0 0 -80z m180 0 l0 -80 -85 0 -85 0 0 80 0 80 85 0 85 0 0 -80z m180
0 l0 -80 -85 0 -85 0 0 80 0 80 85 0 85 0 0 -80z m170 0 l0 -80 -80 0 -80 0 0
80 0 80 80 0 80 0 0 -80z m180 0 l0 -80 -85 0 -85 0 0 80 0 80 85 0 85 0 0
-80z m180 0 l0 -80 -85 0 -85 0 0 80 0 80 85 0 85 0 0 -80z m180 0 l0 -80 -85
0 -85 0 0 80 0 80 85 0 85 0 0 -80z m180 0 l0 -80 -85 0 -85 0 0 80 0 80 85 0
85 0 0 -80z m170 0 l0 -80 -80 0 -80 0 0 80 0 80 80 0 80 0 0 -80z m180 0 l0
-80 -85 0 -85 0 0 80 0 80 85 0 85 0 0 -80z m180 0 l0 -80 -85 0 -85 0 0 80 0
80 85 0 85 0 0 -80z m180 0 l0 -80 -85 0 -85 0 0 80 0 80 85 0 85 0 0 -80z
m-2320 -175 l0 -85 -260 0 -260 0 0 85 0 85 260 0 260 0 0 -85z m180 0 l0 -85
-85 0 -85 0 0 85 0 85 85 0 85 0 0 -85z m180 0 l0 -85 -85 0 -85 0 0 85 0 85
85 0 85 0 0 -85z m180 0 l0 -85 -85 0 -85 0 0 85 0 85 85 0 85 0 0 -85z m180
0 l0 -85 -85 0 -85 0 0 85 0 85 85 0 85 0 0 -85z m170 0 l0 -85 -80 0 -80 0 0
85 0 85 80 0 80 0 0 -85z m180 0 l0 -85 -85 0 -85 0 0 85 0 85 85 0 85 0 0
-85z m180 0 l0 -85 -85 0 -85 0 0 85 0 85 85 0 85 0 0 -85z m180 0 l0 -85 -85
0 -85 0 0 85 0 85 85 0 85 0 0 -85z m180 0 l0 -85 -85 0 -85 0 0 85 0 85 85 0
85 0 0 -85z m170 0 l0 -85 -80 0 -80 0 0 85 0 85 80 0 80 0 0 -85z m180 0 l0
-85 -85 0 -85 0 0 85 0 85 85 0 85 0 0 -85z m180 0 l0 -85 -85 0 -85 0 0 85 0
85 85 0 85 0 0 -85z m180 0 l0 -85 -85 0 -85 0 0 85 0 85 85 0 85 0 0 -85z
m-2320 -180 l0 -85 -260 0 -260 0 0 85 0 85 260 0 260 0 0 -85z m180 0 l0 -85
-85 0 -85 0 0 85 0 85 85 0 85 0 0 -85z m180 0 l0 -85 -85 0 -85 0 0 85 0 85
85 0 85 0 0 -85z m180 0 l0 -85 -85 0 -85 0 0 85 0 85 85 0 85 0 0 -85z m180
0 l0 -85 -85 0 -85 0 0 85 0 85 85 0 85 0 0 -85z m170 0 l0 -85 -80 0 -80 0 0
85 0 85 80 0 80 0 0 -85z m180 0 l0 -85 -85 0 -85 0 0 85 0 85 85 0 85 0 0
-85z m180 0 l0 -85 -85 0 -85 0 0 85 0 85 85 0 85 0 0 -85z m180 0 l0 -85 -85
0 -85 0 0 85 0 85 85 0 85 0 0 -85z m180 0 l0 -85 -85 0 -85 0 0 85 0 85 85 0
85 0 0 -85z m170 0 l0 -85 -80 0 -80 0 0 85 0 85 80 0 80 0 0 -85z m180 0 l0
-85 -85 0 -85 0 0 85 0 85 85 0 85 0 0 -85z m180 0 l0 -85 -85 0 -85 0 0 85 0
85 85 0 85 0 0 -85z m180 0 l0 -85 -85 0 -85 0 0 85 0 85 85 0 85 0 0 -85z
m-2320 -180 l0 -85 -260 0 -260 0 0 85 0 85 260 0 260 0 0 -85z m180 0 l0 -85
-85 0 -85 0 0 85 0 85 85 0 85 0 0 -85z m180 0 l0 -85 -85 0 -85 0 0 85 0 85
85 0 85 0 0 -85z m180 0 l0 -85 -85 0 -85 0 0 85 0 85 85 0 85 0 0 -85z m180
0 l0 -85 -85 0 -85 0 0 85 0 85 85 0 85 0 0 -85z m170 0 l0 -85 -80 0 -80 0 0
85 0 85 80 0 80 0 0 -85z m180 0 l0 -85 -85 0 -85 0 0 85 0 85 85 0 85 0 0
-85z m180 0 l0 -85 -85 0 -85 0 0 85 0 85 85 0 85 0 0 -85z m180 0 l0 -85 -85
0 -85 0 0 85 0 85 85 0 85 0 0 -85z m180 0 l0 -85 -85 0 -85 0 0 85 0 85 85 0
85 0 0 -85z m170 0 l0 -85 -80 0 -80 0 0 85 0 85 80 0 80 0 0 -85z m180 0 l0
-85 -85 0 -85 0 0 85 0 85 85 0 85 0 0 -85z m180 0 l0 -85 -85 0 -85 0 0 85 0
85 85 0 85 0 0 -85z m180 0 l0 -85 -85 0 -85 0 0 85 0 85 85 0 85 0 0 -85z
m-2320 -265 l0 -170 -260 0 -260 0 0 170 0 170 260 0 260 0 0 -170z m180 0 l0
-170 -85 0 -85 0 0 85 0 85 83 2 82 2 -82 3 -83 4 0 79 0 80 85 0 85 0 0 -170z
m180 90 l0 -80 -82 -2 -83 -2 83 -3 82 -4 0 -84 0 -85 -85 0 -85 0 0 170 0
170 85 0 85 0 0 -80z m180 0 l0 -80 -82 -2 -83 -2 83 -3 82 -4 0 -84 0 -85
-85 0 -85 0 0 170 0 170 85 0 85 0 0 -80z m180 0 l0 -80 -82 -2 -83 -2 83 -3
82 -4 0 -84 0 -85 -85 0 -85 0 0 170 0 170 85 0 85 0 0 -80z m170 -90 l0 -170
-80 0 -80 0 0 170 0 170 80 0 80 0 0 -170z m180 90 l0 -80 -82 -2 -83 -2 83
-3 82 -4 0 -84 0 -85 -85 0 -85 0 0 170 0 170 85 0 85 0 0 -80z m180 0 l0 -80
-82 -2 -83 -2 83 -3 82 -4 0 -84 0 -85 -85 0 -85 0 0 170 0 170 85 0 85 0 0
-80z m180 -90 l0 -170 -85 0 -85 0 0 170 0 170 85 0 85 0 0 -170z m180 0 l0
-170 -85 0 -85 0 0 170 0 170 85 0 85 0 0 -170z m170 0 l0 -170 -80 0 -80 0 0
85 0 85 78 2 77 2 -77 3 -78 4 0 79 0 80 80 0 80 0 0 -170z m180 90 l0 -80
-82 -2 -83 -2 83 -3 82 -4 0 -84 0 -85 -85 0 -85 0 0 170 0 170 85 0 85 0 0
-80z m180 -90 l0 -170 -85 0 -85 0 0 170 0 170 85 0 85 0 0 -170z m180 0 l0
-170 -85 0 -85 0 0 170 0 170 85 0 85 0 0 -170z m-2668 -262 l2 -83 3 83 4 82
79 0 80 0 2 -82 2 -83 3 83 4 82 84 0 85 0 0 -85 0 -85 -260 0 -260 0 0 85 0
85 85 0 85 0 2 -82z m528 -3 l0 -85 -85 0 -85 0 0 85 0 85 85 0 85 0 0 -85z
m180 0 l0 -85 -85 0 -85 0 0 85 0 85 85 0 85 0 0 -85z m180 0 l0 -85 -85 0
-85 0 0 85 0 85 85 0 85 0 0 -85z m180 0 l0 -85 -85 0 -85 0 0 85 0 85 85 0
85 0 0 -85z m170 0 l0 -85 -80 0 -80 0 0 85 0 85 80 0 80 0 0 -85z m180 0 l0
-85 -85 0 -85 0 0 85 0 85 85 0 85 0 0 -85z m180 0 l0 -85 -85 0 -85 0 0 85 0
85 85 0 85 0 0 -85z m180 0 l0 -85 -85 0 -85 0 0 85 0 85 85 0 85 0 0 -85z
m180 0 l0 -85 -85 0 -85 0 0 85 0 85 85 0 85 0 0 -85z m170 0 l0 -85 -80 0
-80 0 0 85 0 85 80 0 80 0 0 -85z m180 0 l0 -85 -85 0 -85 0 0 85 0 85 85 0
85 0 0 -85z m180 0 l0 -85 -85 0 -85 0 0 85 0 85 85 0 85 0 0 -85z m180 0 l0
-85 -85 0 -85 0 0 85 0 85 85 0 85 0 0 -85z m-2320 -180 l0 -85 -260 0 -260 0
0 85 0 85 260 0 260 0 0 -85z m180 0 l0 -85 -85 0 -85 0 0 85 0 85 85 0 85 0
0 -85z m180 0 l0 -85 -85 0 -85 0 0 85 0 85 85 0 85 0 0 -85z m180 0 l0 -85
-85 0 -85 0 0 85 0 85 85 0 85 0 0 -85z m180 0 l0 -85 -85 0 -85 0 0 85 0 85
85 0 85 0 0 -85z m170 0 l0 -85 -80 0 -80 0 0 85 0 85 80 0 80 0 0 -85z m180
0 l0 -85 -85 0 -85 0 0 85 0 85 85 0 85 0 0 -85z m180 0 l0 -85 -85 0 -85 0 0
85 0 85 85 0 85 0 0 -85z m180 0 l0 -85 -85 0 -85 0 0 85 0 85 85 0 85 0 0
-85z m180 0 l0 -85 -85 0 -85 0 0 85 0 85 85 0 85 0 0 -85z m170 0 l0 -85 -80
0 -80 0 0 85 0 85 80 0 80 0 0 -85z m180 0 l0 -85 -85 0 -85 0 0 85 0 85 85 0
85 0 0 -85z m180 0 l0 -85 -85 0 -85 0 0 85 0 85 85 0 85 0 0 -85z m180 0 l0
-85 -85 0 -85 0 0 85 0 85 85 0 85 0 0 -85z m-2320 -180 l0 -85 -260 0 -260 0
0 85 0 85 260 0 260 0 0 -85z m180 0 l0 -85 -85 0 -85 0 0 85 0 85 85 0 85 0
0 -85z m180 0 l0 -85 -85 0 -85 0 0 85 0 85 85 0 85 0 0 -85z m180 0 l0 -85
-85 0 -85 0 0 85 0 85 85 0 85 0 0 -85z m180 0 l0 -85 -85 0 -85 0 0 85 0 85
85 0 85 0 0 -85z m170 0 l0 -85 -80 0 -80 0 0 85 0 85 80 0 80 0 0 -85z m180
0 l0 -85 -85 0 -85 0 0 85 0 85 85 0 85 0 0 -85z m180 0 l0 -85 -85 0 -85 0 0
85 0 85 85 0 85 0 0 -85z m180 0 l0 -85 -85 0 -85 0 0 85 0 85 85 0 85 0 0
-85z m180 0 l0 -85 -85 0 -85 0 0 85 0 85 85 0 85 0 0 -85z m170 0 l0 -85 -80
0 -80 0 0 85 0 85 80 0 80 0 0 -85z m180 0 l0 -85 -85 0 -85 0 0 85 0 85 85 0
85 0 0 -85z m180 0 l0 -85 -85 0 -85 0 0 85 0 85 85 0 85 0 0 -85z m180 0 l0
-85 -85 0 -85 0 0 85 0 85 85 0 85 0 0 -85z m-2320 -355 l0 -260 -170 0 -170
0 -2 78 -2 77 -3 -77 -4 -78 -84 0 -85 0 0 260 0 260 260 0 260 0 0 -260z
m180 0 l0 -260 -85 0 -85 0 0 170 0 170 78 2 77 2 -77 3 -78 4 0 84 0 85 85 0
85 0 0 -260z m180 0 l0 -260 -85 0 -85 0 0 170 0 170 83 2 82 2 -82 3 -83 4 0
84 0 85 85 0 85 0 0 -260z m180 0 l0 -260 -85 0 -85 0 0 170 0 170 83 2 82 2
-82 3 -83 4 0 84 0 85 85 0 85 0 0 -260z m180 175 l0 -85 -82 -2 -83 -2 83 -3
82 -4 0 -169 0 -170 -85 0 -85 0 0 260 0 260 85 0 85 0 0 -85z m170 0 l0 -85
-80 0 -80 0 0 85 0 85 80 0 80 0 0 -85z m180 -175 l0 -260 -85 0 -85 0 0 260
0 260 85 0 85 0 0 -260z m180 0 l0 -260 -85 0 -85 0 0 260 0 260 85 0 84 0 1
-260z m180 175 l0 -85 -85 0 -85 0 0 85 0 85 85 0 85 0 0 -85z m180 -175 l0
-260 -85 0 -85 0 0 170 0 170 83 2 82 2 -82 3 -83 4 0 84 0 85 85 0 85 0 0
-260z m170 0 l0 -260 -80 0 -80 0 0 170 0 170 73 2 72 2 -72 3 -73 4 0 84 0
85 80 0 79 0 1 -260z m180 175 l0 -85 -85 0 -85 0 0 85 0 85 85 0 85 0 0 -85z
m180 0 l0 -85 -85 0 -85 0 0 85 0 85 85 0 85 0 0 -85z m180 0 l0 -85 -85 0
-85 0 0 85 0 85 85 0 85 0 0 -85z m-1430 -265 l0 -170 -80 0 -80 0 0 170 0
170 80 0 80 0 0 -170z m540 0 l0 -170 -85 0 -85 0 0 170 0 170 85 0 85 0 0
-170z m530 0 l0 -170 -85 0 -85 0 0 170 0 170 85 0 85 0 0 -170z m180 0 l0
-170 -85 0 -85 0 0 170 0 170 85 0 85 0 0 -170z m180 0 l0 -170 -85 0 -85 0 0
170 0 170 85 0 85 0 0 -170z m-2668 -257 l2 -78 3 78 4 77 79 0 80 0 2 -77 2
-78 3 78 4 77 84 0 85 0 0 -85 0 -85 -260 0 -260 0 0 85 0 85 85 0 85 0 2 -77z
m528 -8 l0 -85 -85 0 -85 0 0 85 0 85 85 0 85 0 0 -85z m180 0 l0 -85 -85 0
-85 0 0 85 0 85 85 0 85 0 0 -85z m180 0 l0 -85 -85 0 -85 0 0 85 0 85 85 0
85 0 0 -85z m180 0 l0 -85 -85 0 -85 0 0 85 0 85 85 0 85 0 0 -85z m170 0 l0
-85 -80 0 -80 0 0 85 0 85 80 0 80 0 0 -85z m180 0 l0 -85 -85 0 -85 0 0 85 0
85 85 0 85 0 0 -85z m180 0 l0 -85 -85 0 -85 0 0 85 0 85 85 0 85 0 0 -85z
m180 0 l0 -85 -85 0 -85 0 0 85 0 85 85 0 85 0 0 -85z m180 0 l0 -85 -85 0
-85 0 0 85 0 85 85 0 85 0 0 -85z m170 0 l0 -85 -80 0 -80 0 0 85 0 85 80 0
80 0 0 -85z m180 0 l0 -85 -85 0 -85 0 0 85 0 85 85 0 85 0 0 -85z m180 0 l0
-85 -85 0 -85 0 0 85 0 85 85 0 85 0 0 -85z m180 0 l0 -85 -85 0 -85 0 0 85 0
85 85 0 85 0 0 -85z m-2668 -177 l2 -83 3 83 4 82 169 0 170 0 0 -85 0 -85
-260 0 -260 0 0 85 0 85 85 0 85 0 2 -82z m528 -3 l0 -85 -85 0 -85 0 0 85 0
85 85 0 85 0 0 -85z m180 0 l0 -85 -85 0 -85 0 0 85 0 85 85 0 85 0 0 -85z
m180 0 l0 -85 -85 0 -85 0 0 85 0 85 85 0 85 0 0 -85z m180 0 l0 -85 -85 0
-85 0 0 85 0 85 85 0 85 0 0 -85z m170 0 l0 -85 -80 0 -80 0 0 85 0 85 80 0
80 0 0 -85z m180 0 l0 -85 -85 0 -85 0 0 85 0 85 85 0 85 0 0 -85z m180 0 l0
-85 -85 0 -85 0 0 85 0 85 85 0 85 0 0 -85z m180 0 l0 -85 -85 0 -85 0 0 85 0
85 85 0 85 0 0 -85z m180 0 l0 -85 -85 0 -85 0 0 85 0 85 85 0 85 0 0 -85z
m170 0 l0 -85 -80 0 -80 0 0 85 0 85 80 0 80 0 0 -85z m180 0 l0 -85 -85 0
-85 0 0 85 0 85 85 0 85 0 0 -85z m180 0 l0 -85 -85 0 -85 0 0 85 0 85 85 0
85 0 0 -85z m180 0 l0 -85 -85 0 -85 0 0 85 0 85 85 0 85 0 0 -85z m-2320
-180 l0 -85 -260 0 -260 0 0 85 0 85 260 0 260 0 0 -85z m180 0 l0 -85 -85 0
-85 0 0 85 0 85 85 0 85 0 0 -85z m180 0 l0 -85 -85 0 -85 0 0 85 0 85 85 0
85 0 0 -85z m180 0 l0 -85 -85 0 -85 0 0 85 0 85 85 0 85 0 0 -85z m180 0 l0
-85 -85 0 -85 0 0 85 0 85 85 0 85 0 0 -85z m170 0 l0 -85 -80 0 -80 0 0 85 0
85 80 0 80 0 0 -85z m180 0 l0 -85 -85 0 -85 0 0 85 0 85 85 0 85 0 0 -85z
m180 0 l0 -85 -85 0 -85 0 0 85 0 85 85 0 85 0 0 -85z m180 0 l0 -85 -85 0
-85 0 0 85 0 85 85 0 85 0 0 -85z m180 0 l0 -85 -85 0 -85 0 0 85 0 85 85 0
85 0 0 -85z m170 0 l0 -85 -80 0 -80 0 0 85 0 85 80 0 80 0 0 -85z m180 0 l0
-85 -85 0 -85 0 0 85 0 85 85 0 85 0 0 -85z m180 0 l0 -85 -85 0 -85 0 0 85 0
85 85 0 85 0 0 -85z m180 0 l0 -85 -85 0 -85 0 0 85 0 85 85 0 85 0 0 -85z
m-2320 -180 l0 -84 -260 0 -260 0 0 84 0 85 260 0 260 0 0 -85z m180 0 l0 -85
-85 0 -85 0 0 85 0 85 85 0 85 0 0 -85z m180 0 l0 -85 -85 0 -85 0 0 85 0 85
85 0 85 0 0 -85z m180 -175 l-1 -260 -84 0 -85 0 0 170 0 170 83 2 82 2 -82 3
-83 4 0 84 0 85 85 0 85 0 0 -260z m180 175 l0 -85 -85 0 -85 0 0 85 0 85 85
0 85 0 0 -85z m170 0 l0 -85 -80 0 -80 0 0 85 0 85 80 0 80 0 0 -85z m180 0
l0 -85 -85 0 -85 0 0 85 0 85 85 0 85 0 0 -85z m180 0 l0 -85 -85 0 -85 0 0
85 0 85 85 0 85 0 0 -85z m180 0 l0 -85 -85 0 -85 0 0 85 0 85 85 0 85 0 0
-85z m180 0 l0 -85 -85 0 -85 0 0 85 0 85 85 0 85 0 0 -85z m170 0 l0 -85 -80
0 -80 0 0 85 0 85 80 0 80 0 0 -85z m180 0 l0 -85 -85 0 -85 0 0 85 0 85 85 0
85 0 0 -85z m180 0 l0 -85 -85 0 -85 0 0 85 0 85 85 0 85 0 0 -85z m180 0 l0
-85 -85 0 -85 0 0 85 0 85 85 0 85 0 0 -85z m-2321 -265 l0 -170 -259 0 -260
0 0 170 0 170 260 0 260 0 -1 -170z m181 0 l0 -170 -85 0 -84 0 0 170 -1 170
85 0 85 0 0 -170z m180 0 l0 -170 -85 0 -85 0 0 170 0 170 85 0 85 0 0 -170z
m360 85 l0 -85 -77 -2 -78 -2 78 -3 77 -4 0 -79 0 -80 -85 0 -85 0 0 170 0
170 85 0 85 0 0 -85z m170 -85 l0 -170 -80 0 -80 0 0 170 0 170 80 0 80 0 0
-170z m179 0 l0 -170 -84 0 -85 0 0 170 0 170 85 0 85 0 -1 -170z m181 0 l0
-170 -85 0 -85 0 0 170 0 170 85 0 85 0 0 -170z m180 0 l0 -170 -85 0 -85 0 0
170 0 170 85 0 85 0 0 -170z m180 0 l0 -170 -85 0 -85 0 0 170 0 170 85 0 85
0 0 -170z m170 0 l0 -170 -80 0 -80 0 0 170 0 170 80 0 80 0 0 -170z m180 0
l0 -170 -85 0 -85 0 0 170 0 170 85 0 85 0 0 -170z m180 0 l0 -170 -85 0 -85
0 0 170 0 170 85 0 85 0 0 -170z m180 0 l0 -170 -85 0 -85 0 0 170 0 170 85 0
85 0 0 -170z m-2320 -265 l0 -84 -260 -1 -260 0 0 85 0 85 260 0 260 0 0 -85z
m180 0 l0 -85 -85 0 -85 0 0 85 0 85 85 0 85 0 0 -85z m180 0 l0 -85 -85 0
-85 0 0 85 0 85 85 0 85 0 0 -85z m180 0 l0 -85 -85 0 -85 0 0 85 0 85 85 0
85 0 0 -85z m180 0 l0 -85 -85 0 -85 0 0 85 0 85 85 0 85 0 0 -85z m170 0 l0
-85 -80 0 -80 0 0 85 0 85 80 0 80 0 0 -85z m180 0 l0 -85 -85 0 -85 0 0 85 0
85 85 0 85 0 0 -85z m180 0 l0 -85 -85 0 -85 0 0 85 0 85 85 0 85 0 0 -85z
m180 0 l0 -85 -85 0 -85 0 0 85 0 85 85 0 85 0 0 -85z m180 0 l0 -85 -85 0
-85 0 0 85 0 85 85 0 85 0 0 -85z m170 0 l0 -85 -80 0 -80 0 0 85 0 85 80 0
80 0 0 -85z m180 0 l0 -85 -85 0 -85 0 0 85 0 85 85 0 85 0 0 -85z m180 0 l0
-85 -85 0 -85 0 0 85 0 85 85 0 85 0 0 -85z m180 0 l0 -85 -85 0 -85 0 0 85 0
85 85 0 85 0 0 -85z m-2320 -180 l0 -85 -260 0 -260 0 0 85 0 85 260 0 260 0
0 -85z m180 0 l0 -85 -85 0 -85 0 0 85 0 85 85 0 85 0 0 -85z m180 0 l0 -85
-85 0 -85 0 0 85 0 85 85 0 85 0 0 -85z m180 0 l0 -85 -85 0 -85 0 0 85 0 85
85 0 85 0 0 -85z m180 0 l0 -85 -85 0 -85 0 0 85 0 85 85 0 85 0 0 -85z m170
0 l0 -85 -80 0 -80 0 0 85 0 85 80 0 80 0 0 -85z m180 0 l0 -85 -85 0 -85 0 0
85 0 85 85 0 85 0 0 -85z m180 0 l0 -85 -85 0 -85 0 0 85 0 85 85 0 85 0 0
-85z m180 0 l0 -85 -85 0 -85 0 0 85 0 85 85 0 85 0 0 -85z m180 0 l0 -85 -85
0 -85 0 0 85 0 85 85 0 85 0 0 -85z m170 0 l0 -85 -80 0 -80 0 0 85 0 85 80 0
80 0 0 -85z m180 0 l0 -85 -85 0 -85 0 0 85 0 85 85 0 85 0 0 -85z m180 0 l0
-85 -85 0 -85 0 0 85 0 85 85 0 85 0 0 -85z m180 0 l0 -85 -85 0 -85 0 0 85 0
85 85 0 85 0 0 -85z m-2320 -180 l0 -85 -260 0 -260 0 0 85 0 85 260 0 260 0
0 -85z m180 0 l0 -85 -85 0 -85 0 0 85 0 85 85 0 85 0 0 -85z m180 0 l0 -85
-85 0 -85 0 0 85 0 85 85 0 85 0 0 -85z m180 0 l0 -85 -85 0 -85 0 0 85 0 85
85 0 85 0 0 -85z m180 0 l0 -85 -85 0 -85 0 0 85 0 85 85 0 85 0 0 -85z m170
0 l0 -85 -80 0 -80 0 0 85 0 85 80 0 80 0 0 -85z m180 0 l0 -85 -85 0 -85 0 0
85 0 85 85 0 85 0 0 -85z m180 0 l0 -85 -85 0 -85 0 0 85 0 85 85 0 85 0 0
-85z m180 0 l0 -85 -85 0 -85 0 0 85 0 85 85 0 85 0 0 -85z m180 0 l0 -85 -85
0 -85 0 0 85 0 85 85 0 85 0 0 -85z m170 0 l0 -85 -80 0 -80 0 0 85 0 85 80 0
80 0 0 -85z m180 0 l0 -85 -85 0 -85 0 0 85 0 85 85 0 85 0 0 -85z m180 0 l0
-85 -85 0 -85 0 0 85 0 85 85 0 85 0 0 -85z m180 0 l0 -85 -85 0 -85 0 0 85 0
85 85 0 85 0 0 -85z m-2320 -180 l0 -85 -85 0 -85 0 -2 83 -2 82 -3 -82 -4
-83 -79 0 -80 0 -2 83 -2 82 -3 -82 -4 -83 -84 0 -85 0 0 85 0 85 260 0 260 0
0 -85z m180 0 l0 -85 -85 0 -85 0 0 85 0 85 85 0 85 0 0 -85z m180 0 l0 -85
-85 0 -85 0 0 85 0 85 85 0 85 0 0 -85z m180 0 l0 -85 -85 0 -85 0 0 85 0 85
85 0 85 0 0 -85z m180 0 l0 -85 -85 0 -85 0 0 85 0 85 85 0 85 0 0 -85z m170
0 l0 -85 -80 0 -80 0 0 85 0 85 80 0 80 0 0 -85z m180 0 l0 -85 -85 0 -85 0 0
85 0 85 85 0 85 0 0 -85z m180 0 l0 -85 -85 0 -85 0 0 85 0 85 85 0 85 0 0
-85z m180 0 l0 -85 -85 0 -85 0 0 85 0 85 85 0 85 0 0 -85z m180 0 l0 -85 -85
0 -85 0 0 85 0 85 85 0 85 0 0 -85z m170 0 l0 -85 -80 0 -80 0 0 85 0 85 80 0
80 0 0 -85z m180 0 l0 -85 -85 0 -85 0 0 85 0 85 85 0 85 0 0 -85z m180 0 l0
-85 -85 0 -85 0 0 85 0 85 85 0 85 0 0 -85z m180 0 l0 -85 -85 0 -85 0 0 85 0
85 85 0 85 0 0 -85z m-2320 -175 l0 -80 -260 0 -260 0 0 80 0 80 260 0 260 0
0 -80z m180 0 l0 -80 -85 0 -85 0 0 80 0 80 85 0 85 0 0 -80z m180 0 l0 -80
-85 0 -85 0 0 80 0 80 85 0 85 0 0 -80z m180 0 l0 -80 -85 0 -85 0 0 80 0 80
85 0 85 0 0 -80z m180 0 l0 -80 -85 0 -85 0 0 80 0 80 85 0 85 0 0 -80z m170
0 l0 -80 -80 0 -80 0 0 80 0 80 80 0 80 0 0 -80z m180 0 l0 -80 -85 0 -85 0 0
80 0 80 85 0 85 0 0 -80z m180 0 l0 -80 -85 0 -85 0 0 80 0 80 85 0 85 0 0
-80z m180 0 l0 -80 -85 0 -85 0 0 80 0 80 85 0 85 0 0 -80z m180 0 l0 -80 -85
0 -85 0 0 80 0 80 85 0 85 0 0 -80z m170 0 l0 -80 -80 0 -80 0 0 80 0 80 80 0
80 0 0 -80z m180 0 l0 -80 -85 0 -85 0 0 80 0 80 85 0 85 0 0 -80z m180 0 l0
-80 -85 0 -85 0 0 80 0 80 85 0 85 0 0 -80z m180 0 l0 -80 -85 0 -85 0 0 80 0
80 85 0 85 0 0 -80z m-2320 -175 l0 -85 -260 0 -260 0 0 85 0 85 260 0 260 0
0 -85z m180 0 l0 -85 -85 0 -85 0 0 85 0 85 85 0 85 0 0 -85z m180 0 l0 -85
-85 0 -85 0 0 85 0 85 85 0 85 0 0 -85z m180 0 l0 -85 -85 0 -85 0 0 85 0 85
85 0 85 0 0 -85z m180 0 l0 -85 -85 0 -85 0 0 85 0 85 85 0 85 0 0 -85z m170
0 l0 -85 -80 0 -80 0 0 85 0 85 80 0 80 0 0 -85z m180 0 l0 -85 -85 0 -85 0 0
85 0 85 85 0 85 0 0 -85z m180 0 l0 -85 -85 0 -85 0 0 85 0 85 85 0 85 0 0
-85z m180 0 l0 -85 -85 0 -85 0 0 85 0 85 85 0 85 0 0 -85z m180 0 l0 -85 -85
0 -85 0 0 85 0 85 85 0 85 0 0 -85z m170 0 l0 -85 -80 0 -80 0 0 85 0 85 80 0
80 0 0 -85z m180 0 l0 -85 -85 0 -85 0 0 85 0 85 85 0 85 0 0 -85z m180 0 l0
-85 -85 0 -85 0 0 85 0 85 85 0 85 0 0 -85z m180 0 l0 -85 -85 0 -85 0 0 85 0
85 85 0 85 0 0 -85z"/>
<path d="M263 5595 c0 -44 2 -61 4 -37 2 23 2 59 0 80 -2 20 -4 1 -4 -43z"/>
<path d="M433 5595 c0 -44 2 -61 4 -37 2 23 2 59 0 80 -2 20 -4 1 -4 -43z"/>
<path d="M260 5230 c-3 -47 -4 -87 -3 -89 10 -15 13 18 11 90 l-3 84 -5 -85z"/>
<path d="M431 5228 c0 -49 3 -88 7 -88 4 0 6 33 4 73 -5 107 -10 114 -11 15z"/>
<path d="M138 5143 c17 -2 47 -2 65 0 17 2 3 4 -33 4 -36 0 -50 -2 -32 -4z"/>
<path d="M317 5143 c18 -2 50 -2 70 0 21 2 7 4 -32 4 -38 0 -55 -2 -38 -4z"/>
<path d="M498 5143 c17 -2 47 -2 65 0 17 2 3 4 -33 4 -36 0 -50 -2 -32 -4z"/>
<path d="M433 5060 c0 -41 2 -58 4 -37 2 20 2 54 0 75 -2 20 -4 3 -4 -38z"/>
<path d="M263 5055 c0 -38 2 -53 4 -32 2 20 2 52 0 70 -2 17 -4 1 -4 -38z"/>
<path d="M667 5143 c18 -2 50 -2 70 0 21 2 7 4 -32 4 -38 0 -55 -2 -38 -4z"/>
<path d="M847 5143 c18 -2 50 -2 70 0 21 2 7 4 -32 4 -38 0 -55 -2 -38 -4z"/>
<path d="M1027 5143 c18 -2 50 -2 70 0 21 2 7 4 -32 4 -38 0 -55 -2 -38 -4z"/>
<path d="M1218 5143 c18 -2 45 -2 60 0 15 2 0 4 -33 4 -33 0 -45 -2 -27 -4z"/>
<path d="M1388 5143 c17 -2 47 -2 65 0 17 2 3 4 -33 4 -36 0 -50 -2 -32 -4z"/>
<path d="M1568 5143 c17 -2 47 -2 65 0 17 2 3 4 -33 4 -36 0 -50 -2 -32 -4z"/>
<path d="M1737 5143 c18 -2 50 -2 70 0 21 2 7 4 -32 4 -38 0 -55 -2 -38 -4z"/>
<path d="M1923 5143 c20 -2 54 -2 75 0 20 2 3 4 -38 4 -41 0 -58 -2 -37 -4z"/>
<path d="M2097 5143 c18 -2 50 -2 70 0 21 2 7 4 -32 4 -38 0 -55 -2 -38 -4z"/>
<path d="M2277 5143 c18 -2 50 -2 70 0 21 2 7 4 -32 4 -38 0 -55 -2 -38 -4z"/>
<path d="M2447 5143 c18 -2 50 -2 70 0 21 2 7 4 -32 4 -38 0 -55 -2 -38 -4z"/>
<path d="M2627 5143 c18 -2 50 -2 70 0 21 2 7 4 -32 4 -38 0 -55 -2 -38 -4z"/>
<path d="M2807 5143 c18 -2 50 -2 70 0 21 2 7 4 -32 4 -38 0 -55 -2 -38 -4z"/>
<path d="M263 4885 c0 -44 2 -61 4 -37 2 23 2 59 0 80 -2 20 -4 1 -4 -43z"/>
<path d="M433 4885 c0 -44 2 -61 4 -37 2 23 2 59 0 80 -2 20 -4 1 -4 -43z"/>
<path d="M263 4705 c0 -44 2 -61 4 -37 2 23 2 59 0 80 -2 20 -4 1 -4 -43z"/>
<path d="M433 4705 c0 -44 2 -61 4 -37 2 23 2 59 0 80 -2 20 -4 1 -4 -43z"/>
<path d="M263 4520 c0 -41 2 -58 4 -37 2 20 2 54 0 75 -2 20 -4 3 -4 -38z"/>
<path d="M433 4520 c0 -41 2 -58 4 -37 2 20 2 54 0 75 -2 20 -4 3 -4 -38z"/>
<path d="M263 4350 c0 -41 2 -58 4 -37 2 20 2 54 0 75 -2 20 -4 3 -4 -38z"/>
<path d="M433 4350 c0 -41 2 -58 4 -37 2 20 2 54 0 75 -2 20 -4 3 -4 -38z"/>
<path d="M263 4175 c0 -44 2 -61 4 -37 2 23 2 59 0 80 -2 20 -4 1 -4 -43z"/>
<path d="M433 4175 c0 -44 2 -61 4 -37 2 23 2 59 0 80 -2 20 -4 1 -4 -43z"/>
<path d="M263 3990 c0 -41 2 -58 4 -37 2 20 2 54 0 75 -2 20 -4 3 -4 -38z"/>
<path d="M433 3990 c0 -41 2 -58 4 -37 2 20 2 54 0 75 -2 20 -4 3 -4 -38z"/>
<path d="M263 3815 c0 -44 2 -61 4 -37 2 23 2 59 0 80 -2 20 -4 1 -4 -43z"/>
<path d="M433 3815 c0 -44 2 -61 4 -37 2 23 2 59 0 80 -2 20 -4 1 -4 -43z"/>
<path d="M262 3638 l-2 -78 -82 0 c-45 0 -79 -2 -76 -5 3 -3 115 -6 248 -6
133 0 245 3 248 6 3 3 -31 5 -76 5 l-81 0 -4 78 -3 77 -2 -77 -2 -78 -80 0
-79 0 -4 78 -3 77 -2 -77z"/>
<path d="M263 3460 c0 -41 2 -58 4 -37 2 20 2 54 0 75 -2 20 -4 3 -4 -38z"/>
<path d="M433 3460 c0 -41 2 -58 4 -37 2 20 2 54 0 75 -2 20 -4 3 -4 -38z"/>
<path d="M1383 3553 c20 -2 54 -2 75 0 20 2 3 4 -38 4 -41 0 -58 -2 -37 -4z"/>
<path d="M1918 3553 c23 -2 59 -2 80 0 20 2 1 4 -43 4 -44 0 -61 -2 -37 -4z"/>
<path d="M2098 3553 c23 -2 59 -2 80 0 20 2 1 4 -43 4 -44 0 -61 -2 -37 -4z"/>
<path d="M2628 3553 c23 -2 59 -2 80 0 20 2 1 4 -43 4 -44 0 -61 -2 -37 -4z"/>
<path d="M2808 3553 c23 -2 59 -2 80 0 20 2 1 4 -43 4 -44 0 -61 -2 -37 -4z"/>
<path d="M263 3105 c0 -44 2 -61 4 -37 2 23 2 59 0 80 -2 20 -4 1 -4 -43z"/>
<path d="M433 3105 c0 -44 2 -61 4 -37 2 23 2 59 0 80 -2 20 -4 1 -4 -43z"/>
<path d="M263 2925 c0 -44 2 -61 4 -37 2 23 2 59 0 80 -2 20 -4 1 -4 -43z"/>
<path d="M433 2925 c0 -44 2 -61 4 -37 2 23 2 59 0 80 -2 20 -4 1 -4 -43z"/>
<path d="M262 2743 l-2 -82 -82 -4 c-46 -1 32 -3 172 -3 140 0 218 2 173 3
l-82 4 -4 82 -3 82 -2 -82 -2 -83 -80 0 -79 0 -4 83 -3 82 -2 -82z"/>
<path d="M263 2570 c0 -41 2 -58 4 -37 2 20 2 54 0 75 -2 20 -4 3 -4 -38z"/>
<path d="M433 2570 c0 -41 2 -58 4 -37 2 20 2 54 0 75 -2 20 -4 3 -4 -38z"/>
<path d="M111 2486 c8 -8 108 -10 116 -3 3 4 -22 7 -57 7 -35 0 -61 -2 -59 -4z"/>
<path d="M318 2483 c17 -2 47 -2 65 0 17 2 3 4 -33 4 -36 0 -50 -2 -32 -4z"/>
<path d="M480 2484 c34 -7 110 -9 110 -2 0 5 -28 7 -62 7 -35 -1 -56 -3 -48
-5z"/>
<path d="M433 2395 c0 -38 2 -53 4 -32 2 20 2 52 0 70 -2 17 -4 1 -4 -38z"/>
<path d="M655 2480 c7 -11 105 -9 105 3 0 4 -25 7 -56 7 -34 0 -53 -4 -49 -10z"/>
<path d="M858 2483 c18 -2 45 -2 60 0 15 2 0 4 -33 4 -33 0 -45 -2 -27 -4z"/>
<path d="M1028 2483 c17 -2 47 -2 65 0 17 2 3 4 -33 4 -36 0 -50 -2 -32 -4z"/>
<path d="M1218 2483 c18 -2 45 -2 60 0 15 2 0 4 -33 4 -33 0 -45 -2 -27 -4z"/>
<path d="M1563 2653 c20 -2 54 -2 75 0 20 2 3 4 -38 4 -41 0 -58 -2 -37 -4z"/>
<path d="M1543 2484 c7 -7 107 -7 115 0 3 3 -23 6 -58 6 -35 0 -61 -3 -57 -6z"/>
<path d="M1733 2653 c20 -2 54 -2 75 0 20 2 3 4 -38 4 -41 0 -58 -2 -37 -4z"/>
<path d="M2108 2483 c18 -2 45 -2 60 0 15 2 0 4 -33 4 -33 0 -45 -2 -27 -4z"/>
<path d="M2288 2483 c18 -2 45 -2 60 0 15 2 0 4 -33 4 -33 0 -45 -2 -27 -4z"/>
<path d="M1910 2484 c34 -7 108 -8 103 -1 -2 4 -30 6 -61 6 -31 -1 -50 -3 -42
-5z"/>
<path d="M2458 2483 c18 -2 45 -2 60 0 15 2 0 4 -33 4 -33 0 -45 -2 -27 -4z"/>
<path d="M2638 2483 c17 -2 47 -2 65 0 17 2 3 4 -33 4 -36 0 -50 -2 -32 -4z"/>
<path d="M2818 2483 c18 -2 45 -2 60 0 15 2 0 4 -33 4 -33 0 -45 -2 -27 -4z"/>
<path d="M433 2035 c0 -44 2 -61 4 -37 2 23 2 59 0 80 -2 20 -4 1 -4 -43z"/>
<path d="M263 1855 c0 -44 2 -61 4 -37 2 23 2 59 0 80 -2 20 -4 1 -4 -43z"/>
<path d="M433 1855 c0 -44 2 -61 4 -37 2 23 2 59 0 80 -2 20 -4 1 -4 -43z"/>
<path d="M263 1680 c0 -41 2 -58 4 -37 2 20 2 54 0 75 -2 20 -4 3 -4 -38z"/>
<path d="M433 1680 c0 -41 2 -58 4 -37 2 20 2 54 0 75 -2 20 -4 3 -4 -38z"/>
<path d="M1023 1403 c20 -2 54 -2 75 0 20 2 3 4 -38 4 -41 0 -58 -2 -37 -4z"/>
<path d="M258 1489 c-2 -45 0 -118 3 -163 4 -64 6 -46 7 82 2 170 -4 220 -10
81z"/>
<path d="M433 1410 c0 -119 2 -142 6 -82 3 45 3 119 0 165 -4 59 -6 36 -6 -83z"/>
<path d="M133 1403 c20 -2 54 -2 75 0 20 2 3 4 -38 4 -41 0 -58 -2 -37 -4z"/>
<path d="M318 1403 c17 -2 47 -2 65 0 17 2 3 4 -33 4 -36 0 -50 -2 -32 -4z"/>
<path d="M487 1403 c18 -2 50 -2 70 0 21 2 7 4 -32 4 -38 0 -55 -2 -38 -4z"/>
<path d="M673 1403 c20 -2 54 -2 75 0 20 2 3 4 -38 4 -41 0 -58 -2 -37 -4z"/>
<path d="M847 1403 c18 -2 50 -2 70 0 21 2 7 4 -32 4 -38 0 -55 -2 -38 -4z"/>
<path d="M1388 1403 c17 -2 47 -2 65 0 17 2 3 4 -33 4 -36 0 -50 -2 -32 -4z"/>
<path d="M1553 1403 c20 -2 54 -2 75 0 20 2 3 4 -38 4 -41 0 -58 -2 -37 -4z"/>
<path d="M1740 1409 c-25 -5 -15 -7 38 -8 39 0 72 1 72 3 0 8 -75 11 -110 5z"/>
<path d="M1917 1403 c18 -2 50 -2 70 0 21 2 7 4 -32 4 -38 0 -55 -2 -38 -4z"/>
<path d="M2098 1403 c17 -2 47 -2 65 0 17 2 3 4 -33 4 -36 0 -50 -2 -32 -4z"/>
<path d="M2277 1403 c18 -2 50 -2 70 0 21 2 7 4 -32 4 -38 0 -55 -2 -38 -4z"/>
<path d="M2447 1403 c18 -2 50 -2 70 0 21 2 7 4 -32 4 -38 0 -55 -2 -38 -4z"/>
<path d="M2627 1403 c18 -2 50 -2 70 0 21 2 7 4 -32 4 -38 0 -55 -2 -38 -4z"/>
<path d="M2807 1403 c18 -2 50 -2 70 0 21 2 7 4 -32 4 -38 0 -55 -2 -38 -4z"/>
<path d="M263 1150 c0 -41 2 -58 4 -37 2 20 2 54 0 75 -2 20 -4 3 -4 -38z"/>
<path d="M433 1150 c0 -41 2 -58 4 -37 2 20 2 54 0 75 -2 20 -4 3 -4 -38z"/>
<path d="M263 965 c0 -44 2 -61 4 -37 2 23 2 59 0 80 -2 20 -4 1 -4 -43z"/>
<path d="M433 965 c0 -44 2 -61 4 -37 2 23 2 59 0 80 -2 20 -4 1 -4 -43z"/>
<path d="M263 785 c0 -44 2 -61 4 -37 2 23 2 59 0 80 -2 20 -4 1 -4 -43z"/>
<path d="M433 785 c0 -44 2 -61 4 -37 2 23 2 59 0 80 -2 20 -4 1 -4 -43z"/>
<path d="M263 425 c0 -38 2 -53 4 -32 2 20 2 52 0 70 -2 17 -4 1 -4 -38z"/>
<path d="M433 425 c0 -38 2 -53 4 -32 2 20 2 52 0 70 -2 17 -4 1 -4 -38z"/>
<path d="M263 255 c0 -44 2 -61 4 -37 2 23 2 59 0 80 -2 20 -4 1 -4 -43z"/>
<path d="M433 255 c0 -44 2 -61 4 -37 2 23 2 59 0 80 -2 20 -4 1 -4 -43z"/>
<path d="M263 75 c0 -44 2 -61 4 -37 2 23 2 59 0 80 -2 20 -4 1 -4 -43z"/>
<path d="M433 75 c0 -44 2 -61 4 -37 2 23 2 59 0 80 -2 20 -4 1 -4 -43z"/>
</g>
</svg>
