<svg opacity=".08" xmlns="http://www.w3.org/2000/svg" width="400" height="761.333" viewBox="0 0 300 571" preserveAspectRatio="xMidYMid meet" xmlns:v="https://vecta.io/nano"><path d="M8.1.7c-.1.7-2 1.4-4.3 1.6l-4.3.4 4.3.1L8 3v8.4 8.5l-4.2.4-4.3.4 4.3.1L8 21v8.4 8.5l-4.2.4-4.3.4 4.3.1L8 39v16.9 17l-4.2.4-4.3.4 4.3.1L8 74v8.4 8.5l-4.2.4-4.3.4 4.3.1L8 92v8.4 8.5l-4.2.4-4.3.4 4.3.1 4.2.2v8.4 8.5l-4.2.4-4.3.4 4.3.1 4.2.2v7.9 8l-4.2.4-4.3.4 4.3.1 4.2.2v8.4 8.5l-4.2.4-4.3.4 4.3.1 4.2.2v8.4 8.5l-4.2.4-4.3.4 4.3.1 4.2.2v8.4 8.5l-4.2.4-4.3.4 4.3.1 4.2.2v7.9 8l-4.2.4-4.3.4 4.3.1 4.2.2v8.4 8.5l-4.2.4-4.3.4 4.3.1 4.2.2v8.4 8.5l-4.2.4-4.3.4 4.3.1 4.2.2v8.4 8.5l-4.2.4-4.3.4 4.3.1 4.2.2v8.4 8.5l-4.2.4-4.3.4 4.3.1 4.2.2v8.4 8.5l-4.2.4-4.3.4 4.3.1 4.2.2v16.9 17l-4.2.4-4.3.4 4.3.1 4.2.2v8.4 8.5l-4.2.4-4.3.4 4.3.1 4.2.2v8.4 8.5l-4.2.4-4.3.4 4.3.1 4.2.2v8.4 8.5l-4.2.4-4.3.4 4.3.1 4.2.2v8.4 8.5l-4.2.4-4.3.4 4.2.1 4.3.2-.1 16.9v17l-4.2.4-4.2.4 4.3.1 4.2.2v8.4 8.5l-4.2.4-4.3.4 4.3.1 4.2.2v8.4 8.5l-4.2.4-4.3.4 4.3.1 4.2.2v8.4 8.5l-4.2.4-4.3.4 4.3.1 4.2.2v8.4 8.5l-4.2.4-4.3.4 4.3.1 4.2.2v7.9 8l-4.2.4-4.3.4 4.3.1 4.2.2v8.4 8.5l-4.2.4-4.3.4 4.2.1 4.2.2.4 8.3.3 8.2.2-8.3.2-8.2h26 25.9l.4 8.2.3 8.3.2-8.3.2-8.2h8.5 8.4l.4 8.2.3 8.3.2-8.3.2-8.2h8.5 8.4l.4 8.2.3 8.3.2-8.3.2-8.2h8.5 8.4l.4 8.2.3 8.3.2-8.3.2-8.2h8.5 8.4l.4 8.2.3 8.3.2-8.3.2-8.2h8 7.9l.4 8.2.3 8.3.2-8.3.2-8.2h8.5 8.4l.4 8.2.3 8.3.2-8.3.2-8.2h8.5 8.4l.4 8.2.3 8.3.2-8.3.2-8.2h8.5 8.4l.4 8.3.3 8.2.2-8.3.2-8.2h8.5 8.4l.4 8.3.3 8.2.2-8.3.2-8.2h8 7.9l.4 8.2.3 8.3.2-8.3.2-8.2h8.5 8.4l.4 8.2.3 8.3.2-8.3.2-8.2h8.5 8.4l.4 8.2.3 8.3.2-8.3.2-8.2h8.5 8.4l.4 8.2.3 8.3.2-8.2.2-8.2 3.3-.4 3.2-.4-3.2-.1-3.3-.2v-8.4-8.5l3.3-.4 3.2-.4-3.2-.1-3.3-.2v-7.9-8l3.3-.4 3.2-.4-3.2-.1-3.3-.2v-8.4-8.5l3.3-.4 3.2-.4-3.2-.1-3.3-.2v-8.4-8.5l3.3-.4 3.2-.4-3.2-.1-3.3-.2v-8.4-8.5l3.3-.4 3.2-.4-3.2-.1-3.3-.2v-8.4-8.5l3.3-.4 3.2-.4-3.2-.1-3.3-.2v-16.9-17l3.3-.4 3.2-.4-3.2-.1-3.3-.2v-8.4-8.5l3.3-.4 3.2-.4-3.2-.1-3.3-.2v-8.4-8.5l3.3-.4 3.2-.4-3.2-.1-3.3-.2v-8.4-8.5l3.3-.4 3.2-.4-3.2-.1-3.3-.2v-8.4-8.5l3.3-.4 3.2-.4-3.2-.1-3.3-.2v-16.9-17l3.3-.4 3.2-.4-3.2-.1-3.3-.2v-8.4-8.5l3.3-.4 3.2-.4-3.2-.1-3.3-.2v-8.4-8.5l3.3-.4 3.2-.4-3.2-.1-3.3-.2v-8.4-8.5l3.3-.4 3.2-.4-3.2-.1-3.3-.2v-8.4-8.5l3.3-.4 3.2-.4-3.2-.1-3.3-.2v-8.4-8.5l3.3-.4 3.2-.4-3.2-.1-3.3-.2v-7.9-8l3.3-.4 3.2-.4-3.2-.1-3.3-.2v-8.4-8.5l3.3-.4 3.2-.4-3.2-.1-3.3-.2v-8.4-8.5l3.3-.4 3.2-.4-3.2-.1-3.3-.2v-8.4-8.5l3.3-.4 3.2-.4-3.2-.1-3.3-.2v-7.9-8l3.3-.4 3.2-.4-3.2-.1-3.3-.2v-8.4-8.5l3.3-.4 3.2-.4-3.2-.1-3.3-.2v-8.4-8.5l3.3-.4 3.2-.4-3.2-.1-3.3-.2v-8.4-8.5l3.3-.4 3.2-.4-3.2-.1-3.3-.2V56.1v-17l3.3-.4 3.2-.4-3.2-.1-3.3-.2v-8.4-8.5l3.3-.4 3.2-.4-3.2-.1-3.3-.2v-8.5V3l3.3-.1 3.2-.2-3-.4c-1.6-.3-3.3-1-3.7-1.6-.6-.9-.8-.9-.8 0S290.6 2 284.6 2c-5.8 0-8.6-.4-8.9-1.3-.4-1-.6-1-.6 0-.1.9-2.5 1.3-8.5 1.3-5.8 0-8.6-.4-8.9-1.3-.4-1-.6-1-.6 0-.1.9-2.5 1.3-8.5 1.3-5.8 0-8.6-.4-8.9-1.3-.4-1-.6-1-.6 0-.1.9-2.4 1.3-8 1.3-5.4 0-8.1-.4-8.4-1.3-.4-1-.6-1-.6 0-.1.9-2.5 1.3-8.5 1.3-5.8 0-8.6-.4-8.9-1.3-.4-1-.6-1-.6 0-.1.9-2.5 1.3-8.5 1.3-5.8 0-8.6-.4-8.9-1.3-.4-1-.6-1-.6 0-.1.9-2.5 1.3-8.5 1.3-5.8 0-8.6-.4-8.9-1.3-.4-1-.6-1-.6 0-.1.9-2.5 1.3-8.5 1.3-5.8 0-8.6-.4-8.9-1.3-.4-1-.6-1-.6 0-.1.9-2.4 1.3-8 1.3-5.4 0-8.1-.4-8.4-1.3-.4-1-.6-1-.6 0-.1.9-2.5 1.3-8.5 1.3-5.8 0-8.6-.4-8.9-1.3-.4-1-.6-1-.6 0-.1.9-2.5 1.3-8.5 1.3-5.8 0-8.6-.4-8.9-1.3-.4-1-.6-1-.6 0-.1.9-2.5 1.3-8.5 1.3-5.8 0-8.6-.4-8.9-1.3-.4-1-.6-1-.6 0-.1.9-2.5 1.3-8.5 1.3-5.8 0-8.6-.4-8.9-1.3-.4-1-.6-1-.6 0-.1 1-6 1.3-26 1.3C15.3 2 9 1.7 8.7.7c-.4-.9-.6-.9-.6 0zM61 11.5V20H35 9v-8.5V3h26 26v8.5zm18 0V20h-8.5H62v-8.5V3h8.5H79v8.5zm18 0V20h-8.5H80v-8.5V3h8.5H97v8.5zm18 0V20h-8.5H98v-8.5V3h8.5 8.5v8.5zm18 0V20h-8.5-8.5v-8.5V3h8.5 8.5v8.5zm17 0V20h-8-8v-8.5V3h8 8v8.5zm18 0V20h-8.5-8.5v-8.5V3h8.5 8.5v8.5zm18 0V20h-8.5-8.5v-8.5V3h8.5 8.5v8.5zm18 0V20h-8.5-8.5v-8.5V3h8.5 8.5v8.5zm18 0V20h-8.5-8.5v-8.5V3h8.5 8.5v8.5zm17 0V20h-8-8v-8.5V3h8 8v8.5zm18 0V20h-8.5-8.5v-8.5V3h8.5 8.5v8.5zm18 0V20h-8.5-8.5v-8.5V3h8.5 8.5v8.5zm18 0V20h-8.5-8.5v-8.5V3h8.5 8.5v8.5zm-232 18V38h-8.5H44l-.2-8.3-.2-8.2-.3 8.2-.4 8.3H35h-8l-.2-8.3-.2-8.2-.3 8.2-.4 8.3h-8.4H9v-8.5V21h26 26v8.5zm18 0V38h-8.5H62v-8.5V21h8.5H79v8.5zm18 0V38h-8.5H80v-8.5V21h8.5H97v8.5zm18 0V38h-8.5H98v-8.5V21h8.5 8.5v8.5zm18 0V38h-8.5-8.5v-8.5V21h8.5 8.5v8.5zm17 0V38h-8-8v-8.5V21h8 8v8.5zm18 0V38h-8.5-8.5v-8.5V21h8.5 8.5v8.5zm18 0V38h-8.5-8.5v-8.5V21h8.5 8.5v8.5zm18 0V38h-8.5-8.5v-8.5V21h8.5 8.5v8.5zm18 0V38h-8.5-8.5v-8.5V21h8.5 8.5v8.5zm17 0V38h-8-8v-8.5V21h8 8v8.5zm18 0V38h-8.5-8.5v-8.5V21h8.5 8.5v8.5zm18 0V38h-8.5-8.5v-8.5V21h8.5 8.5v8.5zm18 0V38h-8.5-8.5v-8.5V21h8.5 8.5v8.5zM61 56v17H35 9V56 39h26 26v17zm18 0v17h-8.5-8.4V56L62 39h8.5H79v17zm18 0v17h-8.5H80V56 39h8.5H97v17zm18 0v17h-8.5H98V56 39h8.5 8.5v17zm17.9 0v17h-8.4-8.5V56 39h8.5 8.4v17zm17.1 0v17h-8-8V56 39h8 8v17zm18 0v17h-8.5-8.5V56 39h8.5 8.5v17zm18 0v17h-8.5-8.5V56 39h8.5 8.5v17zm18 0v17h-8.5-8.5V56 39h8.5 8.5v17zm18 0v17h-8.5-8.5V56 39h8.5 8.5v17zm17 0v17h-8-8V56 39h8 8v17zm18 0v17h-8.5-8.5V56 39h8.5 8.5v17zm18 0v17h-8.5-8.5V56 39h8.5 8.5v17zm18 0v17h-8.5-8.5V56 39h8.5 8.5v17zM61 82.5V91H35 9v-8.5V74h26 26v8.5zm18 0V91h-8.5H62v-8.5V74h8.5H79v8.5zm18 0V91h-8.5H80v-8.5V74h8.5H97v8.5zm18 0V91h-8.5H98v-8.5V74h8.5 8.5v8.5zm18 0V91h-8.5-8.5v-8.5V74h8.5 8.5v8.5zm17 0V91h-8-8v-8.5V74h8 8v8.5zm18 0V91h-8.5-8.5v-8.5V74h8.5 8.5v8.5zm18 0V91h-8.5-8.5v-8.5V74h8.5 8.5v8.5zm18 0V91h-8.5-8.5v-8.5V74h8.5 8.5v8.5zm18 0V91h-8.5-8.5v-8.5V74h8.5 8.5v8.5zm17 0V91h-8-8v-8.5V74h8 8v8.5zm18 0V91h-8.5-8.5v-8.5V74h8.5 8.5v8.5zm18 0V91h-8.5-8.5v-8.5V74h8.5 8.5v8.5zm18 0V91h-8.5-8.5v-8.5V74h8.5 8.5v8.5zm-232 18v8.5H35 9v-8.5V92h26 26v8.5zm18 0v8.5h-8.5H62v-8.5V92h8.5H79v8.5zm18 0v8.5h-8.5H80v-8.5V92h8.5H97v8.5zm18 0v8.5h-8.5H98v-8.5V92h8.5 8.5v8.5zm18 0v8.5h-8.5-8.5v-8.5V92h8.5 8.5v8.5zm17 0v8.5h-8-8v-8.5V92h8 8v8.5zm18 0v8.5h-8.5-8.5v-8.5V92h8.5 8.5v8.5zm18 0v8.5h-8.5-8.5v-8.5V92h8.5 8.5v8.5zm18 0v8.5h-8.5-8.5v-8.5V92h8.5 8.5v8.5zm18 0v8.5h-8.5-8.5v-8.5V92h8.5 8.5v8.5zm17 0v8.5h-8-8v-8.5V92h8 8v8.5zm18 0v8.5h-8.5-8.5v-8.5V92h8.5 8.5v8.5zm18 0v8.5h-8.5-8.5v-8.5V92h8.5 8.5v8.5zm18 0v8.5h-8.5-8.5v-8.5V92h8.5 8.5v8.5zm-232 18v8.5H35 9v-8.5-8.5h26 26v8.5zm18 0v8.5h-8.5H62v-8.5-8.5h8.5H79v8.5zm18 0v8.5h-8.5H80v-8.5-8.5h8.5H97v8.5zm18 0v8.5h-8.5H98v-8.5-8.5h8.5 8.5v8.5zm18 0v8.5h-8.5-8.5v-8.5-8.5h8.5 8.5v8.5zm17 0v8.5h-8-8v-8.5-8.5h8 8v8.5zm18 0v8.5h-8.5-8.5v-8.5-8.5h8.5 8.5v8.5zm18 0v8.5h-8.5-8.5v-8.5-8.5h8.5 8.5v8.5zm18 0v8.5h-8.5-8.5v-8.5-8.5h8.5 8.5v8.5zm18 0v8.5h-8.5-8.5v-8.5-8.5h8.5 8.5v8.5zm17 0v8.5h-8-8v-8.5-8.5h8 8v8.5zm18 0v8.5h-8.5-8.5v-8.5-8.5h8.5 8.5v8.5zm18 0v8.5h-8.5-8.5v-8.5-8.5h8.5 8.5v8.5zm18 0v8.5h-8.5-8.5v-8.5-8.5h8.5 8.5v8.5zM61 136v8H35 9v-8-8h26 26v8zm18 0v8h-8.5H62v-8-8h8.5H79v8zm18 0v8h-8.5H80v-8-8h8.5H97v8zm18 0v8h-8.5H98v-8-8h8.5 8.5v8zm18 0v8h-8.5-8.5v-8-8h8.5 8.5v8zm17 0v8h-8-8v-8-8h8 8v8zm18 0v8h-8.5-8.5v-8-8h8.5 8.5v8zm18 0v8h-8.5-8.5v-8-8h8.5 8.5v8zm18 0v8h-8.5-8.5v-8-8h8.5 8.5v8zm18 0v8h-8.5-8.5v-8-8h8.5 8.5v8zm17 0v8h-8-8v-8-8h8 8v8zm18 0v8h-8.5-8.5v-8-8h8.5 8.5v8zm18 0v8h-8.5-8.5v-8-8h8.5 8.5v8zm18 0v8h-8.5-8.5v-8-8h8.5 8.5v8zM61 153.5v8.5H35 9v-8.5-8.5h26 26v8.5zm18 0v8.5h-8.5H62v-8.5-8.5h8.5H79v8.5zm18 0v8.5h-8.5H80v-8.5-8.5h8.5H97v8.5zm18 0v8.5h-8.5H98v-8.5-8.5h8.5 8.5v8.5zm18 0v8.5h-8.5-8.5v-8.5-8.5h8.5 8.5v8.5zm17 0v8.5h-8-8v-8.5-8.5h8 8v8.5zm18 0v8.5h-8.5-8.5v-8.5-8.5h8.5 8.5v8.5zm18 0v8.5h-8.5-8.5v-8.5-8.5h8.5 8.5v8.5zm18 0v8.5h-8.5-8.5v-8.5-8.5h8.5 8.5v8.5zm18 0v8.5h-8.5-8.5v-8.5-8.5h8.5 8.5v8.5zm17 0v8.5h-8-8v-8.5-8.5h8 8v8.5zm18 0v8.5h-8.5-8.5v-8.5-8.5h8.5 8.5v8.5zm18 0v8.5h-8.5-8.5v-8.5-8.5h8.5 8.5v8.5zm18 0v8.5h-8.5-8.5v-8.5-8.5h8.5 8.5v8.5zm-232 18v8.5H35 9v-8.5-8.5h26 26v8.5zm18 0v8.5h-8.5H62v-8.5-8.5h8.5H79v8.5zm18 0v8.5h-8.5H80v-8.5-8.5h8.5H97v8.5zm18 0v8.5h-8.5H98v-8.5-8.5h8.5 8.5v8.5zm18 0v8.5h-8.5-8.5v-8.5-8.5h8.5 8.5v8.5zm17 0v8.5h-8-8v-8.5-8.5h8 8v8.5zm18 0v8.5h-8.5-8.5v-8.5-8.5h8.5 8.5v8.5zm18 0v8.5h-8.5-8.5v-8.5-8.5h8.5 8.5v8.5zm18 0v8.5h-8.5-8.5v-8.5-8.5h8.5 8.5v8.5zm18 0v8.5h-8.5-8.5v-8.5-8.5h8.5 8.5v8.5zm17 0v8.5h-8-8v-8.5-8.5h8 8v8.5zm18 0v8.5h-8.5-8.5v-8.5-8.5h8.5 8.5v8.5zm18 0v8.5h-8.5-8.5v-8.5-8.5h8.5 8.5v8.5zm18 0v8.5h-8.5-8.5v-8.5-8.5h8.5 8.5v8.5zm-232 18v8.5H35 9v-8.5-8.5h26 26v8.5zm18 0v8.5h-8.5H62v-8.5-8.5h8.5H79v8.5zm18 0v8.5h-8.5H80v-8.5-8.5h8.5H97v8.5zm18 0v8.5h-8.5H98v-8.5-8.5h8.5 8.5v8.5zm18 0v8.5h-8.5-8.5v-8.5-8.5h8.5 8.5v8.5zm17 0v8.5h-8-8v-8.5-8.5h8 8v8.5zm18 0v8.5h-8.5-8.5v-8.5-8.5h8.5 8.5v8.5zm18 0v8.5h-8.5-8.5v-8.5-8.5h8.5 8.5v8.5zm18 0v8.5h-8.5-8.5v-8.5-8.5h8.5 8.5v8.5zm18 0v8.5h-8.5-8.5v-8.5-8.5h8.5 8.5v8.5zm17 0v8.5h-8-8v-8.5-8.5h8 8v8.5zm18 0v8.5h-8.5-8.5v-8.5-8.5h8.5 8.5v8.5zm18 0v8.5h-8.5-8.5v-8.5-8.5h8.5 8.5v8.5zm18 0v8.5h-8.5-8.5v-8.5-8.5h8.5 8.5v8.5zM61 216v17H35 9v-17-17h26 26v17zm18 0v17h-8.5H62v-8.5-8.5l8.3-.2 8.2-.2-8.2-.3-8.3-.4V207v-8h8.5H79v17zm18-9v8l-8.2.2-8.3.2 8.3.3 8.2.4v8.4 8.5h-8.5H80v-17-17h8.5H97v8zm18 0v8l-8.2.2-8.3.2 8.3.3 8.2.4v8.4 8.5h-8.5H98v-17-17h8.5 8.5v8zm18 0v8l-8.2.2-8.3.2 8.3.3 8.2.4v8.4 8.5h-8.5-8.5v-17-17h8.5 8.5v8zm17 9v17h-8-8v-17-17h8 8v17zm18-9v8l-8.2.2-8.3.2 8.3.3 8.2.4v8.4 8.5h-8.5-8.5v-17-17h8.5 8.5v8zm18 0v8l-8.2.2-8.3.2 8.3.3 8.2.4v8.4 8.5h-8.5-8.5v-17-17h8.5 8.5v8zm18 9v17h-8.5-8.5v-17-17h8.5 8.5v17zm18 0v17h-8.5-8.5v-17-17h8.5 8.5v17zm17 0v17h-8-8v-8.5-8.5l7.8-.2 7.7-.2-7.7-.3-7.8-.4V207v-8h8 8v17zm18-9v8l-8.2.2-8.3.2 8.3.3 8.2.4v8.4 8.5h-8.5-8.5v-17-17h8.5 8.5v8zm18 9v17h-8.5-8.5v-17-17h8.5 8.5v17zm18 0v17h-8.5-8.5v-17-17h8.5 8.5v17zM26.2 242.2l.2 8.3.3-8.3.4-8.2H35h8l.2 8.2.2 8.3.3-8.3.4-8.2h8.4H61v8.5 8.5H35 9v-8.5-8.5h8.5H26l.2 8.2zm52.8.3v8.5h-8.5H62v-8.5-8.5h8.5H79v8.5zm18 0v8.5h-8.5H80v-8.5-8.5h8.5H97v8.5zm18 0v8.5h-8.5H98v-8.5-8.5h8.5 8.5v8.5zm18 0v8.5h-8.5-8.5v-8.5-8.5h8.5 8.5v8.5zm17 0v8.5h-8-8v-8.5-8.5h8 8v8.5zm18 0v8.5h-8.5-8.5v-8.5-8.5h8.5 8.5v8.5zm18 0v8.5h-8.5-8.5v-8.5-8.5h8.5 8.5v8.5zm18 0v8.5h-8.5-8.5v-8.5-8.5h8.5 8.5v8.5zm18 0v8.5h-8.5-8.5v-8.5-8.5h8.5 8.5v8.5zm17 0v8.5h-8-8v-8.5-8.5h8 8v8.5zm18 0v8.5h-8.5-8.5v-8.5-8.5h8.5 8.5v8.5zm18 0v8.5h-8.5-8.5v-8.5-8.5h8.5 8.5v8.5zm18 0v8.5h-8.5-8.5v-8.5-8.5h8.5 8.5v8.5zm-232 18v8.5H35 9v-8.5-8.5h26 26v8.5zm18 0v8.5h-8.5H62v-8.5-8.5h8.5H79v8.5zm18 0v8.5h-8.5H80v-8.5-8.5h8.5H97v8.5zm18 0v8.5h-8.5H98v-8.5-8.5h8.5 8.5v8.5zm18 0v8.5h-8.5-8.5v-8.5-8.5h8.5 8.5v8.5zm17 0v8.5h-8-8v-8.5-8.5h8 8v8.5zm18 0v8.5h-8.5-8.5v-8.5-8.5h8.5 8.5v8.5zm18 0v8.5h-8.5-8.5v-8.5-8.5h8.5 8.5v8.5zm18 0v8.5h-8.5-8.5v-8.5-8.5h8.5 8.5v8.5zm18 0v8.5h-8.5-8.5v-8.5-8.5h8.5 8.5v8.5zm17 0v8.5h-8-8v-8.5-8.5h8 8v8.5zm18 0v8.5h-8.5-8.5v-8.5-8.5h8.5 8.5v8.5zm18 0v8.5h-8.5-8.5v-8.5-8.5h8.5 8.5v8.5zm18 0v8.5h-8.5-8.5v-8.5-8.5h8.5 8.5v8.5zm-232 18v8.5H35 9v-8.5-8.5h26 26v8.5zm18 0v8.5h-8.5H62v-8.5-8.5h8.5H79v8.5zm18 0v8.5h-8.5H80v-8.5-8.5h8.5H97v8.5zm18 0v8.5h-8.5H98v-8.5-8.5h8.5 8.5v8.5zm18 0v8.5h-8.5-8.5v-8.5-8.5h8.5 8.5v8.5zm17 0v8.5h-8-8v-8.5-8.5h8 8v8.5zm18 0v8.5h-8.5-8.5v-8.5-8.5h8.5 8.5v8.5zm18 0v8.5h-8.5-8.5v-8.5-8.5h8.5 8.5v8.5zm18 0v8.5h-8.5-8.5v-8.5-8.5h8.5 8.5v8.5zm18 0v8.5h-8.5-8.5v-8.5-8.5h8.5 8.5v8.5zm17 0v8.5h-8-8v-8.5-8.5h8 8v8.5zm18 0v8.5h-8.5-8.5v-8.5-8.5h8.5 8.5v8.5zm18 0v8.5h-8.5-8.5v-8.5-8.5h8.5 8.5v8.5zm18 0v8.5h-8.5-8.5v-8.5-8.5h8.5 8.5v8.5zM61 314v26H44 27l-.2-7.8-.2-7.7-.3 7.7-.4 7.8h-8.4H9v-26-26h26 26v26zm18 0v26h-8.5H62v-17-17l7.8-.2 7.7-.2-7.7-.3-7.8-.4v-8.4-8.5h8.5H79v26zm18 0v26h-8.5H80v-17-17l8.3-.2 8.2-.2-8.2-.3-8.3-.4v-8.4-8.5h8.5H97v26zm18 0v26h-8.5H98v-17-17l8.3-.2 8.2-.2-8.2-.3-8.3-.4v-8.4-8.5h8.5 8.5v26zm18-17.5v8.5l-8.2.2-8.3.2 8.3.3 8.2.4V323v17h-8.5-8.5v-26-26h8.5 8.5v8.5zm17 0v8.5h-8-8v-8.5-8.5h8 8v8.5zm18 17.5v26h-8.5-8.5v-26-26h8.5 8.5v26zm18 0v26h-8.5-8.5v-26-26h8.5 8.4l.1 26zm18-17.5v8.5h-8.5-8.5v-8.5-8.5h8.5 8.5v8.5zm18 17.5v26h-8.5-8.5v-17-17l8.3-.2 8.2-.2-8.2-.3-8.3-.4v-8.4-8.5h8.5 8.5v26zm17 0v26h-8-8v-17-17l7.3-.2 7.2-.2-7.2-.3-7.3-.4v-8.4-8.5h8 7.9l.1 26zm18-17.5v8.5h-8.5-8.5v-8.5-8.5h8.5 8.5v8.5zm18 0v8.5h-8.5-8.5v-8.5-8.5h8.5 8.5v8.5zm18 0v8.5h-8.5-8.5v-8.5-8.5h8.5 8.5v8.5zM150 323v17h-8-8v-17-17h8 8v17zm54 0v17h-8.5-8.5v-17-17h8.5 8.5v17zm53 0v17h-8.5-8.5v-17-17h8.5 8.5v17zm18 0v17h-8.5-8.5v-17-17h8.5 8.5v17zm18 0v17h-8.5-8.5v-17-17h8.5 8.5v17zM26.2 348.7l.2 7.8.3-7.8.4-7.7H35h8l.2 7.7.2 7.8.3-7.8.4-7.7h8.4H61v8.5 8.5H35 9v-8.5-8.5h8.5H26l.2 7.7zm52.8.8v8.5h-8.5H62v-8.5-8.5h8.5H79v8.5zm18 0v8.5h-8.5H80v-8.5-8.5h8.5H97v8.5zm18 0v8.5h-8.5H98v-8.5-8.5h8.5 8.5v8.5zm18 0v8.5h-8.5-8.5v-8.5-8.5h8.5 8.5v8.5zm17 0v8.5h-8-8v-8.5-8.5h8 8v8.5zm18 0v8.5h-8.5-8.5v-8.5-8.5h8.5 8.5v8.5zm18 0v8.5h-8.5-8.5v-8.5-8.5h8.5 8.5v8.5zm18 0v8.5h-8.5-8.5v-8.5-8.5h8.5 8.5v8.5zm18 0v8.5h-8.5-8.5v-8.5-8.5h8.5 8.5v8.5zm17 0v8.5h-8-8v-8.5-8.5h8 8v8.5zm18 0v8.5h-8.5-8.5v-8.5-8.5h8.5 8.5v8.5zm18 0v8.5h-8.5-8.5v-8.5-8.5h8.5 8.5v8.5zm18 0v8.5h-8.5-8.5v-8.5-8.5h8.5 8.5v8.5zM26.2 367.2l.2 8.3.3-8.3.4-8.2H44h17v8.5 8.5H35 9v-8.5-8.5h8.5H26l.2 8.2zm52.8.3v8.5h-8.5H62v-8.5-8.5h8.5H79v8.5zm18 0v8.5h-8.5H80v-8.5-8.5h8.5H97v8.5zm18 0v8.5h-8.5H98v-8.5-8.5h8.5 8.5v8.5zm18 0v8.5h-8.5-8.5v-8.5-8.5h8.5 8.5v8.5zm17 0v8.5h-8-8v-8.5-8.5h8 8v8.5zm18 0v8.5h-8.5-8.5v-8.5-8.5h8.5 8.5v8.5zm18 0v8.5h-8.5-8.5v-8.5-8.5h8.5 8.5v8.5zm18 0v8.5h-8.5-8.5v-8.5-8.5h8.5 8.5v8.5zm18 0v8.5h-8.5-8.5v-8.5-8.5h8.5 8.5v8.5zm17 0v8.5h-8-8v-8.5-8.5h8 8v8.5zm18 0v8.5h-8.5-8.5v-8.5-8.5h8.5 8.5v8.5zm18 0v8.5h-8.5-8.5v-8.5-8.5h8.5 8.5v8.5zm18 0v8.5h-8.5-8.5v-8.5-8.5h8.5 8.5v8.5zm-232 18v8.5H35 9v-8.5-8.5h26 26v8.5zm18 0v8.5h-8.5H62v-8.5-8.5h8.5H79v8.5zm18 0v8.5h-8.5H80v-8.5-8.5h8.5H97v8.5zm18 0v8.5h-8.5H98v-8.5-8.5h8.5 8.5v8.5zm18 0v8.5h-8.5-8.5v-8.5-8.5h8.5 8.5v8.5zm17 0v8.5h-8-8v-8.5-8.5h8 8v8.5zm18 0v8.5h-8.5-8.5v-8.5-8.5h8.5 8.5v8.5zm18 0v8.5h-8.5-8.5v-8.5-8.5h8.5 8.5v8.5zm18 0v8.5h-8.5-8.5v-8.5-8.5h8.5 8.5v8.5zm18 0v8.5h-8.5-8.5v-8.5-8.5h8.5 8.5v8.5zm17 0v8.5h-8-8v-8.5-8.5h8 8v8.5zm18 0v8.5h-8.5-8.5v-8.5-8.5h8.5 8.5v8.5zm18 0v8.5h-8.5-8.5v-8.5-8.5h8.5 8.5v8.5zm18 0v8.5h-8.5-8.5v-8.5-8.5h8.5 8.5v8.5zm-232 18v8.4H35 9v-8.4-8.5h26 26v8.5zm18 0v8.5h-8.5H62v-8.5-8.5h8.5H79v8.5zm18 0v8.5h-8.5H80v-8.5-8.5h8.5H97v8.5zm18 17.5l-.1 26h-8.4H98v-17-17l8.3-.2 8.2-.2-8.2-.3-8.3-.4v-8.4-8.5h8.5 8.5v26zm18-17.5v8.5h-8.5-8.5v-8.5-8.5h8.5 8.5v8.5zm17 0v8.5h-8-8v-8.5-8.5h8 8v8.5zm18 0v8.5h-8.5-8.5v-8.5-8.5h8.5 8.5v8.5zm18 0v8.5h-8.5-8.5v-8.5-8.5h8.5 8.5v8.5zm18 0v8.5h-8.5-8.5v-8.5-8.5h8.5 8.5v8.5zm18 0v8.5h-8.5-8.5v-8.5-8.5h8.5 8.5v8.5zm17 0v8.5h-8-8v-8.5-8.5h8 8v8.5zm18 0v8.5h-8.5-8.5v-8.5-8.5h8.5 8.5v8.5zm18 0v8.5h-8.5-8.5v-8.5-8.5h8.5 8.5v8.5zm18 0v8.5h-8.5-8.5v-8.5-8.5h8.5 8.5v8.5zM60.9 430v17H35 9v-17-17h26 26l-.1 17zm18.1 0v17h-8.5-8.4v-17l-.1-17h8.5H79v17zm18 0v17h-8.5H80v-17-17h8.5H97v17zm36-8.5v8.5l-7.7.2-7.8.2 7.8.3 7.7.4v7.9 8h-8.5-8.5v-17-17h8.5 8.5v8.5zm17 8.5v17h-8-8v-17-17h8 8v17zm17.9 0v17h-8.4-8.5v-17-17h8.5 8.5l-.1 17zm18.1 0v17h-8.5-8.5v-17-17h8.5 8.5v17zm18 0v17h-8.5-8.5v-17-17h8.5 8.5v17zm18 0v17h-8.5-8.5v-17-17h8.5 8.5v17zm17 0v17h-8-8v-17-17h8 8v17zm18 0v17h-8.5-8.5v-17-17h8.5 8.5v17zm18 0v17h-8.5-8.5v-17-17h8.5 8.5v17zm18 0v17h-8.5-8.5v-17-17h8.5 8.5v17zM61 456.5v8.4l-26 .1H9v-8.5-8.5h26 26v8.5zm18 0v8.5h-8.5H62v-8.5-8.5h8.5H79v8.5zm18 0v8.5h-8.5H80v-8.5-8.5h8.5H97v8.5zm18 0v8.5h-8.5H98v-8.5-8.5h8.5 8.5v8.5zm18 0v8.5h-8.5-8.5v-8.5-8.5h8.5 8.5v8.5zm17 0v8.5h-8-8v-8.5-8.5h8 8v8.5zm18 0v8.5h-8.5-8.5v-8.5-8.5h8.5 8.5v8.5zm18 0v8.5h-8.5-8.5v-8.5-8.5h8.5 8.5v8.5zm18 0v8.5h-8.5-8.5v-8.5-8.5h8.5 8.5v8.5zm18 0v8.5h-8.5-8.5v-8.5-8.5h8.5 8.5v8.5zm17 0v8.5h-8-8v-8.5-8.5h8 8v8.5zm18 0v8.5h-8.5-8.5v-8.5-8.5h8.5 8.5v8.5zm18 0v8.5h-8.5-8.5v-8.5-8.5h8.5 8.5v8.5zm18 0v8.5h-8.5-8.5v-8.5-8.5h8.5 8.5v8.5zm-232 18v8.5H35 9v-8.5-8.5h26 26v8.5zm18 0v8.5h-8.5H62v-8.5-8.5h8.5H79v8.5zm18 0v8.5h-8.5H80v-8.5-8.5h8.5H97v8.5zm18 0v8.5h-8.5H98v-8.5-8.5h8.5 8.5v8.5zm18 0v8.5h-8.5-8.5v-8.5-8.5h8.5 8.5v8.5zm17 0v8.5h-8-8v-8.5-8.5h8 8v8.5zm18 0v8.5h-8.5-8.5v-8.5-8.5h8.5 8.5v8.5zm18 0v8.5h-8.5-8.5v-8.5-8.5h8.5 8.5v8.5zm18 0v8.5h-8.5-8.5v-8.5-8.5h8.5 8.5v8.5zm18 0v8.5h-8.5-8.5v-8.5-8.5h8.5 8.5v8.5zm17 0v8.5h-8-8v-8.5-8.5h8 8v8.5zm18 0v8.5h-8.5-8.5v-8.5-8.5h8.5 8.5v8.5zm18 0v8.5h-8.5-8.5v-8.5-8.5h8.5 8.5v8.5zm18 0v8.5h-8.5-8.5v-8.5-8.5h8.5 8.5v8.5zm-232 18v8.5H35 9v-8.5-8.5h26 26v8.5zm18 0v8.5h-8.5H62v-8.5-8.5h8.5H79v8.5zm18 0v8.5h-8.5H80v-8.5-8.5h8.5H97v8.5zm18 0v8.5h-8.5H98v-8.5-8.5h8.5 8.5v8.5zm18 0v8.5h-8.5-8.5v-8.5-8.5h8.5 8.5v8.5zm17 0v8.5h-8-8v-8.5-8.5h8 8v8.5zm18 0v8.5h-8.5-8.5v-8.5-8.5h8.5 8.5v8.5zm18 0v8.5h-8.5-8.5v-8.5-8.5h8.5 8.5v8.5zm18 0v8.5h-8.5-8.5v-8.5-8.5h8.5 8.5v8.5zm18 0v8.5h-8.5-8.5v-8.5-8.5h8.5 8.5v8.5zm17 0v8.5h-8-8v-8.5-8.5h8 8v8.5zm18 0v8.5h-8.5-8.5v-8.5-8.5h8.5 8.5v8.5zm18 0v8.5h-8.5-8.5v-8.5-8.5h8.5 8.5v8.5zm18 0v8.5h-8.5-8.5v-8.5-8.5h8.5 8.5v8.5zm-232 18v8.5h-8.5H44l-.2-8.3-.2-8.2-.3 8.2-.4 8.3H35h-8l-.2-8.3-.2-8.2-.3 8.2-.4 8.3h-8.4H9v-8.5-8.5h26 26v8.5zm18 0v8.5h-8.5H62v-8.5-8.5h8.5H79v8.5zm18 0v8.5h-8.5H80v-8.5-8.5h8.5H97v8.5zm18 0v8.5h-8.5H98v-8.5-8.5h8.5 8.5v8.5zm18 0v8.5h-8.5-8.5v-8.5-8.5h8.5 8.5v8.5zm17 0v8.5h-8-8v-8.5-8.5h8 8v8.5zm18 0v8.5h-8.5-8.5v-8.5-8.5h8.5 8.5v8.5zm18 0v8.5h-8.5-8.5v-8.5-8.5h8.5 8.5v8.5zm18 0v8.5h-8.5-8.5v-8.5-8.5h8.5 8.5v8.5zm18 0v8.5h-8.5-8.5v-8.5-8.5h8.5 8.5v8.5zm17 0v8.5h-8-8v-8.5-8.5h8 8v8.5zm18 0v8.5h-8.5-8.5v-8.5-8.5h8.5 8.5v8.5zm18 0v8.5h-8.5-8.5v-8.5-8.5h8.5 8.5v8.5zm18 0v8.5h-8.5-8.5v-8.5-8.5h8.5 8.5v8.5zM61 528v8H35 9v-8-8h26 26v8zm18 0v8h-8.5H62v-8-8h8.5H79v8zm18 0v8h-8.5H80v-8-8h8.5H97v8zm18 0v8h-8.5H98v-8-8h8.5 8.5v8zm18 0v8h-8.5-8.5v-8-8h8.5 8.5v8zm17 0v8h-8-8v-8-8h8 8v8zm18 0v8h-8.5-8.5v-8-8h8.5 8.5v8zm18 0v8h-8.5-8.5v-8-8h8.5 8.5v8zm18 0v8h-8.5-8.5v-8-8h8.5 8.5v8zm18 0v8h-8.5-8.5v-8-8h8.5 8.5v8zm17 0v8h-8-8v-8-8h8 8v8zm18 0v8h-8.5-8.5v-8-8h8.5 8.5v8zm18 0v8h-8.5-8.5v-8-8h8.5 8.5v8zm18 0v8h-8.5-8.5v-8-8h8.5 8.5v8zM61 545.5v8.5H35 9v-8.5-8.5h26 26v8.5zm18 0v8.5h-8.5H62v-8.5-8.5h8.5H79v8.5zm18 0v8.5h-8.5H80v-8.5-8.5h8.5H97v8.5zm18 0v8.5h-8.5H98v-8.5-8.5h8.5 8.5v8.5zm18 0v8.5h-8.5-8.5v-8.5-8.5h8.5 8.5v8.5zm17 0v8.5h-8-8v-8.5-8.5h8 8v8.5zm18 0v8.5h-8.5-8.5v-8.5-8.5h8.5 8.5v8.5zm18 0v8.5h-8.5-8.5v-8.5-8.5h8.5 8.5v8.5zm18 0v8.5h-8.5-8.5v-8.5-8.5h8.5 8.5v8.5zm18 0v8.5h-8.5-8.5v-8.5-8.5h8.5 8.5v8.5zm17 0v8.5h-8-8v-8.5-8.5h8 8v8.5zm18 0v8.5h-8.5-8.5v-8.5-8.5h8.5 8.5v8.5zm18 0v8.5h-8.5-8.5v-8.5-8.5h8.5 8.5v8.5zm18 0v8.5h-8.5-8.5v-8.5-8.5h8.5 8.5v8.5z"/><use href="#B"/><use href="#B" x="17"/><path d="M26 48l-.3 8.9c1 1.5 1.3-1.8 1.1-9l-.3-8.4L26 48zm17.1.2c0 4.9.3 8.8.7 8.8s.6-3.3.4-7.3c-.5-10.7-1-11.4-1.1-1.5z"/><use href="#C"/><use href="#D"/><use href="#C" x="36"/><use href="#E"/><use href="#F"/><use href="#D" x="35"/><use href="#D" x="53"/><use href="#D" x="71"/><use href="#G"/><use href="#C" x="125"/><use href="#C" x="143"/><use href="#D" x="142"/><use href="#H"/><use href="#D" x="178"/><use href="#D" x="196"/><use href="#D" x="213"/><use href="#D" x="231"/><use href="#D" x="249"/><use href="#B" y="71"/><use href="#B" x="17" y="71"/><use href="#B" y="89"/><use href="#B" x="17" y="89"/><use href="#E" x="-17" y="54"/><use href="#E" y="54"/><use href="#E" x="-17" y="71"/><use href="#E" y="71"/><use href="#B" y="142"/><use href="#B" x="17" y="142"/><use href="#E" x="-17" y="107"/><use href="#E" y="107"/><use href="#B" y="178"/><use href="#B" x="17" y="178"/><path d="M26.2 207.2L26 215h-8.2c-4.5 0-7.9.2-7.6.5s11.5.6 24.8.6 24.5-.3 24.8-.6-3.1-.5-7.6-.5h-8.1l-.4-7.8-.3-7.7-.2 7.7-.2 7.8h-8-7.9l-.4-7.8-.3-7.7-.2 7.7z"/><use href="#E" x="-17" y="160"/><use href="#E" y="160"/><use href="#H" x="-54" y="159"/><use href="#I"/><use href="#I" x="18"/><use href="#I" x="71"/><use href="#I" x="89"/><use href="#B" y="249"/><use href="#B" x="17" y="249"/><use href="#B" y="267"/><use href="#B" x="17" y="267"/><path d="M26.2 296.7l-.2 8.2-8.2.4c-4.6.1 3.2.3 17.2.3s21.8-.2 17.3-.3l-8.2-.4-.4-8.2-.3-8.2-.2 8.2-.2 8.3h-8-7.9l-.4-8.3-.3-8.2-.2 8.2z"/><use href="#E" x="-17" y="249"/><use href="#E" y="249"/><path d="M11.1 322.4c.8.8 10.8 1 11.6.3.3-.4-2.2-.7-5.7-.7s-6.1.2-5.9.4z"/><use href="#C" x="18" y="266"/><path d="M48 322.6c3.4.7 11 .9 11 .2 0-.5-2.8-.7-6.2-.7-3.5.1-5.6.3-4.8.5z"/><use href="#F" x="17" y="266"/><path d="M65.5 323c.7 1.1 10.5.9 10.5-.3 0-.4-2.5-.7-5.6-.7-3.4 0-5.3.4-4.9 1z"/><use href="#G" x="-36" y="266"/><use href="#C" x="89" y="266"/><use href="#G" y="266"/><use href="#H" x="-36" y="249"/><path d="M154.3 322.6c.7.7 10.7.7 11.5 0 .3-.3-2.3-.6-5.8-.6s-6.1.3-5.7.6z"/><use href="#H" x="-19" y="249"/><use href="#G" x="89" y="266"/><use href="#G" x="107" y="266"/><path d="M191 322.6c3.4.7 10.8.8 10.3.1-.2-.4-3-.6-6.1-.6-3.1.1-5 .3-4.2.5z"/><use href="#G" x="124" y="266"/><use href="#C" x="250" y="266"/><use href="#G" x="160" y="266"/><use href="#B" x="17" y="356"/><use href="#B" y="374"/><use href="#B" x="17" y="374"/><use href="#E" x="-17" y="338"/><use href="#E" y="338"/><use href="#H" x="-90" y="374"/><path d="M25.8 422.1c-.2 4.5 0 11.8.3 16.3.4 6.4.6 4.6.7-8.2.2-17-.4-22-1-8.1zm17.5 7.9c0 11.9.2 14.2.6 8.2.3-4.5.3-11.9 0-16.5-.4-5.9-.6-3.6-.6 8.3z"/><use href="#H" x="-179" y="374"/><use href="#C" x="18" y="374"/><use href="#D" x="17" y="374"/><use href="#H" x="-125" y="374"/><use href="#D" x="53" y="374"/><use href="#C" x="125" y="374"/><use href="#H" x="-37" y="374"/><path d="M174 430.1c-2.5.5-1.5.7 3.8.8l7.2-.3c0-.8-7.5-1.1-11-.5z"/><use href="#D" x="160" y="374"/><use href="#C" x="196" y="374"/><use href="#D" x="196" y="374"/><use href="#D" x="213" y="374"/><use href="#D" x="231" y="374"/><use href="#D" x="249" y="374"/><use href="#E" x="-17" y="391"/><use href="#E" y="391"/><use href="#B" y="463"/><use href="#B" x="17" y="463"/><use href="#B" y="481"/><use href="#B" x="17" y="481"/><use href="#F" y="463"/><use href="#F" x="17" y="463"/><use href="#B" y="534"/><use href="#B" x="17" y="534"/><use href="#B" y="552"/><use href="#B" x="17" y="552"/><defs ><path id="B" d="M26.3 11.5c0 4.4.2 6.1.4 3.7.2-2.3.2-5.9 0-8-.2-2-.4-.1-.4 4.3z"/><path id="C" d="M13.8 56.7c1.7.2 4.7.2 6.5 0 1.7-.2.3-.4-3.3-.4s-5 .2-3.2.4z"/><path id="D" d="M31.7 56.7c1.8.2 5 .2 7 0 2.1-.2.7-.4-3.2-.4-3.8 0-5.5.2-3.8.4z"/><path id="E" d="M43.3 65c0 4.1.2 5.8.4 3.7a46.95 46.95 0 0 0 0-7.5c-.2-2-.4-.3-.4 3.8z"/><path id="F" d="M26.3 65.5c0 3.8.2 5.3.4 3.2.2-2 .2-5.2 0-7-.2-1.7-.4-.1-.4 3.8z"/><path id="G" d="M121.8 56.7c1.8.2 4.5.2 6 0s0-.4-3.3-.4-4.5.2-2.7.4z"/><path id="H" d="M192.3 56.7a46.95 46.95 0 0 0 7.5 0c2-.2.3-.4-3.8-.4s-5.8.2-3.7.4z"/><path id="I" d="M191.8 215.7c2.3.2 5.9.2 8 0 2-.2.1-.4-4.3-.4s-6.1.2-3.7.4z"/></defs></svg>
