<svg xmlns="http://www.w3.org/2000/svg" opacity=".03" version="1.0" viewBox="0 0 450 450">
  <path d="M9.8.7c5.7.2 14.7.2 20 0 5.3-.1.7-.3-10.3-.3S4.1.6 9.8.7zM42.2 8l.3 8H21.3C3 16 0 16.2 0 17.5 0 18.7 1.3 19 6 19h6v21H6c-5.4 0-6 .2-6 2 0 2 .5 2.1 21.1 2l21-.2.2 10.6.2 10.6H21.3C3 65 0 65.2 0 66.5 0 67.7 1.3 68 6 68h6v21H6c-4.6 0-6 .3-6 1.5s3.3 1.5 21.1 1.7l21.1.3v21l-21.1.3c-17.8.2-21.1.5-21.1 1.7s1.4 1.5 6 1.5h6v21H6c-4.7 0-6 .3-6 1.5 0 1.3 3 1.5 21.3 1.5h21.2l-.2 10.6-.2 10.6-21-.2C.2 161.9 0 162 0 164.1c0 1.9.4 2.1 6 1.7l6-.3V187H6c-4.7 0-6 .3-6 1.5 0 1.3 3 1.5 21.3 1.5h21.2v21H21.3c-19.6 0-21.3.1-21.3 1.7 0 1.6.8 1.8 6 1.5l6-.4V236H6c-4.7 0-6 .3-6 1.5 0 1.3 3 1.5 21.3 1.5h21.2v21H21.3C3 260 0 260.2 0 261.5c0 1.2 1.3 1.5 6 1.5h6v21.5l-6-.3c-5.5-.4-6-.2-6 1.7 0 2.1.4 2.1 21.3 2.1h21.2v21H21.3C3 309 0 309.2 0 310.5c0 1.2 1.3 1.5 6 1.5h6v21H6c-5.2 0-6 .3-6 1.9 0 1.7 1.1 1.8 21.1 1.8h21.1v20.8l-21.1.3c-17.8.2-21.1.5-21.1 1.7s1.4 1.5 6 1.5h6v21H6c-4.6 0-6 .3-6 1.5s3.3 1.5 21.1 1.7l21.1.3V406.2l-21.1-.1C.4 405.9 0 405.9 0 407.9c0 1.9.6 2.1 6 2.1h6v21H6c-4.7 0-6 .3-6 1.5 0 1.3 3 1.5 21.3 1.5h21.2l-.3 8c-.4 7.6-.3 8 1.7 8s2.1-.5 2.1-8v-8h57v8c0 6.4.3 8 1.5 8s1.5-1.6 1.5-8v-8h57v8c0 6.4.3 8 1.5 8s1.5-1.6 1.5-8v-8h57v8c0 7.5.1 8 2.1 8s2.1-.4 1.7-8l-.3-8H284v8c0 6.4.3 8 1.5 8s1.5-1.6 1.5-8v-8h57v8c0 6.4.3 8 1.5 8s1.5-1.6 1.5-8v-8h57v8c0 7.5.1 8 2.1 8 2.1 0 2.2-.3 1.6-8l-.5-8h21.4c18.4 0 21.4-.2 21.4-1.5 0-1.2-1.3-1.5-6-1.5h-6v-21h6c5.4 0 6-.2 6-2.1 0-2-.4-2-21.2-1.8l-21.2.1v-10.6l-.1-10.6h21.3c18.2 0 21.2-.2 21.2-1.5 0-1.2-1.3-1.5-6-1.5h-6v-21h6c4.7 0 6-.3 6-1.5 0-1.3-3-1.5-21.2-1.5h-21.3l.1-10.7.1-10.6h21.2c20 0 21.1-.1 21.1-1.8 0-1.6-.8-1.9-6-1.9h-6v-21h6c4.7 0 6-.3 6-1.5 0-1.3-3-1.5-21.2-1.5h-21.3v-21h21.3c20.8 0 21.2 0 21.2-2.1 0-1.9-.5-2.1-6-1.7l-6 .3V263h6c4.7 0 6-.3 6-1.5 0-1.3-3-1.5-21.2-1.5h-21.3v-21h21.3c18.2 0 21.2-.2 21.2-1.5 0-1.2-1.3-1.5-6-1.5h-6v-22.2l6 .4c5.2.3 6 .1 6-1.5s-1.7-1.7-21.2-1.7h-21.3v-21h21.3c18.2 0 21.2-.2 21.2-1.5 0-1.2-1.3-1.5-6-1.5h-6v-21.5l6 .3c5.6.4 6 .2 6-1.7 0-2.1-.2-2.2-21.1-2.1l-21.2.2-.1-10.6-.1-10.6h21.3c18.2 0 21.2-.2 21.2-1.5 0-1.2-1.3-1.5-6-1.5h-6v-21h6c4.6 0 6-.3 6-1.5s-3.3-1.5-21.2-1.7l-21.1-.3v-21l21.1-.3c17.9-.2 21.2-.5 21.2-1.7s-1.4-1.5-6-1.5h-6V68h6c4.7 0 6-.3 6-1.5 0-1.3-3-1.5-21.2-1.5h-21.3l.1-10.6V43.8l21.2.2c20.7.1 21.2 0 21.2-2 0-1.8-.6-2-6-2h-6V19h6c4.7 0 6-.3 6-1.5 0-1.3-3-1.5-21.3-1.5h-21.3l.3-8c.2-7.4.1-8-1.7-8s-2 .7-2 8v8h-57V8c0-6.4-.3-8-1.5-8S344 1.6 344 8v8h-57V8c0-6.4-.3-8-1.5-8S284 1.6 284 8v8h-57.5l.3-8c.4-7.6.3-8-1.7-8s-2.1.5-2.1 8v8h-57V8c0-6.4-.3-8-1.5-8S163 1.6 163 8v8h-57V8c0-6.4-.3-8-1.5-8S103 1.6 103 8v8H46V8c0-7.5-.1-8-2.1-8s-2.1.4-1.7 8zM73 29.5V40H15.5V19H73v10.5zm60 0V40H76V19h57v10.5zm60 0V40h-57V19h57v10.5zm60.5 0V40H196V19h57.5v10.5zm60.5 0V40h-57V19h57v10.5zm60 0V40h-57V19h57v10.5zm60.5 0V40H377V19h57.5v10.5zm-331.7 25 .3 10.5H46V43.5l28.2.2 28.3.2.3 10.6zm60.2-.3V65h-57V43.5h57v10.7zm60 0V65h-57V54.7c0-5.7.2-10.6.4-10.8.2-.2 13.1-.4 28.5-.4H223v10.7zm60.8.3.3 10.5h-57.6l.2-10.7c.1-6 .3-10.8.3-10.8s12.7.1 28.2.2l28.3.2.3 10.6zm60.2-.3V65h-57V43.5h57v10.7zm60 0V65h-57V54.7c0-5.7.2-10.6.4-10.8.2-.2 13.1-.4 28.5-.4H404v10.7zM73 78.5V89H15.5V68H73v10.5zm60 0V89H76V68h57v10.5zm60 0V89h-57V68h57v10.5zm60.5 0V89H196V68h57.5v10.5zm60.5 0V89h-57V68h57v10.5zm60 0V89h-57V68h57v10.5zm60.5 0V89H377V68h57.5v10.5zM103 103v11H46V92h57v11zm60 0v11h-57V92h57v11zm60 0v11h-57V92h57v11zm61 0v11l-28.6-.2-28.6-.3.1-10.3c0-5.6 0-10.4.1-10.7 0-.3 12.8-.5 28.5-.5H284v11zm60 0v11h-57V92h57v11zm60 0v11h-57V92h57v11zM73 127.5V138H15.5v-21H73v10.5zm60 0V138H76v-21h57v10.5zm60 0V138h-57v-21h57v10.5zm60.5 0V138H196v-21h57.5v10.5zm60.5 0V138h-57v-21h57v10.5zm60 0V138h-57v-21h57v10.5zm60.5 0V138H377v-21h57.5v10.5zm-331.5 24v10.4l-28.5.3-28.5.3V141h57v10.5zm60 .2v10.8h-57V141h57v10.7zm60 0v10.8l-28.5-.3-28.5-.3V141h57v10.7zm61-.2V162h-56.6c-.3 0-.6-4.7-.7-10.5l-.2-10.5H284v10.5zm60 .2v10.8h-57V141h57v10.7zm60 0v10.8l-28.5-.3-28.5-.3V141h57v10.7zM73 176.5V187H15.5l.2-10.7c.1-6 .2-10.8.3-10.8 0 0 12.8.1 28.5.3l28.5.3v10.4zm60 0V187H76v-21.5l28.5.3 28.5.3v10.4zm60-.5v11h-57v-21l28.3-.3c15.5-.1 28.3-.3 28.5-.5.1-.1.2 4.7.2 10.8zm121 .5V187h-57v-21.5l28.5.3 28.5.3v10.4zm60-.3V187h-57v-21.5h57v10.7zm60.4.2.1 10.6H377v-21l28.3-.2c15.5-.2 28.4-.2 28.6-.1.2.1.4 4.9.5 10.7zm-180.9.1V187H196v-21h57.5v10.5zm-150.5 24V211H46v-21h57v10.5zm60 0V211h-57v-21h57v10.5zm60 0V211h-57v-21h57v10.5zm61 0V211h-57.5v-21H284v10.5zm60 0V211h-57v-21h57v10.5zm60 0V211h-57v-21h57v10.5zM72.8 225.3l.3 10.7-28.7-.2-28.6-.3v-10.3c.1-5.6.1-10.4.1-10.7.1-.3 12.8-.4 28.4-.3l28.2.3.3 10.8zm60.2-.3v11H76v-22h57v11zm60 0v11h-57v-22h57v11zm60.2 0v10.5l-28.6.3-28.6.2v-10.3c0-5.7.3-10.7.7-11 .4-.4 13.2-.6 28.6-.5l27.9.3V225zm60.8 0v11h-57v-22h57v11zm60 0v11h-57v-22h57v11zm60.2 0v10.5l-28.6.3-28.6.2v-22l28.6.2 28.6.3V225zM103 249.5V260H46v-21h57v10.5zm60 0V260h-57v-21h57v10.5zm60 0V260h-57v-21h57v10.5zm61 0V260h-57.5v-21H284v10.5zm60 0V260h-57v-21h57v10.5zm60 0V260h-57v-21h57v10.5zm-331.2 24-.3 10.6H15.8l-.1-10.6-.2-10.5h57.6l-.3 10.5zm60.2.2v10.8H76V263h57v10.7zm60 0v10.8h-57V263h57v10.7zm60.4-.2-.1 10.6h-56.8l-.3-10.6-.3-10.5h57.6l-.1 10.5zm60.6.2v10.8h-57V263h57v10.7zm60 0v10.8h-57V263h57v10.7zm60.4-.2-.2 10.6h-56.7l-.3-10.6-.3-10.5h57.6l-.1 10.5zm-331.4 25V309H46v-21h57v10.5zm60 0V309h-57v-21h57v10.5zm60 0V309h-57v-21h57v10.5zm61 0V309h-57.5v-21H284v10.5zm60 0V309h-57v-21h57v10.5zm60 0V309h-57v-21h57v10.5zm-331 24V333H15.5v-21H73v10.5zm60 0V333H76v-21h57v10.5zm60 0V333h-57v-21h57v10.5zm60.5 0V333H196v-21h57.5v10.5zm60.5 0V333h-57v-21h57v10.5zm60 0V333h-57v-21h57v10.5zm60.5 0V333H377v-21h57.5v10.5zM103 347.2V358H46v-21.5h57v10.7zm60 0V358h-57v-21.5h57v10.7zm60 0V358h-57v-21.5h57v10.7zm61 .1V358l-28.6-.2-28.6-.3.1-10.3c0-5.6 0-10.3.1-10.5 0-.1 12.8-.2 28.5-.2H284v10.8zm60-.1V358h-57v-21.5h57v10.7zm60 0V358h-57v-21.5h57v10.7zM73 371.5V382H15.5v-21H73v10.5zm60 0V382H76v-21h57v10.5zm60 0V382h-57v-21h57v10.5zm60.5 0V382H196v-21h57.5v10.5zm60.5 0V382h-57v-21h57v10.5zm60 0V382h-57v-21h57v10.5zm60.5 0V382H377v-21h57.5v10.5zM103 395.7v10.8H46V385h57v10.7zm60 0v10.8h-57V385h57v10.7zm60 0v10.8h-57V385h57v10.7zm61 0v10.8l-28.6-.2-28.6-.2.1-10.1c0-5.5 0-10.2.1-10.5 0-.3 12.8-.5 28.5-.5H284v10.7zm60 0v10.8h-57V385h57v10.7zm60 0v10.8h-57V385h57v10.7zM73 420.5V431H15.5v-21H73v10.5zm60 0V431H76v-21h57v10.5zm60 0V431h-57v-21h57v10.5zm60.5 0V431H196v-21h57.5v10.5zm60.5 0V431h-57v-21h57v10.5zm60 0V431h-57v-21h57v10.5zm60.5 0V431H377v-21h57.5v10.5z"/>
  <path d="M61.3.7c7 .2 18.4.2 25.5 0C93.8.6 88 .4 74 .4S54.2.6 61.3.7zM122.3.7c7.1.2 18.3.2 25 0 6.7-.1 1-.3-12.8-.3-13.7 0-19.2.2-12.2.3zM182.3.7c7 .2 18.4.2 25.5 0 7-.1 1.2-.3-12.8-.3s-19.8.2-12.7.3zM242.3.7c7 .2 18.4.2 25.5 0 7-.1 1.2-.3-12.8-.3s-19.8.2-12.7.3zM303.3.7c7.1.2 18.3.2 25 0 6.7-.1 1-.3-12.8-.3-13.7 0-19.2.2-12.2.3zM363.3.7c7 .2 18.4.2 25.5 0 7-.1 1.2-.3-12.8-.3s-19.8.2-12.7.3zM429.7.7l19.2.3.4 5.8.3 5.7.2-6.3.2-6.2-19.7.2-19.8.3 19.2.2zM.3 7c0 3 .2 4.3.4 2.7.2-1.5.2-3.9 0-5.5C.5 2.7.3 4 .3 7zM.3 29.5c0 3.8.2 5.3.4 3.2.2-2 .2-5.2 0-7-.2-1.7-.4-.1-.4 3.8zM449.3 30c0 4.1.2 5.8.4 3.7.2-2 .2-5.4 0-7.5-.2-2-.4-.3-.4 3.8zM449.3 54c0 4.1.2 5.8.4 3.7.2-2 .2-5.4 0-7.5-.2-2-.4-.3-.4 3.8zM.3 54c0 3.6.2 5 .4 3.2.2-1.7.2-4.7 0-6.5C.5 49 .3 50.4.3 54zM.3 78.5c0 3.8.2 5.3.4 3.2.2-2 .2-5.2 0-7-.2-1.7-.4-.1-.4 3.8zM449.3 78.5c0 3.8.2 5.3.4 3.2.2-2 .2-5.2 0-7-.2-1.7-.4-.1-.4 3.8zM.3 102.5c0 3.8.2 5.3.4 3.2.2-2 .2-5.2 0-7-.2-1.7-.4-.1-.4 3.8zM449.3 103c0 4.1.2 5.8.4 3.7.2-2 .2-5.4 0-7.5-.2-2-.4-.3-.4 3.8zM.3 127.5c0 3.8.2 5.3.4 3.2.2-2 .2-5.2 0-7-.2-1.7-.4-.1-.4 3.8zM449.3 127.5c0 3.8.2 5.3.4 3.2.2-2 .2-5.2 0-7-.2-1.7-.4-.1-.4 3.8zM.3 151.5c0 3.8.2 5.3.4 3.2.2-2 .2-5.2 0-7-.2-1.7-.4-.1-.4 3.8zM449.3 152c0 4.1.2 5.8.4 3.7.2-2 .2-5.4 0-7.5-.2-2-.4-.3-.4 3.8zM449.3 176c0 4.1.2 5.8.4 3.7.2-2 .2-5.4 0-7.5-.2-2-.4-.3-.4 3.8zM.3 176.5c0 3.8.2 5.3.4 3.2.2-2 .2-5.2 0-7-.2-1.7-.4-.1-.4 3.8zM.3 200.5c0 3.8.2 5.3.4 3.2.2-2 .2-5.2 0-7-.2-1.7-.4-.1-.4 3.8zM449.3 200.5c0 3.8.2 5.3.4 3.2.2-2 .2-5.2 0-7-.2-1.7-.4-.1-.4 3.8zM449.3 225c0 4.1.2 5.8.4 3.7.2-2 .2-5.4 0-7.5-.2-2-.4-.3-.4 3.8zM.3 225.5c0 3.8.2 5.3.4 3.2.2-2 .2-5.2 0-7-.2-1.7-.4-.1-.4 3.8zM.3 249.5c0 3.8.2 5.3.4 3.2.2-2 .2-5.2 0-7-.2-1.7-.4-.1-.4 3.8zM449.3 249.5c0 3.8.2 5.3.4 3.2.2-2 .2-5.2 0-7-.2-1.7-.4-.1-.4 3.8zM.3 273.5c0 3.8.2 5.3.4 3.2.2-2 .2-5.2 0-7-.2-1.7-.4-.1-.4 3.8zM449.3 274c0 4.1.2 5.8.4 3.7.2-2 .2-5.4 0-7.5-.2-2-.4-.3-.4 3.8zM449.3 298c0 4.1.2 5.8.4 3.7.2-2 .2-5.4 0-7.5-.2-2-.4-.3-.4 3.8zM.3 298.5c0 3.8.2 5.3.4 3.2.2-2 .2-5.2 0-7-.2-1.7-.4-.1-.4 3.8zM.3 322.5c0 3.8.2 5.3.4 3.2.2-2 .2-5.2 0-7-.2-1.7-.4-.1-.4 3.8zM449.3 322.5c0 3.8.2 5.3.4 3.2.2-2 .2-5.2 0-7-.2-1.7-.4-.1-.4 3.8zM449.3 347c0 4.1.2 5.8.4 3.7.2-2 .2-5.4 0-7.5-.2-2-.4-.3-.4 3.8zM.3 347.5c0 3.8.2 5.3.4 3.2.2-2 .2-5.2 0-7-.2-1.7-.4-.1-.4 3.8zM.3 371.5c0 3.8.2 5.3.4 3.2.2-2 .2-5.2 0-7-.2-1.7-.4-.1-.4 3.8zM449.3 371.5c0 3.8.2 5.3.4 3.2.2-2 .2-5.2 0-7-.2-1.7-.4-.1-.4 3.8zM.3 395.5c0 3.8.2 5.3.4 3.2.2-2 .2-5.2 0-7-.2-1.7-.4-.1-.4 3.8zM449.3 396c0 4.1.2 5.8.4 3.7.2-2 .2-5.4 0-7.5-.2-2-.4-.3-.4 3.8zM449.3 420c0 4.1.2 5.8.4 3.7.2-2 .2-5.4 0-7.5-.2-2-.4-.3-.4 3.8zM.3 420.5c0 3.8.2 5.3.4 3.2.2-2 .2-5.2 0-7-.2-1.7-.4-.1-.4 3.8zM.3 443c0 3 .2 4.3.4 2.8.2-1.6.2-4 0-5.5-.2-1.6-.4-.3-.4 2.7zM449.3 443c0 3 .2 4.3.4 2.8.2-1.6.2-4 0-5.5-.2-1.6-.4-.3-.4 2.7zM11.3 449.7c5.4.2 13.9.2 19 0 5.1-.1.7-.3-9.8-.3-10.4 0-14.6.2-9.2.3zM62.3 449.7c7.1.2 18.3.2 25 0 6.7-.1 1-.3-12.8-.3-13.7 0-19.2.2-12.2.3zM122.3 449.7c7.1.2 18.3.2 25 0 6.7-.1 1-.3-12.8-.3-13.7 0-19.2.2-12.2.3zM182.3 449.7c7.1.2 18.3.2 25 0 6.7-.1 1-.3-12.8-.3-13.7 0-19.2.2-12.2.3zM243.3 449.7c7.1.2 18.3.2 25 0 6.7-.1 1-.3-12.8-.3-13.7 0-19.2.2-12.2.3zM303.3 449.7c7.1.2 18.3.2 25 0 6.7-.1 1-.3-12.8-.3-13.7 0-19.2.2-12.2.3zM363.3 449.7c7.1.2 18.3.2 25 0 6.7-.1 1-.3-12.8-.3-13.7 0-19.2.2-12.2.3zM420.3 449.7c5.4.2 13.9.2 19 0 5.1-.1.7-.3-9.8-.3-10.4 0-14.6.2-9.2.3z"/>
</svg>
