<svg xmlns="http://www.w3.org/2000/svg" viewBox="12.125454545454545 0 286.34727272727275 40.780869565217394" style="max-height: 500px" width="286.34727272727275" height="40.780869565217394" opacity="0.4"><g style="stroke:#ff69b4;stroke-width:0.25mm;fill:#ff69b4" fill="#ff69b4" stroke-width="0.25mm" stroke="#ff69b4" font-size="9pt" fill-rule="evenodd" stroke-linecap="round" id="svgGroup"><path d="M 145.325 30.75 L 145.55 30.95 Q 144.45 32.025 143.188 32.913 A 14.94 14.94 0 0 1 140.472 34.418 A 16.388 16.388 0 0 1 140.425 34.438 A 16.072 16.072 0 0 1 138.227 35.182 A 19.295 19.295 0 0 1 137.125 35.438 A 18.05 18.05 0 0 1 134.981 35.731 A 23.308 23.308 0 0 1 133.15 35.8 A 17.552 17.552 0 0 1 128.662 35.241 A 15.541 15.541 0 0 1 126.65 34.563 Q 123.675 33.325 121.5 31 A 15.798 15.798 0 0 1 118.695 26.777 A 18.967 18.967 0 0 1 118.112 25.363 Q 116.9 22.05 116.9 17.9 A 22.917 22.917 0 0 1 117.305 13.509 A 18.916 18.916 0 0 1 118.112 10.6 Q 119.325 7.3 121.538 4.938 Q 123.75 2.575 126.838 1.288 A 16.812 16.812 0 0 1 131.827 0.081 A 20.268 20.268 0 0 1 133.65 0 Q 135.55 0 137.075 0.25 A 14.747 14.747 0 0 1 139.25 0.773 A 13.063 13.063 0 0 1 139.925 1.013 Q 141.25 1.525 142.438 2.3 A 23.806 23.806 0 0 1 143.937 3.366 A 28.465 28.465 0 0 1 144.85 4.1 L 144.775 4.225 A 0.416 0.416 0 0 1 144.71 4.291 Q 144.661 4.33 144.606 4.343 A 0.239 0.239 0 0 1 144.55 4.35 Q 144.35 4.35 144.013 4.063 Q 143.675 3.775 143.113 3.35 A 12.297 12.297 0 0 0 142.654 3.021 Q 142.241 2.738 141.725 2.425 A 9.518 9.518 0 0 0 140.88 1.973 Q 140.426 1.757 139.902 1.557 A 16.059 16.059 0 0 0 139.75 1.5 Q 138.674 1.102 137.281 0.825 A 22.899 22.899 0 0 0 137.087 0.788 Q 135.575 0.5 133.65 0.5 Q 130.1 0.5 127.138 1.713 Q 124.175 2.925 122.038 5.188 A 15.457 15.457 0 0 0 119.27 9.31 A 18.501 18.501 0 0 0 118.7 10.675 A 18.92 18.92 0 0 0 117.669 15.009 A 24.002 24.002 0 0 0 117.5 17.9 Q 117.5 21.975 118.688 25.2 A 17.225 17.225 0 0 0 120.419 28.686 A 14.667 14.667 0 0 0 121.975 30.675 Q 124.075 32.925 126.938 34.113 A 15.786 15.786 0 0 0 132.294 35.28 A 18.391 18.391 0 0 0 133.15 35.3 A 25.879 25.879 0 0 0 135.043 35.234 Q 136.06 35.159 136.95 35 A 15.89 15.89 0 0 0 138.931 34.518 A 13.193 13.193 0 0 0 140.013 34.125 Q 141.4 33.55 142.588 32.713 A 23.2 23.2 0 0 0 144.362 31.323 A 26.656 26.656 0 0 0 144.95 30.8 A 0.928 0.928 0 0 1 145.002 30.751 Q 145.091 30.675 145.15 30.675 A 0.239 0.239 0 0 1 145.32 30.745 A 0.313 0.313 0 0 1 145.325 30.75 Z M 180.4 35.4 L 179.8 35.4 L 179.8 10.9 L 179.95 10.9 A 0.436 0.436 0 0 1 180.097 10.923 Q 180.289 10.992 180.299 11.269 A 0.861 0.861 0 0 1 180.3 11.3 L 180.375 16.025 Q 181.225 14.775 182.288 13.75 Q 183.35 12.725 184.575 12 Q 185.8 11.275 187.15 10.888 Q 188.5 10.5 189.95 10.5 A 10.877 10.877 0 0 1 192.295 10.737 Q 193.806 11.071 194.917 11.875 A 6.099 6.099 0 0 1 196.037 12.925 A 8.088 8.088 0 0 1 197.539 15.805 Q 198.05 17.508 198.05 19.7 L 198.05 35.4 L 197.45 35.4 L 197.45 19.7 Q 197.45 17.65 197 16.038 A 8.016 8.016 0 0 0 196.362 14.42 A 6.553 6.553 0 0 0 195.612 13.3 Q 194.675 12.175 193.263 11.588 Q 191.891 11.017 190.061 11.001 A 12.148 12.148 0 0 0 189.95 11 Q 187.075 11 184.65 12.538 Q 182.225 14.075 180.4 16.775 L 180.4 35.4 Z M 206.8 35.4 L 206.2 35.4 L 206.2 10.9 L 206.35 10.9 A 0.436 0.436 0 0 1 206.497 10.923 Q 206.689 10.992 206.699 11.269 A 0.861 0.861 0 0 1 206.7 11.3 L 206.775 16.025 Q 207.625 14.775 208.688 13.75 Q 209.75 12.725 210.975 12 Q 212.2 11.275 213.55 10.888 Q 214.9 10.5 216.35 10.5 A 10.877 10.877 0 0 1 218.695 10.737 Q 220.206 11.071 221.317 11.875 A 6.099 6.099 0 0 1 222.437 12.925 A 8.088 8.088 0 0 1 223.939 15.805 Q 224.45 17.508 224.45 19.7 L 224.45 35.4 L 223.85 35.4 L 223.85 19.7 Q 223.85 17.65 223.4 16.038 A 8.016 8.016 0 0 0 222.762 14.42 A 6.553 6.553 0 0 0 222.012 13.3 Q 221.075 12.175 219.663 11.588 Q 218.291 11.017 216.461 11.001 A 12.148 12.148 0 0 0 216.35 11 Q 213.475 11 211.05 12.538 Q 208.625 14.075 206.8 16.775 L 206.8 35.4 Z M 99.55 12.9 L 99.45 13.05 A 0.41 0.41 0 0 1 99.383 13.129 A 0.266 0.266 0 0 1 99.2 13.2 A 0.358 0.358 0 0 1 99.081 13.176 Q 98.906 13.114 98.641 12.887 A 3.862 3.862 0 0 1 98.612 12.863 A 4.011 4.011 0 0 0 98.336 12.644 Q 98.017 12.413 97.554 12.15 A 13.191 13.191 0 0 0 97.488 12.113 A 7.287 7.287 0 0 0 96.824 11.788 Q 96.492 11.644 96.107 11.509 A 14.356 14.356 0 0 0 95.625 11.35 A 6.975 6.975 0 0 0 94.624 11.123 Q 94.103 11.042 93.502 11.015 A 14.099 14.099 0 0 0 92.85 11 Q 91.3 11 90.013 11.475 A 7.831 7.831 0 0 0 88.611 12.149 A 6.542 6.542 0 0 0 87.8 12.738 A 5.806 5.806 0 0 0 86.515 14.266 A 5.507 5.507 0 0 0 86.362 14.55 Q 85.85 15.575 85.85 16.7 Q 85.85 18.025 86.475 18.913 A 5.243 5.243 0 0 0 87.798 20.209 A 6.191 6.191 0 0 0 88.112 20.413 A 10.272 10.272 0 0 0 89.49 21.105 A 12.812 12.812 0 0 0 90.425 21.45 Q 91.725 21.875 93.075 22.288 Q 94.425 22.7 95.725 23.163 Q 97.025 23.625 98.038 24.325 Q 99.05 25.025 99.675 26.038 Q 100.274 27.008 100.299 28.426 A 7.056 7.056 0 0 1 100.3 28.55 Q 100.3 30.05 99.763 31.375 Q 99.225 32.7 98.2 33.675 A 7.156 7.156 0 0 1 96.488 34.87 A 8.76 8.76 0 0 1 95.688 35.225 A 8.398 8.398 0 0 1 93.776 35.705 A 11.043 11.043 0 0 1 92.3 35.8 A 14.158 14.158 0 0 1 91.121 35.753 Q 90.489 35.7 89.938 35.588 A 10.603 10.603 0 0 1 88.524 35.198 A 9.233 9.233 0 0 1 88.013 35 Q 87.125 34.625 86.363 34.075 A 17.8 17.8 0 0 1 85.044 33.022 A 19.823 19.823 0 0 1 84.85 32.85 L 85 32.7 A 2.079 2.079 0 0 1 85.044 32.657 Q 85.086 32.618 85.118 32.593 A 0.559 0.559 0 0 1 85.125 32.588 Q 85.175 32.55 85.3 32.55 A 0.314 0.314 0 0 1 85.415 32.576 Q 85.612 32.656 85.95 32.975 A 5.676 5.676 0 0 0 86.302 33.279 Q 86.491 33.43 86.718 33.591 A 13.747 13.747 0 0 0 87.213 33.925 Q 87.895 34.366 88.876 34.736 A 13.745 13.745 0 0 0 89.262 34.875 A 7.159 7.159 0 0 0 90.43 35.162 Q 91.273 35.3 92.3 35.3 A 10.549 10.549 0 0 0 93.897 35.185 A 7.837 7.837 0 0 0 95.488 34.775 A 7.369 7.369 0 0 0 96.946 34.038 A 6.184 6.184 0 0 0 97.825 33.338 Q 98.775 32.425 99.263 31.213 A 6.862 6.862 0 0 0 99.746 28.861 A 7.894 7.894 0 0 0 99.75 28.6 Q 99.75 27.311 99.238 26.42 A 3.242 3.242 0 0 0 99.125 26.238 A 5.47 5.47 0 0 0 97.643 24.753 A 6.312 6.312 0 0 0 97.488 24.65 A 9.723 9.723 0 0 0 96.035 23.888 A 11.903 11.903 0 0 0 95.175 23.563 Q 93.875 23.125 92.525 22.725 Q 91.175 22.325 89.875 21.875 A 11.276 11.276 0 0 1 88.397 21.248 A 9.315 9.315 0 0 1 87.563 20.763 Q 86.55 20.1 85.925 19.125 Q 85.317 18.176 85.3 16.778 A 6.639 6.639 0 0 1 85.3 16.7 Q 85.3 15.475 85.85 14.363 Q 86.4 13.25 87.4 12.388 A 7.348 7.348 0 0 1 89.078 11.31 A 8.882 8.882 0 0 1 89.787 11.013 Q 91.175 10.5 92.85 10.5 Q 94.925 10.5 96.5 11.063 A 8.846 8.846 0 0 1 98.43 12.044 A 11.283 11.283 0 0 1 99.55 12.9 Z M 62 21.3 L 43.1 21.3 A 4.908 4.908 0 0 0 43.052 21.832 A 4.335 4.335 0 0 0 43.05 21.975 L 43.05 22.65 Q 43.05 25.7 43.775 28.038 Q 44.5 30.375 45.838 31.963 Q 47.175 33.55 49.063 34.375 A 9.909 9.909 0 0 0 52.126 35.148 A 12.024 12.024 0 0 0 53.25 35.2 A 16.069 16.069 0 0 0 54.839 35.126 Q 55.623 35.048 56.299 34.888 A 8.626 8.626 0 0 0 56.813 34.75 A 17.005 17.005 0 0 0 57.858 34.398 Q 58.391 34.199 58.84 33.982 A 8.626 8.626 0 0 0 59.288 33.75 Q 60.275 33.2 60.788 32.75 Q 61.293 32.306 61.446 32.3 A 0.105 0.105 0 0 1 61.45 32.3 Q 61.533 32.3 61.616 32.369 A 0.497 0.497 0 0 1 61.65 32.4 L 61.75 32.5 Q 61.325 33.025 60.488 33.588 Q 59.65 34.15 58.513 34.625 Q 57.375 35.1 56.025 35.4 Q 54.675 35.7 53.25 35.7 A 12.32 12.32 0 0 1 50.715 35.45 A 9.912 9.912 0 0 1 48.725 34.813 Q 46.725 33.925 45.338 32.25 A 10.831 10.831 0 0 1 43.852 29.863 A 13.863 13.863 0 0 1 43.2 28.15 A 16.329 16.329 0 0 1 42.604 25.303 A 21.881 21.881 0 0 1 42.45 22.65 A 17.527 17.527 0 0 1 42.679 19.759 A 14.253 14.253 0 0 1 43.175 17.713 A 11.796 11.796 0 0 1 44.3 15.222 A 10.083 10.083 0 0 1 45.275 13.875 Q 46.65 12.275 48.638 11.388 Q 50.625 10.5 53.15 10.5 A 9.518 9.518 0 0 1 56.207 10.985 A 8.951 8.951 0 0 1 56.75 11.188 Q 58.425 11.875 59.663 13.225 A 9.036 9.036 0 0 1 61.11 15.371 A 11.197 11.197 0 0 1 61.6 16.538 Q 62.3 18.5 62.3 21.05 A 0.282 0.282 0 0 1 62.29 21.127 A 0.198 0.198 0 0 1 62.213 21.238 A 0.332 0.332 0 0 1 62.068 21.295 A 0.443 0.443 0 0 1 62 21.3 Z M 250.25 21.3 L 231.35 21.3 A 4.908 4.908 0 0 0 231.302 21.832 A 4.335 4.335 0 0 0 231.3 21.975 L 231.3 22.65 Q 231.3 25.7 232.025 28.038 Q 232.75 30.375 234.088 31.963 Q 235.425 33.55 237.313 34.375 A 9.909 9.909 0 0 0 240.376 35.148 A 12.024 12.024 0 0 0 241.5 35.2 A 16.069 16.069 0 0 0 243.089 35.126 Q 243.873 35.048 244.549 34.888 A 8.626 8.626 0 0 0 245.063 34.75 A 17.005 17.005 0 0 0 246.108 34.398 Q 246.641 34.199 247.09 33.982 A 8.626 8.626 0 0 0 247.538 33.75 Q 248.525 33.2 249.038 32.75 Q 249.543 32.306 249.696 32.3 A 0.105 0.105 0 0 1 249.7 32.3 Q 249.783 32.3 249.866 32.369 A 0.497 0.497 0 0 1 249.9 32.4 L 250 32.5 Q 249.575 33.025 248.738 33.588 Q 247.9 34.15 246.763 34.625 Q 245.625 35.1 244.275 35.4 Q 242.925 35.7 241.5 35.7 A 12.32 12.32 0 0 1 238.965 35.45 A 9.912 9.912 0 0 1 236.975 34.813 Q 234.975 33.925 233.588 32.25 A 10.831 10.831 0 0 1 232.102 29.863 A 13.863 13.863 0 0 1 231.45 28.15 A 16.329 16.329 0 0 1 230.854 25.303 A 21.881 21.881 0 0 1 230.7 22.65 A 17.527 17.527 0 0 1 230.929 19.759 A 14.253 14.253 0 0 1 231.425 17.713 A 11.796 11.796 0 0 1 232.55 15.222 A 10.083 10.083 0 0 1 233.525 13.875 Q 234.9 12.275 236.888 11.388 Q 238.875 10.5 241.4 10.5 A 9.518 9.518 0 0 1 244.457 10.985 A 8.951 8.951 0 0 1 245 11.188 Q 246.675 11.875 247.913 13.225 A 9.036 9.036 0 0 1 249.36 15.371 A 11.197 11.197 0 0 1 249.85 16.538 Q 250.55 18.5 250.55 21.05 A 0.282 0.282 0 0 1 250.54 21.127 A 0.198 0.198 0 0 1 250.463 21.238 A 0.332 0.332 0 0 1 250.318 21.295 A 0.443 0.443 0 0 1 250.25 21.3 Z M 70.8 30.75 L 70.8 12.45 L 66.75 12.45 A 0.726 0.726 0 0 1 66.627 12.441 Q 66.406 12.402 66.4 12.21 A 0.346 0.346 0 0 1 66.4 12.2 L 66.4 12.05 L 70.8 11.95 L 71 2.1 Q 71 1.975 71.063 1.863 A 0.237 0.237 0 0 1 71.114 1.797 Q 71.164 1.754 71.235 1.75 A 0.266 0.266 0 0 1 71.25 1.75 L 71.4 1.75 L 71.4 11.95 L 79.75 11.95 L 79.75 12.45 L 71.4 12.45 L 71.4 30.75 A 8.323 8.323 0 0 0 71.448 31.667 Q 71.522 32.337 71.713 32.863 A 4.279 4.279 0 0 0 72.058 33.6 A 3.247 3.247 0 0 0 72.575 34.263 Q 73.125 34.8 73.85 35.05 A 4.653 4.653 0 0 0 75.195 35.296 A 5.326 5.326 0 0 0 75.4 35.3 A 5.748 5.748 0 0 0 76.298 35.233 A 4.159 4.159 0 0 0 77.237 34.975 A 9.069 9.069 0 0 0 77.881 34.681 Q 78.194 34.523 78.456 34.354 A 5.267 5.267 0 0 0 78.575 34.275 A 9.468 9.468 0 0 0 78.958 34.001 Q 79.141 33.862 79.293 33.73 A 4.527 4.527 0 0 0 79.462 33.575 Q 79.8 33.25 79.95 33.25 Q 80.033 33.25 80.116 33.319 A 0.497 0.497 0 0 1 80.15 33.35 L 80.25 33.45 Q 79.875 33.95 79.338 34.388 Q 78.8 34.825 78.163 35.138 Q 77.525 35.45 76.813 35.625 Q 76.1 35.8 75.4 35.8 A 6.356 6.356 0 0 1 74.031 35.661 Q 73.092 35.454 72.396 34.938 A 3.827 3.827 0 0 1 72.025 34.625 A 3.457 3.457 0 0 1 71.209 33.362 Q 70.992 32.804 70.89 32.101 A 9.433 9.433 0 0 1 70.8 30.75 Z M 281.3 30.75 L 281.3 12.45 L 277.25 12.45 A 0.726 0.726 0 0 1 277.127 12.441 Q 276.906 12.402 276.9 12.21 A 0.346 0.346 0 0 1 276.9 12.2 L 276.9 12.05 L 281.3 11.95 L 281.5 2.1 Q 281.5 1.975 281.563 1.863 A 0.237 0.237 0 0 1 281.614 1.797 Q 281.664 1.754 281.735 1.75 A 0.266 0.266 0 0 1 281.75 1.75 L 281.9 1.75 L 281.9 11.95 L 290.25 11.95 L 290.25 12.45 L 281.9 12.45 L 281.9 30.75 A 8.323 8.323 0 0 0 281.948 31.667 Q 282.022 32.337 282.213 32.863 A 4.279 4.279 0 0 0 282.558 33.6 A 3.247 3.247 0 0 0 283.075 34.263 Q 283.625 34.8 284.35 35.05 A 4.653 4.653 0 0 0 285.695 35.296 A 5.326 5.326 0 0 0 285.9 35.3 A 5.748 5.748 0 0 0 286.798 35.233 A 4.159 4.159 0 0 0 287.737 34.975 A 9.069 9.069 0 0 0 288.381 34.681 Q 288.694 34.523 288.956 34.354 A 5.267 5.267 0 0 0 289.075 34.275 A 9.468 9.468 0 0 0 289.458 34.001 Q 289.641 33.862 289.793 33.73 A 4.527 4.527 0 0 0 289.962 33.575 Q 290.3 33.25 290.45 33.25 Q 290.533 33.25 290.616 33.319 A 0.497 0.497 0 0 1 290.65 33.35 L 290.75 33.45 Q 290.375 33.95 289.838 34.388 Q 289.3 34.825 288.663 35.138 Q 288.025 35.45 287.313 35.625 Q 286.6 35.8 285.9 35.8 A 6.356 6.356 0 0 1 284.531 35.661 Q 283.592 35.454 282.896 34.938 A 3.827 3.827 0 0 1 282.525 34.625 A 3.457 3.457 0 0 1 281.709 33.362 Q 281.492 32.804 281.39 32.101 A 9.433 9.433 0 0 1 281.3 30.75 Z M 21.85 0.4 L 21.85 34.85 L 39.7 34.85 L 39.7 35.4 L 21.25 35.4 L 21.25 0.4 L 21.85 0.4 Z M 273.35 13.05 L 273.2 13.2 A 0.451 0.451 0 0 1 273.139 13.252 Q 273.07 13.3 273 13.3 Q 272.85 13.3 272.438 12.938 Q 272.025 12.575 271.238 12.15 A 8.107 8.107 0 0 0 270.532 11.815 Q 270.179 11.667 269.771 11.527 A 15.809 15.809 0 0 0 269.263 11.363 A 7.661 7.661 0 0 0 268.13 11.115 Q 267.564 11.032 266.918 11.009 A 14.44 14.44 0 0 0 266.4 11 Q 264.025 11 262.15 11.85 Q 260.275 12.7 258.975 14.275 A 10.184 10.184 0 0 0 257.533 16.633 A 12.817 12.817 0 0 0 256.987 18.1 Q 256.3 20.35 256.3 23.15 A 20.855 20.855 0 0 0 256.451 25.723 Q 256.622 27.099 256.988 28.288 A 12.23 12.23 0 0 0 257.853 30.409 A 9.6 9.6 0 0 0 258.95 32.063 Q 260.225 33.6 262.013 34.4 A 9.201 9.201 0 0 0 264.86 35.144 A 11.265 11.265 0 0 0 266 35.2 Q 267.569 35.2 268.75 34.909 A 7.181 7.181 0 0 0 269.3 34.75 A 13.954 13.954 0 0 0 270.246 34.398 Q 270.978 34.094 271.525 33.75 A 12.439 12.439 0 0 0 272.03 33.416 Q 272.507 33.083 272.808 32.791 A 3.667 3.667 0 0 0 272.85 32.75 A 5.975 5.975 0 0 1 273.008 32.597 Q 273.328 32.3 273.45 32.3 Q 273.533 32.3 273.616 32.369 A 0.497 0.497 0 0 1 273.65 32.4 L 273.75 32.5 A 3.844 3.844 0 0 1 273.371 32.966 Q 273.164 33.187 272.901 33.41 A 7.561 7.561 0 0 1 272.65 33.613 A 7.874 7.874 0 0 1 271.761 34.206 A 10.383 10.383 0 0 1 270.925 34.638 A 10.98 10.98 0 0 1 269.649 35.129 A 13.865 13.865 0 0 1 268.675 35.4 A 10.973 10.973 0 0 1 266.745 35.679 A 12.903 12.903 0 0 1 266 35.7 Q 263.625 35.7 261.725 34.85 Q 259.825 34 258.488 32.388 A 10.512 10.512 0 0 1 257.025 30.029 A 13.39 13.39 0 0 1 256.425 28.45 A 15.464 15.464 0 0 1 255.859 25.796 A 20.975 20.975 0 0 1 255.7 23.15 Q 255.7 20.3 256.425 17.963 A 12.54 12.54 0 0 1 257.446 15.55 A 10.319 10.319 0 0 1 258.525 13.975 Q 259.9 12.325 261.888 11.413 A 9.956 9.956 0 0 1 264.801 10.598 A 12.641 12.641 0 0 1 266.4 10.5 Q 268.625 10.5 270.363 11.213 A 10.888 10.888 0 0 1 272.344 12.264 A 9.278 9.278 0 0 1 273.35 13.05 Z M 162.2 10.5 Q 164.775 10.5 166.775 11.413 Q 168.775 12.325 170.138 13.975 A 10.561 10.561 0 0 1 171.698 16.569 A 13.131 13.131 0 0 1 172.2 17.963 A 16.47 16.47 0 0 1 172.793 21.002 A 20.932 20.932 0 0 1 172.9 23.15 A 20.047 20.047 0 0 1 172.702 26.026 A 15.619 15.619 0 0 1 172.2 28.313 A 12.235 12.235 0 0 1 171.169 30.765 A 10.225 10.225 0 0 1 170.137 32.275 Q 168.775 33.925 166.775 34.813 A 10.193 10.193 0 0 1 164.05 35.575 A 13.244 13.244 0 0 1 162.2 35.7 A 12.939 12.939 0 0 1 159.825 35.492 A 9.828 9.828 0 0 1 157.613 34.813 Q 155.625 33.925 154.263 32.275 A 10.69 10.69 0 0 1 152.646 29.561 A 13.125 13.125 0 0 1 152.2 28.313 A 16.081 16.081 0 0 1 151.616 25.377 A 20.732 20.732 0 0 1 151.5 23.15 A 20.115 20.115 0 0 1 151.709 20.186 A 15.919 15.919 0 0 1 152.2 17.963 A 12.339 12.339 0 0 1 153.193 15.558 A 10.14 10.14 0 0 1 154.263 13.975 Q 155.625 12.325 157.613 11.413 A 9.837 9.837 0 0 1 160.262 10.639 A 12.976 12.976 0 0 1 162.2 10.5 Z M 162.2 35.2 A 12.162 12.162 0 0 0 164.412 35.008 A 9.212 9.212 0 0 0 166.6 34.325 Q 168.5 33.45 169.763 31.875 A 10.023 10.023 0 0 0 171.19 29.434 A 12.553 12.553 0 0 0 171.662 28.075 A 16.306 16.306 0 0 0 172.203 25.187 A 20.67 20.67 0 0 0 172.3 23.15 Q 172.3 20.45 171.663 18.213 A 12.037 12.037 0 0 0 170.748 15.897 A 9.877 9.877 0 0 0 169.763 14.375 Q 168.5 12.775 166.6 11.888 A 9.283 9.283 0 0 0 164.062 11.135 A 12.304 12.304 0 0 0 162.2 11 A 12.136 12.136 0 0 0 159.99 11.192 A 9.006 9.006 0 0 0 157.788 11.888 Q 155.9 12.775 154.638 14.375 A 10.298 10.298 0 0 0 153.197 16.876 A 12.812 12.812 0 0 0 152.737 18.213 A 16.536 16.536 0 0 0 152.19 21.19 A 20.809 20.809 0 0 0 152.1 23.15 A 19.839 19.839 0 0 0 152.296 25.999 A 15.735 15.735 0 0 0 152.738 28.075 A 11.84 11.84 0 0 0 153.622 30.314 A 9.636 9.636 0 0 0 154.638 31.875 Q 155.9 33.45 157.788 34.325 Q 159.675 35.2 162.2 35.2 Z M 43.125 20.85 L 61.75 20.85 A 14.849 14.849 0 0 0 61.607 18.742 A 10.971 10.971 0 0 0 61.1 16.638 A 9.628 9.628 0 0 0 60.221 14.78 A 7.892 7.892 0 0 0 59.287 13.55 Q 58.125 12.3 56.55 11.65 A 8.727 8.727 0 0 0 53.49 11.006 A 10.057 10.057 0 0 0 53.15 11 A 11.708 11.708 0 0 0 50.936 11.201 A 9.382 9.382 0 0 0 49.188 11.713 Q 47.425 12.425 46.15 13.713 Q 44.875 15 44.113 16.825 A 13.454 13.454 0 0 0 43.294 19.642 A 16.096 16.096 0 0 0 43.125 20.85 Z M 231.375 20.85 L 250 20.85 A 14.849 14.849 0 0 0 249.857 18.742 A 10.971 10.971 0 0 0 249.35 16.638 A 9.628 9.628 0 0 0 248.471 14.78 A 7.892 7.892 0 0 0 247.537 13.55 Q 246.375 12.3 244.8 11.65 A 8.727 8.727 0 0 0 241.74 11.006 A 10.057 10.057 0 0 0 241.4 11 A 11.708 11.708 0 0 0 239.186 11.201 A 9.382 9.382 0 0 0 237.438 11.713 Q 235.675 12.425 234.4 13.713 Q 233.125 15 232.363 16.825 A 13.454 13.454 0 0 0 231.544 19.642 A 16.096 16.096 0 0 0 231.375 20.85 Z M 0 0.4 L 0.5 0.4 L 0.5 7.75 L 0.45 11.55 Q 0.45 11.75 0.25 11.75 Q 0.05 11.75 0.05 11.55 L 0 7.75 L 0 0.4 Z M 307.3 0.4 L 307.8 0.4 L 307.8 7.75 L 307.75 11.55 Q 307.75 11.75 307.55 11.75 Q 307.35 11.75 307.35 11.55 L 307.3 7.75 L 307.3 0.4 Z"/></g></svg>
