<svg id="visual" viewBox="0 0 960 540" width="960" height="540" xmlns="http://www.w3.org/2000/svg"
  xmlns:xlink="http://www.w3.org/1999/xlink" version="1.1">
  <rect x="0" y="0" width="960" height="540" fill="#f2e7db"></rect>
  <defs>
    <linearGradient id="grad1_0" x1="43.8%" y1="100%" x2="100%" y2="0%">
      <stop offset="14.444444444444446%" stop-color="#c2bccd" stop-opacity="1"></stop>
      <stop offset="85.55555555555554%" stop-color="#c2bccd" stop-opacity="1"></stop>
    </linearGradient>
  </defs>
  <defs>
    <linearGradient id="grad1_1" x1="43.8%" y1="100%" x2="100%" y2="0%">
      <stop offset="14.444444444444446%" stop-color="#c2bccd" stop-opacity="1"></stop>
      <stop offset="85.55555555555554%" stop-color="#f2e7db" stop-opacity="1"></stop>
    </linearGradient>
  </defs>
  <defs>
    <linearGradient id="grad2_0" x1="0%" y1="100%" x2="56.3%" y2="0%">
      <stop offset="14.444444444444446%" stop-color="#c2bccd" stop-opacity="1"></stop>
      <stop offset="85.55555555555554%" stop-color="#c2bccd" stop-opacity="1"></stop>
    </linearGradient>
  </defs>
  <defs>
    <linearGradient id="grad2_1" x1="0%" y1="100%" x2="56.3%" y2="0%">
      <stop offset="14.444444444444446%" stop-color="#f2e7db" stop-opacity="1"></stop>
      <stop offset="85.55555555555554%" stop-color="#c2bccd" stop-opacity="1"></stop>
    </linearGradient>
  </defs>
  <g transform="translate(960, 540)">
    <path
      d="M-432 0C-387.5 -56 -343.1 -112 -312.6 -180.5C-282.2 -249 -265.8 -330.1 -216 -374.1C-166.2 -418.1 -83.1 -425.1 0 -432L0 0Z"
      fill="#e5ced1"></path>
    <path
      d="M-216 0C-193.8 -28 -171.5 -56 -156.3 -90.3C-141.1 -124.5 -132.9 -165.1 -108 -187.1C-83.1 -209.1 -41.6 -212.5 0 -216L0 0Z"
      fill="#c2bccd"></path>
  </g>
  <g transform="translate(0, 0)">
    <path
      d="M432 0C379.2 51.2 326.4 102.4 297 171.5C267.6 240.6 261.6 327.7 216 374.1C170.4 420.5 85.2 426.3 0 432L0 0Z"
      fill="#e5ced1"></path>
    <path d="M216 0C189.6 25.6 163.2 51.2 148.5 85.7C133.8 120.3 130.8 163.9 108 187.1C85.2 210.3 42.6 213.1 0 216L0 0Z"
      fill="#c2bccd"></path>
  </g>
</svg>
