<svg xmlns="http://www.w3.org/2000/svg" xmlns:xlink="http://www.w3.org/1999/xlink" id="visual" version="1.1"
  viewBox="0 0 900 101">
  <rect x="0" y="0" width="900" height="100" fill="rgba(0,34,51,0)"></rect>
  <path
    d="M0 43L13.7 45.5C27.3 48 54.7 53 82 51C109.3 49 136.7 40 163.8 42.7C191 45.3 218 59.7 245.2 64.5C272.3 69.3 299.7 64.7 327 59.5C354.3 54.3 381.7 48.7 409 47.8C436.3 47 463.7 51 491 54.8C518.3 58.7 545.7 62.3 573 63.7C600.3 65 627.7 64 654.8 57.7C682 51.3 709 39.7 736.2 40.2C763.3 40.7 790.7 53.3 818 53.8C845.3 54.3 872.7 42.7 886.3 36.8L900 31L900 101L886.3 101C872.7 101 845.3 101 818 101C790.7 101 763.3 101 736.2 101C709 101 682 101 654.8 101C627.7 101 600.3 101 573 101C545.7 101 518.3 101 491 101C463.7 101 436.3 101 409 101C381.7 101 354.3 101 327 101C299.7 101 272.3 101 245.2 101C218 101 191 101 163.8 101C136.7 101 109.3 101 82 101C54.7 101 27.3 101 13.7 101L0 101Z"
    fill="#f5bc66" stroke-linecap="round" stroke-linejoin="miter"></path>
</svg>
