<svg id="visual" viewBox="0 0 960 540" width="960" height="540" xmlns="http://www.w3.org/2000/svg"
  xmlns:xlink="http://www.w3.org/1999/xlink" version="1.1">
  <rect x="0" y="0" width="960" height="540" fill="rgba(0,18,32,0)"></rect>
  <defs>
    <linearGradient id="grad1_0" x1="43.8%" y1="100%" x2="100%" y2="0%">
      <stop offset="14.444444444444446%" stop-color="rgba(0,18,32,0)" stop-opacity="1"></stop>
      <stop offset="85.55555555555554%" stop-color="rgba(0,18,32,0)" stop-opacity="1"></stop>
    </linearGradient>
  </defs>
  <defs>
    <linearGradient id="grad2_0" x1="0%" y1="100%" x2="56.3%" y2="0%">
      <stop offset="14.444444444444446%" stop-color="rgba(0,18,32,0)" stop-opacity="1"></stop>
      <stop offset="85.55555555555554%" stop-color="rgba(0,18,32,0)" stop-opacity="1"></stop>
    </linearGradient>
  </defs>
  <g transform="translate(960, 540)">
    <path
      d="M-243 0C-216.1 -30.4 -189.2 -60.8 -172.3 -99.5C-155.4 -138.2 -148.6 -185.1 -121.5 -210.4C-94.4 -235.7 -47.2 -239.4 0 -243L0 0Z"
      fill="#FBAE3C"></path>
  </g>
  <g transform="translate(0, 0)">
    <path
      d="M243 0C238.6 45.8 234.1 91.7 210.4 121.5C186.7 151.3 143.8 165.1 105.5 182.7C67.2 200.3 33.6 221.7 0 243L0 0Z"
      fill="#FBAE3C"></path>
  </g>
</svg>
