<?xml version="1.0" encoding="utf-8"?>
<!-- Generator: Adobe Illustrator 27.9.0, SVG Export Plug-In . SVG Version: 6.00 Build 0)  -->
<svg version="1.1" id="Layer_1" xmlns="http://www.w3.org/2000/svg" xmlns:xlink="http://www.w3.org/1999/xlink" x="0px" y="0px"
	 width="168.65px" height="50px" viewBox="0 0 168.65 50" style="enable-background:new 0 0 168.65 50;" xml:space="preserve">
<style type="text/css">
	.st0{fill:#CC0033;}
</style>
<g>
	<path class="st0" d="M40.37,26.06l0.8-0.3C47.78,23.27,51,19.5,51,14.25c0-3.64-1.46-6.61-4.45-9.07C43.38,2.61,39.02,1.3,33.6,1.3
		c0,0-30.99,0-32.29,0v6.87c0.2,0,1.64,0,3.76,0v33.67H1.3v6.85h22.02v-6.85h-3.89V27.33h7.98l9.13,14.51h-5.14v6.85h23.85v-6.85
		h-4.51L40.37,26.06z M34.08,18.82l-0.02,0.01c-1.7,1.33-4.21,2-7.46,2h-7.16V8.17c4.88,0,8.83,0,8.83,0c2.76,0,4.91,0.77,6.37,2.29
		c1.07,1.06,1.61,2.39,1.61,3.97C36.25,16.12,35.52,17.6,34.08,18.82L34.08,18.82z"/>
	<path d="M28.28,8.17l-8.84,0v12.66h7.16c3.25,0,5.76-0.67,7.46-2l0.02-0.01c1.44-1.21,2.18-2.69,2.18-4.39
		c0-1.58-0.54-2.91-1.61-3.97C33.18,8.94,31.03,8.17,28.28,8.17L28.28,8.17z M33.26,17.8L33.26,17.8c-1.47,1.15-3.71,1.73-6.66,1.73
		h-5.86V9.47l7.53,0c2.39,0,4.22,0.63,5.43,1.89l0.02,0.02c0.82,0.82,1.22,1.81,1.22,3.04C34.95,15.73,34.4,16.84,33.26,17.8
		L33.26,17.8z"/>
	<path d="M51.46,40.54L42.35,26.7c6.61-2.68,9.95-6.87,9.95-12.45c0-4.05-1.61-7.35-4.93-10.08C43.96,1.4,39.33,0,33.6,0L0,0v9.46
		l3.76,0v31.08H0V50h24.63v-9.46h-3.89v-11.9h5.96l7.49,11.9h-4.08V50h26.45v-9.46H51.46z M55.27,48.7H31.42v-6.85h5.14l-9.13-14.51
		h-7.98v14.51h3.89v6.85H1.3v-6.85h3.76V8.17l-3.76,0V1.3h32.3c5.42,0,9.78,1.3,12.95,3.87C49.54,7.64,51,10.61,51,14.25
		c0,5.26-3.22,9.02-9.83,11.51l-0.8,0.3l10.39,15.78h4.51V48.7z"/>
	<rect x="66.03" width="1.3" height="50"/>
	<g>
		<path d="M84.93,33.41c-0.65-1.1-0.91-1.56-1.56-2.74c-1.66-3-2.16-3.82-2.76-4.08c-0.17-0.07-0.31-0.12-0.53-0.14v6.96h-3.29
			V16.73h6.22c2.95,0,4.9,1.97,4.9,4.9c0,2.5-1.66,4.56-3.72,4.61c0.34,0.26,0.48,0.41,0.7,0.7c0.86,1.08,3.41,5.42,4.01,6.48H84.93
			z M83.17,19.66c-0.38-0.14-1.08-0.24-1.9-0.24h-1.2v4.51h1.13c1.44,0,2.06-0.14,2.52-0.55c0.41-0.38,0.65-0.98,0.65-1.68
			C84.37,20.67,83.97,19.95,83.17,19.66z"/>
		<path d="M102.11,30.58c-0.43,1.32-2.06,3.14-5.66,3.14c-2.54,0-4.42-0.77-5.35-2.23c-0.55-0.86-0.72-1.54-0.72-3.14V16.73h3.43
			V27.7c0,1.03,0.1,1.63,0.29,1.99c0.38,0.74,1.18,1.15,2.28,1.15c1.46,0,2.4-0.72,2.54-1.94c0.05-0.36,0.05-0.6,0.05-1.49V16.73
			h3.41v11.23C102.38,29.55,102.35,29.86,102.11,30.58z"/>
		<path d="M115.54,19.52h-3.98v13.9h-3.41v-13.9h-4.08v-2.78h12.03L115.54,19.52z"/>
		<path d="M123.58,33.6c-2.5,0-4.34-0.82-5.69-2.54c-1.22-1.56-1.78-3.34-1.78-5.83c0-3.53,1.15-6.02,3.48-7.58
			c1.22-0.82,2.47-1.18,4.06-1.18c2.02,0,3.84,0.65,5.3,1.92l-1.78,2.09c-1.08-0.89-2.21-1.3-3.48-1.3c-0.98,0-1.82,0.29-2.4,0.84
			c-1.13,1.08-1.42,2.88-1.42,5.38c0,2.38,0.41,3.91,1.25,4.75c0.62,0.6,1.54,0.94,2.62,0.94c0.74,0,1.34-0.12,1.9-0.41v-3.79h-2.54
			l-0.43-2.74h6.46v7.97C127.42,33.12,125.55,33.6,123.58,33.6z"/>
		<path d="M131.6,33.41V16.73h9.5l-0.43,2.74H135v3.86h4.73v2.74H135v4.46h6.31v2.88H131.6z"/>
		<path d="M151.56,33.41c-0.65-1.1-0.91-1.56-1.56-2.74c-1.66-3-2.16-3.82-2.76-4.08c-0.17-0.07-0.31-0.12-0.53-0.14v6.96h-3.29
			V16.73h6.22c2.95,0,4.9,1.97,4.9,4.9c0,2.5-1.66,4.56-3.72,4.61c0.34,0.26,0.48,0.41,0.7,0.7c0.86,1.08,3.41,5.42,4.01,6.48
			H151.56z M149.81,19.66c-0.38-0.14-1.08-0.24-1.9-0.24h-1.2v4.51h1.13c1.44,0,2.06-0.14,2.52-0.55c0.41-0.38,0.65-0.98,0.65-1.68
			C151.01,20.67,150.6,19.95,149.81,19.66z"/>
		<path d="M161.76,33.77c-1.9,0-4.01-0.55-5.69-1.51l1.25-2.62c1.56,0.82,2.9,1.34,4.58,1.34c1.92,0,2.93-0.79,2.93-2.28
			c0-1.08-0.7-1.75-2.18-2.16l-1.85-0.5c-1.66-0.46-2.69-1.1-3.29-2.11c-0.46-0.74-0.7-1.61-0.7-2.54c0-3.05,2.45-5.16,5.98-5.16
			c2.04,0,4.1,0.62,5.57,1.68l-1.58,2.4c-1.51-0.91-2.64-1.27-3.89-1.27c-1.37,0-2.33,0.79-2.33,1.92c0,0.86,0.46,1.3,1.85,1.68
			l2.02,0.55c2.74,0.74,4.22,2.5,4.22,4.97C168.65,31.54,165.91,33.77,161.76,33.77z"/>
	</g>
</g>
</svg>
