<svg xmlns="http://www.w3.org/2000/svg" version="1.0" opacity="0.03" preserveAspectRatio="xMidYMid meet" viewBox="0 0 450 450">
<metadata>
Created by potrace 1.10, written by Peter Selinger 2001-2011
</metadata>
<g transform="translate(0.000000,450.000000) scale(0.100000,-0.100000)" fill="#000000" stroke="none">
<path d="M98 4493 c57 -2 147 -2 200 0 53 1 7 3 -103 3 -110 0 -154 -2 -97 -3z"/>
<path d="M422 4420 l3 -80 -212 0 c-183 0 -213 -2 -213 -15 0 -12 13 -15 60 -15 l60 0 0 -105 0 -105 -60 0 c-54 0 -60 -2 -60 -20 0 -20 5 -21 211 -20 l210 2 2 -106 2 -106 -212 0 c-183 0 -213 -2 -213 -15 0 -12 13 -15 60 -15 l60 0 0 -105 0 -105 -60 0 c-46 0 -60 -3 -60 -15 0 -12 33 -15 211 -17 l211 -3 0 -105 0 -105 -211 -3 c-178 -2 -211 -5 -211 -17 0 -12 14 -15 60 -15 l60 0 0 -105 0 -105 -60 0 c-47 0 -60 -3 -60 -15 0 -13 30 -15 213 -15 l212 0 -2 -106 -2 -106 -210 2 c-209 1 -211 0 -211 -21 0 -19 4 -21 60 -17 l60 3 0 -107 0 -108 -60 0 c-47 0 -60 -3 -60 -15 0 -13 30 -15 213 -15 l212 0 0 -105 0 -105 -212 0 c-196 0 -213 -1 -213 -17 0 -16 8 -18 60 -15 l60 4 0 -111 0 -111 -60 0 c-47 0 -60 -3 -60 -15 0 -13 30 -15 213 -15 l212 0 0 -105 0 -105 -212 0 c-183 0 -213 -2 -213 -15 0 -12 13 -15 60 -15 l60 0 0 -107 0 -108 -60 3 c-55 4 -60 2 -60 -17 0 -21 4 -21 213 -21 l212 0 0 -105 0 -105 -212 0 c-183 0 -213 -2 -213 -15 0 -12 13 -15 60 -15 l60 0 0 -105 0 -105 -60 0 c-52 0 -60 -3 -60 -19 0 -17 11 -18 211 -18 l211 0 0 -104 0 -104 -211 -3 c-178 -2 -211 -5 -211 -17 0 -12 14 -15 60 -15 l60 0 0 -105 0 -105 -60 0 c-46 0 -60 -3 -60 -15 0 -12 33 -15 211 -17 l211 -3 0 -104 0 -103 -211 1 c-207 2 -211 2 -211 -18 0 -19 6 -21 60 -21 l60 0 0 -105 0 -105 -60 0 c-47 0 -60 -3 -60 -15 0 -13 30 -15 213 -15 l212 0 -3 -80 c-4 -76 -3 -80 17 -80 20 0 21 5 21 80 l0 80 285 0 285 0 0 -80 c0 -64 3 -80 15 -80 12 0 15 16 15 80 l0 80 285 0 285 0 0 -80 c0 -64 3 -80 15 -80 12 0 15 16 15 80 l0 80 285 0 285 0 0 -80 c0 -75 1 -80 21 -80 20 0 21 4 17 80 l-3 80 287 0 288 0 0 -80 c0 -64 3 -80 15 -80 12 0 15 16 15 80 l0 80 285 0 285 0 0 -80 c0 -64 3 -80 15 -80 12 0 15 16 15 80 l0 80 285 0 285 0 0 -80 c0 -75 1 -80 21 -80 21 0 22 3 16 80 l-5 80 214 0 c184 0 214 2 214 15 0 12 -13 15 -60 15 l-60 0 0 105 0 105 60 0 c54 0 60 2 60 21 0 20 -4 20 -212 18 l-212 -1 0 106 -1 106 213 0 c182 0 212 2 212 15 0 12 -13 15 -60 15 l-60 0 0 105 0 105 60 0 c47 0 60 3 60 15 0 13 -30 15 -212 15 l-213 0 1 107 1 106 212 0 c200 0 211 1 211 18 0 16 -8 19 -60 19 l-60 0 0 105 0 105 60 0 c47 0 60 3 60 15 0 13 -30 15 -212 15 l-213 0 0 105 0 105 213 0 c208 0 212 0 212 21 0 19 -5 21 -60 17 l-60 -3 0 108 0 107 60 0 c47 0 60 3 60 15 0 13 -30 15 -212 15 l-213 0 0 105 0 105 213 0 c182 0 212 2 212 15 0 12 -13 15 -60 15 l-60 0 0 111 0 111 60 -4 c52 -3 60 -1 60 15 0 16 -17 17 -212 17 l-213 0 0 105 0 105 213 0 c182 0 212 2 212 15 0 12 -13 15 -60 15 l-60 0 0 108 0 107 60 -3 c56 -4 60 -2 60 17 0 21 -2 22 -211 21 l-212 -2 -1 106 -1 106 213 0 c182 0 212 2 212 15 0 12 -13 15 -60 15 l-60 0 0 105 0 105 60 0 c46 0 60 3 60 15 0 12 -33 15 -212 17 l-211 3 0 105 0 105 211 3 c179 2 212 5 212 17 0 12 -14 15 -60 15 l-60 0 0 105 0 105 60 0 c47 0 60 3 60 15 0 13 -30 15 -212 15 l-213 0 1 106 0 106 212 -2 c207 -1 212 0 212 20 0 18 -6 20 -60 20 l-60 0 0 105 0 105 60 0 c47 0 60 3 60 15 0 13 -30 15 -213 15 l-213 0 3 80 c2 74 1 80 -17 80 -18 0 -20 -7 -20 -80 l0 -80 -285 0 -285 0 0 80 c0 64 -3 80 -15 80 -12 0 -15 -16 -15 -80 l0 -80 -285 0 -285 0 0 80 c0 64 -3 80 -15 80 -12 0 -15 -16 -15 -80 l0 -80 -288 0 -287 0 3 80 c4 76 3 80 -17 80 -20 0 -21 -5 -21 -80 l0 -80 -285 0 -285 0 0 80 c0 64 -3 80 -15 80 -12 0 -15 -16 -15 -80 l0 -80 -285 0 -285 0 0 80 c0 64 -3 80 -15 80 -12 0 -15 -16 -15 -80 l0 -80 -285 0 -285 0 0 80 c0 75 -1 80 -21 80 -20 0 -21 -4 -17 -80z m308 -215 l0 -105 -287 0 -288 0 0 105 0 105 288 0 287 0 0 -105z m600 0 l0 -105 -285 0 -285 0 0 105 0 105 285 0 285 0 0 -105z m600 0 l0 -105 -285 0 -285 0 0 105 0 105 285 0 285 0 0 -105z m605 0 l0 -105 -287 0 -288 0 0 105 0 105 288 0 287 0 0 -105z m605 0 l0 -105 -285 0 -285 0 0 105 0 105 285 0 285 0 0 -105z m600 0 l0 -105 -285 0 -285 0 0 105 0 105 285 0 285 0 0 -105z m605 0 l0 -105 -287 0 -288 0 0 105 0 105 288 0 287 0 0 -105z m-3317 -250 l3 -105 -286 0 -285 0 0 108 0 107 282 -2 283 -2 3 -106z m602 3 l0 -108 -285 0 -285 0 0 108 0 107 285 0 285 0 0 -107z m600 0 l0 -108 -285 0 -285 0 0 103 c0 57 2 106 4 108 2 2 131 4 285 4 l281 0 0 -107z m608 -3 l3 -105 -288 0 -288 0 2 107 c1 60 3 108 3 108 0 0 127 -1 282 -2 l283 -2 3 -106z m602 3 l0 -108 -285 0 -285 0 0 108 0 107 285 0 285 0 0 -107z m600 0 l0 -108 -285 0 -285 0 0 103 c0 57 2 106 4 108 2 2 131 4 285 4 l281 0 0 -107z m-3310 -243 l0 -105 -287 0 -288 0 0 105 0 105 288 0 287 0 0 -105z m600 0 l0 -105 -285 0 -285 0 0 105 0 105 285 0 285 0 0 -105z m600 0 l0 -105 -285 0 -285 0 0 105 0 105 285 0 285 0 0 -105z m605 0 l0 -105 -287 0 -288 0 0 105 0 105 288 0 287 0 0 -105z m605 0 l0 -105 -285 0 -285 0 0 105 0 105 285 0 285 0 0 -105z m600 0 l0 -105 -285 0 -285 0 0 105 0 105 285 0 285 0 0 -105z m605 0 l0 -105 -287 0 -288 0 0 105 0 105 288 0 287 0 0 -105z m-3315 -245 l0 -110 -285 0 -285 0 0 110 0 110 285 0 285 0 0 -110z m600 0 l0 -110 -285 0 -285 0 0 110 0 110 285 0 285 0 0 -110z m600 0 l0 -110 -285 0 -285 0 0 110 0 110 285 0 285 0 0 -110z m610 0 l0 -110 -286 2 -286 3 1 103 c0 56 0 104 1 107 0 3 128 5 285 5 l285 0 0 -110z m600 0 l0 -110 -285 0 -285 0 0 110 0 110 285 0 285 0 0 -110z m600 0 l0 -110 -285 0 -285 0 0 110 0 110 285 0 285 0 0 -110z m-3310 -245 l0 -105 -287 0 -288 0 0 105 0 105 288 0 287 0 0 -105z m600 0 l0 -105 -285 0 -285 0 0 105 0 105 285 0 285 0 0 -105z m600 0 l0 -105 -285 0 -285 0 0 105 0 105 285 0 285 0 0 -105z m605 0 l0 -105 -287 0 -288 0 0 105 0 105 288 0 287 0 0 -105z m605 0 l0 -105 -285 0 -285 0 0 105 0 105 285 0 285 0 0 -105z m600 0 l0 -105 -285 0 -285 0 0 105 0 105 285 0 285 0 0 -105z m605 0 l0 -105 -287 0 -288 0 0 105 0 105 288 0 287 0 0 -105z m-3315 -240 l0 -104 -285 -3 -285 -3 0 108 0 107 285 0 285 0 0 -105z m600 -2 l0 -108 -285 0 -285 0 0 108 0 107 285 0 285 0 0 -107z m600 0 l0 -108 -285 3 -285 3 0 104 0 105 285 0 285 0 0 -107z m610 2 l0 -105 -280 0 c-154 0 -282 0 -286 0 -3 0 -6 47 -7 105 l-2 105 288 0 287 0 0 -105z m600 -2 l0 -108 -285 0 -285 0 0 108 0 107 285 0 285 0 0 -107z m600 0 l0 -108 -285 3 -285 3 0 104 0 105 285 0 285 0 0 -107z m-3310 -248 l0 -105 -287 0 -288 0 2 107 c1 60 2 108 3 108 0 0 128 -1 285 -3 l285 -3 0 -104z m600 0 l0 -105 -285 0 -285 0 0 108 0 107 285 -3 285 -3 0 -104z m600 5 l0 -110 -285 0 -285 0 0 105 0 105 283 3 c155 1 283 3 285 5 1 1 2 -47 2 -108z m1210 -5 l0 -105 -285 0 -285 0 0 108 0 107 285 -3 285 -3 0 -104z m600 3 l0 -108 -285 0 -285 0 0 108 0 107 285 0 285 0 0 -107z m604 -2 l1 -106 -287 0 -288 0 0 105 0 105 283 2 c155 2 284 2 286 1 2 -1 4 -49 5 -107z m-1809 -1 l0 -105 -287 0 -288 0 0 105 0 105 288 0 287 0 0 -105z m-1505 -240 l0 -105 -285 0 -285 0 0 105 0 105 285 0 285 0 0 -105z m600 0 l0 -105 -285 0 -285 0 0 105 0 105 285 0 285 0 0 -105z m600 0 l0 -105 -285 0 -285 0 0 105 0 105 285 0 285 0 0 -105z m610 0 l0 -105 -287 0 -288 0 0 105 0 105 288 0 287 0 0 -105z m600 0 l0 -105 -285 0 -285 0 0 105 0 105 285 0 285 0 0 -105z m600 0 l0 -105 -285 0 -285 0 0 105 0 105 285 0 285 0 0 -105z m-3312 -248 l3 -107 -287 2 -286 3 0 103 c1 56 1 104 1 107 1 3 128 4 284 3 l282 -3 3 -108z m602 3 l0 -110 -285 0 -285 0 0 110 0 110 285 0 285 0 0 -110z m600 0 l0 -110 -285 0 -285 0 0 110 0 110 285 0 285 0 0 -110z m602 0 l0 -105 -286 -3 -286 -2 0 103 c0 57 3 107 7 110 4 4 132 6 286 5 l279 -3 0 -105z m608 0 l0 -110 -285 0 -285 0 0 110 0 110 285 0 285 0 0 -110z m600 0 l0 -110 -285 0 -285 0 0 110 0 110 285 0 285 0 0 -110z m602 0 l0 -105 -286 -3 -286 -2 0 110 0 110 286 -2 286 -3 0 -105z m-3312 -245 l0 -105 -285 0 -285 0 0 105 0 105 285 0 285 0 0 -105z m600 0 l0 -105 -285 0 -285 0 0 105 0 105 285 0 285 0 0 -105z m600 0 l0 -105 -285 0 -285 0 0 105 0 105 285 0 285 0 0 -105z m610 0 l0 -105 -287 0 -288 0 0 105 0 105 288 0 287 0 0 -105z m600 0 l0 -105 -285 0 -285 0 0 105 0 105 285 0 285 0 0 -105z m600 0 l0 -105 -285 0 -285 0 0 105 0 105 285 0 285 0 0 -105z m-3312 -240 l-3 -106 -283 0 -284 0 -1 106 -2 105 288 0 288 0 -3 -105z m602 -2 l0 -108 -285 0 -285 0 0 108 0 107 285 0 285 0 0 -107z m600 0 l0 -108 -285 0 -285 0 0 108 0 107 285 0 285 0 0 -107z m604 2 l-1 -106 -284 0 -284 0 -3 106 -3 105 288 0 288 0 -1 -105z m606 -2 l0 -108 -285 0 -285 0 0 108 0 107 285 0 285 0 0 -107z m600 0 l0 -108 -285 0 -285 0 0 108 0 107 285 0 285 0 0 -107z m604 2 l-2 -106 -283 0 -284 0 -3 106 -3 105 288 0 288 0 -1 -105z m-3314 -250 l0 -105 -285 0 -285 0 0 105 0 105 285 0 285 0 0 -105z m600 0 l0 -105 -285 0 -285 0 0 105 0 105 285 0 285 0 0 -105z m600 0 l0 -105 -285 0 -285 0 0 105 0 105 285 0 285 0 0 -105z m610 0 l0 -105 -287 0 -288 0 0 105 0 105 288 0 287 0 0 -105z m600 0 l0 -105 -285 0 -285 0 0 105 0 105 285 0 285 0 0 -105z m600 0 l0 -105 -285 0 -285 0 0 105 0 105 285 0 285 0 0 -105z m-3310 -240 l0 -105 -287 0 -288 0 0 105 0 105 288 0 287 0 0 -105z m600 0 l0 -105 -285 0 -285 0 0 105 0 105 285 0 285 0 0 -105z m600 0 l0 -105 -285 0 -285 0 0 105 0 105 285 0 285 0 0 -105z m605 0 l0 -105 -287 0 -288 0 0 105 0 105 288 0 287 0 0 -105z m605 0 l0 -105 -285 0 -285 0 0 105 0 105 285 0 285 0 0 -105z m600 0 l0 -105 -285 0 -285 0 0 105 0 105 285 0 285 0 0 -105z m605 0 l0 -105 -287 0 -288 0 0 105 0 105 288 0 287 0 0 -105z m-3315 -247 l0 -108 -285 0 -285 0 0 108 0 107 285 0 285 0 0 -107z m600 0 l0 -108 -285 0 -285 0 0 108 0 107 285 0 285 0 0 -107z m600 0 l0 -108 -285 0 -285 0 0 108 0 107 285 0 285 0 0 -107z m610 -1 l0 -107 -286 2 -286 3 1 103 c0 56 0 103 1 105 0 1 128 2 285 2 l285 0 0 -108z m600 1 l0 -108 -285 0 -285 0 0 108 0 107 285 0 285 0 0 -107z m600 0 l0 -108 -285 0 -285 0 0 108 0 107 285 0 285 0 0 -107z m-3310 -243 l0 -105 -287 0 -288 0 0 105 0 105 288 0 287 0 0 -105z m600 0 l0 -105 -285 0 -285 0 0 105 0 105 285 0 285 0 0 -105z m600 0 l0 -105 -285 0 -285 0 0 105 0 105 285 0 285 0 0 -105z m605 0 l0 -105 -287 0 -288 0 0 105 0 105 288 0 287 0 0 -105z m605 0 l0 -105 -285 0 -285 0 0 105 0 105 285 0 285 0 0 -105z m600 0 l0 -105 -285 0 -285 0 0 105 0 105 285 0 285 0 0 -105z m605 0 l0 -105 -287 0 -288 0 0 105 0 105 288 0 287 0 0 -105z m-3315 -242 l0 -108 -285 0 -285 0 0 108 0 107 285 0 285 0 0 -107z m600 0 l0 -108 -285 0 -285 0 0 108 0 107 285 0 285 0 0 -107z m600 0 l0 -108 -285 0 -285 0 0 108 0 107 285 0 285 0 0 -107z m610 0 l0 -108 -286 2 -286 2 1 101 c0 55 0 102 1 105 0 3 128 5 285 5 l285 0 0 -107z m600 0 l0 -108 -285 0 -285 0 0 108 0 107 285 0 285 0 0 -107z m600 0 l0 -108 -285 0 -285 0 0 108 0 107 285 0 285 0 0 -107z m-3310 -248 l0 -105 -287 0 -288 0 0 105 0 105 288 0 287 0 0 -105z m600 0 l0 -105 -285 0 -285 0 0 105 0 105 285 0 285 0 0 -105z m600 0 l0 -105 -285 0 -285 0 0 105 0 105 285 0 285 0 0 -105z m605 0 l0 -105 -287 0 -288 0 0 105 0 105 288 0 287 0 0 -105z m605 0 l0 -105 -285 0 -285 0 0 105 0 105 285 0 285 0 0 -105z m600 0 l0 -105 -285 0 -285 0 0 105 0 105 285 0 285 0 0 -105z m605 0 l0 -105 -287 0 -288 0 0 105 0 105 288 0 287 0 0 -105z"/>
<path d="M613 4493 c70 -2 184 -2 255 0 70 1 12 3 -128 3 -140 0 -198 -2 -127 -3z"/>
<path d="M1223 4493 c71 -2 183 -2 250 0 67 1 10 3 -128 3 -137 0 -192 -2 -122 -3z"/>
<path d="M1823 4493 c70 -2 184 -2 255 0 70 1 12 3 -128 3 -140 0 -198 -2 -127 -3z"/>
<path d="M2423 4493 c70 -2 184 -2 255 0 70 1 12 3 -128 3 -140 0 -198 -2 -127 -3z"/>
<path d="M3033 4493 c71 -2 183 -2 250 0 67 1 10 3 -128 3 -137 0 -192 -2 -122 -3z"/>
<path d="M3633 4493 c70 -2 184 -2 255 0 70 1 12 3 -128 3 -140 0 -198 -2 -127 -3z"/>
<path d="M4297 4493 l192 -3 4 -58 3 -57 2 63 2 62 -197 -2 -198 -3 192 -2z"/>
<path d="M3 4430 c0 -30 2 -43 4 -27 2 15 2 39 0 55 -2 15 -4 2 -4 -28z"/>
<path d="M3 4205 c0 -38 2 -53 4 -32 2 20 2 52 0 70 -2 17 -4 1 -4 -38z"/>
<path d="M4493 4200 c0 -41 2 -58 4 -37 2 20 2 54 0 75 -2 20 -4 3 -4 -38z"/>
<path d="M4493 3960 c0 -41 2 -58 4 -37 2 20 2 54 0 75 -2 20 -4 3 -4 -38z"/>
<path d="M3 3960 c0 -36 2 -50 4 -32 2 17 2 47 0 65 -2 17 -4 3 -4 -33z"/>
<path d="M3 3715 c0 -38 2 -53 4 -32 2 20 2 52 0 70 -2 17 -4 1 -4 -38z"/>
<path d="M4493 3715 c0 -38 2 -53 4 -32 2 20 2 52 0 70 -2 17 -4 1 -4 -38z"/>
<path d="M3 3475 c0 -38 2 -53 4 -32 2 20 2 52 0 70 -2 17 -4 1 -4 -38z"/>
<path d="M4493 3470 c0 -41 2 -58 4 -37 2 20 2 54 0 75 -2 20 -4 3 -4 -38z"/>
<path d="M3 3225 c0 -38 2 -53 4 -32 2 20 2 52 0 70 -2 17 -4 1 -4 -38z"/>
<path d="M4493 3225 c0 -38 2 -53 4 -32 2 20 2 52 0 70 -2 17 -4 1 -4 -38z"/>
<path d="M3 2985 c0 -38 2 -53 4 -32 2 20 2 52 0 70 -2 17 -4 1 -4 -38z"/>
<path d="M4493 2980 c0 -41 2 -58 4 -37 2 20 2 54 0 75 -2 20 -4 3 -4 -38z"/>
<path d="M4493 2740 c0 -41 2 -58 4 -37 2 20 2 54 0 75 -2 20 -4 3 -4 -38z"/>
<path d="M3 2735 c0 -38 2 -53 4 -32 2 20 2 52 0 70 -2 17 -4 1 -4 -38z"/>
<path d="M3 2495 c0 -38 2 -53 4 -32 2 20 2 52 0 70 -2 17 -4 1 -4 -38z"/>
<path d="M4493 2495 c0 -38 2 -53 4 -32 2 20 2 52 0 70 -2 17 -4 1 -4 -38z"/>
<path d="M4493 2250 c0 -41 2 -58 4 -37 2 20 2 54 0 75 -2 20 -4 3 -4 -38z"/>
<path d="M3 2245 c0 -38 2 -53 4 -32 2 20 2 52 0 70 -2 17 -4 1 -4 -38z"/>
<path d="M3 2005 c0 -38 2 -53 4 -32 2 20 2 52 0 70 -2 17 -4 1 -4 -38z"/>
<path d="M4493 2005 c0 -38 2 -53 4 -32 2 20 2 52 0 70 -2 17 -4 1 -4 -38z"/>
<path d="M3 1765 c0 -38 2 -53 4 -32 2 20 2 52 0 70 -2 17 -4 1 -4 -38z"/>
<path d="M4493 1760 c0 -41 2 -58 4 -37 2 20 2 54 0 75 -2 20 -4 3 -4 -38z"/>
<path d="M4493 1520 c0 -41 2 -58 4 -37 2 20 2 54 0 75 -2 20 -4 3 -4 -38z"/>
<path d="M3 1515 c0 -38 2 -53 4 -32 2 20 2 52 0 70 -2 17 -4 1 -4 -38z"/>
<path d="M3 1275 c0 -38 2 -53 4 -32 2 20 2 52 0 70 -2 17 -4 1 -4 -38z"/>
<path d="M4493 1275 c0 -38 2 -53 4 -32 2 20 2 52 0 70 -2 17 -4 1 -4 -38z"/>
<path d="M4493 1030 c0 -41 2 -58 4 -37 2 20 2 54 0 75 -2 20 -4 3 -4 -38z"/>
<path d="M3 1025 c0 -38 2 -53 4 -32 2 20 2 52 0 70 -2 17 -4 1 -4 -38z"/>
<path d="M3 785 c0 -38 2 -53 4 -32 2 20 2 52 0 70 -2 17 -4 1 -4 -38z"/>
<path d="M4493 785 c0 -38 2 -53 4 -32 2 20 2 52 0 70 -2 17 -4 1 -4 -38z"/>
<path d="M3 545 c0 -38 2 -53 4 -32 2 20 2 52 0 70 -2 17 -4 1 -4 -38z"/>
<path d="M4493 540 c0 -41 2 -58 4 -37 2 20 2 54 0 75 -2 20 -4 3 -4 -38z"/>
<path d="M4493 300 c0 -41 2 -58 4 -37 2 20 2 54 0 75 -2 20 -4 3 -4 -38z"/>
<path d="M3 295 c0 -38 2 -53 4 -32 2 20 2 52 0 70 -2 17 -4 1 -4 -38z"/>
<path d="M3 70 c0 -30 2 -43 4 -28 2 16 2 40 0 55 -2 16 -4 3 -4 -27z"/>
<path d="M4493 70 c0 -30 2 -43 4 -28 2 16 2 40 0 55 -2 16 -4 3 -4 -27z"/>
<path d="M113 3 c54 -2 139 -2 190 0 51 1 7 3 -98 3 -104 0 -146 -2 -92 -3z"/>
<path d="M623 3 c71 -2 183 -2 250 0 67 1 10 3 -128 3 -137 0 -192 -2 -122 -3z"/>
<path d="M1223 3 c71 -2 183 -2 250 0 67 1 10 3 -128 3 -137 0 -192 -2 -122 -3z"/>
<path d="M1823 3 c71 -2 183 -2 250 0 67 1 10 3 -128 3 -137 0 -192 -2 -122 -3z"/>
<path d="M2433 3 c71 -2 183 -2 250 0 67 1 10 3 -128 3 -137 0 -192 -2 -122 -3z"/>
<path d="M3033 3 c71 -2 183 -2 250 0 67 1 10 3 -128 3 -137 0 -192 -2 -122 -3z"/>
<path d="M3633 3 c71 -2 183 -2 250 0 67 1 10 3 -128 3 -137 0 -192 -2 -122 -3z"/>
<path d="M4203 3 c54 -2 139 -2 190 0 51 1 7 3 -98 3 -104 0 -146 -2 -92 -3z"/>
</g>
</svg>
